<?xml version="1.0" encoding="UTF-8"?>
<!DOCTYPE svg PUBLIC "-//W3C//DTD SVG 1.1//EN" "http://www.w3.org/Graphics/SVG/1.1/DTD/svg11.dtd">
<svg xmlns="http://www.w3.org/2000/svg" version="1.1" width="781px" height="747px" style="shape-rendering:geometricPrecision; text-rendering:geometricPrecision; image-rendering:optimizeQuality; fill-rule:evenodd; clip-rule:evenodd" xmlns:xlink="http://www.w3.org/1999/xlink">
<g><path style="opacity:1" fill="#e5e5e5" d="M -0.5,-0.5 C 259.833,-0.5 520.167,-0.5 780.5,-0.5C 780.5,248.5 780.5,497.5 780.5,746.5C 684.833,746.5 589.167,746.5 493.5,746.5C 490.961,743.81 487.961,741.643 484.5,740C 478.057,737.445 471.39,735.778 464.5,735C 422.85,733.751 381.183,733.084 339.5,733C 349.175,730.997 358.508,727.997 367.5,724C 427.296,724.434 486.962,722.267 546.5,717.5C 555.377,718.735 564.044,720.902 572.5,724C 578.167,724.667 583.833,724.667 589.5,724C 595.95,721.551 599.283,716.885 599.5,710C 638.804,709.278 640.804,699.611 605.5,681C 599.868,679.54 594.201,678.207 588.5,677C 583.167,676.333 577.833,676.333 572.5,677C 552.698,679.463 532.865,681.63 513,683.5C 500.431,683.714 490.098,679.048 482,669.5C 475.407,657.648 469.907,645.314 465.5,632.5C 468.764,633.324 472.098,633.658 475.5,633.5C 469.55,615.814 464.717,597.814 461,579.5C 460.333,576.833 460.333,574.167 461,571.5C 486.087,552.318 505.754,528.651 520,500.5C 523.23,492.286 526.73,484.286 530.5,476.5C 536.828,481.335 543.828,485.169 551.5,488C 558.352,490.98 565.352,491.647 572.5,490C 574.993,486.692 575.159,483.192 573,479.5C 571.357,477.023 569.524,474.69 567.5,472.5C 567.833,472.167 568.167,471.833 568.5,471.5C 585.131,477.161 602.131,478.661 619.5,476C 629.56,474.285 633.727,468.451 632,458.5C 630.457,456.622 628.624,455.122 626.5,454C 621.363,452.732 616.363,451.066 611.5,449C 634.543,448.459 656.543,443.459 677.5,434C 681.458,431.766 684.958,428.933 688,425.5C 690.829,416.945 687.663,411.779 678.5,410C 669.167,409.667 659.833,409.333 650.5,409C 682.445,397.452 709.945,379.286 733,354.5C 743.507,342.491 751.174,328.825 756,313.5C 756.667,309.5 756.667,305.5 756,301.5C 751.508,297.595 747.008,297.761 742.5,302C 725.712,317.498 707.379,330.498 687.5,341C 724.714,307.443 749.881,266.276 763,217.5C 765.666,206.533 765.999,195.533 764,184.5C 759.748,178.347 755.081,178.014 750,183.5C 736.158,207.86 720.825,231.194 704,253.5C 686.228,272.443 667.395,290.11 647.5,306.5C 634.72,314.396 622.053,322.563 609.5,331C 578.927,347.523 546.261,355.19 511.5,354C 504.03,343.563 496.196,333.396 488,323.5C 484.975,318.459 482.808,313.126 481.5,307.5C 493.118,308.114 502.951,304.114 511,295.5C 511.667,293.833 511.667,292.167 511,290.5C 503.615,284.045 497.948,276.378 494,267.5C 493.126,263.035 492.293,258.702 491.5,254.5C 491.5,254.167 491.5,253.833 491.5,253.5C 500.657,252.461 509.657,250.628 518.5,248C 533.876,245.525 545.543,250.859 553.5,264C 556.298,264.561 558.131,263.394 559,260.5C 566.762,237.296 566.095,214.296 557,191.5C 544.316,169.363 525.149,159.53 499.5,162C 495.416,162.522 491.416,163.355 487.5,164.5C 487.394,161.921 488.061,159.588 489.5,157.5C 517.066,154.434 537.566,140.767 551,116.5C 554.17,109.507 552.003,105.173 544.5,103.5C 540.63,105.172 536.63,105.672 532.5,105C 531.667,104.167 530.833,103.333 530,102.5C 529.465,92.0695 529.965,81.7361 531.5,71.5C 531.499,66.9866 531.166,62.6533 530.5,58.5C 530.59,55.8478 529.924,53.5145 528.5,51.5C 517.859,16.3365 494.526,3.1698 458.5,12C 443.149,17.8411 428.816,25.5078 415.5,35C 386.246,57.1391 357.913,80.4724 330.5,105C 320.103,111.766 308.769,114.433 296.5,113C 292.045,111.021 287.545,109.188 283,107.5C 279.73,108.269 277.563,110.269 276.5,113.5C 275.009,116.186 274.343,119.186 274.5,122.5C 274.505,124.696 274.838,126.696 275.5,128.5C 281.227,157.056 297.227,177.556 323.5,190C 329.932,192.52 336.599,193.686 343.5,193.5C 336.136,228.726 335.636,264.059 342,299.5C 343.336,305.009 345.17,310.343 347.5,315.5C 340.515,318.66 334.182,322.827 328.5,328C 302.228,352.251 279.728,379.418 261,409.5C 259.98,413.71 260.98,417.377 264,420.5C 275.396,431.4 286.896,442.067 298.5,452.5C 288.14,450.494 277.807,448.327 267.5,446C 261.151,445.594 254.817,445.094 248.5,444.5C 242.013,443.346 235.346,443.179 228.5,444C 225.203,444.204 222.203,445.037 219.5,446.5C 217.348,447.077 217.015,448.244 218.5,450C 234.833,457.667 251.167,465.333 267.5,473C 248.426,468.654 229.092,465.321 209.5,463C 189.363,461.645 169.363,462.645 149.5,466C 148.313,467.019 147.313,468.186 146.5,469.5C 147.982,471.483 149.649,473.316 151.5,475C 169.974,484.408 188.974,492.408 208.5,499C 182.149,499.144 155.815,499.81 129.5,501C 123.16,501.601 116.826,502.267 110.5,503C 103.957,505.775 103.957,508.775 110.5,512C 145.526,525.74 181.526,535.24 218.5,540.5C 208.507,541.941 198.841,544.608 189.5,548.5C 147.538,552.911 105.538,553.411 63.5,550C 53.7047,549.234 44.038,547.734 34.5,545.5C 33.0683,545.733 32.5683,546.4 33,547.5C 42.8931,556.537 54.0598,563.704 66.5,569C 82.6231,575.565 99.2898,580.065 116.5,582.5C 120.919,583.972 125.586,584.638 130.5,584.5C 145.135,585.284 159.802,585.784 174.5,586C 161.833,590.333 149.167,594.667 136.5,599C 133.735,601.966 134.068,604.633 137.5,607C 139.788,607.822 142.122,608.489 144.5,609C 169.311,610.418 193.644,608.085 217.5,602C 212.799,605.419 208.966,609.586 206,614.5C 204.813,618.482 206.313,620.149 210.5,619.5C 224.805,616.472 238.472,611.639 251.5,605C 255.3,603.021 258.634,600.521 261.5,597.5C 265.893,595.218 270.059,592.552 274,589.5C 271.594,595.057 269.76,600.891 268.5,607C 274.155,605.505 279.822,603.672 285.5,601.5C 286.626,602.808 286.626,604.142 285.5,605.5C 282.976,610.089 281.642,615.089 281.5,620.5C 283.5,620.5 285.5,620.5 287.5,620.5C 279.591,635.806 269.591,649.64 257.5,662C 247.799,668.4 237.133,671.9 225.5,672.5C 211.829,672.333 198.163,672.5 184.5,673C 181.635,673.183 178.969,673.683 176.5,674.5C 164.912,674.972 153.912,677.806 143.5,683C 140.72,684.812 138.22,686.979 136,689.5C 134.711,692.351 134.211,695.351 134.5,698.5C 134.5,699.5 134.5,700.5 134.5,701.5C 101.996,702.372 69.6622,705.205 37.5,710C 29.9363,711.188 22.6029,713.188 15.5,716C 10.7852,717.613 9.78523,720.28 12.5,724C 25.2541,729.522 38.5874,732.855 52.5,734C 84.0535,737.826 115.72,739.992 147.5,740.5C 152.5,740.5 157.5,740.5 162.5,740.5C 203.353,740.894 244.186,740.228 285,738.5C 288.167,738.667 291.333,738.833 294.5,739C 290.106,740.582 286.439,743.082 283.5,746.5C 188.833,746.5 94.1667,746.5 -0.5,746.5C -0.5,497.5 -0.5,248.5 -0.5,-0.5 Z"/></g>
<g><path style="opacity:1" fill="#040404" d="M 528.5,51.5 C 528.41,54.1522 529.076,56.4855 530.5,58.5C 531.166,62.6533 531.499,66.9866 531.5,71.5C 529.965,81.7361 529.465,92.0695 530,102.5C 530.833,103.333 531.667,104.167 532.5,105C 536.63,105.672 540.63,105.172 544.5,103.5C 552.003,105.173 554.17,109.507 551,116.5C 537.566,140.767 517.066,154.434 489.5,157.5C 487.098,148.285 481.098,143.285 471.5,142.5C 443.303,139.54 416.636,144.54 391.5,157.5C 375.356,164.908 361.356,175.241 349.5,188.5C 348.115,190.883 346.115,192.55 343.5,193.5C 336.599,193.686 329.932,192.52 323.5,190C 297.227,177.556 281.227,157.056 275.5,128.5C 275.413,123.463 275.746,118.463 276.5,113.5C 277.563,110.269 279.73,108.269 283,107.5C 287.545,109.188 292.045,111.021 296.5,113C 308.769,114.433 320.103,111.766 330.5,105C 357.913,80.4724 386.246,57.1391 415.5,35C 428.816,25.5078 443.149,17.8411 458.5,12C 494.526,3.1698 517.859,16.3365 528.5,51.5 Z"/></g>
<g><path style="opacity:1" fill="#f5f5f5" d="M 517.5,89.5 C 518.655,82.6791 518.821,75.6791 518,68.5C 517.851,64.8675 517.018,61.5341 515.5,58.5C 514.172,46.2807 508.506,36.7807 498.5,30C 494.991,28.2406 491.325,27.074 487.5,26.5C 481.013,25.346 474.346,25.1794 467.5,26C 465.277,26.5662 463.277,27.3995 461.5,28.5C 457.188,30.3209 452.855,32.1542 448.5,34C 420.768,52.1936 393.768,71.3603 367.5,91.5C 364.288,91.2876 362.288,89.6209 361.5,86.5C 388.565,59.9452 418.899,37.7785 452.5,20C 468.874,12.7503 485.208,12.7503 501.5,20C 514.459,28.7253 522.293,40.892 525,56.5C 526.911,69.6845 526.744,82.8512 524.5,96C 524.053,100.406 525.053,104.406 527.5,108C 523.74,109.176 520.907,108.01 519,104.5C 517.612,99.6278 517.112,94.6278 517.5,89.5 Z"/></g>
<g><path style="opacity:1" fill="#575757" d="M 487.5,26.5 C 478.716,26.0843 470.049,26.751 461.5,28.5C 463.277,27.3995 465.277,26.5662 467.5,26C 474.346,25.1794 481.013,25.346 487.5,26.5 Z"/></g>
<g><path style="opacity:1" fill="#f5f5f5" d="M 452.5,84.5 C 451.771,79.8696 451.437,75.2029 451.5,70.5C 451.893,67.2149 453.226,64.3816 455.5,62C 455.22,60.605 454.553,59.4383 453.5,58.5C 446.469,63.7765 442.802,62.1098 442.5,53.5C 442.54,51.5711 442.873,49.7378 443.5,48C 445.81,47.5034 448.143,47.3367 450.5,47.5C 450.178,45.2776 450.845,43.4443 452.5,42C 455.167,41.3333 457.833,41.3333 460.5,42C 464.463,45.8826 464.13,49.5493 459.5,53C 460.743,54.1545 461.743,55.4878 462.5,57C 473.848,53.2269 483.848,55.3935 492.5,63.5C 493.021,60.2224 493.187,56.8891 493,53.5C 496.048,49.9905 499.381,49.6572 503,52.5C 503.497,55.146 503.664,57.8127 503.5,60.5C 511.644,61.5482 512.644,65.0482 506.5,71C 503.044,72.123 500.21,71.2896 498,68.5C 497.667,68.8333 497.333,69.1667 497,69.5C 497.742,79.2747 494.909,87.7747 488.5,95C 491.008,98.3381 493.675,101.505 496.5,104.5C 505.033,99.7096 508.2,102.376 506,112.5C 503.865,114.278 501.365,114.945 498.5,114.5C 498.649,117.607 498.149,120.607 497,123.5C 489.134,124.969 485.801,121.635 487,113.5C 487.87,112.892 488.37,112.059 488.5,111C 487.132,108.433 485.632,105.933 484,103.5C 483.422,106.903 482.255,110.07 480.5,113C 476.859,114.315 474.526,113.149 473.5,109.5C 472.54,113.314 470.207,114.814 466.5,114C 465.192,111.645 464.192,109.145 463.5,106.5C 461.822,109.861 459.155,111.528 455.5,111.5C 455.909,107.736 455.909,104.07 455.5,100.5C 453.424,102.288 451.257,103.954 449,105.5C 448.667,108.167 448.333,110.833 448,113.5C 445.805,117.872 442.805,118.539 439,115.5C 438.503,112.854 438.336,110.187 438.5,107.5C 433.195,106.923 431.362,103.923 433,98.5C 436.854,90.6422 441.02,90.6422 445.5,98.5C 449.146,96.1829 452.48,93.5162 455.5,90.5C 453.962,88.7567 452.962,86.7567 452.5,84.5 Z"/></g>
<g><path style="opacity:1" fill="#5e5e5e" d="M 528.5,51.5 C 529.924,53.5145 530.59,55.8478 530.5,58.5C 529.076,56.4855 528.41,54.1522 528.5,51.5 Z"/></g>
<g><path style="opacity:1" fill="#121212" d="M 465.5,65.5 C 471.732,65.5663 474.732,68.7329 474.5,75C 474.315,80.2176 471.815,83.7176 467,85.5C 458.967,79.5763 458.467,72.9096 465.5,65.5 Z"/></g>
<g><path style="opacity:1" fill="#101010" d="M 480.5,70.5 C 483.044,70.1043 485.211,70.771 487,72.5C 487.956,76.572 487.456,80.4054 485.5,84C 482.975,84.8959 480.808,84.3959 479,82.5C 478.083,78.2381 478.583,74.2381 480.5,70.5 Z"/></g>
<g><path style="opacity:1" fill="#919191" d="M 451.5,70.5 C 451.437,75.2029 451.771,79.8696 452.5,84.5C 451.027,81.9831 450.36,79.1498 450.5,76C 450.506,73.9674 450.839,72.134 451.5,70.5 Z"/></g>
<g><path style="opacity:1" fill="#b3b3b3" d="M 515.5,58.5 C 517.018,61.5341 517.851,64.8675 518,68.5C 518.821,75.6791 518.655,82.6791 517.5,89.5C 517.796,79.0918 517.13,68.7585 515.5,58.5 Z"/></g>
<g><path style="opacity:1" fill="#8e9094" d="M 361.5,86.5 C 362.288,89.6209 364.288,91.2876 367.5,91.5C 354.615,102.62 340.948,112.787 326.5,122C 319.251,124.854 311.751,126.687 304,127.5C 295.646,126.989 288.312,123.989 282,118.5C 280.859,115.143 282.025,113.143 285.5,112.5C 293.181,117.187 301.514,118.687 310.5,117C 320.581,114.623 329.914,110.623 338.5,105C 346.041,98.6201 353.708,92.4534 361.5,86.5 Z"/></g>
<g><path style="opacity:1" fill="#222222" d="M 472.5,87.5 C 474.977,89.4159 475.977,92.0825 475.5,95.5C 472.941,95.6104 470.608,94.9438 468.5,93.5C 470.252,91.7541 471.585,89.7541 472.5,87.5 Z"/></g>
<g><path style="opacity:1" fill="#434345" d="M 544.5,115.5 C 545.239,115.369 545.906,115.536 546.5,116C 533.987,135.098 516.653,147.598 494.5,153.5C 492.527,152.194 490.861,150.527 489.5,148.5C 511.146,142.82 529.479,131.82 544.5,115.5 Z"/></g>
<g><path style="opacity:1" fill="#6c6c6c" d="M 276.5,113.5 C 275.746,118.463 275.413,123.463 275.5,128.5C 274.838,126.696 274.505,124.696 274.5,122.5C 274.343,119.186 275.009,116.186 276.5,113.5 Z"/></g>
<g><path style="opacity:1" fill="#454547" d="M 281.5,130.5 C 286.883,138.061 292.883,145.228 299.5,152C 316.021,166.588 335.354,174.588 357.5,176C 353.644,179.1 349.977,182.433 346.5,186C 318.976,183.995 298.81,170.828 286,146.5C 283.582,141.414 282.082,136.081 281.5,130.5 Z"/></g>
<g><path style="opacity:1" fill="#fa0901" d="M 471.5,142.5 C 473.426,143.486 475.426,144.486 477.5,145.5C 480.306,152.971 479.973,160.304 476.5,167.5C 470.512,170.414 465.345,174.414 461,179.5C 460.617,178.944 460.117,178.611 459.5,178.5C 450.8,158.345 435.466,149.845 413.5,153C 402.428,156.579 393.094,162.746 385.5,171.5C 387.5,166.833 389.5,162.167 391.5,157.5C 416.636,144.54 443.303,139.54 471.5,142.5 Z"/></g>
<g><path style="opacity:1" fill="#700d09" d="M 471.5,142.5 C 481.098,143.285 487.098,148.285 489.5,157.5C 488.061,159.588 487.394,161.921 487.5,164.5C 485.703,165.73 483.703,166.396 481.5,166.5C 486.544,158.174 485.211,151.174 477.5,145.5C 475.426,144.486 473.426,143.486 471.5,142.5 Z"/></g>
<g><path style="opacity:1" fill="#fc7753" d="M 477.5,145.5 C 485.211,151.174 486.544,158.174 481.5,166.5C 479.784,166.629 478.117,166.962 476.5,167.5C 479.973,160.304 480.306,152.971 477.5,145.5 Z"/></g>
<g><path style="opacity:1" fill="#f3b34a" d="M 459.5,178.5 C 459.598,180.553 458.931,182.22 457.5,183.5C 448.525,160.217 431.858,152.05 407.5,159C 406.058,159.377 405.058,160.21 404.5,161.5C 386.29,171.715 376.957,187.381 376.5,208.5C 375.064,228.463 382.73,243.629 399.5,254C 406.974,256.421 414.64,257.088 422.5,256C 427.371,255.213 431.705,253.379 435.5,250.5C 435.833,250.5 436.167,250.5 436.5,250.5C 436.5,251.833 436.5,253.167 436.5,254.5C 405.124,268.067 384.291,258.4 374,225.5C 370.261,205.801 374.094,187.801 385.5,171.5C 393.094,162.746 402.428,156.579 413.5,153C 435.466,149.845 450.8,158.345 459.5,178.5 Z"/></g>
<g><path style="opacity:1" fill="#fcfbd2" d="M 457.5,183.5 C 454.438,191.178 451.272,198.845 448,206.5C 444.288,211.879 439.621,216.213 434,219.5C 433.333,220.833 433.333,222.167 434,223.5C 435.372,224.91 436.205,226.577 436.5,228.5C 436.5,235.833 436.5,243.167 436.5,250.5C 436.167,250.5 435.833,250.5 435.5,250.5C 435.5,249.5 435.5,248.5 435.5,247.5C 408.536,249.048 393.036,236.382 389,209.5C 386.476,190.909 391.642,174.909 404.5,161.5C 405.058,160.21 406.058,159.377 407.5,159C 431.858,152.05 448.525,160.217 457.5,183.5 Z"/></g>
<g><path style="opacity:1" fill="#c70000" d="M 391.5,157.5 C 389.5,162.167 387.5,166.833 385.5,171.5C 374.094,187.801 370.261,205.801 374,225.5C 384.291,258.4 405.124,268.067 436.5,254.5C 436.5,255.833 436.5,257.167 436.5,258.5C 424.857,267.935 411.524,271.102 396.5,268C 385.745,263.717 377.579,256.551 372,246.5C 374.556,282.607 388.722,313.273 414.5,338.5C 413.167,338.833 411.833,339.167 410.5,339.5C 403.847,338.445 397.18,337.945 390.5,338C 389.333,339.167 388.167,340.333 387,341.5C 386.333,345.5 386.333,349.5 387,353.5C 396.209,381.693 412.709,404.527 436.5,422C 447.158,428.886 458.824,432.553 471.5,433C 462.358,435.983 453.024,436.316 443.5,434C 430.433,431.632 418.766,426.298 408.5,418C 407.668,417.312 407.002,417.479 406.5,418.5C 427.358,449.061 431.525,481.728 419,516.5C 409.192,529.51 396.026,536.176 379.5,536.5C 396.95,527.641 406.45,513.308 408,493.5C 411.319,459.134 401.986,428.801 380,402.5C 378,400.5 376,398.5 374,396.5C 373.601,396.728 373.435,397.062 373.5,397.5C 368.012,386.922 359.345,382.422 347.5,384C 346.692,384.308 346.025,384.808 345.5,385.5C 361.534,406.569 373.034,429.902 380,455.5C 383.614,470.273 383.281,484.94 379,499.5C 373.568,510.142 365.402,517.975 354.5,523C 335.323,530.933 315.323,535.266 294.5,536C 278.489,536.4 262.489,537.067 246.5,538C 247.737,538.232 248.737,538.732 249.5,539.5C 244.227,538.977 239.393,537.31 235,534.5C 234.333,533.167 234.333,531.833 235,530.5C 236.666,528.004 238.5,525.671 240.5,523.5C 245.448,519.352 250.782,515.686 256.5,512.5C 257.5,512.167 258.167,511.5 258.5,510.5C 264.544,509.868 265.377,507.868 261,504.5C 260.297,502.071 260.463,499.738 261.5,497.5C 261.5,497.167 261.5,496.833 261.5,496.5C 269.125,492.013 277.125,488.68 285.5,486.5C 287.854,486.162 290.187,485.662 292.5,485C 293.774,484.023 293.774,483.189 292.5,482.5C 292.5,481.833 292.5,481.167 292.5,480.5C 292.933,477.805 294.266,475.638 296.5,474C 299.727,471.888 303.06,470.055 306.5,468.5C 312.126,469.808 317.459,471.975 322.5,475C 333.673,478.589 345.006,479.256 356.5,477C 350.884,475.32 345.218,473.82 339.5,472.5C 313.739,459.593 291.239,442.26 272,420.5C 269.306,417.812 267.473,414.645 266.5,411C 268.461,405.042 271.295,399.542 275,394.5C 293.05,371.446 312.883,349.946 334.5,330C 341.4,324.465 349.233,321.298 358,320.5C 366.641,320.967 373.141,324.967 377.5,332.5C 379.436,329.792 379.936,326.792 379,323.5C 372.081,316.304 363.581,313.137 353.5,314C 351.538,309.907 349.704,305.741 348,301.5C 342.607,276.733 341.274,251.733 344,226.5C 345.839,213.818 347.672,201.151 349.5,188.5C 361.356,175.241 375.356,164.908 391.5,157.5 Z"/></g>
<g><path style="opacity:1" fill="#d57d0f" d="M 491.5,253.5 C 486.833,253.5 482.167,253.5 477.5,253.5C 475.784,253.371 474.117,253.038 472.5,252.5C 470.421,252.029 468.421,251.363 466.5,250.5C 462.541,249.406 458.875,247.739 455.5,245.5C 454.395,244.4 453.062,243.733 451.5,243.5C 447.859,240.195 444.192,236.862 440.5,233.5C 439.876,231.246 438.543,229.579 436.5,228.5C 436.205,226.577 435.372,224.91 434,223.5C 433.333,222.167 433.333,220.833 434,219.5C 439.621,216.213 444.288,211.879 448,206.5C 451.272,198.845 454.438,191.178 457.5,183.5C 458.931,182.22 459.598,180.553 459.5,178.5C 460.117,178.611 460.617,178.944 461,179.5C 465.345,174.414 470.512,170.414 476.5,167.5C 478.117,166.962 479.784,166.629 481.5,166.5C 483.703,166.396 485.703,165.73 487.5,164.5C 491.416,163.355 495.416,162.522 499.5,162C 525.149,159.53 544.316,169.363 557,191.5C 566.095,214.296 566.762,237.296 559,260.5C 558.131,263.394 556.298,264.561 553.5,264C 545.543,250.859 533.876,245.525 518.5,248C 509.657,250.628 500.657,252.461 491.5,253.5 Z"/></g>
<g><path style="opacity:1" fill="#fedfa0" d="M 404.5,161.5 C 391.642,174.909 386.476,190.909 389,209.5C 393.036,236.382 408.536,249.048 435.5,247.5C 435.5,248.5 435.5,249.5 435.5,250.5C 431.705,253.379 427.371,255.213 422.5,256C 414.64,257.088 406.974,256.421 399.5,254C 382.73,243.629 375.064,228.463 376.5,208.5C 376.957,187.381 386.29,171.715 404.5,161.5 Z"/></g>
<g><path style="opacity:1" fill="#fdf804" d="M 507.5,166.5 C 515.722,168.746 523.556,172.08 531,176.5C 528.989,178.723 527.823,181.556 527.5,185C 529.264,196.206 534.597,205.206 543.5,212C 546.665,214.13 549.665,213.963 552.5,211.5C 552.833,212 553.167,212.5 553.5,213C 554.363,218.298 555.03,223.632 555.5,229C 554.402,236.222 553.069,243.389 551.5,250.5C 538.058,241.894 523.725,240.227 508.5,245.5C 494.774,248.525 483.274,244.858 474,234.5C 467.225,222.749 468.391,211.915 477.5,202C 490.159,202.844 502.825,203.511 515.5,204C 502.959,200.097 490.959,194.931 479.5,188.5C 477.564,185.792 477.064,182.792 478,179.5C 479.611,176.062 481.777,173.062 484.5,170.5C 491.741,167.04 499.408,165.707 507.5,166.5 Z"/></g>
<g><path style="opacity:1" fill="#fefbe7" d="M 507.5,166.5 C 536.443,168.941 552.943,184.607 557,213.5C 559.219,226.905 558.886,240.238 556,253.5C 555.667,253.833 555.333,254.167 555,254.5C 553.595,253.269 552.429,251.936 551.5,250.5C 553.069,243.389 554.402,236.222 555.5,229C 555.03,223.632 554.363,218.298 553.5,213C 553.167,212.5 552.833,212 552.5,211.5C 549.665,213.963 546.665,214.13 543.5,212C 534.597,205.206 529.264,196.206 527.5,185C 527.823,181.556 528.989,178.723 531,176.5C 523.556,172.08 515.722,168.746 507.5,166.5 Z"/></g>
<g><path style="opacity:1" fill="#7eaaba" d="M 415.5,173.5 C 418.304,172.362 421.304,172.195 424.5,173C 425.056,173.383 425.389,173.883 425.5,174.5C 422.236,173.676 418.902,173.342 415.5,173.5 Z"/></g>
<g><path style="opacity:1" fill="#febf00" d="M 484.5,170.5 C 481.777,173.062 479.611,176.062 478,179.5C 477.064,182.792 477.564,185.792 479.5,188.5C 490.959,194.931 502.959,200.097 515.5,204C 502.825,203.511 490.159,202.844 477.5,202C 468.391,211.915 467.225,222.749 474,234.5C 483.274,244.858 494.774,248.525 508.5,245.5C 479.122,255.993 455.789,248.326 438.5,222.5C 449.263,215.317 455.763,205.317 458,192.5C 463.846,181.503 472.68,174.17 484.5,170.5 Z"/></g>
<g><path style="opacity:1" fill="#1863a5" d="M 415.5,173.5 C 418.902,173.342 422.236,173.676 425.5,174.5C 429.895,176.562 432.895,179.896 434.5,184.5C 435.275,189.797 435.608,195.13 435.5,200.5C 433.77,211.716 427.77,219.549 417.5,224C 411.397,225.574 406.564,223.74 403,218.5C 394.599,201.723 397.433,187.223 411.5,175C 412.745,174.209 414.078,173.709 415.5,173.5 Z"/></g>
<g><path style="opacity:1" fill="#d67e0d" d="M 530.5,476.5 C 530.215,473.171 530.882,470.171 532.5,467.5C 532.643,469.262 532.309,470.929 531.5,472.5C 540.506,480.171 550.839,484.838 562.5,486.5C 568.067,487.234 569.9,484.901 568,479.5C 564.622,474.578 561.122,469.745 557.5,465C 568.303,467.698 579.303,470.031 590.5,472C 599.167,472.667 607.833,472.667 616.5,472C 621.718,471.244 625.052,468.411 626.5,463.5C 626.281,462.062 625.781,460.729 625,459.5C 615.59,455.58 606.423,451.08 597.5,446C 625.067,445.874 651.401,440.207 676.5,429C 678.996,427.669 680.996,425.836 682.5,423.5C 684.268,419.027 682.601,416.193 677.5,415C 664.48,413.893 651.48,413.06 638.5,412.5C 638.047,411.542 637.381,410.708 636.5,410C 674.685,396.501 707.185,374.667 734,344.5C 739.747,337.346 744.747,329.679 749,321.5C 749.732,317.806 750.565,314.139 751.5,310.5C 751.48,309.274 751.147,308.274 750.5,307.5C 748.712,306.378 746.712,306.211 744.5,307C 722.669,328.665 697.003,343.832 667.5,352.5C 707.807,319.426 736.974,277.759 755,227.5C 758.065,216.68 759.898,205.68 760.5,194.5C 760.648,187.436 758.148,186.103 753,190.5C 727.632,235.045 695.132,273.712 655.5,306.5C 652.833,306.5 650.167,306.5 647.5,306.5C 667.395,290.11 686.228,272.443 704,253.5C 720.825,231.194 736.158,207.86 750,183.5C 755.081,178.014 759.748,178.347 764,184.5C 765.999,195.533 765.666,206.533 763,217.5C 749.881,266.276 724.714,307.443 687.5,341C 707.379,330.498 725.712,317.498 742.5,302C 747.008,297.761 751.508,297.595 756,301.5C 756.667,305.5 756.667,309.5 756,313.5C 751.174,328.825 743.507,342.491 733,354.5C 709.945,379.286 682.445,397.452 650.5,409C 659.833,409.333 669.167,409.667 678.5,410C 687.663,411.779 690.829,416.945 688,425.5C 684.958,428.933 681.458,431.766 677.5,434C 656.543,443.459 634.543,448.459 611.5,449C 616.363,451.066 621.363,452.732 626.5,454C 628.624,455.122 630.457,456.622 632,458.5C 633.727,468.451 629.56,474.285 619.5,476C 602.131,478.661 585.131,477.161 568.5,471.5C 568.167,471.833 567.833,472.167 567.5,472.5C 569.524,474.69 571.357,477.023 573,479.5C 575.159,483.192 574.993,486.692 572.5,490C 565.352,491.647 558.352,490.98 551.5,488C 543.828,485.169 536.828,481.335 530.5,476.5 Z"/></g>
<g><path style="opacity:1" fill="#eef4f7" d="M 429.5,183.5 C 431.167,187.339 431.667,191.339 431,195.5C 429.89,197.037 428.39,197.703 426.5,197.5C 423.117,194.711 421.45,191.045 421.5,186.5C 421.083,181.932 423.083,180.432 427.5,182C 428.044,182.717 428.711,183.217 429.5,183.5 Z"/></g>
<g><path style="opacity:1" fill="#0585d2" d="M 429.5,183.5 C 428.711,183.217 428.044,182.717 427.5,182C 423.083,180.432 421.083,181.932 421.5,186.5C 416.949,185.658 413.283,186.992 410.5,190.5C 409.082,188.692 407.082,188.025 404.5,188.5C 409.018,178.4 416.351,175.234 426.5,179C 428.141,180.129 429.141,181.629 429.5,183.5 Z"/></g>
<g><path style="opacity:1" fill="#0a0e11" d="M 421.5,186.5 C 421.45,191.045 423.117,194.711 426.5,197.5C 425.761,204.386 422.261,209.053 416,211.5C 410.182,210.082 407.349,206.248 407.5,200C 407.504,196.498 408.504,193.331 410.5,190.5C 413.283,186.992 416.949,185.658 421.5,186.5 Z"/></g>
<g><path style="opacity:1" fill="#fdf600" d="M 760.5,194.5 C 736.992,259.197 697.826,312.53 643,354.5C 642.601,354.272 642.435,353.938 642.5,353.5C 650.767,345.058 657.267,335.391 662,324.5C 663.909,319.816 663.909,315.15 662,310.5C 660.322,308.334 658.155,307.001 655.5,306.5C 695.132,273.712 727.632,235.045 753,190.5C 758.148,186.103 760.648,187.436 760.5,194.5 Z"/></g>
<g><path style="opacity:1" fill="#720807" d="M 349.5,188.5 C 347.672,201.151 345.839,213.818 344,226.5C 341.274,251.733 342.607,276.733 348,301.5C 349.704,305.741 351.538,309.907 353.5,314C 363.581,313.137 372.081,316.304 379,323.5C 379.936,326.792 379.436,329.792 377.5,332.5C 373.141,324.967 366.641,320.967 358,320.5C 349.233,321.298 341.4,324.465 334.5,330C 312.883,349.946 293.05,371.446 275,394.5C 271.295,399.542 268.461,405.042 266.5,411C 267.473,414.645 269.306,417.812 272,420.5C 291.239,442.26 313.739,459.593 339.5,472.5C 339.265,473.097 338.765,473.43 338,473.5C 330.507,471.078 323.173,468.412 316,465.5C 312.552,465.98 309.385,466.98 306.5,468.5C 303.06,470.055 299.727,471.888 296.5,474C 294.266,475.638 292.933,477.805 292.5,480.5C 291.387,479.054 291.22,477.387 292,475.5C 293.707,473.963 295.207,472.296 296.5,470.5C 301.689,467.305 306.355,464.305 310.5,461.5C 306.896,458.025 302.896,455.025 298.5,452.5C 286.896,442.067 275.396,431.4 264,420.5C 260.98,417.377 259.98,413.71 261,409.5C 279.728,379.418 302.228,352.251 328.5,328C 334.182,322.827 340.515,318.66 347.5,315.5C 345.17,310.343 343.336,305.009 342,299.5C 335.636,264.059 336.136,228.726 343.5,193.5C 346.115,192.55 348.115,190.883 349.5,188.5 Z"/></g>
<g><path style="opacity:1" fill="#86b0bc" d="M 434.5,184.5 C 436.006,187.356 436.672,190.523 436.5,194C 436.496,196.361 436.163,198.527 435.5,200.5C 435.608,195.13 435.275,189.797 434.5,184.5 Z"/></g>
<g><path style="opacity:1" fill="#febe00" d="M 760.5,194.5 C 759.898,205.68 758.065,216.68 755,227.5C 736.974,277.759 707.807,319.426 667.5,352.5C 659.646,355.649 651.646,358.816 643.5,362C 646.365,362.183 649.031,362.683 651.5,363.5C 646.821,363.334 642.155,363.501 637.5,364C 635.156,365.028 632.823,365.694 630.5,366C 634.731,361.938 638.731,357.771 642.5,353.5C 642.435,353.938 642.601,354.272 643,354.5C 697.826,312.53 736.992,259.197 760.5,194.5 Z"/></g>
<g><path style="opacity:1" fill="#029ee9" d="M 429.5,183.5 C 431.978,186.811 432.978,190.645 432.5,195C 433.093,206.831 428.093,215.165 417.5,220C 410.501,220.915 405.667,218.082 403,211.5C 400.723,203.611 401.223,195.944 404.5,188.5C 407.082,188.025 409.082,188.692 410.5,190.5C 408.504,193.331 407.504,196.498 407.5,200C 407.349,206.248 410.182,210.082 416,211.5C 422.261,209.053 425.761,204.386 426.5,197.5C 428.39,197.703 429.89,197.037 431,195.5C 431.667,191.339 431.167,187.339 429.5,183.5 Z"/></g>
<g><path style="opacity:1" fill="#ebebeb" d="M 410.5,197.5 C 412.39,197.297 413.89,197.963 415,199.5C 416.289,202.351 416.789,205.351 416.5,208.5C 414.856,208.714 413.356,208.38 412,207.5C 410.684,204.312 410.184,200.978 410.5,197.5 Z"/></g>
<g><path style="opacity:1" fill="#3a3334" d="M 436.5,228.5 C 438.543,229.579 439.876,231.246 440.5,233.5C 440.939,247.592 442.439,261.592 445,275.5C 447.275,284.748 452.441,291.748 460.5,296.5C 476.845,305.354 492.512,304.188 507.5,293C 495.449,283.063 489.115,270.23 488.5,254.5C 489.5,254.5 490.5,254.5 491.5,254.5C 492.293,258.702 493.126,263.035 494,267.5C 497.948,276.378 503.615,284.045 511,290.5C 511.667,292.167 511.667,293.833 511,295.5C 502.951,304.114 493.118,308.114 481.5,307.5C 479.621,306.659 477.621,306.325 475.5,306.5C 472.833,306.167 470.167,305.833 467.5,305.5C 458.091,303.209 450.924,297.876 446,289.5C 441.48,279.451 438.314,269.118 436.5,258.5C 436.5,257.167 436.5,255.833 436.5,254.5C 436.5,253.167 436.5,251.833 436.5,250.5C 436.5,243.167 436.5,235.833 436.5,228.5 Z"/></g>
<g><path style="opacity:1" fill="#404041" d="M 440.5,233.5 C 444.192,236.862 447.859,240.195 451.5,243.5C 451.762,248.595 452.428,253.595 453.5,258.5C 450.312,272.188 452.645,284.855 460.5,296.5C 452.441,291.748 447.275,284.748 445,275.5C 442.439,261.592 440.939,247.592 440.5,233.5 Z"/></g>
<g><path style="opacity:1" fill="#3a3436" d="M 451.5,243.5 C 453.062,243.733 454.395,244.4 455.5,245.5C 455.911,257.664 459.745,268.664 467,278.5C 469.37,281.039 471.87,283.372 474.5,285.5C 476.713,286.773 479.046,287.773 481.5,288.5C 481.56,289.043 481.893,289.376 482.5,289.5C 484.756,276.627 481.756,265.294 473.5,255.5C 473.443,254.391 473.11,253.391 472.5,252.5C 474.117,253.038 475.784,253.371 477.5,253.5C 479.518,254.047 481.351,255.047 483,256.5C 485.073,262.053 486.74,267.72 488,273.5C 491.661,279.822 494.495,286.488 496.5,293.5C 480.488,295.74 468.321,290.074 460,276.5C 457.532,270.573 455.365,264.573 453.5,258.5C 452.428,253.595 451.762,248.595 451.5,243.5 Z"/></g>
<g><path style="opacity:1" fill="#df3573" d="M 455.5,245.5 C 458.875,247.739 462.541,249.406 466.5,250.5C 474.499,260.855 477.166,272.522 474.5,285.5C 471.87,283.372 469.37,281.039 467,278.5C 459.745,268.664 455.911,257.664 455.5,245.5 Z"/></g>
<g><path style="opacity:1" fill="#fe0000" d="M 436.5,258.5 C 438.314,269.118 441.48,279.451 446,289.5C 450.924,297.876 458.091,303.209 467.5,305.5C 470.284,317.013 475.45,327.346 483,336.5C 492.081,343.745 499.915,352.079 506.5,361.5C 505.761,361.369 505.094,361.536 504.5,362C 509.254,367.01 512.254,372.843 513.5,379.5C 509.801,378.996 506.635,377.33 504,374.5C 504.599,380.504 505.599,386.504 507,392.5C 507.499,396.486 507.666,400.486 507.5,404.5C 506.178,404.67 505.011,404.337 504,403.5C 499.862,397.188 496.362,390.521 493.5,383.5C 492.675,382.614 491.675,382.281 490.5,382.5C 490.5,384.167 490.5,385.833 490.5,387.5C 485.323,387.477 483.156,384.81 484,379.5C 479.671,389.328 482.837,394.328 493.5,394.5C 496.533,400.7 500.533,406.2 505.5,411C 506.793,411.49 508.127,411.657 509.5,411.5C 510.3,402.154 510.634,392.82 510.5,383.5C 513.375,385.547 516.375,385.88 519.5,384.5C 526.033,401.201 528.2,418.534 526,436.5C 520.683,484.303 500.183,524.137 464.5,556C 449.874,568.952 433.874,579.952 416.5,589C 414.604,590.065 414.437,590.898 416,591.5C 417.8,590.68 419.634,590.014 421.5,589.5C 419.931,594.082 421.598,595.582 426.5,594C 434.981,590.262 442.981,585.762 450.5,580.5C 453.45,596.349 458.783,611.349 466.5,625.5C 465.675,626.386 464.675,626.719 463.5,626.5C 457.644,624.645 453.311,620.979 450.5,615.5C 448.759,613.023 447.259,610.356 446,607.5C 445.107,606.289 444.274,606.289 443.5,607.5C 445.802,614.097 448.469,620.43 451.5,626.5C 452.785,629.589 453.451,632.922 453.5,636.5C 453.657,637.873 453.49,639.207 453,640.5C 440.534,630.368 429.034,619.201 418.5,607C 413.5,602.667 408.5,598.333 403.5,594C 371.814,592.487 353.481,575.987 348.5,544.5C 359.058,542.611 369.391,539.944 379.5,536.5C 396.026,536.176 409.192,529.51 419,516.5C 431.525,481.728 427.358,449.061 406.5,418.5C 407.002,417.479 407.668,417.312 408.5,418C 418.766,426.298 430.433,431.632 443.5,434C 453.024,436.316 462.358,435.983 471.5,433C 458.824,432.553 447.158,428.886 436.5,422C 412.709,404.527 396.209,381.693 387,353.5C 386.333,349.5 386.333,345.5 387,341.5C 388.167,340.333 389.333,339.167 390.5,338C 397.18,337.945 403.847,338.445 410.5,339.5C 411.833,339.167 413.167,338.833 414.5,338.5C 388.722,313.273 374.556,282.607 372,246.5C 377.579,256.551 385.745,263.717 396.5,268C 411.524,271.102 424.857,267.935 436.5,258.5 Z"/></g>
<g><path style="opacity:1" fill="#fc5f8e" d="M 466.5,250.5 C 468.421,251.363 470.421,252.029 472.5,252.5C 473.11,253.391 473.443,254.391 473.5,255.5C 479.212,265.718 481.879,276.718 481.5,288.5C 479.046,287.773 476.713,286.773 474.5,285.5C 477.166,272.522 474.499,260.855 466.5,250.5 Z"/></g>
<g><path style="opacity:1" fill="#545455" d="M 477.5,253.5 C 482.167,253.5 486.833,253.5 491.5,253.5C 491.5,253.833 491.5,254.167 491.5,254.5C 490.5,254.5 489.5,254.5 488.5,254.5C 489.115,270.23 495.449,283.063 507.5,293C 492.512,304.188 476.845,305.354 460.5,296.5C 452.645,284.855 450.312,272.188 453.5,258.5C 455.365,264.573 457.532,270.573 460,276.5C 468.321,290.074 480.488,295.74 496.5,293.5C 494.495,286.488 491.661,279.822 488,273.5C 486.74,267.72 485.073,262.053 483,256.5C 481.351,255.047 479.518,254.047 477.5,253.5 Z"/></g>
<g><path style="opacity:1" fill="#e79caa" d="M 473.5,255.5 C 481.756,265.294 484.756,276.627 482.5,289.5C 481.893,289.376 481.56,289.043 481.5,288.5C 481.879,276.718 479.212,265.718 473.5,255.5 Z"/></g>
<g><path style="opacity:1" fill="#740805" d="M 475.5,306.5 C 477.621,306.325 479.621,306.659 481.5,307.5C 482.808,313.126 484.975,318.459 488,323.5C 496.196,333.396 504.03,343.563 511.5,354C 546.261,355.19 578.927,347.523 609.5,331C 622.053,322.563 634.72,314.396 647.5,306.5C 650.167,306.5 652.833,306.5 655.5,306.5C 658.155,307.001 660.322,308.334 662,310.5C 663.909,315.15 663.909,319.816 662,324.5C 657.267,335.391 650.767,345.058 642.5,353.5C 638.731,357.771 634.731,361.938 630.5,366C 632.823,365.694 635.156,365.028 637.5,364C 642.155,363.501 646.821,363.334 651.5,363.5C 656.824,364.33 658.658,367.33 657,372.5C 656.194,375.446 654.861,378.112 653,380.5C 649.604,384.065 646.104,387.398 642.5,390.5C 629.012,397.91 615.012,404.243 600.5,409.5C 606.108,411.637 611.441,414.304 616.5,417.5C 616.5,417.833 616.5,418.167 616.5,418.5C 616.576,424.286 613.91,428.453 608.5,431C 601.618,433.351 594.618,435.184 587.5,436.5C 582.125,436.172 576.792,436.505 571.5,437.5C 571.624,438.107 571.957,438.44 572.5,438.5C 576.746,440.997 578.246,444.664 577,449.5C 572.658,452.505 567.825,454.338 562.5,455C 553.484,455.599 544.484,455.432 535.5,454.5C 534.652,458.892 533.652,463.225 532.5,467.5C 530.882,470.171 530.215,473.171 530.5,476.5C 526.73,484.286 523.23,492.286 520,500.5C 505.754,528.651 486.087,552.318 461,571.5C 460.333,574.167 460.333,576.833 461,579.5C 464.717,597.814 469.55,615.814 475.5,633.5C 472.098,633.658 468.764,633.324 465.5,632.5C 463.388,631.406 461.221,630.406 459,629.5C 458.211,631.712 458.378,633.712 459.5,635.5C 460.005,638.841 460.172,642.174 460,645.5C 459.578,647.426 458.411,648.426 456.5,648.5C 453.208,648.353 450.208,647.353 447.5,645.5C 444.541,643.559 441.541,641.559 438.5,639.5C 437.571,640.689 437.238,642.022 437.5,643.5C 436.458,645.739 435.125,647.905 433.5,650C 432.167,650.667 430.833,650.667 429.5,650C 418.409,633.076 404.743,618.576 388.5,606.5C 381.751,607.95 374.918,608.617 368,608.5C 358.792,608.142 349.625,607.642 340.5,607C 333.212,613.93 326.878,621.596 321.5,630C 318.51,629.196 316.177,627.363 314.5,624.5C 314.326,622.139 313.993,619.806 313.5,617.5C 313.785,615.712 313.452,614.045 312.5,612.5C 308.926,614.455 305.26,616.122 301.5,617.5C 298.833,618.167 296.167,618.833 293.5,619.5C 291.5,619.5 289.5,619.5 287.5,619.5C 285.833,619.5 284.167,619.5 282.5,619.5C 283.5,614.833 284.5,610.167 285.5,605.5C 286.626,604.142 286.626,602.808 285.5,601.5C 279.822,603.672 274.155,605.505 268.5,607C 269.76,600.891 271.594,595.057 274,589.5C 270.059,592.552 265.893,595.218 261.5,597.5C 257.658,599.002 253.658,599.668 249.5,599.5C 246.374,597.703 244.374,595.037 243.5,591.5C 242.192,590.374 240.858,590.374 239.5,591.5C 237.139,591.674 234.806,592.007 232.5,592.5C 226.131,592.653 219.797,592.32 213.5,591.5C 212.391,591.443 211.391,591.11 210.5,590.5C 208.765,588.765 207.432,586.765 206.5,584.5C 207.576,582.014 208.909,579.681 210.5,577.5C 211.756,577.539 212.756,577.039 213.5,576C 205.298,575.923 197.298,574.757 189.5,572.5C 182.422,570.015 179.089,565.015 179.5,557.5C 182.211,553.788 185.544,550.788 189.5,548.5C 198.841,544.608 208.507,541.941 218.5,540.5C 221.5,540.5 224.5,540.5 227.5,540.5C 216.628,544.067 205.628,547.567 194.5,551C 190.203,552.305 186.869,554.805 184.5,558.5C 182.931,563.849 184.931,567.349 190.5,569C 193.063,570.079 195.729,570.579 198.5,570.5C 207.991,571.33 217.658,571.83 227.5,572C 221.728,574.634 216.561,578.134 212,582.5C 211.227,584.352 211.727,585.686 213.5,586.5C 219.297,590.239 225.63,591.405 232.5,590C 240.772,587.813 248.605,584.646 256,580.5C 254.815,584.353 252.149,587.02 248,588.5C 247.491,593.162 249.657,595.495 254.5,595.5C 264.596,593.242 273.096,588.242 280,580.5C 286.667,569.833 295.333,561.167 306,554.5C 306.497,551.854 306.664,549.187 306.5,546.5C 297.5,546.5 288.5,546.5 279.5,546.5C 265.07,545.082 250.736,543.082 236.5,540.5C 232.247,538.552 230.58,535.219 231.5,530.5C 233.549,527.45 236.216,525.117 239.5,523.5C 239.833,523.5 240.167,523.5 240.5,523.5C 238.5,525.671 236.666,528.004 235,530.5C 234.333,531.833 234.333,533.167 235,534.5C 239.393,537.31 244.227,538.977 249.5,539.5C 267.262,541.651 285.095,542.984 303,543.5C 320.607,543.193 338.107,541.693 355.5,539C 363.489,536.337 371.489,533.67 379.5,531C 391.236,523.587 398.736,513.087 402,499.5C 404.618,482.95 403.618,466.617 399,450.5C 393.137,431.443 384.637,413.777 373.5,397.5C 373.435,397.062 373.601,396.728 374,396.5C 376,398.5 378,400.5 380,402.5C 401.986,428.801 411.319,459.134 408,493.5C 406.45,513.308 396.95,527.641 379.5,536.5C 369.391,539.944 359.058,542.611 348.5,544.5C 336.315,546.714 323.982,547.714 311.5,547.5C 311.817,550.572 311.484,553.572 310.5,556.5C 293.309,567.357 281.309,582.357 274.5,601.5C 278.84,600.498 283.174,599.331 287.5,598C 289.293,595.205 291.46,592.705 294,590.5C 290.822,598.496 288.322,606.83 286.5,615.5C 291.607,616.049 296.607,615.216 301.5,613C 306.959,610.368 312.292,607.535 317.5,604.5C 318.029,610.618 319.029,616.618 320.5,622.5C 325.937,614.228 332.604,607.061 340.5,601C 344.853,601.166 349.187,601.833 353.5,603C 366.181,603.428 378.848,603.428 391.5,603C 406.922,613.755 419.589,627.088 429.5,643C 430.744,643.456 431.577,642.956 432,641.5C 432.333,638.167 432.667,634.833 433,631.5C 439.559,636.363 446.726,640.029 454.5,642.5C 454.795,640.265 454.461,638.265 453.5,636.5C 453.451,632.922 452.785,629.589 451.5,626.5C 451.232,623.26 450.566,620.094 449.5,617C 449.57,616.235 449.903,615.735 450.5,615.5C 453.311,620.979 457.644,624.645 463.5,626.5C 465.035,627.788 466.701,627.788 468.5,626.5C 462.717,610.36 457.717,594.026 453.5,577.5C 452.145,578.188 451.145,579.188 450.5,580.5C 442.981,585.762 434.981,590.262 426.5,594C 421.598,595.582 419.931,594.082 421.5,589.5C 436.668,582.085 450.668,572.918 463.5,562C 476.398,549.771 488.564,536.938 500,523.5C 520.365,491.735 531.531,456.902 533.5,419C 531.81,400.447 525.976,383.28 516,367.5C 505.333,353.5 494.667,339.5 484,325.5C 481.152,319.141 478.319,312.807 475.5,306.5 Z"/></g>
<g><path style="opacity:1" fill="#fdf600" d="M 750.5,307.5 C 748.151,315.032 744.651,322.032 740,328.5C 722.194,351.307 700.027,368.474 673.5,380C 663.376,384.208 653.042,387.708 642.5,390.5C 646.104,387.398 649.604,384.065 653,380.5C 654.861,378.112 656.194,375.446 657,372.5C 658.658,367.33 656.824,364.33 651.5,363.5C 649.031,362.683 646.365,362.183 643.5,362C 651.646,358.816 659.646,355.649 667.5,352.5C 697.003,343.832 722.669,328.665 744.5,307C 746.712,306.211 748.712,306.378 750.5,307.5 Z"/></g>
<g><path style="opacity:1" fill="#fc0301" d="M 537.5,445.5 C 555.795,448.267 560.129,441.601 550.5,425.5C 554.996,423.803 559.663,422.637 564.5,422C 568.213,420.309 569.379,417.475 568,413.5C 563.594,409.712 558.761,406.545 553.5,404C 560.63,403.823 567.63,402.823 574.5,401C 578.852,399.318 582.686,396.818 586,393.5C 588.364,389.526 587.864,386.026 584.5,383C 576.419,382.072 568.419,380.739 560.5,379C 574.478,373.435 586.644,365.269 597,354.5C 599.132,350.792 599.965,346.792 599.5,342.5C 615.107,334.079 630.107,324.579 644.5,314C 649.047,311.146 653.547,310.98 658,313.5C 658.667,316.167 658.667,318.833 658,321.5C 648.572,340.601 635.739,357.101 619.5,371C 626.303,370.635 632.969,369.302 639.5,367C 643.167,366.333 646.833,366.333 650.5,367C 652.91,369.93 653.077,373.097 651,376.5C 641.592,385.79 630.758,392.956 618.5,398C 608.913,401.131 599.58,404.797 590.5,409C 597.066,411.079 603.4,413.745 609.5,417C 612.354,420.6 611.687,423.6 607.5,426C 593.513,432.161 578.846,434.827 563.5,434C 567.059,436.545 569.392,439.879 570.5,444C 569.442,448.052 566.775,450.386 562.5,451C 554.167,451.667 545.833,451.667 537.5,451C 536.193,449.057 536.193,447.223 537.5,445.5 Z"/></g>
<g><path style="opacity:1" fill="#fdbe00" d="M 750.5,307.5 C 751.147,308.274 751.48,309.274 751.5,310.5C 750.565,314.139 749.732,317.806 749,321.5C 744.747,329.679 739.747,337.346 734,344.5C 707.185,374.667 674.685,396.501 636.5,410C 637.381,410.708 638.047,411.542 638.5,412.5C 630.996,413.803 623.663,415.47 616.5,417.5C 611.441,414.304 606.108,411.637 600.5,409.5C 615.012,404.243 629.012,397.91 642.5,390.5C 653.042,387.708 663.376,384.208 673.5,380C 700.027,368.474 722.194,351.307 740,328.5C 744.651,322.032 748.151,315.032 750.5,307.5 Z"/></g>
<g><path style="opacity:1" fill="#ff4a36" d="M 644.5,317.5 C 647.167,317.5 649.833,317.5 652.5,317.5C 652.84,321.131 652.006,324.464 650,327.5C 643.959,336.899 636.959,345.565 629,353.5C 628.333,352.833 628.333,352.167 629,351.5C 635.903,344.033 641.57,335.699 646,326.5C 646.788,323.228 646.288,320.228 644.5,317.5 Z"/></g>
<g><path style="opacity:1" fill="#c70000" d="M 599.5,342.5 C 599.965,346.792 599.132,350.792 597,354.5C 586.644,365.269 574.478,373.435 560.5,379C 568.419,380.739 576.419,382.072 584.5,383C 587.864,386.026 588.364,389.526 586,393.5C 582.686,396.818 578.852,399.318 574.5,401C 567.63,402.823 560.63,403.823 553.5,404C 558.761,406.545 563.594,409.712 568,413.5C 569.379,417.475 568.213,420.309 564.5,422C 559.663,422.637 554.996,423.803 550.5,425.5C 560.129,441.601 555.795,448.267 537.5,445.5C 542.053,414.251 535.053,385.918 516.5,360.5C 545.478,360.337 573.145,354.337 599.5,342.5 Z"/></g>
<g><path style="opacity:1" fill="#780101" d="M 506.5,361.5 C 511.583,366.769 515.75,372.769 519,379.5C 519.494,381.134 519.66,382.801 519.5,384.5C 516.375,385.88 513.375,385.547 510.5,383.5C 510.634,392.82 510.3,402.154 509.5,411.5C 508.127,411.657 506.793,411.49 505.5,411C 500.533,406.2 496.533,400.7 493.5,394.5C 482.837,394.328 479.671,389.328 484,379.5C 483.156,384.81 485.323,387.477 490.5,387.5C 490.5,385.833 490.5,384.167 490.5,382.5C 491.675,382.281 492.675,382.614 493.5,383.5C 496.362,390.521 499.862,397.188 504,403.5C 505.011,404.337 506.178,404.67 507.5,404.5C 507.666,400.486 507.499,396.486 507,392.5C 505.599,386.504 504.599,380.504 504,374.5C 506.635,377.33 509.801,378.996 513.5,379.5C 512.254,372.843 509.254,367.01 504.5,362C 505.094,361.536 505.761,361.369 506.5,361.5 Z"/></g>
<g><path style="opacity:1" fill="#ff7351" d="M 644.5,370.5 C 645.649,370.791 646.316,371.624 646.5,373C 645.735,376.775 643.735,379.775 640.5,382C 629.888,389.306 618.555,394.972 606.5,399C 620.387,392.11 632.887,383.277 644,372.5C 644.464,371.906 644.631,371.239 644.5,370.5 Z"/></g>
<g><path style="opacity:1" fill="#fa7653" d="M 467.5,305.5 C 470.167,305.833 472.833,306.167 475.5,306.5C 478.319,312.807 481.152,319.141 484,325.5C 494.667,339.5 505.333,353.5 516,367.5C 525.976,383.28 531.81,400.447 533.5,419C 531.531,456.902 520.365,491.735 500,523.5C 488.564,536.938 476.398,549.771 463.5,562C 450.668,572.918 436.668,582.085 421.5,589.5C 419.634,590.014 417.8,590.68 416,591.5C 414.437,590.898 414.604,590.065 416.5,589C 433.874,579.952 449.874,568.952 464.5,556C 500.183,524.137 520.683,484.303 526,436.5C 528.2,418.534 526.033,401.201 519.5,384.5C 519.66,382.801 519.494,381.134 519,379.5C 515.75,372.769 511.583,366.769 506.5,361.5C 499.915,352.079 492.081,343.745 483,336.5C 475.45,327.346 470.284,317.013 467.5,305.5 Z"/></g>
<g><path style="opacity:1" fill="#fb0201" d="M 373.5,397.5 C 384.637,413.777 393.137,431.443 399,450.5C 403.618,466.617 404.618,482.95 402,499.5C 398.736,513.087 391.236,523.587 379.5,531C 371.489,533.67 363.489,536.337 355.5,539C 338.107,541.693 320.607,543.193 303,543.5C 285.095,542.984 267.262,541.651 249.5,539.5C 248.737,538.732 247.737,538.232 246.5,538C 262.489,537.067 278.489,536.4 294.5,536C 315.323,535.266 335.323,530.933 354.5,523C 365.402,517.975 373.568,510.142 379,499.5C 383.281,484.94 383.614,470.273 380,455.5C 373.034,429.902 361.534,406.569 345.5,385.5C 346.025,384.808 346.692,384.308 347.5,384C 359.345,382.422 368.012,386.922 373.5,397.5 Z"/></g>
<g><path style="opacity:1" fill="#780000" d="M 462.5,388.5 C 463.958,393.221 463.458,397.887 461,402.5C 460.275,403.059 459.442,403.392 458.5,403.5C 456.845,402.612 455.178,402.112 453.5,402C 451.405,406.196 449.072,410.196 446.5,414C 438.486,417.812 434.486,415.312 434.5,406.5C 434.355,400.731 436.188,395.731 440,391.5C 440.167,392 440.333,392.5 440.5,393C 437.99,397.917 437.157,403.084 438,408.5C 438.739,409.574 439.739,410.241 441,410.5C 443.597,409.571 445.597,407.904 447,405.5C 449.581,400.762 451.581,395.762 453,390.5C 453.689,393.898 455.355,396.565 458,398.5C 460.355,395.62 461.855,392.286 462.5,388.5 Z"/></g>
<g><path style="opacity:1" fill="#ff4b38" d="M 369.5,407.5 C 372.325,407.081 374.491,408.081 376,410.5C 390.192,434.602 396.859,460.602 396,488.5C 391.64,514.528 376.474,529.361 350.5,533C 379.147,522.638 391.98,502.138 389,471.5C 385.668,449.671 378.835,429.005 368.5,409.5C 368.863,408.817 369.196,408.15 369.5,407.5 Z"/></g>
<g><path style="opacity:1" fill="#fdf600" d="M 638.5,412.5 C 651.48,413.06 664.48,413.893 677.5,415C 682.601,416.193 684.268,419.027 682.5,423.5C 671.426,426.801 660.093,428.468 648.5,428.5C 638.015,428.141 627.682,426.807 617.5,424.5C 617.795,422.265 617.461,420.265 616.5,418.5C 616.5,418.167 616.5,417.833 616.5,417.5C 623.663,415.47 630.996,413.803 638.5,412.5 Z"/></g>
<g><path style="opacity:1" fill="#ff7351" d="M 605.5,419.5 C 606.803,421.757 606.136,423.59 603.5,425C 591.825,429.118 579.825,430.451 567.5,429C 577.296,428.077 586.963,426.41 596.5,424C 600.11,423.528 603.11,422.028 605.5,419.5 Z"/></g>
<g><path style="opacity:1" fill="#fdbd00" d="M 616.5,418.5 C 617.461,420.265 617.795,422.265 617.5,424.5C 627.682,426.807 638.015,428.141 648.5,428.5C 660.093,428.468 671.426,426.801 682.5,423.5C 680.996,425.836 678.996,427.669 676.5,429C 651.401,440.207 625.067,445.874 597.5,446C 606.423,451.08 615.59,455.58 625,459.5C 625.781,460.729 626.281,462.062 626.5,463.5C 625.052,468.411 621.718,471.244 616.5,472C 607.833,472.667 599.167,472.667 590.5,472C 579.303,470.031 568.303,467.698 557.5,465C 561.122,469.745 564.622,474.578 568,479.5C 569.9,484.901 568.067,487.234 562.5,486.5C 550.839,484.838 540.506,480.171 531.5,472.5C 532.309,470.929 532.643,469.262 532.5,467.5C 533.652,463.225 534.652,458.892 535.5,454.5C 544.484,455.432 553.484,455.599 562.5,455C 567.825,454.338 572.658,452.505 577,449.5C 578.246,444.664 576.746,440.997 572.5,438.5C 577.5,437.833 582.5,437.167 587.5,436.5C 594.618,435.184 601.618,433.351 608.5,431C 613.91,428.453 616.576,424.286 616.5,418.5 Z"/></g>
<g><path style="opacity:1" fill="#b25800" d="M 587.5,436.5 C 582.5,437.167 577.5,437.833 572.5,438.5C 571.957,438.44 571.624,438.107 571.5,437.5C 576.792,436.505 582.125,436.172 587.5,436.5 Z"/></g>
<g><path style="opacity:1" fill="#deb279" d="M 248.5,444.5 C 238.758,444.245 229.092,444.911 219.5,446.5C 222.203,445.037 225.203,444.204 228.5,444C 235.346,443.179 242.013,443.346 248.5,444.5 Z"/></g>
<g><path style="opacity:1" fill="#d67d0c" d="M 248.5,444.5 C 254.817,445.094 261.151,445.594 267.5,446C 277.807,448.327 288.14,450.494 298.5,452.5C 302.896,455.025 306.896,458.025 310.5,461.5C 290.544,455.572 270.211,451.406 249.5,449C 243.175,448.5 236.842,448.334 230.5,448.5C 229.448,448.351 228.448,448.517 227.5,449C 249.99,459.508 271.656,470.675 292.5,482.5C 293.774,483.189 293.774,484.023 292.5,485C 290.187,485.662 287.854,486.162 285.5,486.5C 285.423,485.25 284.756,484.417 283.5,484C 252.315,473.663 220.315,468.163 187.5,467.5C 181.5,467.667 175.5,467.833 169.5,468C 165.608,468.419 161.942,469.252 158.5,470.5C 157.448,470.351 156.448,470.517 155.5,471C 187.303,488.101 220.97,499.935 256.5,506.5C 257.167,507.833 257.833,509.167 258.5,510.5C 258.167,511.5 257.5,512.167 256.5,512.5C 217.995,504.866 178.995,502.366 139.5,505C 131.982,505.07 124.649,506.237 117.5,508.5C 117.624,509.107 117.957,509.44 118.5,509.5C 154.307,524.47 191.64,532.804 230.5,534.5C 230.232,532.901 230.566,531.568 231.5,530.5C 230.58,535.219 232.247,538.552 236.5,540.5C 233.5,540.5 230.5,540.5 227.5,540.5C 224.5,540.5 221.5,540.5 218.5,540.5C 181.526,535.24 145.526,525.74 110.5,512C 103.957,508.775 103.957,505.775 110.5,503C 116.826,502.267 123.16,501.601 129.5,501C 155.815,499.81 182.149,499.144 208.5,499C 188.974,492.408 169.974,484.408 151.5,475C 149.649,473.316 147.982,471.483 146.5,469.5C 147.313,468.186 148.313,467.019 149.5,466C 169.363,462.645 189.363,461.645 209.5,463C 229.092,465.321 248.426,468.654 267.5,473C 251.167,465.333 234.833,457.667 218.5,450C 217.015,448.244 217.348,447.077 219.5,446.5C 229.092,444.911 238.758,444.245 248.5,444.5 Z"/></g>
<g><path style="opacity:1" fill="#febf00" d="M 230.5,448.5 C 236.842,448.334 243.175,448.5 249.5,449C 270.211,451.406 290.544,455.572 310.5,461.5C 306.355,464.305 301.689,467.305 296.5,470.5C 296.047,469.542 295.381,468.708 294.5,468C 273.392,460.35 252.059,453.85 230.5,448.5 Z"/></g>
<g><path style="opacity:1" fill="#fcf300" d="M 230.5,448.5 C 252.059,453.85 273.392,460.35 294.5,468C 295.381,468.708 296.047,469.542 296.5,470.5C 295.207,472.296 293.707,473.963 292,475.5C 291.22,477.387 291.387,479.054 292.5,480.5C 292.5,481.167 292.5,481.833 292.5,482.5C 271.656,470.675 249.99,459.508 227.5,449C 228.448,448.517 229.448,448.351 230.5,448.5 Z"/></g>
<g><path style="opacity:1" fill="#a00000" d="M 339.5,472.5 C 345.218,473.82 350.884,475.32 356.5,477C 345.006,479.256 333.673,478.589 322.5,475C 317.459,471.975 312.126,469.808 306.5,468.5C 309.385,466.98 312.552,465.98 316,465.5C 323.173,468.412 330.507,471.078 338,473.5C 338.765,473.43 339.265,473.097 339.5,472.5 Z"/></g>
<g><path style="opacity:1" fill="#febe00" d="M 285.5,486.5 C 277.125,488.68 269.125,492.013 261.5,496.5C 261.389,495.883 261.056,495.383 260.5,495C 235.642,491.087 210.975,486.087 186.5,480C 176.938,477.12 167.605,473.953 158.5,470.5C 161.942,469.252 165.608,468.419 169.5,468C 175.5,467.833 181.5,467.667 187.5,467.5C 220.315,468.163 252.315,473.663 283.5,484C 284.756,484.417 285.423,485.25 285.5,486.5 Z"/></g>
<g><path style="opacity:1" fill="#fcf300" d="M 158.5,470.5 C 167.605,473.953 176.938,477.12 186.5,480C 210.975,486.087 235.642,491.087 260.5,495C 261.056,495.383 261.389,495.883 261.5,496.5C 261.5,496.833 261.5,497.167 261.5,497.5C 257.795,499.24 256.128,502.24 256.5,506.5C 220.97,499.935 187.303,488.101 155.5,471C 156.448,470.517 157.448,470.351 158.5,470.5 Z"/></g>
<g><path style="opacity:1" fill="#750800" d="M 261.5,497.5 C 260.463,499.738 260.297,502.071 261,504.5C 265.377,507.868 264.544,509.868 258.5,510.5C 257.833,509.167 257.167,507.833 256.5,506.5C 256.128,502.24 257.795,499.24 261.5,497.5 Z"/></g>
<g><path style="opacity:1" fill="#febf00" d="M 256.5,512.5 C 250.782,515.686 245.448,519.352 240.5,523.5C 240.167,523.5 239.833,523.5 239.5,523.5C 215.967,521.536 192.3,519.37 168.5,517C 152.435,514.492 136.435,511.659 120.5,508.5C 119.584,508.543 118.917,508.876 118.5,509.5C 117.957,509.44 117.624,509.107 117.5,508.5C 124.649,506.237 131.982,505.07 139.5,505C 178.995,502.366 217.995,504.866 256.5,512.5 Z"/></g>
<g><path style="opacity:1" fill="#fcf300" d="M 118.5,509.5 C 118.917,508.876 119.584,508.543 120.5,508.5C 136.435,511.659 152.435,514.492 168.5,517C 192.3,519.37 215.967,521.536 239.5,523.5C 236.216,525.117 233.549,527.45 231.5,530.5C 230.566,531.568 230.232,532.901 230.5,534.5C 191.64,532.804 154.307,524.47 118.5,509.5 Z"/></g>
<g><path style="opacity:1" fill="#c70000" d="M 227.5,540.5 C 230.5,540.5 233.5,540.5 236.5,540.5C 250.736,543.082 265.07,545.082 279.5,546.5C 266.794,563.701 250.461,576.201 230.5,584C 224.712,584.961 219.045,585.795 213.5,586.5C 211.727,585.686 211.227,584.352 212,582.5C 216.561,578.134 221.728,574.634 227.5,572C 217.658,571.83 207.991,571.33 198.5,570.5C 209.838,570.667 221.172,570.5 232.5,570C 239.975,565.606 246.642,560.273 252.5,554C 237.664,557.456 222.664,560.456 207.5,563C 201.5,563.667 195.5,563.667 189.5,563C 187.963,561.293 186.296,559.793 184.5,558.5C 186.869,554.805 190.203,552.305 194.5,551C 205.628,547.567 216.628,544.067 227.5,540.5 Z"/></g>
<g><path style="opacity:1" fill="#105693" d="M 189.5,548.5 C 185.544,550.788 182.211,553.788 179.5,557.5C 179.5,556.5 179.5,555.5 179.5,554.5C 136.096,557.694 92.7626,557.027 49.5,552.5C 48.3991,551.402 47.0657,551.235 45.5,552C 68.3284,564.574 92.6617,572.907 118.5,577C 146.416,580.609 174.416,581.442 202.5,579.5C 200.572,581.474 198.239,582.974 195.5,584C 179.592,589.21 163.592,594.21 147.5,599C 146.748,599.671 146.414,600.504 146.5,601.5C 146.953,602.458 147.619,603.292 148.5,604C 168.294,604.721 187.961,603.388 207.5,600C 214.858,598.584 221.858,596.417 228.5,593.5C 230.099,593.768 231.432,593.434 232.5,592.5C 234.806,592.007 237.139,591.674 239.5,591.5C 238.71,592.794 237.71,593.961 236.5,595C 230.156,598.504 224.156,602.504 218.5,607C 216.549,608.734 215.549,610.901 215.5,613.5C 226.389,611.726 236.723,608.226 246.5,603C 248.063,602.241 249.063,601.074 249.5,599.5C 253.658,599.668 257.658,599.002 261.5,597.5C 258.634,600.521 255.3,603.021 251.5,605C 238.472,611.639 224.805,616.472 210.5,619.5C 206.313,620.149 204.813,618.482 206,614.5C 208.966,609.586 212.799,605.419 217.5,602C 193.644,608.085 169.311,610.418 144.5,609C 142.122,608.489 139.788,607.822 137.5,607C 134.068,604.633 133.735,601.966 136.5,599C 149.167,594.667 161.833,590.333 174.5,586C 159.802,585.784 145.135,585.284 130.5,584.5C 126.081,583.028 121.414,582.362 116.5,582.5C 99.2898,580.065 82.6231,575.565 66.5,569C 54.0598,563.704 42.8931,556.537 33,547.5C 32.5683,546.4 33.0683,545.733 34.5,545.5C 44.038,547.734 53.7047,549.234 63.5,550C 105.538,553.411 147.538,552.911 189.5,548.5 Z"/></g>
<g><path style="opacity:1" fill="#c60000" d="M 348.5,544.5 C 353.481,575.987 371.814,592.487 403.5,594C 408.5,598.333 413.5,602.667 418.5,607C 429.034,619.201 440.534,630.368 453,640.5C 453.49,639.207 453.657,637.873 453.5,636.5C 454.461,638.265 454.795,640.265 454.5,642.5C 446.726,640.029 439.559,636.363 433,631.5C 432.667,634.833 432.333,638.167 432,641.5C 431.577,642.956 430.744,643.456 429.5,643C 419.589,627.088 406.922,613.755 391.5,603C 378.848,603.428 366.181,603.428 353.5,603C 349.187,601.833 344.853,601.166 340.5,601C 332.604,607.061 325.937,614.228 320.5,622.5C 319.029,616.618 318.029,610.618 317.5,604.5C 312.292,607.535 306.959,610.368 301.5,613C 296.607,615.216 291.607,616.049 286.5,615.5C 288.322,606.83 290.822,598.496 294,590.5C 291.46,592.705 289.293,595.205 287.5,598C 283.174,599.331 278.84,600.498 274.5,601.5C 281.309,582.357 293.309,567.357 310.5,556.5C 311.484,553.572 311.817,550.572 311.5,547.5C 323.982,547.714 336.315,546.714 348.5,544.5 Z"/></g>
<g><path style="opacity:1" fill="#fb0000" d="M 279.5,546.5 C 288.5,546.5 297.5,546.5 306.5,546.5C 306.664,549.187 306.497,551.854 306,554.5C 295.333,561.167 286.667,569.833 280,580.5C 273.096,588.242 264.596,593.242 254.5,595.5C 249.657,595.495 247.491,593.162 248,588.5C 252.149,587.02 254.815,584.353 256,580.5C 248.605,584.646 240.772,587.813 232.5,590C 225.63,591.405 219.297,590.239 213.5,586.5C 219.045,585.795 224.712,584.961 230.5,584C 250.461,576.201 266.794,563.701 279.5,546.5 Z"/></g>
<g><path style="opacity:1" fill="#026dc2" d="M 49.5,552.5 C 92.7626,557.027 136.096,557.694 179.5,554.5C 179.5,555.5 179.5,556.5 179.5,557.5C 179.089,565.015 182.422,570.015 189.5,572.5C 151.183,577.474 113.516,574.64 76.5,564C 67.1127,560.824 58.1127,556.99 49.5,552.5 Z"/></g>
<g><path style="opacity:1" fill="#f90000" d="M 198.5,570.5 C 195.729,570.579 193.063,570.079 190.5,569C 184.931,567.349 182.931,563.849 184.5,558.5C 186.296,559.793 187.963,561.293 189.5,563C 195.5,563.667 201.5,563.667 207.5,563C 222.664,560.456 237.664,557.456 252.5,554C 246.642,560.273 239.975,565.606 232.5,570C 221.172,570.5 209.838,570.667 198.5,570.5 Z"/></g>
<g><path style="opacity:1" fill="#059be5" d="M 49.5,552.5 C 58.1127,556.99 67.1127,560.824 76.5,564C 113.516,574.64 151.183,577.474 189.5,572.5C 197.298,574.757 205.298,575.923 213.5,576C 212.756,577.039 211.756,577.539 210.5,577.5C 207.659,577.56 204.993,578.226 202.5,579.5C 174.416,581.442 146.416,580.609 118.5,577C 92.6617,572.907 68.3284,564.574 45.5,552C 47.0657,551.235 48.3991,551.402 49.5,552.5 Z"/></g>
<g><path style="opacity:1" fill="#026dc2" d="M 210.5,577.5 C 208.909,579.681 207.576,582.014 206.5,584.5C 207.432,586.765 208.765,588.765 210.5,590.5C 198.769,593.02 187.102,595.854 175.5,599C 165.862,600.231 156.196,601.064 146.5,601.5C 146.414,600.504 146.748,599.671 147.5,599C 163.592,594.21 179.592,589.21 195.5,584C 198.239,582.974 200.572,581.474 202.5,579.5C 204.993,578.226 207.659,577.56 210.5,577.5 Z"/></g>
<g><path style="opacity:1" fill="#f22333" d="M 463.5,626.5 C 464.675,626.719 465.675,626.386 466.5,625.5C 458.783,611.349 453.45,596.349 450.5,580.5C 451.145,579.188 452.145,578.188 453.5,577.5C 457.717,594.026 462.717,610.36 468.5,626.5C 466.701,627.788 465.035,627.788 463.5,626.5 Z"/></g>
<g><path style="opacity:1" fill="#618db2" d="M 116.5,582.5 C 121.414,582.362 126.081,583.028 130.5,584.5C 125.586,584.638 120.919,583.972 116.5,582.5 Z"/></g>
<g><path style="opacity:1" fill="#009fea" d="M 210.5,590.5 C 211.391,591.11 212.391,591.443 213.5,591.5C 213.918,592.222 214.584,592.722 215.5,593C 219.821,593.499 224.154,593.666 228.5,593.5C 221.858,596.417 214.858,598.584 207.5,600C 187.961,603.388 168.294,604.721 148.5,604C 147.619,603.292 146.953,602.458 146.5,601.5C 156.196,601.064 165.862,600.231 175.5,599C 187.102,595.854 198.769,593.02 210.5,590.5 Z"/></g>
<g><path style="opacity:1" fill="#4e3248" d="M 213.5,591.5 C 219.797,592.32 226.131,592.653 232.5,592.5C 231.432,593.434 230.099,593.768 228.5,593.5C 224.154,593.666 219.821,593.499 215.5,593C 214.584,592.722 213.918,592.222 213.5,591.5 Z"/></g>
<g><path style="opacity:1" fill="#039fe9" d="M 249.5,599.5 C 249.063,601.074 248.063,602.241 246.5,603C 236.723,608.226 226.389,611.726 215.5,613.5C 215.549,610.901 216.549,608.734 218.5,607C 224.156,602.504 230.156,598.504 236.5,595C 237.71,593.961 238.71,592.794 239.5,591.5C 240.858,590.374 242.192,590.374 243.5,591.5C 244.374,595.037 246.374,597.703 249.5,599.5 Z"/></g>
<g><path style="opacity:1" fill="#e5e4e4" d="M 437.5,643.5 C 446.172,652.854 452.839,663.521 457.5,675.5C 457.5,676.5 457.5,677.5 457.5,678.5C 453.167,678.5 448.833,678.5 444.5,678.5C 433.562,676.466 422.896,677.299 412.5,681C 410.004,682.666 407.671,684.5 405.5,686.5C 380.489,686.307 355.489,686.64 330.5,687.5C 324.374,679.096 316.041,674.263 305.5,673C 298.833,672.667 292.167,672.333 285.5,672C 283.82,671.653 282.82,670.653 282.5,669C 292.558,653.713 303.224,638.88 314.5,624.5C 316.177,627.363 318.51,629.196 321.5,630C 326.878,621.596 333.212,613.93 340.5,607C 349.625,607.642 358.792,608.142 368,608.5C 374.918,608.617 381.751,607.95 388.5,606.5C 404.743,618.576 418.409,633.076 429.5,650C 430.833,650.667 432.167,650.667 433.5,650C 435.125,647.905 436.458,645.739 437.5,643.5 Z"/></g>
<g><path style="opacity:1" fill="#f82334" d="M 450.5,615.5 C 449.903,615.735 449.57,616.235 449.5,617C 450.566,620.094 451.232,623.26 451.5,626.5C 448.469,620.43 445.802,614.097 443.5,607.5C 444.274,606.289 445.107,606.289 446,607.5C 447.259,610.356 448.759,613.023 450.5,615.5 Z"/></g>
<g><path style="opacity:1" fill="#fdf600" d="M 313.5,617.5 C 299.837,635.176 286.504,653.176 273.5,671.5C 275.51,674.017 278.177,675.517 281.5,676C 289.115,677.146 296.782,677.812 304.5,678C 315.598,679.704 323.598,685.537 328.5,695.5C 326.842,700.997 323.175,702.83 317.5,701C 309.378,696.773 300.711,694.44 291.5,694C 271.7,691.543 252.7,694.21 234.5,702C 222.576,708.267 210.909,714.933 199.5,722C 191.165,726.67 182.498,730.503 173.5,733.5C 166.653,734.142 163.153,731.142 163,724.5C 165.537,721.628 168.37,719.128 171.5,717C 194.53,707.173 217.53,697.507 240.5,688C 248.112,684.861 255.446,681.194 262.5,677C 276.132,657.566 289.132,637.732 301.5,617.5C 305.26,616.122 308.926,614.455 312.5,612.5C 313.452,614.045 313.785,615.712 313.5,617.5 Z"/></g>
<g><path style="opacity:1" fill="#fdbd00" d="M 301.5,617.5 C 289.132,637.732 276.132,657.566 262.5,677C 255.446,681.194 248.112,684.861 240.5,688C 217.53,697.507 194.53,707.173 171.5,717C 168.37,719.128 165.537,721.628 163,724.5C 163.153,731.142 166.653,734.142 173.5,733.5C 164.622,737.145 155.622,737.311 146.5,734C 143.71,731.79 142.877,728.956 144,725.5C 145.458,723.04 147.291,720.873 149.5,719C 158.145,712.681 167.479,707.681 177.5,704C 201.025,696.572 224.358,688.572 247.5,680C 243.016,679.269 238.682,679.769 234.5,681.5C 231.36,680.359 228.027,680.192 224.5,681C 200.079,684.231 175.746,687.898 151.5,692C 147.252,693.413 144.585,696.246 143.5,700.5C 139.225,698.684 138.392,695.684 141,691.5C 146.687,686.572 153.187,683.072 160.5,681C 169.421,679.124 178.421,677.791 187.5,677C 202.167,676.667 216.833,676.333 231.5,676C 245.895,674.219 258.062,668.052 268,657.5C 277.749,645.667 286.249,633 293.5,619.5C 296.167,618.833 298.833,618.167 301.5,617.5 Z"/></g>
<g><path style="opacity:1" fill="#9d5b59" d="M 285.5,605.5 C 284.5,610.167 283.5,614.833 282.5,619.5C 284.167,619.5 285.833,619.5 287.5,619.5C 287.5,619.833 287.5,620.167 287.5,620.5C 285.5,620.5 283.5,620.5 281.5,620.5C 281.642,615.089 282.976,610.089 285.5,605.5 Z"/></g>
<g><path style="opacity:1" fill="#d67f0c" d="M 313.5,617.5 C 313.993,619.806 314.326,622.139 314.5,624.5C 303.224,638.88 292.558,653.713 282.5,669C 282.82,670.653 283.82,671.653 285.5,672C 292.167,672.333 298.833,672.667 305.5,673C 316.041,674.263 324.374,679.096 330.5,687.5C 337.14,702.708 332.14,709.208 315.5,707C 308.733,702.745 301.4,700.078 293.5,699C 274.862,696.758 256.862,699.092 239.5,706C 221.26,715.62 202.927,724.953 184.5,734C 177.323,737.111 169.99,739.278 162.5,740.5C 157.5,740.5 152.5,740.5 147.5,740.5C 133.666,735.338 131.999,727.505 142.5,717C 149.442,711.695 157.109,707.695 165.5,705C 156.833,704.667 148.167,704.333 139.5,704C 136.887,702.893 135.22,701.06 134.5,698.5C 134.211,695.351 134.711,692.351 136,689.5C 138.22,686.979 140.72,684.812 143.5,683C 153.912,677.806 164.912,674.972 176.5,674.5C 192.995,673.982 209.328,673.315 225.5,672.5C 237.133,671.9 247.799,668.4 257.5,662C 269.591,649.64 279.591,635.806 287.5,620.5C 287.5,620.167 287.5,619.833 287.5,619.5C 289.5,619.5 291.5,619.5 293.5,619.5C 286.249,633 277.749,645.667 268,657.5C 258.062,668.052 245.895,674.219 231.5,676C 216.833,676.333 202.167,676.667 187.5,677C 178.421,677.791 169.421,679.124 160.5,681C 153.187,683.072 146.687,686.572 141,691.5C 138.392,695.684 139.225,698.684 143.5,700.5C 155.171,700.667 166.838,700.5 178.5,700C 197.169,693.721 215.836,687.555 234.5,681.5C 238.682,679.769 243.016,679.269 247.5,680C 224.358,688.572 201.025,696.572 177.5,704C 167.479,707.681 158.145,712.681 149.5,719C 147.291,720.873 145.458,723.04 144,725.5C 142.877,728.956 143.71,731.79 146.5,734C 155.622,737.311 164.622,737.145 173.5,733.5C 182.498,730.503 191.165,726.67 199.5,722C 210.909,714.933 222.576,708.267 234.5,702C 252.7,694.21 271.7,691.543 291.5,694C 300.711,694.44 309.378,696.773 317.5,701C 323.175,702.83 326.842,700.997 328.5,695.5C 323.598,685.537 315.598,679.704 304.5,678C 296.782,677.812 289.115,677.146 281.5,676C 278.177,675.517 275.51,674.017 273.5,671.5C 286.504,653.176 299.837,635.176 313.5,617.5 Z"/></g>
<g><path style="opacity:1" fill="#d67f0d" d="M 465.5,632.5 C 469.907,645.314 475.407,657.648 482,669.5C 490.098,679.048 500.431,683.714 513,683.5C 532.865,681.63 552.698,679.463 572.5,677C 577.833,676.333 583.167,676.333 588.5,677C 594.201,678.207 599.868,679.54 605.5,681C 640.804,699.611 638.804,709.278 599.5,710C 599.283,716.885 595.95,721.551 589.5,724C 583.833,724.667 578.167,724.667 572.5,724C 564.044,720.902 555.377,718.735 546.5,717.5C 507.475,705.622 467.475,700.789 426.5,703C 419.521,704.5 412.521,705.5 405.5,706C 402.183,704.196 400.85,701.363 401.5,697.5C 401.44,693.294 402.773,689.627 405.5,686.5C 407.671,684.5 410.004,682.666 412.5,681C 422.896,677.299 433.562,676.466 444.5,678.5C 448.97,679.486 453.637,679.819 458.5,679.5C 458.768,677.901 458.434,676.568 457.5,675.5C 452.839,663.521 446.172,652.854 437.5,643.5C 437.238,642.022 437.571,640.689 438.5,639.5C 441.541,641.559 444.541,643.559 447.5,645.5C 446.624,645.369 445.957,645.702 445.5,646.5C 453.509,657.844 460.509,669.844 466.5,682.5C 462.833,682.833 459.167,683.167 455.5,683.5C 444.895,681.925 434.228,681.425 423.5,682C 417.447,683.774 412.28,686.941 408,691.5C 407.216,694.76 407.383,697.927 408.5,701C 414.847,700.45 421.181,699.45 427.5,698C 445.855,697.207 464.188,697.54 482.5,699C 491.068,700.984 499.735,702.317 508.5,703C 527.064,707.653 545.731,711.82 564.5,715.5C 569.338,717.504 574.505,718.504 580,718.5C 590.035,719.124 593.035,714.791 589,705.5C 583.751,697.933 576.584,693.099 567.5,691C 546.119,690.744 524.786,689.744 503.5,688C 492.966,685.492 484.132,680.325 477,672.5C 470.551,660.277 464.718,647.943 459.5,635.5C 458.378,633.712 458.211,631.712 459,629.5C 461.221,630.406 463.388,631.406 465.5,632.5 Z"/></g>
<g><path style="opacity:1" fill="#fdf500" d="M 459.5,635.5 C 464.718,647.943 470.551,660.277 477,672.5C 484.132,680.325 492.966,685.492 503.5,688C 524.786,689.744 546.119,690.744 567.5,691C 576.584,693.099 583.751,697.933 589,705.5C 593.035,714.791 590.035,719.124 580,718.5C 574.505,718.504 569.338,717.504 564.5,715.5C 564.84,711.869 564.006,708.536 562,705.5C 558.248,702.371 554.081,699.871 549.5,698C 535.844,696.917 522.178,695.917 508.5,695C 494.522,692.307 482.355,686.14 472,676.5C 466.555,667.273 461.389,657.94 456.5,648.5C 458.411,648.426 459.578,647.426 460,645.5C 460.172,642.174 460.005,638.841 459.5,635.5 Z"/></g>
<g><path style="opacity:1" fill="#fed800" d="M 447.5,645.5 C 450.208,647.353 453.208,648.353 456.5,648.5C 461.389,657.94 466.555,667.273 472,676.5C 482.355,686.14 494.522,692.307 508.5,695C 522.178,695.917 535.844,696.917 549.5,698C 554.081,699.871 558.248,702.371 562,705.5C 564.006,708.536 564.84,711.869 564.5,715.5C 545.731,711.82 527.064,707.653 508.5,703C 499.735,702.317 491.068,700.984 482.5,699C 464.188,697.54 445.855,697.207 427.5,698C 421.181,699.45 414.847,700.45 408.5,701C 407.383,697.927 407.216,694.76 408,691.5C 412.28,686.941 417.447,683.774 423.5,682C 434.228,681.425 444.895,681.925 455.5,683.5C 459.167,683.167 462.833,682.833 466.5,682.5C 460.509,669.844 453.509,657.844 445.5,646.5C 445.957,645.702 446.624,645.369 447.5,645.5 Z"/></g>
<g><path style="opacity:1" fill="#da9c4c" d="M 225.5,672.5 C 209.328,673.315 192.995,673.982 176.5,674.5C 178.969,673.683 181.635,673.183 184.5,673C 198.163,672.5 211.829,672.333 225.5,672.5 Z"/></g>
<g><path style="opacity:1" fill="#e0bd91" d="M 457.5,675.5 C 458.434,676.568 458.768,677.901 458.5,679.5C 453.637,679.819 448.97,679.486 444.5,678.5C 448.833,678.5 453.167,678.5 457.5,678.5C 457.5,677.5 457.5,676.5 457.5,675.5 Z"/></g>
<g><path style="opacity:1" fill="#fdf500" d="M 234.5,681.5 C 215.836,687.555 197.169,693.721 178.5,700C 166.838,700.5 155.171,700.667 143.5,700.5C 144.585,696.246 147.252,693.413 151.5,692C 175.746,687.898 200.079,684.231 224.5,681C 228.027,680.192 231.36,680.359 234.5,681.5 Z"/></g>
<g><path style="opacity:1" fill="#fdf500" d="M 583.5,682.5 C 598.218,683.585 611.218,688.751 622.5,698C 623.991,700.022 623.658,701.688 621.5,703C 619.866,703.494 618.199,703.66 616.5,703.5C 614.801,703.66 613.134,703.494 611.5,703C 606.845,695.843 600.512,690.843 592.5,688C 583.552,686.089 574.552,684.423 565.5,683C 571.491,682.501 577.491,682.334 583.5,682.5 Z"/></g>
<g><path style="opacity:1" fill="#fcd900" d="M 583.5,682.5 C 577.491,682.334 571.491,682.501 565.5,683C 574.552,684.423 583.552,686.089 592.5,688C 600.512,690.843 606.845,695.843 611.5,703C 613.134,703.494 614.801,703.66 616.5,703.5C 610.013,704.654 603.346,704.821 596.5,704C 589.414,694.784 580.081,689.117 568.5,687C 558.5,686.667 548.5,686.333 538.5,686C 546.844,684.749 555.177,683.415 563.5,682C 570.346,681.179 577.013,681.346 583.5,682.5 Z"/></g>
<g><path style="opacity:1" fill="#dadadb" d="M 405.5,686.5 C 402.773,689.627 401.44,693.294 401.5,697.5C 400.85,701.363 402.183,704.196 405.5,706C 412.521,705.5 419.521,704.5 426.5,703C 467.475,700.789 507.475,705.622 546.5,717.5C 486.962,722.267 427.296,724.434 367.5,724C 358.508,727.997 349.175,730.997 339.5,733C 381.183,733.084 422.85,733.751 464.5,735C 471.39,735.778 478.057,737.445 484.5,740C 487.961,741.643 490.961,743.81 493.5,746.5C 423.5,746.5 353.5,746.5 283.5,746.5C 286.439,743.082 290.106,740.582 294.5,739C 291.333,738.833 288.167,738.667 285,738.5C 244.186,740.228 203.353,740.894 162.5,740.5C 169.99,739.278 177.323,737.111 184.5,734C 202.927,724.953 221.26,715.62 239.5,706C 256.862,699.092 274.862,696.758 293.5,699C 301.4,700.078 308.733,702.745 315.5,707C 332.14,709.208 337.14,702.708 330.5,687.5C 355.489,686.64 380.489,686.307 405.5,686.5 Z"/></g>
<g><path style="opacity:1" fill="#dadadb" d="M 134.5,698.5 C 135.22,701.06 136.887,702.893 139.5,704C 148.167,704.333 156.833,704.667 165.5,705C 157.109,707.695 149.442,711.695 142.5,717C 131.999,727.505 133.666,735.338 147.5,740.5C 115.72,739.992 84.0535,737.826 52.5,734C 38.5874,732.855 25.2541,729.522 12.5,724C 9.78523,720.28 10.7852,717.613 15.5,716C 22.6029,713.188 29.9363,711.188 37.5,710C 69.6622,705.205 101.996,702.372 134.5,701.5C 134.5,700.5 134.5,699.5 134.5,698.5 Z"/></g>
</svg>
