<?xml version="1.0" encoding="UTF-8"?>
<!DOCTYPE svg PUBLIC "-//W3C//DTD SVG 1.1//EN" "http://www.w3.org/Graphics/SVG/1.1/DTD/svg11.dtd">
<svg xmlns="http://www.w3.org/2000/svg" version="1.1" width="121px" height="179px" style="shape-rendering:geometricPrecision; text-rendering:geometricPrecision; image-rendering:optimizeQuality; fill-rule:evenodd; clip-rule:evenodd" xmlns:xlink="http://www.w3.org/1999/xlink">
<g><path style="opacity:1" fill="#0d0f0c" d="M 119.5,-0.5 C 119.833,-0.5 120.167,-0.5 120.5,-0.5C 120.5,59.1667 120.5,118.833 120.5,178.5C 120.167,178.5 119.833,178.5 119.5,178.5C 119.5,176.167 119.5,173.833 119.5,171.5C 119.5,169.833 119.5,168.167 119.5,166.5C 119.5,164.167 119.5,161.833 119.5,159.5C 119.5,155.5 119.5,151.5 119.5,147.5C 119.975,144.918 119.308,142.918 117.5,141.5C 114.811,142.038 112.144,142.705 109.5,143.5C 108.5,143 107.5,142.5 106.5,142C 108.594,140.648 110.927,140.148 113.5,140.5C 112.562,138.09 112.562,135.756 113.5,133.5C 117.847,131.142 119.847,127.475 119.5,122.5C 119.5,117.5 119.5,112.5 119.5,107.5C 119.5,99.1667 119.5,90.8333 119.5,82.5C 119.5,78.8333 119.5,75.1667 119.5,71.5C 119.5,64.8333 119.5,58.1667 119.5,51.5C 119.5,50.1667 119.5,48.8333 119.5,47.5C 119.5,43.8333 119.5,40.1667 119.5,36.5C 119.5,30.8333 119.5,25.1667 119.5,19.5C 119.5,18.8333 119.5,18.1667 119.5,17.5C 119.5,13.5 119.5,9.5 119.5,5.5C 119.5,3.5 119.5,1.5 119.5,-0.5 Z"/></g>
<g><path style="opacity:1" fill="#53493f" d="M 18.5,-0.5 C 29.1667,-0.5 39.8333,-0.5 50.5,-0.5C 51.3257,2.48479 52.659,5.15146 54.5,7.5C 54.5,7.83333 54.5,8.16667 54.5,8.5C 52.5992,8.43319 50.7659,8.76652 49,9.5C 47.1737,7.73255 46.007,5.56588 45.5,3C 44.2506,2.25988 43.2506,2.42654 42.5,3.5C 40.9256,3.06291 39.7589,2.06291 39,0.5C 35.836,1.38739 32.6693,2.38739 29.5,3.5C 27.3067,3.13561 25.4733,2.13561 24,0.5C 23.6667,1.16667 23.3333,1.83333 23,2.5C 20.9737,2.08527 19.4737,1.08527 18.5,-0.5 Z"/></g>
<g><path style="opacity:1" fill="#5c5248" d="M 4.5,-0.5 C 9.16667,-0.5 13.8333,-0.5 18.5,-0.5C 19.4737,1.08527 20.9737,2.08527 23,2.5C 23.3333,1.83333 23.6667,1.16667 24,0.5C 25.4733,2.13561 27.3067,3.13561 29.5,3.5C 32.6693,2.38739 35.836,1.38739 39,0.5C 39.7589,2.06291 40.9256,3.06291 42.5,3.5C 39.7622,5.86626 37.0956,5.53293 34.5,2.5C 33.6667,3.5 32.8333,4.5 32,5.5C 31.6667,5.16667 31.3333,4.83333 31,4.5C 30.5065,6.13414 30.3398,7.80081 30.5,9.5C 28.2729,8.59942 27.2729,6.93275 27.5,4.5C 26.5,4.5 25.5,4.5 24.5,4.5C 23.9969,9.50002 23.6636,9.16669 23.5,3.5C 22.5,3.5 21.5,3.5 20.5,3.5C 20.8432,5.48324 20.1765,6.81658 18.5,7.5C 18.7529,5.17267 18.0863,3.17267 16.5,1.5C 15.914,1.70931 15.414,2.04265 15,2.5C 11.108,2.17098 7.60796,1.17098 4.5,-0.5 Z"/></g>
<g><path style="opacity:1" fill="#0d0605" d="M 61.5,-0.5 C 67.5,-0.5 73.5,-0.5 79.5,-0.5C 80.6718,1.53904 82.3384,2.87237 84.5,3.5C 84.5,4.5 84.5,5.5 84.5,6.5C 82.8333,6.5 81.1667,6.5 79.5,6.5C 74.8433,5.17049 70.1767,3.83715 65.5,2.5C 63.8784,1.87764 62.5451,0.877641 61.5,-0.5 Z"/></g>
<g><path style="opacity:1" fill="#403428" d="M 79.5,-0.5 C 84.5,-0.5 89.5,-0.5 94.5,-0.5C 94.7073,2.24056 95.7073,4.57389 97.5,6.5C 97.5,6.83333 97.5,7.16667 97.5,7.5C 93.2365,5.91472 88.9032,4.58139 84.5,3.5C 82.3384,2.87237 80.6718,1.53904 79.5,-0.5 Z"/></g>
<g><path style="opacity:1" fill="#5e574d" d="M 119.5,5.5 C 119.5,9.5 119.5,13.5 119.5,17.5C 118.127,17.6567 116.793,17.49 115.5,17C 109.565,13.5356 103.565,10.3689 97.5,7.5C 97.5,7.16667 97.5,6.83333 97.5,6.5C 98.675,6.71901 99.675,6.38568 100.5,5.5C 99.4104,4.39138 99.4104,3.39138 100.5,2.5C 102.413,3.37298 104.247,4.37298 106,5.5C 106.483,4.55198 106.649,3.55198 106.5,2.5C 108.39,2.7035 109.89,2.03683 111,0.5C 112.319,2.2495 112.819,4.2495 112.5,6.5C 114.95,6.70197 117.283,6.36863 119.5,5.5 Z"/></g>
<g><path style="opacity:1" fill="#6a6156" d="M 94.5,-0.5 C 102.833,-0.5 111.167,-0.5 119.5,-0.5C 119.5,1.5 119.5,3.5 119.5,5.5C 117.283,6.36863 114.95,6.70197 112.5,6.5C 112.819,4.2495 112.319,2.2495 111,0.5C 109.89,2.03683 108.39,2.7035 106.5,2.5C 106.649,3.55198 106.483,4.55198 106,5.5C 104.247,4.37298 102.413,3.37298 100.5,2.5C 99.4104,3.39138 99.4104,4.39138 100.5,5.5C 99.675,6.38568 98.675,6.71901 97.5,6.5C 95.7073,4.57389 94.7073,2.24056 94.5,-0.5 Z"/></g>
<g><path style="opacity:1" fill="#655a4e" d="M -0.5,-0.5 C 1.16667,-0.5 2.83333,-0.5 4.5,-0.5C 7.60796,1.17098 11.108,2.17098 15,2.5C 15.414,2.04265 15.914,1.70931 16.5,1.5C 18.0863,3.17267 18.7529,5.17267 18.5,7.5C 18.5,8.5 18.5,9.5 18.5,10.5C 17.209,10.2627 16.209,10.596 15.5,11.5C 12.4212,11.7399 9.42116,11.4066 6.5,10.5C 5.61432,11.325 5.28099,12.325 5.5,13.5C 3.14166,13.7475 1.14166,13.0808 -0.5,11.5C -0.5,7.5 -0.5,3.5 -0.5,-0.5 Z"/></g>
<g><path style="opacity:1" fill="#665a4f" d="M 42.5,3.5 C 43.2506,2.42654 44.2506,2.25988 45.5,3C 46.007,5.56588 47.1737,7.73255 49,9.5C 50.7659,8.76652 52.5992,8.43319 54.5,8.5C 55.5729,10.3469 55.5729,12.3469 54.5,14.5C 53.1667,14.5 51.8333,14.5 50.5,14.5C 48.5128,13.6568 46.3461,12.9902 44,12.5C 42.2945,10.7242 40.4611,9.05751 38.5,7.5C 38.9402,8.95252 38.2735,10.1192 36.5,11C 35.1667,11.6667 33.8333,11.6667 32.5,11C 33.567,8.57282 32.9003,8.07282 30.5,9.5C 30.3398,7.80081 30.5065,6.13414 31,4.5C 31.3333,4.83333 31.6667,5.16667 32,5.5C 32.8333,4.5 33.6667,3.5 34.5,2.5C 37.0956,5.53293 39.7622,5.86626 42.5,3.5 Z"/></g>
<g><path style="opacity:1" fill="#71655a" d="M 50.5,14.5 C 48.2646,14.2053 46.2646,14.5386 44.5,15.5C 43.5207,16.7653 42.5207,18.0986 41.5,19.5C 40.8333,18.8333 40.1667,18.1667 39.5,17.5C 37.8014,18.8146 36.1347,18.8146 34.5,17.5C 34.1788,15.9519 33.1788,15.2852 31.5,15.5C 31.4828,13.4352 31.1495,11.4352 30.5,9.5C 32.9003,8.07282 33.567,8.57282 32.5,11C 33.8333,11.6667 35.1667,11.6667 36.5,11C 38.2735,10.1192 38.9402,8.95252 38.5,7.5C 40.4611,9.05751 42.2945,10.7242 44,12.5C 46.3461,12.9902 48.5128,13.6568 50.5,14.5 Z"/></g>
<g><path style="opacity:1" fill="#433321" d="M 50.5,-0.5 C 54.1667,-0.5 57.8333,-0.5 61.5,-0.5C 62.5451,0.877641 63.8784,1.87764 65.5,2.5C 65.5,3.5 65.5,4.5 65.5,5.5C 67.5795,6.04436 69.5795,6.8777 71.5,8C 76.4889,8.49926 81.4889,8.66593 86.5,8.5C 87.791,8.26269 88.791,8.59603 89.5,9.5C 82.5,9.5 75.5,9.5 68.5,9.5C 68.5792,10.9305 68.2458,12.2638 67.5,13.5C 68.325,14.3857 69.325,14.719 70.5,14.5C 69.4324,15.4345 68.099,15.7678 66.5,15.5C 66.0818,12.9104 65.0818,10.5771 63.5,8.5C 64.6808,6.80197 64.6808,5.1353 63.5,3.5C 62.109,2.35536 60.7757,2.35536 59.5,3.5C 58.846,5.11511 58.346,6.78178 58,8.5C 56.9887,7.66337 55.8221,7.33003 54.5,7.5C 52.659,5.15146 51.3257,2.48479 50.5,-0.5 Z"/></g>
<g><path style="opacity:1" fill="#2b1e11" d="M 65.5,2.5 C 70.1767,3.83715 74.8433,5.17049 79.5,6.5C 81.8333,7.16667 84.1667,7.83333 86.5,8.5C 81.4889,8.66593 76.4889,8.49926 71.5,8C 69.5795,6.8777 67.5795,6.04436 65.5,5.5C 65.5,4.5 65.5,3.5 65.5,2.5 Z"/></g>
<g><path style="opacity:1" fill="#130d08" d="M 84.5,3.5 C 88.9032,4.58139 93.2365,5.91472 97.5,7.5C 103.565,10.3689 109.565,13.5356 115.5,17C 116.793,17.49 118.127,17.6567 119.5,17.5C 119.5,18.1667 119.5,18.8333 119.5,19.5C 118.127,19.6567 116.793,19.49 115.5,19C 108.452,14.4753 100.785,11.642 92.5,10.5C 92.1667,10.5 91.8333,10.5 91.5,10.5C 91.1583,9.66175 90.4916,9.32842 89.5,9.5C 88.791,8.59603 87.791,8.26269 86.5,8.5C 84.1667,7.83333 81.8333,7.16667 79.5,6.5C 81.1667,6.5 82.8333,6.5 84.5,6.5C 84.5,5.5 84.5,4.5 84.5,3.5 Z"/></g>
<g><path style="opacity:1" fill="#4f3d29" d="M 66.5,15.5 C 66.338,18.5704 64.5047,20.9038 61,22.5C 60.79,24.0581 60.29,25.3915 59.5,26.5C 58.1667,25.5 56.8333,24.5 55.5,23.5C 54.8413,20.5448 54.5079,17.5448 54.5,14.5C 55.5729,12.3469 55.5729,10.3469 54.5,8.5C 54.5,8.16667 54.5,7.83333 54.5,7.5C 55.8221,7.33003 56.9887,7.66337 58,8.5C 58.346,6.78178 58.846,5.11511 59.5,3.5C 60.7757,2.35536 62.109,2.35536 63.5,3.5C 64.6808,5.1353 64.6808,6.80197 63.5,8.5C 65.0818,10.5771 66.0818,12.9104 66.5,15.5 Z"/></g>
<g><path style="opacity:1" fill="#716659" d="M 28.5,20.5 C 24.4107,24.4642 23.4107,23.4642 25.5,17.5C 23.048,17.6236 21.048,18.6236 19.5,20.5C 18.3527,20.1822 17.5194,19.5156 17,18.5C 16.5899,19.9007 16.0899,21.234 15.5,22.5C 14.4324,23.4345 13.099,23.7678 11.5,23.5C 11.0399,20.0432 9.03994,18.3765 5.5,18.5C 5.5,19.8333 5.5,21.1667 5.5,22.5C 2.16712,22.8374 1.16712,24.504 2.5,27.5C 1.99525,28.9185 0.995251,29.5852 -0.5,29.5C -0.5,23.5 -0.5,17.5 -0.5,11.5C 1.14166,13.0808 3.14166,13.7475 5.5,13.5C 5.28099,12.325 5.61432,11.325 6.5,10.5C 9.42116,11.4066 12.4212,11.7399 15.5,11.5C 16.552,11.3505 17.552,11.5172 18.5,12C 19.0495,13.8446 20.0495,15.3446 21.5,16.5C 21.5,14.1667 21.5,11.8333 21.5,9.5C 22.3333,10.5 23.1667,11.5 24,12.5C 25.7067,11.8617 27.54,11.8617 29.5,12.5C 28.9084,15.1272 28.5751,17.7938 28.5,20.5 Z"/></g>
<g><path style="opacity:1" fill="#443321" d="M 75.5,20.5 C 74.596,21.209 74.2627,22.209 74.5,23.5C 72.901,23.2322 71.5676,23.5655 70.5,24.5C 68.8828,23.962 67.2161,23.6287 65.5,23.5C 67.3133,27.8823 65.8133,30.549 61,31.5C 60.1004,30.2298 58.9337,29.2298 57.5,28.5C 58.2427,27.8182 58.9094,27.1515 59.5,26.5C 60.29,25.3915 60.79,24.0581 61,22.5C 64.5047,20.9038 66.338,18.5704 66.5,15.5C 68.099,15.7678 69.4324,15.4345 70.5,14.5C 72.5793,15.4997 74.5793,15.1663 76.5,13.5C 75.1091,11.0642 75.6091,10.3975 78,11.5C 77.7942,14.6061 76.9608,17.6061 75.5,20.5 Z"/></g>
<g><path style="opacity:1" fill="#503e2c" d="M 89.5,9.5 C 90.4916,9.32842 91.1583,9.66175 91.5,10.5C 91.0618,10.4346 90.7284,10.6012 90.5,11C 92.0614,11.941 93.3947,13.1076 94.5,14.5C 93.1182,16.5486 91.4516,18.2153 89.5,19.5C 88.2502,19.4226 87.4169,18.756 87,17.5C 86.6012,17.7284 86.4346,18.0618 86.5,18.5C 84.0355,21.4182 84.0355,24.4182 86.5,27.5C 85.3877,29.3904 84.5544,31.3904 84,33.5C 81.2562,35.0644 80.4229,34.5644 81.5,32C 81.0217,30.6974 80.355,29.5307 79.5,28.5C 77.7354,27.5386 75.7354,27.2053 73.5,27.5C 73.5,26.5 73.5,25.5 73.5,24.5C 75.5,24.8333 77.5,25.1667 79.5,25.5C 79.5,24.5 79.5,23.5 79.5,22.5C 80.9778,22.762 82.3112,22.4287 83.5,21.5C 82.3493,20.269 81.1827,20.269 80,21.5C 79.0331,20.3224 78.5331,18.989 78.5,17.5C 77.7124,18.7701 76.7124,19.7701 75.5,20.5C 76.9608,17.6061 77.7942,14.6061 78,11.5C 75.6091,10.3975 75.1091,11.0642 76.5,13.5C 74.5793,15.1663 72.5793,15.4997 70.5,14.5C 69.325,14.719 68.325,14.3857 67.5,13.5C 68.2458,12.2638 68.5792,10.9305 68.5,9.5C 75.5,9.5 82.5,9.5 89.5,9.5 Z"/></g>
<g><path style="opacity:1" fill="#6b6053" d="M 30.5,9.5 C 31.1495,11.4352 31.4828,13.4352 31.5,15.5C 33.1788,15.2852 34.1788,15.9519 34.5,17.5C 35.0841,20.9828 34.2508,23.9828 32,26.5C 31.51,25.2068 31.3433,23.8734 31.5,22.5C 29.8212,22.7148 28.8212,22.0481 28.5,20.5C 28.5751,17.7938 28.9084,15.1272 29.5,12.5C 27.54,11.8617 25.7067,11.8617 24,12.5C 23.1667,11.5 22.3333,10.5 21.5,9.5C 21.5,11.8333 21.5,14.1667 21.5,16.5C 20.0495,15.3446 19.0495,13.8446 18.5,12C 17.552,11.5172 16.552,11.3505 15.5,11.5C 16.209,10.596 17.209,10.2627 18.5,10.5C 18.5,9.5 18.5,8.5 18.5,7.5C 20.1765,6.81658 20.8432,5.48324 20.5,3.5C 21.5,3.5 22.5,3.5 23.5,3.5C 23.6636,9.16669 23.9969,9.50002 24.5,4.5C 25.5,4.5 26.5,4.5 27.5,4.5C 27.2729,6.93275 28.2729,8.59942 30.5,9.5 Z"/></g>
<g><path style="opacity:1" fill="#584e43" d="M 92.5,10.5 C 100.785,11.642 108.452,14.4753 115.5,19C 116.793,19.49 118.127,19.6567 119.5,19.5C 119.5,25.1667 119.5,30.8333 119.5,36.5C 114.134,32.1436 108.467,28.1436 102.5,24.5C 98.9478,21.7587 97.6144,18.2587 98.5,14C 96.2935,13.0232 94.2935,11.8565 92.5,10.5 Z"/></g>
<g><path style="opacity:1" fill="#695c4d" d="M 50.5,14.5 C 51.8333,14.5 53.1667,14.5 54.5,14.5C 54.5079,17.5448 54.8413,20.5448 55.5,23.5C 55.0618,23.4346 54.7284,23.6012 54.5,24C 56.0259,27.8537 57.3592,31.687 58.5,35.5C 58.5,36.1667 58.5,36.8333 58.5,37.5C 57.5266,37.0133 56.5266,36.5133 55.5,36C 56.7112,35.1072 56.7112,34.2739 55.5,33.5C 54.2638,34.2458 52.9305,34.5792 51.5,34.5C 51.736,32.0268 53.0693,30.3601 55.5,29.5C 54.7542,28.2638 54.4208,26.9305 54.5,25.5C 52.8762,25.6399 51.7096,24.9733 51,23.5C 48.0221,26.6626 45.3555,30.6626 43,35.5C 41.9887,34.6634 40.8221,34.33 39.5,34.5C 39.5858,33.5041 39.2524,32.6708 38.5,32C 41.5757,30.7622 43.909,28.5955 45.5,25.5C 46.1667,25.8333 46.8333,26.1667 47.5,26.5C 48.1476,24.8508 49.1476,23.5175 50.5,22.5C 50.416,19.7913 50.416,17.1247 50.5,14.5 Z"/></g>
<g><path style="opacity:1" fill="#5b4e3f" d="M 91.5,10.5 C 91.8333,10.5 92.1667,10.5 92.5,10.5C 94.2935,11.8565 96.2935,13.0232 98.5,14C 97.6144,18.2587 98.9478,21.7587 102.5,24.5C 102.5,25.5 102.5,26.5 102.5,27.5C 100.173,27.3354 98.0065,26.6687 96,25.5C 94.3005,26.4061 92.4672,26.7394 90.5,26.5C 89.6388,23.9684 89.3055,21.635 89.5,19.5C 91.4516,18.2153 93.1182,16.5486 94.5,14.5C 93.3947,13.1076 92.0614,11.941 90.5,11C 90.7284,10.6012 91.0618,10.4346 91.5,10.5 Z"/></g>
<g><path style="opacity:1" fill="#796e5f" d="M 44.5,15.5 C 45.2389,15.369 45.9056,15.5357 46.5,16C 45.1414,17.2045 44.1414,18.7045 43.5,20.5C 37.6949,21.9776 33.3616,25.3109 30.5,30.5C 28.4214,30.9707 26.4214,31.6373 24.5,32.5C 23.0692,31.5542 21.7358,30.3875 20.5,29C 21.5914,26.9361 21.7581,24.7695 21,22.5C 20.0656,23.8584 19.2323,25.1917 18.5,26.5C 18.5323,24.3812 17.5323,23.0478 15.5,22.5C 16.0899,21.234 16.5899,19.9007 17,18.5C 17.5194,19.5156 18.3527,20.1822 19.5,20.5C 21.048,18.6236 23.048,17.6236 25.5,17.5C 23.4107,23.4642 24.4107,24.4642 28.5,20.5C 28.8212,22.0481 29.8212,22.7148 31.5,22.5C 31.3433,23.8734 31.51,25.2068 32,26.5C 34.2508,23.9828 35.0841,20.9828 34.5,17.5C 36.1347,18.8146 37.8014,18.8146 39.5,17.5C 40.1667,18.1667 40.8333,18.8333 41.5,19.5C 42.5207,18.0986 43.5207,16.7653 44.5,15.5 Z"/></g>
<g><path style="opacity:1" fill="#776c5f" d="M 15.5,22.5 C 17.5323,23.0478 18.5323,24.3812 18.5,26.5C 16.816,27.5272 15.1494,28.5272 13.5,29.5C 10.3601,28.3592 7.02672,28.1925 3.5,29C 2.69213,30.7058 1.3588,31.5391 -0.5,31.5C -0.5,30.8333 -0.5,30.1667 -0.5,29.5C 0.995251,29.5852 1.99525,28.9185 2.5,27.5C 1.16712,24.504 2.16712,22.8374 5.5,22.5C 5.5,21.1667 5.5,19.8333 5.5,18.5C 9.03994,18.3765 11.0399,20.0432 11.5,23.5C 13.099,23.7678 14.4324,23.4345 15.5,22.5 Z"/></g>
<g><path style="opacity:1" fill="#4e3c2b" d="M 79.5,28.5 C 78.7515,29.531 78.0848,30.6976 77.5,32C 78.464,33.7255 79.1307,35.5588 79.5,37.5C 77.712,37.7852 76.0453,37.4519 74.5,36.5C 76.8216,33.4155 75.8216,31.7489 71.5,31.5C 71.702,29.0504 71.3686,26.717 70.5,24.5C 71.5676,23.5655 72.901,23.2322 74.5,23.5C 74.2627,22.209 74.596,21.209 75.5,20.5C 76.7124,19.7701 77.7124,18.7701 78.5,17.5C 78.5331,18.989 79.0331,20.3224 80,21.5C 81.1827,20.269 82.3493,20.269 83.5,21.5C 82.3112,22.4287 80.9778,22.762 79.5,22.5C 79.5,23.5 79.5,24.5 79.5,25.5C 77.5,25.1667 75.5,24.8333 73.5,24.5C 73.5,25.5 73.5,26.5 73.5,27.5C 75.7354,27.2053 77.7354,27.5386 79.5,28.5 Z"/></g>
<g><path style="opacity:1" fill="#736759" d="M 44.5,15.5 C 46.2646,14.5386 48.2646,14.2053 50.5,14.5C 50.416,17.1247 50.416,19.7913 50.5,22.5C 49.1476,23.5175 48.1476,24.8508 47.5,26.5C 46.8333,26.1667 46.1667,25.8333 45.5,25.5C 43.909,28.5955 41.5757,30.7622 38.5,32C 39.2524,32.6708 39.5858,33.5041 39.5,34.5C 38.791,35.404 37.791,35.7373 36.5,35.5C 36.719,34.325 36.3857,33.325 35.5,32.5C 34.3132,33.6527 33.3132,33.6527 32.5,32.5C 32.5,31.1667 31.8333,30.5 30.5,30.5C 33.3616,25.3109 37.6949,21.9776 43.5,20.5C 44.1414,18.7045 45.1414,17.2045 46.5,16C 45.9056,15.5357 45.2389,15.369 44.5,15.5 Z"/></g>
<g><path style="opacity:1" fill="#4a3a28" d="M 55.5,23.5 C 56.8333,24.5 58.1667,25.5 59.5,26.5C 58.9094,27.1515 58.2427,27.8182 57.5,28.5C 58.9337,29.2298 60.1004,30.2298 61,31.5C 65.8133,30.549 67.3133,27.8823 65.5,23.5C 67.2161,23.6287 68.8828,23.962 70.5,24.5C 71.3686,26.717 71.702,29.0504 71.5,31.5C 71.6495,32.552 71.4828,33.552 71,34.5C 66.8174,32.611 63.3174,33.611 60.5,37.5C 59.8182,36.7573 59.1515,36.0906 58.5,35.5C 57.3592,31.687 56.0259,27.8537 54.5,24C 54.7284,23.6012 55.0618,23.4346 55.5,23.5 Z"/></g>
<g><path style="opacity:1" fill="#6f6457" d="M 24.5,32.5 C 23.2486,34.561 21.5819,34.8943 19.5,33.5C 21.9238,31.2864 21.2571,30.2864 17.5,30.5C 17.523,32.9267 18.023,35.26 19,37.5C 20.0113,36.6634 21.1779,36.33 22.5,36.5C 22.762,37.9778 22.4287,39.3112 21.5,40.5C 19.9291,39.6906 18.2624,39.3573 16.5,39.5C 15.5,39.5 14.5,39.5 13.5,39.5C 13.3893,38.8826 13.056,38.3826 12.5,38C 14.0016,37.4169 15.3349,36.5836 16.5,35.5C 12.2944,34.4322 8.29442,32.9322 4.5,31C 6.27083,30.963 8.10417,31.1297 10,31.5C 11.6811,31.3917 12.8478,30.7251 13.5,29.5C 15.1494,28.5272 16.816,27.5272 18.5,26.5C 19.2323,25.1917 20.0656,23.8584 21,22.5C 21.7581,24.7695 21.5914,26.9361 20.5,29C 21.7358,30.3875 23.0692,31.5542 24.5,32.5 Z"/></g>
<g><path style="opacity:1" fill="#5b4a38" d="M 86.5,18.5 C 86.7394,20.4672 86.4061,22.3005 85.5,24C 86.448,24.4828 87.448,24.6495 88.5,24.5C 88.1924,26.924 88.5258,29.2573 89.5,31.5C 89.8333,30.8333 90.1667,30.1667 90.5,29.5C 91.9039,31.5471 91.5706,33.2138 89.5,34.5C 87.4608,31.8083 86.6274,32.1416 87,35.5C 87.6891,36.3567 88.5224,37.0233 89.5,37.5C 91.4705,34.9547 93.6371,32.6213 96,30.5C 96.6924,31.0253 97.1924,31.6919 97.5,32.5C 96.6906,34.0709 96.3573,35.7376 96.5,37.5C 94.4017,36.0857 93.4017,36.7524 93.5,39.5C 93.8076,41.924 93.4742,44.2573 92.5,46.5C 91.452,45.6171 90.2853,44.9504 89,44.5C 87.9701,44.8361 87.4701,45.5028 87.5,46.5C 85.1324,44.0443 84.1324,41.0443 84.5,37.5C 82.8333,37.5 81.1667,37.5 79.5,37.5C 79.1307,35.5588 78.464,33.7255 77.5,32C 78.0848,30.6976 78.7515,29.531 79.5,28.5C 80.355,29.5307 81.0217,30.6974 81.5,32C 80.4229,34.5644 81.2562,35.0644 84,33.5C 84.5544,31.3904 85.3877,29.3904 86.5,27.5C 84.0355,24.4182 84.0355,21.4182 86.5,18.5 Z"/></g>
<g><path style="opacity:1" fill="#635542" d="M 102.5,24.5 C 108.467,28.1436 114.134,32.1436 119.5,36.5C 119.5,40.1667 119.5,43.8333 119.5,47.5C 115.618,46.724 113.285,44.3907 112.5,40.5C 111.482,41.1925 110.482,41.8592 109.5,42.5C 109.44,41.9569 109.107,41.6236 108.5,41.5C 107.682,43.1083 107.015,44.7749 106.5,46.5C 107.853,47.5237 108.52,48.857 108.5,50.5C 107.5,50.5 106.5,50.5 105.5,50.5C 104.625,47.6192 103.292,44.9526 101.5,42.5C 100.667,43.5 99.8333,44.5 99,45.5C 98.5006,39.4531 97.1673,39.1198 95,44.5C 94.8019,42.6183 94.3019,40.9516 93.5,39.5C 93.4017,36.7524 94.4017,36.0857 96.5,37.5C 98.1624,36.169 99.829,34.8357 101.5,33.5C 101.154,32.3044 100.654,32.3044 100,33.5C 99.5983,32.1279 99.0983,30.7946 98.5,29.5C 99.3914,28.4104 100.391,28.4104 101.5,29.5C 102.298,29.0431 102.631,28.3764 102.5,27.5C 102.5,26.5 102.5,25.5 102.5,24.5 Z"/></g>
<g><path style="opacity:1" fill="#685e51" d="M 13.5,29.5 C 12.8478,30.7251 11.6811,31.3917 10,31.5C 8.10417,31.1297 6.27083,30.963 4.5,31C 8.29442,32.9322 12.2944,34.4322 16.5,35.5C 15.3349,36.5836 14.0016,37.4169 12.5,38C 13.056,38.3826 13.3893,38.8826 13.5,39.5C 10.4004,38.7268 7.40041,38.3935 4.5,38.5C 3.5,39.1667 2.5,39.8333 1.5,40.5C 0.246045,38.7408 0.579378,37.2408 2.5,36C 2.02568,34.2714 1.02568,33.1047 -0.5,32.5C -0.5,32.1667 -0.5,31.8333 -0.5,31.5C 1.3588,31.5391 2.69213,30.7058 3.5,29C 7.02672,28.1925 10.3601,28.3592 13.5,29.5 Z"/></g>
<g><path style="opacity:1" fill="#4e412e" d="M 71.5,31.5 C 75.8216,31.7489 76.8216,33.4155 74.5,36.5C 76.0453,37.4519 77.712,37.7852 79.5,37.5C 81.1667,37.5 82.8333,37.5 84.5,37.5C 84.1324,41.0443 85.1324,44.0443 87.5,46.5C 87.9175,47.2216 88.5842,47.7216 89.5,48C 88.944,48.3826 88.6107,48.8826 88.5,49.5C 87.209,49.2627 86.209,49.596 85.5,50.5C 83.2841,50.7254 81.6174,49.8921 80.5,48C 81.5536,46.6124 81.7203,45.1124 81,43.5C 78.5393,44.2181 76.0393,44.8847 73.5,45.5C 71.2652,44.1502 69.9319,42.6502 69.5,41C 67.1902,40.5034 64.8568,40.3367 62.5,40.5C 61.209,40.7373 60.209,40.404 59.5,39.5C 59.9382,39.5654 60.2716,39.3988 60.5,39C 59.5842,38.7216 58.9175,38.2216 58.5,37.5C 58.5,36.8333 58.5,36.1667 58.5,35.5C 59.1515,36.0906 59.8182,36.7573 60.5,37.5C 63.3174,33.611 66.8174,32.611 71,34.5C 71.4828,33.552 71.6495,32.552 71.5,31.5 Z"/></g>
<g><path style="opacity:1" fill="#645341" d="M 89.5,19.5 C 89.3055,21.635 89.6388,23.9684 90.5,26.5C 92.4672,26.7394 94.3005,26.4061 96,25.5C 98.0065,26.6687 100.173,27.3354 102.5,27.5C 102.631,28.3764 102.298,29.0431 101.5,29.5C 100.391,28.4104 99.3914,28.4104 98.5,29.5C 99.0983,30.7946 99.5983,32.1279 100,33.5C 100.654,32.3044 101.154,32.3044 101.5,33.5C 99.829,34.8357 98.1624,36.169 96.5,37.5C 96.3573,35.7376 96.6906,34.0709 97.5,32.5C 97.1924,31.6919 96.6924,31.0253 96,30.5C 93.6371,32.6213 91.4705,34.9547 89.5,37.5C 88.5224,37.0233 87.6891,36.3567 87,35.5C 86.6274,32.1416 87.4608,31.8083 89.5,34.5C 91.5706,33.2138 91.9039,31.5471 90.5,29.5C 90.1667,30.1667 89.8333,30.8333 89.5,31.5C 88.5258,29.2573 88.1924,26.924 88.5,24.5C 87.448,24.6495 86.448,24.4828 85.5,24C 86.4061,22.3005 86.7394,20.4672 86.5,18.5C 86.4346,18.0618 86.6012,17.7284 87,17.5C 87.4169,18.756 88.2502,19.4226 89.5,19.5 Z"/></g>
<g><path style="opacity:1" fill="#726554" d="M 58.5,37.5 C 58.9175,38.2216 59.5842,38.7216 60.5,39C 60.2716,39.3988 59.9382,39.5654 59.5,39.5C 52.8384,38.6586 47.8384,41.1586 44.5,47C 43.552,47.4828 42.552,47.6495 41.5,47.5C 41.0618,47.5654 40.7284,47.3988 40.5,47C 43.1208,46.0944 42.9541,45.5944 40,45.5C 37.2915,46.1086 34.7915,47.1086 32.5,48.5C 32.5774,47.2502 33.244,46.4169 34.5,46C 34.1119,44.1918 34.1119,42.5252 34.5,41C 32.5434,42.2861 30.21,43.1194 27.5,43.5C 27.5792,42.0695 27.2458,40.7362 26.5,39.5C 27.376,38.7492 28.376,38.2492 29.5,38C 27.9411,37.0201 26.2744,36.1867 24.5,35.5C 26.99,33.9172 29.6567,32.9172 32.5,32.5C 33.3132,33.6527 34.3132,33.6527 35.5,32.5C 36.3857,33.325 36.719,34.325 36.5,35.5C 37.791,35.7373 38.791,35.404 39.5,34.5C 40.8221,34.33 41.9887,34.6634 43,35.5C 45.3555,30.6626 48.0221,26.6626 51,23.5C 51.7096,24.9733 52.8762,25.6399 54.5,25.5C 54.4208,26.9305 54.7542,28.2638 55.5,29.5C 53.0693,30.3601 51.736,32.0268 51.5,34.5C 52.9305,34.5792 54.2638,34.2458 55.5,33.5C 56.7112,34.2739 56.7112,35.1072 55.5,36C 56.5266,36.5133 57.5266,37.0133 58.5,37.5 Z"/></g>
<g><path style="opacity:1" fill="#685c4e" d="M 24.5,32.5 C 26.4214,31.6373 28.4214,30.9707 30.5,30.5C 31.8333,30.5 32.5,31.1667 32.5,32.5C 29.6567,32.9172 26.99,33.9172 24.5,35.5C 26.2744,36.1867 27.9411,37.0201 29.5,38C 28.376,38.2492 27.376,38.7492 26.5,39.5C 27.2458,40.7362 27.5792,42.0695 27.5,43.5C 30.21,43.1194 32.5434,42.2861 34.5,41C 34.1119,42.5252 34.1119,44.1918 34.5,46C 33.244,46.4169 32.5774,47.2502 32.5,48.5C 31.7515,47.469 31.0848,46.3024 30.5,45C 27.5,44.5 24.5,44 21.5,43.5C 19.9704,43.6399 18.9704,44.3065 18.5,45.5C 17.8333,45.5 17.5,45.1667 17.5,44.5C 17.4894,42.9826 16.8228,41.8159 15.5,41C 16.056,40.6174 16.3893,40.1174 16.5,39.5C 18.2624,39.3573 19.9291,39.6906 21.5,40.5C 22.4287,39.3112 22.762,37.9778 22.5,36.5C 21.1779,36.33 20.0113,36.6634 19,37.5C 18.023,35.26 17.523,32.9267 17.5,30.5C 21.2571,30.2864 21.9238,31.2864 19.5,33.5C 21.5819,34.8943 23.2486,34.561 24.5,32.5 Z"/></g>
<g><path style="opacity:1" fill="#594b35" d="M 93.5,39.5 C 94.3019,40.9516 94.8019,42.6183 95,44.5C 97.1673,39.1198 98.5006,39.4531 99,45.5C 99.8333,44.5 100.667,43.5 101.5,42.5C 103.292,44.9526 104.625,47.6192 105.5,50.5C 103.546,52.2696 101.213,53.6029 98.5,54.5C 97.2089,53.4583 97.2089,52.2917 98.5,51C 97.2068,50.51 95.8734,50.3433 94.5,50.5C 94.7678,52.099 94.4345,53.4324 93.5,54.5C 91.1667,53.5 89.5,51.8333 88.5,49.5C 88.6107,48.8826 88.944,48.3826 89.5,48C 88.5842,47.7216 87.9175,47.2216 87.5,46.5C 87.4701,45.5028 87.9701,44.8361 89,44.5C 90.2853,44.9504 91.452,45.6171 92.5,46.5C 93.4742,44.2573 93.8076,41.924 93.5,39.5 Z"/></g>
<g><path style="opacity:1" fill="#665b4c" d="M -0.5,32.5 C 1.02568,33.1047 2.02568,34.2714 2.5,36C 0.579378,37.2408 0.246045,38.7408 1.5,40.5C 2.5,39.8333 3.5,39.1667 4.5,38.5C 7.40041,38.3935 10.4004,38.7268 13.5,39.5C 14.5,39.5 15.5,39.5 16.5,39.5C 16.3893,40.1174 16.056,40.6174 15.5,41C 16.8228,41.8159 17.4894,42.9826 17.5,44.5C 16.596,45.209 16.2627,46.209 16.5,47.5C 13.1628,46.2545 9.82951,45.4211 6.5,45C 5.69194,45.3076 5.02527,45.8076 4.5,46.5C 5.7757,47.6446 7.10903,47.6446 8.5,46.5C 9.38568,47.325 9.71901,48.325 9.5,49.5C 10.5,49.5 11.5,49.5 12.5,49.5C 12.1568,51.4832 12.8235,52.8166 14.5,53.5C 13.791,54.404 12.791,54.7373 11.5,54.5C 11.5,53.1667 11.5,51.8333 11.5,50.5C 10.5,50.5 9.5,50.5 8.5,50.5C 8.5,51.8333 8.5,53.1667 8.5,54.5C 7.16667,54.5 5.83333,54.5 4.5,54.5C 3.5755,51.8687 1.90883,51.2021 -0.5,52.5C -0.5,45.8333 -0.5,39.1667 -0.5,32.5 Z"/></g>
<g><path style="opacity:1" fill="#221b1e" d="M 59.5,39.5 C 60.209,40.404 61.209,40.7373 62.5,40.5C 63.7653,41.4793 65.0986,42.4793 66.5,43.5C 66.0431,44.2975 65.3764,44.6309 64.5,44.5C 58.6522,44.6808 52.9856,45.5142 47.5,47C 49.4727,47.4955 51.4727,47.6621 53.5,47.5C 53.719,48.675 53.3857,49.675 52.5,50.5C 51.5832,49.8728 50.5832,49.5394 49.5,49.5C 46.7196,48.9216 44.0529,48.2549 41.5,47.5C 42.552,47.6495 43.552,47.4828 44.5,47C 47.8384,41.1586 52.8384,38.6586 59.5,39.5 Z"/></g>
<g><path style="opacity:1" fill="#6d5946" d="M 32.5,48.5 C 34.7915,47.1086 37.2915,46.1086 40,45.5C 42.9541,45.5944 43.1208,46.0944 40.5,47C 40.7284,47.3988 41.0618,47.5654 41.5,47.5C 44.0529,48.2549 46.7196,48.9216 49.5,49.5C 46.8291,51.1181 43.8291,51.7847 40.5,51.5C 39.5084,51.3284 38.8417,51.6618 38.5,52.5C 35.5525,52.7771 32.7191,52.4438 30,51.5C 29.3162,52.7839 29.4829,53.9505 30.5,55C 32.445,54.8718 34.2784,55.0385 36,55.5C 37.4019,53.0266 38.9019,53.0266 40.5,55.5C 40.2907,56.086 39.9574,56.586 39.5,57C 36.854,57.4974 34.1873,57.6641 31.5,57.5C 28.9369,56.9117 26.6036,55.9117 24.5,54.5C 25.4972,54.5299 26.1639,54.0299 26.5,53C 26.0414,50.6454 25.2081,48.4788 24,46.5C 23.6924,47.3081 23.1924,47.9747 22.5,48.5C 21.1482,47.4756 19.8149,46.4756 18.5,45.5C 18.9704,44.3065 19.9704,43.6399 21.5,43.5C 24.5,44 27.5,44.5 30.5,45C 31.0848,46.3024 31.7515,47.469 32.5,48.5 Z"/></g>
<g><path style="opacity:1" fill="#6d6150" d="M 17.5,44.5 C 17.5,45.1667 17.8333,45.5 18.5,45.5C 19.8149,46.4756 21.1482,47.4756 22.5,48.5C 23.1924,47.9747 23.6924,47.3081 24,46.5C 25.2081,48.4788 26.0414,50.6454 26.5,53C 26.1639,54.0299 25.4972,54.5299 24.5,54.5C 24.2172,53.7109 23.7172,53.0442 23,52.5C 20.9031,53.991 18.5697,54.991 16,55.5C 15.7216,54.5842 15.2216,53.9175 14.5,53.5C 12.8235,52.8166 12.1568,51.4832 12.5,49.5C 11.5,49.5 10.5,49.5 9.5,49.5C 9.71901,48.325 9.38568,47.325 8.5,46.5C 7.10903,47.6446 5.7757,47.6446 4.5,46.5C 5.02527,45.8076 5.69194,45.3076 6.5,45C 9.82951,45.4211 13.1628,46.2545 16.5,47.5C 16.2627,46.209 16.596,45.209 17.5,44.5 Z"/></g>
<g><path style="opacity:1" fill="#d0c598" d="M 64.5,44.5 C 66.3264,46.1475 67.6597,48.1475 68.5,50.5C 66.9482,49.3782 65.2816,48.8782 63.5,49C 64.1299,52.261 65.1299,55.4277 66.5,58.5C 64.9907,60.62 65.324,62.2867 67.5,63.5C 68.5511,64.2223 69.2178,65.2223 69.5,66.5C 67.632,67.7569 65.9653,67.4236 64.5,65.5C 63.6518,63.5914 63.3184,61.5914 63.5,59.5C 63.7845,57.5853 63.4511,55.9187 62.5,54.5C 62.7683,51.8806 62.435,49.3806 61.5,47C 58.8806,47.0833 56.214,47.25 53.5,47.5C 51.4727,47.6621 49.4727,47.4955 47.5,47C 52.9856,45.5142 58.6522,44.6808 64.5,44.5 Z"/></g>
<g><path style="opacity:1" fill="#5e503c" d="M 109.5,42.5 C 108.259,44.8776 108.926,46.7109 111.5,48C 110.452,49.7562 110.452,51.5896 111.5,53.5C 111.547,55.0377 110.88,56.0377 109.5,56.5C 109.631,55.6236 109.298,54.9569 108.5,54.5C 107.757,55.9079 106.923,57.2412 106,58.5C 104.187,57.3909 103.354,58.0576 103.5,60.5C 99.4378,60.1312 97.7712,58.1312 98.5,54.5C 101.213,53.6029 103.546,52.2696 105.5,50.5C 106.5,50.5 107.5,50.5 108.5,50.5C 108.52,48.857 107.853,47.5237 106.5,46.5C 107.015,44.7749 107.682,43.1083 108.5,41.5C 109.107,41.6236 109.44,41.9569 109.5,42.5 Z"/></g>
<g><path style="opacity:1" fill="#645543" d="M 119.5,47.5 C 119.5,48.8333 119.5,50.1667 119.5,51.5C 117.287,53.958 116.121,56.958 116,60.5C 115.506,58.8659 115.34,57.1992 115.5,55.5C 114.5,55.5 113.5,55.5 112.5,55.5C 112.466,58.1985 113.133,60.6985 114.5,63C 112.866,63.4935 111.199,63.6602 109.5,63.5C 109.5,61.1667 109.5,58.8333 109.5,56.5C 110.88,56.0377 111.547,55.0377 111.5,53.5C 110.452,51.5896 110.452,49.7562 111.5,48C 108.926,46.7109 108.259,44.8776 109.5,42.5C 110.482,41.8592 111.482,41.1925 112.5,40.5C 113.285,44.3907 115.618,46.724 119.5,47.5 Z"/></g>
<g><path style="opacity:1" fill="#baac6f" d="M 68.5,50.5 C 68.8333,51.1667 69.1667,51.8333 69.5,52.5C 70.3497,54.4944 70.8497,56.4944 71,58.5C 68.4992,55.9555 67.9992,56.4555 69.5,60C 69.0556,61.7618 68.5556,61.5951 68,59.5C 67.51,60.7932 67.3433,62.1266 67.5,63.5C 65.324,62.2867 64.9907,60.62 66.5,58.5C 65.1299,55.4277 64.1299,52.261 63.5,49C 65.2816,48.8782 66.9482,49.3782 68.5,50.5 Z"/></g>
<g><path style="opacity:1" fill="#4c4031" d="M 62.5,40.5 C 64.8568,40.3367 67.1902,40.5034 69.5,41C 69.9319,42.6502 71.2652,44.1502 73.5,45.5C 76.0393,44.8847 78.5393,44.2181 81,43.5C 81.7203,45.1124 81.5536,46.6124 80.5,48C 81.6174,49.8921 83.2841,50.7254 85.5,50.5C 84.7375,51.2679 83.7375,51.7679 82.5,52C 85.0252,54.7462 85.0252,57.5795 82.5,60.5C 83.6302,61.6223 84.2969,62.9557 84.5,64.5C 82.4086,64.6816 80.4086,64.3482 78.5,63.5C 77.6143,62.675 77.281,61.675 77.5,60.5C 76.1667,60.5 74.8333,60.5 73.5,60.5C 73.7407,56.9812 72.4074,54.3145 69.5,52.5C 69.1667,51.8333 68.8333,51.1667 68.5,50.5C 67.6597,48.1475 66.3264,46.1475 64.5,44.5C 65.3764,44.6309 66.0431,44.2975 66.5,43.5C 65.0986,42.4793 63.7653,41.4793 62.5,40.5 Z"/></g>
<g><path style="opacity:1" fill="#594e3b" d="M 98.5,54.5 C 97.7712,58.1312 99.4378,60.1312 103.5,60.5C 103.354,58.0576 104.187,57.3909 106,58.5C 106.923,57.2412 107.757,55.9079 108.5,54.5C 109.298,54.9569 109.631,55.6236 109.5,56.5C 109.5,58.8333 109.5,61.1667 109.5,63.5C 108.596,64.209 108.263,65.209 108.5,66.5C 108.167,67.1667 107.833,67.8333 107.5,68.5C 105.856,68.7135 104.356,68.3802 103,67.5C 102.217,69.4335 102.717,70.9335 104.5,72C 102.939,72.3176 101.772,73.1509 101,74.5C 99.6054,73.1854 98.6054,73.5188 98,75.5C 97.3292,74.7476 96.4959,74.4142 95.5,74.5C 91.9683,69.6952 90.9683,64.3619 92.5,58.5C 93.3764,58.6309 94.0431,58.2975 94.5,57.5C 93.8728,56.5832 93.5394,55.5832 93.5,54.5C 94.4345,53.4324 94.7678,52.099 94.5,50.5C 95.8734,50.3433 97.2068,50.51 98.5,51C 97.2089,52.2917 97.2089,53.4583 98.5,54.5 Z"/></g>
<g><path style="opacity:1" fill="#493e39" d="M 62.5,54.5 C 61.776,52.7816 61.1094,50.9483 60.5,49C 60.1667,48.8333 59.8333,48.6667 59.5,48.5C 58.5713,49.6888 58.238,51.0222 58.5,52.5C 52.1522,52.8951 51.1522,55.2284 55.5,59.5C 53.139,59.6741 50.8056,60.0074 48.5,60.5C 48.1667,60.5 47.8333,60.5 47.5,60.5C 46.2721,58.9902 46.2721,57.4902 47.5,56C 45.439,53.9758 43.1057,52.4758 40.5,51.5C 43.8291,51.7847 46.8291,51.1181 49.5,49.5C 50.5832,49.5394 51.5832,49.8728 52.5,50.5C 53.3857,49.675 53.719,48.675 53.5,47.5C 56.214,47.25 58.8806,47.0833 61.5,47C 62.435,49.3806 62.7683,51.8806 62.5,54.5 Z"/></g>
<g><path style="opacity:1" fill="#5e513d" d="M 119.5,51.5 C 119.5,58.1667 119.5,64.8333 119.5,71.5C 116.267,68.9775 112.601,67.3109 108.5,66.5C 108.263,65.209 108.596,64.209 109.5,63.5C 111.199,63.6602 112.866,63.4935 114.5,63C 113.133,60.6985 112.466,58.1985 112.5,55.5C 113.5,55.5 114.5,55.5 115.5,55.5C 115.34,57.1992 115.506,58.8659 116,60.5C 116.121,56.958 117.287,53.958 119.5,51.5 Z"/></g>
<g><path style="opacity:1" fill="#574e42" d="M 4.5,54.5 C 4.36912,55.3764 4.70245,56.0431 5.5,56.5C 8.59102,56.0757 11.2577,56.0757 13.5,56.5C 14.6139,57.723 14.7805,59.0563 14,60.5C 13.1739,58.5946 12.0072,58.2612 10.5,59.5C 11.3094,61.0709 11.6427,62.7376 11.5,64.5C 16.3923,64.2259 21.059,64.8926 25.5,66.5C 26.0431,66.56 26.3764,66.8933 26.5,67.5C 20.4277,68.4782 20.0943,69.9782 25.5,72C 22.1562,72.5696 21.8228,73.7362 24.5,75.5C 23.9747,76.1924 23.3081,76.6924 22.5,77C 25.6946,77.1805 28.6946,77.6805 31.5,78.5C 30.5,78.5 29.5,78.5 28.5,78.5C 26.1667,78.5 23.8333,78.5 21.5,78.5C 19.369,77.6862 17.0356,77.1862 14.5,77C 15.6611,74.2793 14.9944,71.9459 12.5,70C 8.13788,67.303 3.80455,67.1363 -0.5,69.5C -0.5,63.8333 -0.5,58.1667 -0.5,52.5C 1.90883,51.2021 3.5755,51.8687 4.5,54.5 Z"/></g>
<g><path style="opacity:1" fill="#1d140e" d="M 38.5,52.5 C 38.8417,51.6618 39.5084,51.3284 40.5,51.5C 43.1057,52.4758 45.439,53.9758 47.5,56C 46.2721,57.4902 46.2721,58.9902 47.5,60.5C 47.1667,60.5 46.8333,60.5 46.5,60.5C 44.716,59.4262 43.5494,57.7596 43,55.5C 41.7292,54.1175 40.2292,53.1175 38.5,52.5 Z"/></g>
<g><path style="opacity:1" fill="#5f5448" d="M 14.5,53.5 C 15.2216,53.9175 15.7216,54.5842 16,55.5C 18.5697,54.991 20.9031,53.991 23,52.5C 23.7172,53.0442 24.2172,53.7109 24.5,54.5C 26.6036,55.9117 28.9369,56.9117 31.5,57.5C 32.8499,58.8235 32.6833,59.8235 31,60.5C 25.6433,58.7296 23.8099,60.3962 25.5,65.5C 25.5,65.8333 25.5,66.1667 25.5,66.5C 21.059,64.8926 16.3923,64.2259 11.5,64.5C 11.6427,62.7376 11.3094,61.0709 10.5,59.5C 12.0072,58.2612 13.1739,58.5946 14,60.5C 14.7805,59.0563 14.6139,57.723 13.5,56.5C 11.2577,56.0757 8.59102,56.0757 5.5,56.5C 4.70245,56.0431 4.36912,55.3764 4.5,54.5C 5.83333,54.5 7.16667,54.5 8.5,54.5C 8.5,53.1667 8.5,51.8333 8.5,50.5C 9.5,50.5 10.5,50.5 11.5,50.5C 11.5,51.8333 11.5,53.1667 11.5,54.5C 12.791,54.7373 13.791,54.404 14.5,53.5 Z"/></g>
<g><path style="opacity:1" fill="#635752" d="M 62.5,54.5 C 63.4511,55.9187 63.7845,57.5853 63.5,59.5C 60.8333,59.5 58.1667,59.5 55.5,59.5C 51.1522,55.2284 52.1522,52.8951 58.5,52.5C 58.238,51.0222 58.5713,49.6888 59.5,48.5C 59.8333,48.6667 60.1667,48.8333 60.5,49C 61.1094,50.9483 61.776,52.7816 62.5,54.5 Z"/></g>
<g><path style="opacity:1" fill="#655b4f" d="M 38.5,52.5 C 40.2292,53.1175 41.7292,54.1175 43,55.5C 43.5494,57.7596 44.716,59.4262 46.5,60.5C 44.6465,64.2208 42.3131,67.5541 39.5,70.5C 38.8953,68.9743 37.7286,67.9743 36,67.5C 35.51,66.2068 35.3433,64.8734 35.5,63.5C 33.0576,63.3537 32.3909,64.187 33.5,66C 31.6478,69.0551 30.6478,68.5551 30.5,64.5C 28.7085,64.366 27.0418,64.6993 25.5,65.5C 23.8099,60.3962 25.6433,58.7296 31,60.5C 32.6833,59.8235 32.8499,58.8235 31.5,57.5C 34.1873,57.6641 36.854,57.4974 39.5,57C 39.9574,56.586 40.2907,56.086 40.5,55.5C 38.9019,53.0266 37.4019,53.0266 36,55.5C 34.2784,55.0385 32.445,54.8718 30.5,55C 29.4829,53.9505 29.3162,52.7839 30,51.5C 32.7191,52.4438 35.5525,52.7771 38.5,52.5 Z"/></g>
<g><path style="opacity:1" fill="#837a5f" d="M 69.5,52.5 C 72.4074,54.3145 73.7407,56.9812 73.5,60.5C 72.8333,60.8333 72.1667,61.1667 71.5,61.5C 70.4819,62.2921 70.1486,63.9588 70.5,66.5C 70.1667,66.5 69.8333,66.5 69.5,66.5C 69.2178,65.2223 68.5511,64.2223 67.5,63.5C 67.3433,62.1266 67.51,60.7932 68,59.5C 68.5556,61.5951 69.0556,61.7618 69.5,60C 67.9992,56.4555 68.4992,55.9555 71,58.5C 70.8497,56.4944 70.3497,54.4944 69.5,52.5 Z"/></g>
<g><path style="opacity:1" fill="#5a523e" d="M 88.5,49.5 C 89.5,51.8333 91.1667,53.5 93.5,54.5C 93.5394,55.5832 93.8728,56.5832 94.5,57.5C 94.0431,58.2975 93.3764,58.6309 92.5,58.5C 91.1667,58.5 89.8333,58.5 88.5,58.5C 88.6495,57.448 88.4828,56.448 88,55.5C 86.9537,56.772 86.4537,58.272 86.5,60C 88.5436,67.7175 89.877,75.5508 90.5,83.5C 91.5,83.5 92.5,83.5 93.5,83.5C 93.269,87.0852 94.269,90.2519 96.5,93C 96.2716,93.3988 95.9382,93.5654 95.5,93.5C 90.7638,90.4739 86.0971,87.4739 81.5,84.5C 82.8113,79.9049 84.6446,79.5715 87,83.5C 87.8699,82.8921 88.3699,82.0588 88.5,81C 86.8472,75.5674 85.5139,70.0674 84.5,64.5C 84.2969,62.9557 83.6302,61.6223 82.5,60.5C 85.0252,57.5795 85.0252,54.7462 82.5,52C 83.7375,51.7679 84.7375,51.2679 85.5,50.5C 86.209,49.596 87.209,49.2627 88.5,49.5 Z"/></g>
<g><path style="opacity:1" fill="#e9e4d9" d="M 55.5,59.5 C 58.1667,59.5 60.8333,59.5 63.5,59.5C 63.3184,61.5914 63.6518,63.5914 64.5,65.5C 65.9653,67.4236 67.632,67.7569 69.5,66.5C 69.5,67.5 69.5,68.5 69.5,69.5C 66.1617,71.8244 62.6617,71.8244 59,69.5C 58.0979,69.7432 57.2646,70.0766 56.5,70.5C 55.8501,70.8039 55.1835,71.1373 54.5,71.5C 53.7348,70.3881 52.7348,69.7214 51.5,69.5C 52.0668,67.9705 52.7334,66.4705 53.5,65C 51.2746,64.4389 49.2746,63.4389 47.5,62C 48.056,61.6174 48.3893,61.1174 48.5,60.5C 50.8056,60.0074 53.139,59.6741 55.5,59.5 Z"/></g>
<g><path style="opacity:1" fill="#5e5443" d="M 39.5,70.5 C 38.7659,71.7079 38.4326,73.0413 38.5,74.5C 37.596,75.209 37.2627,76.209 37.5,77.5C 36.8333,77.5 36.5,77.8333 36.5,78.5C 34.8333,78.5 33.1667,78.5 31.5,78.5C 28.6946,77.6805 25.6946,77.1805 22.5,77C 23.3081,76.6924 23.9747,76.1924 24.5,75.5C 21.8228,73.7362 22.1562,72.5696 25.5,72C 20.0943,69.9782 20.4277,68.4782 26.5,67.5C 26.3764,66.8933 26.0431,66.56 25.5,66.5C 25.5,66.1667 25.5,65.8333 25.5,65.5C 27.0418,64.6993 28.7085,64.366 30.5,64.5C 30.6478,68.5551 31.6478,69.0551 33.5,66C 32.3909,64.187 33.0576,63.3537 35.5,63.5C 35.3433,64.8734 35.51,66.2068 36,67.5C 37.7286,67.9743 38.8953,68.9743 39.5,70.5 Z"/></g>
<g><path style="opacity:1" fill="#d8d2cd" d="M 46.5,60.5 C 46.8333,60.5 47.1667,60.5 47.5,60.5C 47.8333,60.5 48.1667,60.5 48.5,60.5C 48.3893,61.1174 48.056,61.6174 47.5,62C 49.2746,63.4389 51.2746,64.4389 53.5,65C 52.7334,66.4705 52.0668,67.9705 51.5,69.5C 47.8635,69.5618 45.3635,71.2285 44,74.5C 43.6857,76.8689 42.8524,79.0356 41.5,81C 43.1775,83.5466 43.8441,86.3799 43.5,89.5C 42.603,88.4019 41.7697,88.4019 41,89.5C 39.6829,84.5687 38.8496,79.5687 38.5,74.5C 38.4326,73.0413 38.7659,71.7079 39.5,70.5C 42.3131,67.5541 44.6465,64.2208 46.5,60.5 Z"/></g>
<g><path style="opacity:1" fill="#3e3b38" d="M 71.5,61.5 C 72.6354,63.2132 74.302,63.8799 76.5,63.5C 76.3415,66.1871 77.1748,68.5204 79,70.5C 79.2819,74.0395 79.7819,77.5395 80.5,81C 80.4301,81.7648 80.0967,82.2648 79.5,82.5C 79.0492,75.5853 76.0492,70.252 70.5,66.5C 70.1486,63.9588 70.4819,62.2921 71.5,61.5 Z"/></g>
<g><path style="opacity:1" fill="#504b38" d="M 73.5,60.5 C 74.8333,60.5 76.1667,60.5 77.5,60.5C 77.281,61.675 77.6143,62.675 78.5,63.5C 80.4086,64.3482 82.4086,64.6816 84.5,64.5C 85.5139,70.0674 86.8472,75.5674 88.5,81C 88.3699,82.0588 87.8699,82.8921 87,83.5C 84.6446,79.5715 82.8113,79.9049 81.5,84.5C 81.1667,84.5 80.8333,84.5 80.5,84.5C 79.6618,84.1583 79.3284,83.4916 79.5,82.5C 80.0967,82.2648 80.4301,81.7648 80.5,81C 79.7819,77.5395 79.2819,74.0395 79,70.5C 77.1748,68.5204 76.3415,66.1871 76.5,63.5C 74.302,63.8799 72.6354,63.2132 71.5,61.5C 72.1667,61.1667 72.8333,60.8333 73.5,60.5 Z"/></g>
<g><path style="opacity:1" fill="#5c533d" d="M 107.5,68.5 C 110.361,74.8111 111.194,81.4777 110,88.5C 108.579,90.4048 107.412,92.4048 106.5,94.5C 105.859,95.4822 105.193,96.4822 104.5,97.5C 105.705,98.9948 105.705,100.328 104.5,101.5C 102.473,99.8196 100.139,98.6529 97.5,98C 98.5981,97.2303 98.5981,96.397 97.5,95.5C 99.451,95.2267 100.951,95.8934 102,97.5C 102.494,95.8659 102.66,94.1992 102.5,92.5C 101.167,92.5 99.8333,92.5 98.5,92.5C 98.5514,90.4305 97.8847,88.5971 96.5,87C 97.4556,85.6349 98.1223,84.1349 98.5,82.5C 97.4855,79.8259 96.4855,77.1592 95.5,74.5C 96.4959,74.4142 97.3292,74.7476 98,75.5C 98.6054,73.5188 99.6054,73.1854 101,74.5C 101.772,73.1509 102.939,72.3176 104.5,72C 102.717,70.9335 102.217,69.4335 103,67.5C 104.356,68.3802 105.856,68.7135 107.5,68.5 Z"/></g>
<g><path style="opacity:1" fill="#292511" d="M 21.5,78.5 C 18.2869,78.19 15.2869,78.5233 12.5,79.5C 10.5284,77.6815 8.19509,76.6815 5.5,76.5C 3.5,76.5 1.5,76.5 -0.5,76.5C -0.5,74.1667 -0.5,71.8333 -0.5,69.5C 3.80455,67.1363 8.13788,67.303 12.5,70C 14.9944,71.9459 15.6611,74.2793 14.5,77C 17.0356,77.1862 19.369,77.6862 21.5,78.5 Z"/></g>
<g><path style="opacity:1" fill="#ede7d4" d="M 75.5,91.5 C 75.5,92.1667 75.5,92.8333 75.5,93.5C 74.8485,94.0906 74.1818,94.7573 73.5,95.5C 72.056,94.019 71.3894,94.3523 71.5,96.5C 70.7611,96.631 70.0944,96.4643 69.5,96C 70.5171,94.9505 70.6838,93.7839 70,92.5C 69.0975,93.7014 67.9308,94.5348 66.5,95C 67.9561,95.4226 68.4561,96.2559 68,97.5C 65.6696,95.5177 63.3362,93.5177 61,91.5C 60.6667,92.1667 60.3333,92.8333 60,93.5C 59.3333,92.1667 58.6667,90.8333 58,89.5C 57.5,90.6667 56.6667,91.5 55.5,92C 56.624,92.2492 57.624,92.7492 58.5,93.5C 58.3764,94.1067 58.0431,94.44 57.5,94.5C 55.5891,94.4257 54.4224,93.4257 54,91.5C 51.2633,92.4677 49.2633,91.4677 48,88.5C 47.6667,89.1667 47.3333,89.8333 47,90.5C 46.2917,89.6195 45.4584,88.9528 44.5,88.5C 45.2341,87.2921 45.5674,85.9587 45.5,84.5C 46.552,84.6495 47.552,84.4828 48.5,84C 47.3595,83.2588 47.3595,82.4255 48.5,81.5C 47.6798,79.8888 46.3464,79.2222 44.5,79.5C 43.9147,76.7395 44.9147,75.0728 47.5,74.5C 49.4048,75.065 51.0715,76.065 52.5,77.5C 53.5174,74.972 54.6841,74.972 56,77.5C 56.3333,77.1667 56.6667,76.8333 57,76.5C 57.9154,78.9803 59.4154,79.6469 61.5,78.5C 67.5078,80.6732 71.0078,85.3399 72,92.5C 72.704,90.273 73.8706,89.9397 75.5,91.5 Z"/></g>
<g><path style="opacity:1" fill="#eeece4" d="M 69.5,69.5 C 67.7015,75.0623 69.2015,77.0623 74,75.5C 74.4069,78.682 74.9069,81.8486 75.5,85C 75.472,86.0698 75.1386,86.9032 74.5,87.5C 73.0858,85.1327 71.7525,82.6327 70.5,80C 68.5789,79.6397 66.9122,78.8064 65.5,77.5C 64.914,77.7093 64.414,78.0426 64,78.5C 62.9938,75.1102 60.9938,74.1102 58,75.5C 56.7308,74.0953 56.2308,72.4286 56.5,70.5C 57.2646,70.0766 58.0979,69.7432 59,69.5C 62.6617,71.8244 66.1617,71.8244 69.5,69.5 Z"/></g>
<g><path style="opacity:1" fill="#524f2a" d="M 108.5,66.5 C 112.601,67.3109 116.267,68.9775 119.5,71.5C 119.5,75.1667 119.5,78.8333 119.5,82.5C 117.744,81.4479 117.077,79.7812 117.5,77.5C 116.448,77.6495 115.448,77.4828 114.5,77C 116.155,75.5557 116.822,73.7224 116.5,71.5C 114.833,71.5 113.167,71.5 111.5,71.5C 111.334,77.5092 111.501,83.5092 112,89.5C 112.44,91.0762 113.273,92.4096 114.5,93.5C 112.146,95.1878 110.146,97.1878 108.5,99.5C 108.598,97.4471 107.931,95.7804 106.5,94.5C 107.412,92.4048 108.579,90.4048 110,88.5C 111.194,81.4777 110.361,74.8111 107.5,68.5C 107.833,67.8333 108.167,67.1667 108.5,66.5 Z"/></g>
<g><path style="opacity:1" fill="#4f4929" d="M 92.5,58.5 C 90.9683,64.3619 91.9683,69.6952 95.5,74.5C 96.4855,77.1592 97.4855,79.8259 98.5,82.5C 98.1223,84.1349 97.4556,85.6349 96.5,87C 97.8847,88.5971 98.5514,90.4305 98.5,92.5C 99.8333,92.5 101.167,92.5 102.5,92.5C 102.66,94.1992 102.494,95.8659 102,97.5C 100.951,95.8934 99.451,95.2267 97.5,95.5C 96.5,95.1667 95.8333,94.5 95.5,93.5C 95.9382,93.5654 96.2716,93.3988 96.5,93C 94.269,90.2519 93.269,87.0852 93.5,83.5C 92.5,83.5 91.5,83.5 90.5,83.5C 89.877,75.5508 88.5436,67.7175 86.5,60C 86.4537,58.272 86.9537,56.772 88,55.5C 88.4828,56.448 88.6495,57.448 88.5,58.5C 89.8333,58.5 91.1667,58.5 92.5,58.5 Z"/></g>
<g><path style="opacity:1" fill="#ede8db" d="M 51.5,69.5 C 52.7348,69.7214 53.7348,70.3881 54.5,71.5C 55.1835,71.1373 55.8501,70.8039 56.5,70.5C 56.2308,72.4286 56.7308,74.0953 58,75.5C 60.9938,74.1102 62.9938,75.1102 64,78.5C 64.414,78.0426 64.914,77.7093 65.5,77.5C 66.9122,78.8064 68.5789,79.6397 70.5,80C 71.7525,82.6327 73.0858,85.1327 74.5,87.5C 74.8333,88.8333 75.1667,90.1667 75.5,91.5C 73.8706,89.9397 72.704,90.273 72,92.5C 71.0078,85.3399 67.5078,80.6732 61.5,78.5C 59.4154,79.6469 57.9154,78.9803 57,76.5C 56.6667,76.8333 56.3333,77.1667 56,77.5C 54.6841,74.972 53.5174,74.972 52.5,77.5C 51.0715,76.065 49.4048,75.065 47.5,74.5C 44.9147,75.0728 43.9147,76.7395 44.5,79.5C 46.3464,79.2222 47.6798,79.8888 48.5,81.5C 47.3595,82.4255 47.3595,83.2588 48.5,84C 47.552,84.4828 46.552,84.6495 45.5,84.5C 45.5674,85.9587 45.2341,87.2921 44.5,88.5C 44.6716,89.4916 44.3382,90.1583 43.5,90.5C 43.5,90.1667 43.5,89.8333 43.5,89.5C 43.8441,86.3799 43.1775,83.5466 41.5,81C 42.8524,79.0356 43.6857,76.8689 44,74.5C 45.3635,71.2285 47.8635,69.5618 51.5,69.5 Z"/></g>
<g><path style="opacity:1" fill="#343416" d="M 5.5,76.5 C 8.19509,76.6815 10.5284,77.6815 12.5,79.5C 16.7815,79.9452 20.9482,80.9452 25,82.5C 26.4999,80.8816 28.9999,80.0483 32.5,80C 30.9419,79.79 29.6085,79.29 28.5,78.5C 29.5,78.5 30.5,78.5 31.5,78.5C 33.1667,78.5 34.8333,78.5 36.5,78.5C 36.5,79.5 36.5,80.5 36.5,81.5C 34.8008,81.3398 33.1341,81.5065 31.5,82C 29.4543,84.6355 26.9543,85.1355 24,83.5C 21.536,84.1608 19.036,84.6608 16.5,85C 15.6634,86.0113 15.33,87.1779 15.5,88.5C 12.2613,85.7938 8.59459,83.6271 4.5,82C 3.66337,80.9887 3.33003,79.8221 3.5,78.5C 4.87344,78.6567 6.20677,78.49 7.5,78C 6.5842,77.7216 5.91753,77.2216 5.5,76.5 Z"/></g>
<g><path style="opacity:1" fill="#121002" d="M 12.5,79.5 C 15.2869,78.5233 18.2869,78.19 21.5,78.5C 23.8333,78.5 26.1667,78.5 28.5,78.5C 29.6085,79.29 30.9419,79.79 32.5,80C 28.9999,80.0483 26.4999,80.8816 25,82.5C 20.9482,80.9452 16.7815,79.9452 12.5,79.5 Z"/></g>
<g><path style="opacity:1" fill="#d7d9d7" d="M 69.5,66.5 C 69.8333,66.5 70.1667,66.5 70.5,66.5C 76.0492,70.252 79.0492,75.5853 79.5,82.5C 79.3284,83.4916 79.6618,84.1583 80.5,84.5C 82.0233,87.6348 82.69,90.9682 82.5,94.5C 82.7551,97.9373 81.5884,100.604 79,102.5C 77.9889,101.944 77.1556,101.278 76.5,100.5C 75.6314,98.283 75.298,95.9496 75.5,93.5C 75.5,92.8333 75.5,92.1667 75.5,91.5C 75.1667,90.1667 74.8333,88.8333 74.5,87.5C 75.1386,86.9032 75.472,86.0698 75.5,85C 74.9069,81.8486 74.4069,78.682 74,75.5C 69.2015,77.0623 67.7015,75.0623 69.5,69.5C 69.5,68.5 69.5,67.5 69.5,66.5 Z"/></g>
<g><path style="opacity:1" fill="#454814" d="M 119.5,82.5 C 119.5,90.8333 119.5,99.1667 119.5,107.5C 115.727,107.737 112.06,107.237 108.5,106C 107.189,103.726 107.189,101.56 108.5,99.5C 110.146,97.1878 112.146,95.1878 114.5,93.5C 113.273,92.4096 112.44,91.0762 112,89.5C 111.501,83.5092 111.334,77.5092 111.5,71.5C 113.167,71.5 114.833,71.5 116.5,71.5C 116.822,73.7224 116.155,75.5557 114.5,77C 115.448,77.4828 116.448,77.6495 117.5,77.5C 117.077,79.7812 117.744,81.4479 119.5,82.5 Z"/></g>
<g><path style="opacity:1" fill="#64594a" d="M -0.5,76.5 C 1.5,76.5 3.5,76.5 5.5,76.5C 5.91753,77.2216 6.5842,77.7216 7.5,78C 6.20677,78.49 4.87344,78.6567 3.5,78.5C 3.33003,79.8221 3.66337,80.9887 4.5,82C 8.59459,83.6271 12.2613,85.7938 15.5,88.5C 14.9429,92.634 15.9429,96.3007 18.5,99.5C 16.638,103.091 14.3047,103.258 11.5,100C 12.7932,99.51 14.1266,99.3433 15.5,99.5C 15.5,98.5 15.5,97.5 15.5,96.5C 14.1667,96.5 12.8333,96.5 11.5,96.5C 11.026,92.8431 9.69263,92.6764 7.5,96C 8.435,98.3806 8.76834,100.881 8.5,103.5C 5.39029,105.145 2.72362,104.645 0.5,102C 2.07779,100.86 3.74446,100.36 5.5,100.5C 2.94218,98.8799 2.94218,97.3799 5.5,96C 4.66337,94.9887 4.33003,93.8221 4.5,92.5C 2.83333,92.5 1.16667,92.5 -0.5,92.5C -0.5,87.1667 -0.5,81.8333 -0.5,76.5 Z"/></g>
<g><path style="opacity:1" fill="#5e5547" d="M 36.5,81.5 C 36.8134,84.2469 36.48,86.9135 35.5,89.5C 33.6329,86.7709 32.6329,87.1043 32.5,90.5C 33.5,90.5 34.5,90.5 35.5,90.5C 35.5,90.8333 35.5,91.1667 35.5,91.5C 29.1326,94.0278 23.7993,98.0278 19.5,103.5C 18.8333,104.833 17.8333,105.833 16.5,106.5C 14.6083,103.214 11.9416,102.214 8.5,103.5C 8.76834,100.881 8.435,98.3806 7.5,96C 9.69263,92.6764 11.026,92.8431 11.5,96.5C 12.8333,96.5 14.1667,96.5 15.5,96.5C 15.5,97.5 15.5,98.5 15.5,99.5C 14.1266,99.3433 12.7932,99.51 11.5,100C 14.3047,103.258 16.638,103.091 18.5,99.5C 15.9429,96.3007 14.9429,92.634 15.5,88.5C 15.33,87.1779 15.6634,86.0113 16.5,85C 19.036,84.6608 21.536,84.1608 24,83.5C 26.9543,85.1355 29.4543,84.6355 31.5,82C 33.1341,81.5065 34.8008,81.3398 36.5,81.5 Z"/></g>
<g><path style="opacity:1" fill="#e2d9c0" d="M 44.5,88.5 C 45.4584,88.9528 46.2917,89.6195 47,90.5C 47.3333,89.8333 47.6667,89.1667 48,88.5C 49.2633,91.4677 51.2633,92.4677 54,91.5C 54.4224,93.4257 55.5891,94.4257 57.5,94.5C 57.9175,95.2216 58.5842,95.7216 59.5,96C 58.6634,97.0113 58.33,98.1779 58.5,99.5C 56.6923,100.317 55.1923,99.6502 54,97.5C 54.3333,99.1667 54.6667,100.833 55,102.5C 54.1475,100.875 53.1475,100.542 52,101.5C 51.3654,97.8985 50.032,97.2318 48,99.5C 45.9105,96.7844 44.4105,93.7844 43.5,90.5C 44.3382,90.1583 44.6716,89.4916 44.5,88.5 Z"/></g>
<g><path style="opacity:1" fill="#544a3b" d="M 102.5,103.5 C 102.5,103.833 102.5,104.167 102.5,104.5C 102.093,105.762 101.76,107.095 101.5,108.5C 96.7612,105.469 92.4278,101.969 88.5,98C 89.5171,96.9505 89.6838,95.7839 89,94.5C 86.4215,93.6314 84.5882,91.9648 83.5,89.5C 83.6667,89.1667 83.8333,88.8333 84,88.5C 90.6949,92.92 96.8616,97.92 102.5,103.5 Z"/></g>
<g><path style="opacity:1" fill="#17130d" d="M 80.5,84.5 C 80.8333,84.5 81.1667,84.5 81.5,84.5C 86.0971,87.4739 90.7638,90.4739 95.5,93.5C 95.8333,94.5 96.5,95.1667 97.5,95.5C 98.5981,96.397 98.5981,97.2303 97.5,98C 100.139,98.6529 102.473,99.8196 104.5,101.5C 104.5,101.833 104.5,102.167 104.5,102.5C 103.508,102.328 102.842,102.662 102.5,103.5C 96.8616,97.92 90.6949,92.92 84,88.5C 83.8333,88.8333 83.6667,89.1667 83.5,89.5C 84.5882,91.9648 86.4215,93.6314 89,94.5C 89.6838,95.7839 89.5171,96.9505 88.5,98C 92.4278,101.969 96.7612,105.469 101.5,108.5C 101.76,107.095 102.093,105.762 102.5,104.5C 103.147,105.274 103.48,106.274 103.5,107.5C 103.36,109.03 102.693,110.03 101.5,110.5C 96.1995,106.286 90.5328,102.619 84.5,99.5C 84.5,98.8333 84.1667,98.5 83.5,98.5C 83.7678,96.901 83.4345,95.5676 82.5,94.5C 82.69,90.9682 82.0233,87.6348 80.5,84.5 Z"/></g>
<g><path style="opacity:1" fill="#605546" d="M -0.5,92.5 C 1.16667,92.5 2.83333,92.5 4.5,92.5C 4.33003,93.8221 4.66337,94.9887 5.5,96C 2.94218,97.3799 2.94218,98.8799 5.5,100.5C 3.74446,100.36 2.07779,100.86 0.5,102C 2.72362,104.645 5.39029,105.145 8.5,103.5C 8.19607,104.15 7.86273,104.817 7.5,105.5C 8.90785,106.243 10.2412,107.077 11.5,108C 10.572,108.388 9.90536,109.055 9.5,110C 10.452,111.3 10.452,112.467 9.5,113.5C 8.06902,113.023 6.73569,112.357 5.5,111.5C 6.16667,110.833 6.83333,110.167 7.5,109.5C 5.92226,108.702 4.2556,108.202 2.5,108C 1.87424,107.25 1.37424,106.416 1,105.5C 0.506489,107.134 0.339822,108.801 0.5,110.5C 4.13899,111.268 3.80566,111.934 -0.5,112.5C -0.5,105.833 -0.5,99.1667 -0.5,92.5 Z"/></g>
<g><path style="opacity:1" fill="#251d17" d="M 35.5,91.5 C 35.1667,92.1667 34.8333,92.8333 34.5,93.5C 29.5983,96.6732 25.5983,100.673 22.5,105.5C 19.3296,106.792 18.9962,108.458 21.5,110.5C 21.0431,111.298 20.3764,111.631 19.5,111.5C 18.6428,108.635 18.6428,105.969 19.5,103.5C 23.7993,98.0278 29.1326,94.0278 35.5,91.5 Z"/></g>
<g><path style="opacity:1" fill="#887458" d="M 34.5,93.5 C 34.5,94.1667 34.5,94.8333 34.5,95.5C 34.5,96.1667 34.5,96.8333 34.5,97.5C 32.6159,97.7118 31.2826,98.7118 30.5,100.5C 31.2739,101.711 32.1072,101.711 33,100.5C 33.0699,104.035 31.7365,107.035 29,109.5C 27.103,111.016 24.9363,111.683 22.5,111.5C 23.3799,109.389 23.3799,107.389 22.5,105.5C 25.5983,100.673 29.5983,96.6732 34.5,93.5 Z"/></g>
<g><path style="opacity:1" fill="#251b0f" d="M 34.5,95.5 C 35.7973,100.066 35.7973,104.733 34.5,109.5C 33.8333,109.5 33.1667,109.5 32.5,109.5C 34.1428,105.705 34.8094,101.705 34.5,97.5C 34.5,96.8333 34.5,96.1667 34.5,95.5 Z"/></g>
<g><path style="opacity:1" fill="#dcd2b7" d="M 71.5,96.5 C 70.8902,97.391 70.5569,98.391 70.5,99.5C 69.8826,99.3893 69.3826,99.056 69,98.5C 68.5291,100.246 67.8624,101.913 67,103.5C 66.6667,102.167 66.3333,100.833 66,99.5C 65,100.833 64,100.833 63,99.5C 60.7237,101.307 60.557,102.807 62.5,104C 61.3777,105.613 61.8777,106.78 64,107.5C 64.8365,109.821 65.1699,112.155 65,114.5C 63.738,112.697 62.0713,111.364 60,110.5C 58.4097,112.504 58.5764,114.504 60.5,116.5C 60.5,116.833 60.5,117.167 60.5,117.5C 60.1034,118.525 59.4368,118.692 58.5,118C 57.6699,116.253 56.6699,114.587 55.5,113C 56.4818,112.619 57.1485,111.786 57.5,110.5C 57.5177,108.627 57.0177,108.294 56,109.5C 55.3333,108.167 55.3333,106.833 56,105.5C 56.9745,107.878 57.6411,107.544 58,104.5C 58.5354,106.271 59.3687,106.604 60.5,105.5C 59.8333,104.5 59.1667,103.5 58.5,102.5C 59.0253,101.808 59.6919,101.308 60.5,101C 59.5842,100.722 58.9175,100.222 58.5,99.5C 58.33,98.1779 58.6634,97.0113 59.5,96C 58.5842,95.7216 57.9175,95.2216 57.5,94.5C 58.0431,94.44 58.3764,94.1067 58.5,93.5C 57.624,92.7492 56.624,92.2492 55.5,92C 56.6667,91.5 57.5,90.6667 58,89.5C 58.6667,90.8333 59.3333,92.1667 60,93.5C 60.3333,92.8333 60.6667,92.1667 61,91.5C 63.3362,93.5177 65.6696,95.5177 68,97.5C 68.4561,96.2559 67.9561,95.4226 66.5,95C 67.9308,94.5348 69.0975,93.7014 70,92.5C 70.6838,93.7839 70.5171,94.9505 69.5,96C 70.0944,96.4643 70.7611,96.631 71.5,96.5 Z"/></g>
<g><path style="opacity:1" fill="#d3c8af" d="M 38.5,74.5 C 38.8496,79.5687 39.6829,84.5687 41,89.5C 41.7697,88.4019 42.603,88.4019 43.5,89.5C 43.5,89.8333 43.5,90.1667 43.5,90.5C 44.4105,93.7844 45.9105,96.7844 48,99.5C 50.032,97.2318 51.3654,97.8985 52,101.5C 53.1475,100.542 54.1475,100.875 55,102.5C 54.6667,100.833 54.3333,99.1667 54,97.5C 55.1923,99.6502 56.6923,100.317 58.5,99.5C 58.9175,100.222 59.5842,100.722 60.5,101C 59.6919,101.308 59.0253,101.808 58.5,102.5C 59.1667,103.5 59.8333,104.5 60.5,105.5C 59.3687,106.604 58.5354,106.271 58,104.5C 57.6411,107.544 56.9745,107.878 56,105.5C 55.3333,106.833 55.3333,108.167 56,109.5C 57.0177,108.294 57.5177,108.627 57.5,110.5C 57.1485,111.786 56.4818,112.619 55.5,113C 56.6699,114.587 57.6699,116.253 58.5,118C 59.4368,118.692 60.1034,118.525 60.5,117.5C 63.2462,119.071 64.4129,121.404 64,124.5C 63.1072,123.289 62.2739,123.289 61.5,124.5C 62.1272,125.417 62.4606,126.417 62.5,127.5C 60.5,127.5 58.5,127.5 56.5,127.5C 56.5,126.833 56.5,126.167 56.5,125.5C 57.4778,125.189 58.1445,124.522 58.5,123.5C 56.1613,119.497 53.828,115.497 51.5,111.5C 49.6745,112.571 48.5079,111.904 48,109.5C 47.6667,109.833 47.3333,110.167 47,110.5C 46.8446,108.144 46.8446,105.811 47,103.5C 45.2872,99.4799 43.1206,95.8133 40.5,92.5C 38.8547,87.6618 37.8547,82.6618 37.5,77.5C 37.2627,76.209 37.596,75.209 38.5,74.5 Z"/></g>
<g><path style="opacity:1" fill="#d1cab4" d="M 75.5,93.5 C 75.298,95.9496 75.6314,98.283 76.5,100.5C 75.4138,100.62 74.7472,101.287 74.5,102.5C 75.228,104.155 75.3947,105.821 75,107.5C 74.6667,106.833 74.3333,106.167 74,105.5C 72.393,108.589 71.5597,111.589 71.5,114.5C 73.9876,117.062 75.6542,120.062 76.5,123.5C 74.5887,122.925 72.922,121.925 71.5,120.5C 71.6107,119.883 71.944,119.383 72.5,119C 70.2279,118.059 68.2279,116.726 66.5,115C 67,114.5 67.5,114 68,113.5C 68.5163,108.732 69.3496,104.066 70.5,99.5C 70.5569,98.391 70.8902,97.391 71.5,96.5C 71.3894,94.3523 72.056,94.019 73.5,95.5C 74.1818,94.7573 74.8485,94.0906 75.5,93.5 Z"/></g>
<g><path style="opacity:1" fill="#635b4f" d="M 84.5,99.5 C 90.5328,102.619 96.1995,106.286 101.5,110.5C 101.5,110.833 101.5,111.167 101.5,111.5C 96.6218,112.704 93.2885,110.704 91.5,105.5C 91.1667,106.167 90.8333,106.833 90.5,107.5C 89.549,106.674 88.549,106.508 87.5,107C 88.583,113.374 88.583,120.208 87.5,127.5C 87.1667,127.5 86.8333,127.5 86.5,127.5C 85.0833,118.252 84.4166,108.918 84.5,99.5 Z"/></g>
<g><path style="opacity:1" fill="#c7c1af" d="M 82.5,94.5 C 83.4345,95.5676 83.7678,96.901 83.5,98.5C 81.9596,105.028 81.1263,111.695 81,118.5C 80.8784,120.437 80.045,121.77 78.5,122.5C 77.7321,123.263 77.2321,124.263 77,125.5C 76.5357,124.906 76.369,124.239 76.5,123.5C 75.6542,120.062 73.9876,117.062 71.5,114.5C 71.5597,111.589 72.393,108.589 74,105.5C 74.3333,106.167 74.6667,106.833 75,107.5C 75.3947,105.821 75.228,104.155 74.5,102.5C 74.7472,101.287 75.4138,100.62 76.5,100.5C 77.1556,101.278 77.9889,101.944 79,102.5C 81.5884,100.604 82.7551,97.9373 82.5,94.5 Z"/></g>
<g><path style="opacity:1" fill="#534b35" d="M 106.5,94.5 C 107.931,95.7804 108.598,97.4471 108.5,99.5C 107.189,101.56 107.189,103.726 108.5,106C 112.06,107.237 115.727,107.737 119.5,107.5C 119.5,112.5 119.5,117.5 119.5,122.5C 118.778,122.918 118.278,123.584 118,124.5C 117.25,123.874 116.416,123.374 115.5,123C 116.728,122.221 117.728,121.221 118.5,120C 117.313,117.234 116.313,114.401 115.5,111.5C 115.564,114.902 115.231,118.235 114.5,121.5C 113.107,117.49 111.607,113.49 110,109.5C 107.601,107.603 105.768,105.269 104.5,102.5C 104.5,102.167 104.5,101.833 104.5,101.5C 105.705,100.328 105.705,98.9948 104.5,97.5C 105.193,96.4822 105.859,95.4822 106.5,94.5 Z"/></g>
<g><path style="opacity:1" fill="#ccc0a6" d="M 40.5,92.5 C 43.1206,95.8133 45.2872,99.4799 47,103.5C 46.8446,105.811 46.8446,108.144 47,110.5C 47.3333,110.167 47.6667,109.833 48,109.5C 48.5079,111.904 49.6745,112.571 51.5,111.5C 53.828,115.497 56.1613,119.497 58.5,123.5C 58.1445,124.522 57.4778,125.189 56.5,125.5C 55.2502,125.577 54.4169,126.244 54,127.5C 51.9022,127.552 49.7356,127.218 47.5,126.5C 45.9623,126.453 44.9623,127.12 44.5,128.5C 42.3464,130.158 42.0131,132.158 43.5,134.5C 40.8447,133.533 40.178,131.867 41.5,129.5C 40.5585,129.511 39.8919,129.011 39.5,128C 40.5089,126.832 41.5089,125.665 42.5,124.5C 40.958,120.867 41.6247,118.534 44.5,117.5C 42.7751,115.043 42.2751,112.377 43,109.5C 43.9195,109.07 44.7528,108.736 45.5,108.5C 44.6667,106.833 43.8333,105.167 43,103.5C 42.2303,102.402 41.397,102.402 40.5,103.5C 41.0111,99.9703 40.3444,96.8037 38.5,94C 39.0442,93.2828 39.7109,92.7828 40.5,92.5 Z"/></g>
<g><path style="opacity:1" fill="#090502" d="M 104.5,102.5 C 105.768,105.269 107.601,107.603 110,109.5C 111.607,113.49 113.107,117.49 114.5,121.5C 113.504,121.414 112.671,121.748 112,122.5C 110.296,120.627 108.463,118.96 106.5,117.5C 104.823,115.46 103.156,113.46 101.5,111.5C 101.5,111.167 101.5,110.833 101.5,110.5C 102.693,110.03 103.36,109.03 103.5,107.5C 103.48,106.274 103.147,105.274 102.5,104.5C 102.5,104.167 102.5,103.833 102.5,103.5C 102.842,102.662 103.508,102.328 104.5,102.5 Z"/></g>
<g><path style="opacity:1" fill="#554c40" d="M 34.5,97.5 C 34.8094,101.705 34.1428,105.705 32.5,109.5C 32.5,110.167 32.1667,110.5 31.5,110.5C 26.4939,113.506 22.4939,117.506 19.5,122.5C 18.3433,118.883 18.3433,115.216 19.5,111.5C 20.3764,111.631 21.0431,111.298 21.5,110.5C 18.9962,108.458 19.3296,106.792 22.5,105.5C 23.3799,107.389 23.3799,109.389 22.5,111.5C 24.9363,111.683 27.103,111.016 29,109.5C 31.7365,107.035 33.0699,104.035 33,100.5C 32.1072,101.711 31.2739,101.711 30.5,100.5C 31.2826,98.7118 32.6159,97.7118 34.5,97.5 Z"/></g>
<g><path style="opacity:1" fill="#948876" d="M 35.5,90.5 C 36.4849,94.6344 36.8182,98.9677 36.5,103.5C 37.552,103.351 38.552,103.517 39.5,104C 39.2734,106.369 39.1067,108.869 39,111.5C 37.8507,114.608 36.6841,117.775 35.5,121C 35.8017,123.4 36.4684,125.566 37.5,127.5C 38.4255,130.87 38.7589,134.203 38.5,137.5C 37.479,137.458 36.479,137.458 35.5,137.5C 34.596,136.791 34.2627,135.791 34.5,134.5C 34.5,126.167 34.5,117.833 34.5,109.5C 35.7973,104.733 35.7973,100.066 34.5,95.5C 34.5,94.8333 34.5,94.1667 34.5,93.5C 34.8333,92.8333 35.1667,92.1667 35.5,91.5C 35.5,91.1667 35.5,90.8333 35.5,90.5 Z"/></g>
<g><path style="opacity:1" fill="#d1c7ad" d="M 70.5,99.5 C 69.3496,104.066 68.5163,108.732 68,113.5C 67.5,114 67,114.5 66.5,115C 68.2279,116.726 70.2279,118.059 72.5,119C 71.944,119.383 71.6107,119.883 71.5,120.5C 72.1495,122.435 72.4828,124.435 72.5,126.5C 70.8762,126.36 69.7096,127.027 69,128.5C 68.3333,127.5 68.3333,126.5 69,125.5C 69.6667,124.167 70.3333,124.167 71,125.5C 71.5628,124.275 71.2295,123.275 70,122.5C 69.1627,124.007 67.9961,124.507 66.5,124C 64.846,121.503 64.0126,119.003 64,116.5C 63.0138,117.171 61.8471,117.171 60.5,116.5C 58.5764,114.504 58.4097,112.504 60,110.5C 62.0713,111.364 63.738,112.697 65,114.5C 65.1699,112.155 64.8365,109.821 64,107.5C 61.8777,106.78 61.3777,105.613 62.5,104C 60.557,102.807 60.7237,101.307 63,99.5C 64,100.833 65,100.833 66,99.5C 66.3333,100.833 66.6667,102.167 67,103.5C 67.8624,101.913 68.5291,100.246 69,98.5C 69.3826,99.056 69.8826,99.3893 70.5,99.5 Z"/></g>
<g><path style="opacity:1" fill="#6b5c4b" d="M 16.5,106.5 C 14.0847,113.339 11.7513,120.172 9.5,127C 10.056,127.383 10.3893,127.883 10.5,128.5C 8.26248,129.537 5.92915,129.703 3.5,129C 3.43405,127.261 2.76739,125.428 1.5,123.5C 2.19137,121.109 3.19137,121.109 4.5,123.5C 6.0026,122.948 7.66927,122.948 9.5,123.5C 9.22672,121.549 9.89339,120.049 11.5,119C 11.0019,117.842 10.1685,117.009 9,116.5C 5.56199,116.922 2.39532,117.922 -0.5,119.5C -0.5,117.167 -0.5,114.833 -0.5,112.5C 3.80566,111.934 4.13899,111.268 0.5,110.5C 0.339822,108.801 0.506489,107.134 1,105.5C 1.37424,106.416 1.87424,107.25 2.5,108C 4.2556,108.202 5.92226,108.702 7.5,109.5C 6.83333,110.167 6.16667,110.833 5.5,111.5C 6.73569,112.357 8.06902,113.023 9.5,113.5C 10.452,112.467 10.452,111.3 9.5,110C 9.90536,109.055 10.572,108.388 11.5,108C 10.2412,107.077 8.90785,106.243 7.5,105.5C 7.86273,104.817 8.19607,104.15 8.5,103.5C 11.9416,102.214 14.6083,103.214 16.5,106.5 Z"/></g>
<g><path style="opacity:1" fill="#bfb29a" d="M 43.5,134.5 C 42.2247,135.048 41.558,136.381 41.5,138.5C 42.4553,141.427 43.7886,144.094 45.5,146.5C 47.6716,147.206 49.6716,148.206 51.5,149.5C 51.0183,150.416 50.685,151.416 50.5,152.5C 51.1869,154.177 51.8535,155.844 52.5,157.5C 50.0042,155.231 47.0042,153.898 43.5,153.5C 41.4333,151.773 39.7666,149.773 38.5,147.5C 37.5,145.5 36.5,143.5 35.5,141.5C 35.5,140.167 35.5,138.833 35.5,137.5C 36.479,137.458 37.479,137.458 38.5,137.5C 38.7589,134.203 38.4255,130.87 37.5,127.5C 37.4975,124.174 38.4975,121.174 40.5,118.5C 40.9732,113.554 40.9732,108.554 40.5,103.5C 41.397,102.402 42.2303,102.402 43,103.5C 43.8333,105.167 44.6667,106.833 45.5,108.5C 44.7528,108.736 43.9195,109.07 43,109.5C 42.2751,112.377 42.7751,115.043 44.5,117.5C 41.6247,118.534 40.958,120.867 42.5,124.5C 41.5089,125.665 40.5089,126.832 39.5,128C 39.8919,129.011 40.5585,129.511 41.5,129.5C 40.178,131.867 40.8447,133.533 43.5,134.5 Z"/></g>
<g><path style="opacity:1" fill="#0e0806" d="M 19.5,103.5 C 18.6428,105.969 18.6428,108.635 19.5,111.5C 18.3433,115.216 18.3433,118.883 19.5,122.5C 18.2213,125.112 16.5547,127.445 14.5,129.5C 13.0413,129.567 11.7079,129.234 10.5,128.5C 10.3893,127.883 10.056,127.383 9.5,127C 11.7513,120.172 14.0847,113.339 16.5,106.5C 17.8333,105.833 18.8333,104.833 19.5,103.5 Z"/></g>
<g><path style="opacity:1" fill="#685c46" d="M 101.5,111.5 C 103.156,113.46 104.823,115.46 106.5,117.5C 105.475,117.897 105.308,118.563 106,119.5C 107.378,121.213 109.045,122.547 111,123.5C 111.494,125.134 111.66,126.801 111.5,128.5C 110.069,127.918 108.736,127.085 107.5,126C 108.167,125.667 108.833,125.333 109.5,125C 107.895,123.64 106.395,122.14 105,120.5C 104.828,123.826 104.995,127.159 105.5,130.5C 104.685,129.571 103.852,128.571 103,127.5C 101.562,128.9 100.729,130.567 100.5,132.5C 95.6799,131.08 91.3466,129.414 87.5,127.5C 88.583,120.208 88.583,113.374 87.5,107C 88.549,106.508 89.549,106.674 90.5,107.5C 90.8333,106.833 91.1667,106.167 91.5,105.5C 93.2885,110.704 96.6218,112.704 101.5,111.5 Z"/></g>
<g><path style="opacity:1" fill="#736651" d="M 10.5,128.5 C 11.7079,129.234 13.0413,129.567 14.5,129.5C 13.469,130.249 12.3024,130.915 11,131.5C 8.93615,130.409 6.76948,130.242 4.5,131C 5.05596,131.383 5.38929,131.883 5.5,132.5C 3.5,131.833 1.5,131.167 -0.5,130.5C -0.5,126.833 -0.5,123.167 -0.5,119.5C 2.39532,117.922 5.56199,116.922 9,116.5C 10.1685,117.009 11.0019,117.842 11.5,119C 9.89339,120.049 9.22672,121.549 9.5,123.5C 7.66927,122.948 6.0026,122.948 4.5,123.5C 3.19137,121.109 2.19137,121.109 1.5,123.5C 2.76739,125.428 3.43405,127.261 3.5,129C 5.92915,129.703 8.26248,129.537 10.5,128.5 Z"/></g>
<g><path style="opacity:1" fill="#b0a493" d="M 37.5,77.5 C 37.8547,82.6618 38.8547,87.6618 40.5,92.5C 39.7109,92.7828 39.0442,93.2828 38.5,94C 40.3444,96.8037 41.0111,99.9703 40.5,103.5C 40.9732,108.554 40.9732,113.554 40.5,118.5C 38.4975,121.174 37.4975,124.174 37.5,127.5C 36.4684,125.566 35.8017,123.4 35.5,121C 36.6841,117.775 37.8507,114.608 39,111.5C 39.1067,108.869 39.2734,106.369 39.5,104C 38.552,103.517 37.552,103.351 36.5,103.5C 36.8182,98.9677 36.4849,94.6344 35.5,90.5C 34.5,90.5 33.5,90.5 32.5,90.5C 32.6329,87.1043 33.6329,86.7709 35.5,89.5C 36.48,86.9135 36.8134,84.2469 36.5,81.5C 36.5,80.5 36.5,79.5 36.5,78.5C 36.5,77.8333 36.8333,77.5 37.5,77.5 Z"/></g>
<g><path style="opacity:1" fill="#645843" d="M 32.5,109.5 C 33.1667,109.5 33.8333,109.5 34.5,109.5C 34.5,117.833 34.5,126.167 34.5,134.5C 33.5,134.5 32.5,134.5 31.5,134.5C 27.9581,134.813 24.6248,134.479 21.5,133.5C 24.2469,133.813 26.9135,133.48 29.5,132.5C 28.8333,131.167 28.1667,129.833 27.5,128.5C 26.7261,127.289 25.8928,127.289 25,128.5C 21.2478,124.93 22.0811,122.93 27.5,122.5C 26.1468,121.476 25.4802,120.143 25.5,118.5C 29.9287,118.543 30.9287,117.043 28.5,114C 29.7101,112.961 30.7101,111.794 31.5,110.5C 32.1667,110.5 32.5,110.167 32.5,109.5 Z"/></g>
<g><path style="opacity:1" fill="#665f4d" d="M 119.5,122.5 C 119.847,127.475 117.847,131.142 113.5,133.5C 112.167,133.833 110.833,134.167 109.5,134.5C 110.167,132.5 110.833,130.5 111.5,128.5C 111.66,126.801 111.494,125.134 111,123.5C 109.045,122.547 107.378,121.213 106,119.5C 105.308,118.563 105.475,117.897 106.5,117.5C 108.463,118.96 110.296,120.627 112,122.5C 112.671,121.748 113.504,121.414 114.5,121.5C 115.231,118.235 115.564,114.902 115.5,111.5C 116.313,114.401 117.313,117.234 118.5,120C 117.728,121.221 116.728,122.221 115.5,123C 116.416,123.374 117.25,123.874 118,124.5C 118.278,123.584 118.778,122.918 119.5,122.5 Z"/></g>
<g><path style="opacity:1" fill="#796b53" d="M 31.5,110.5 C 30.7101,111.794 29.7101,112.961 28.5,114C 30.9287,117.043 29.9287,118.543 25.5,118.5C 25.4802,120.143 26.1468,121.476 27.5,122.5C 22.0811,122.93 21.2478,124.93 25,128.5C 25.8928,127.289 26.7261,127.289 27.5,128.5C 28.1667,129.833 28.8333,131.167 29.5,132.5C 26.9135,133.48 24.2469,133.813 21.5,133.5C 16.1565,132.982 10.8231,132.649 5.5,132.5C 5.38929,131.883 5.05596,131.383 4.5,131C 6.76948,130.242 8.93615,130.409 11,131.5C 12.3024,130.915 13.469,130.249 14.5,129.5C 16.5547,127.445 18.2213,125.112 19.5,122.5C 22.4939,117.506 26.4939,113.506 31.5,110.5 Z"/></g>
<g><path style="opacity:1" fill="#cec1a2" d="M 56.5,125.5 C 56.5,126.167 56.5,126.833 56.5,127.5C 55.8501,127.804 55.1835,128.137 54.5,128.5C 53.52,131.086 53.1866,133.753 53.5,136.5C 56.752,136.29 59.752,136.956 62.5,138.5C 59.6097,141.067 56.9431,140.9 54.5,138C 47.9506,137.947 44.6172,134.781 44.5,128.5C 44.9623,127.12 45.9623,126.453 47.5,126.5C 49.7356,127.218 51.9022,127.552 54,127.5C 54.4169,126.244 55.2502,125.577 56.5,125.5 Z"/></g>
<g><path style="opacity:1" fill="#d0c4a6" d="M 66.5,137.5 C 65.2921,138.234 63.9587,138.567 62.5,138.5C 59.752,136.956 56.752,136.29 53.5,136.5C 53.1866,133.753 53.52,131.086 54.5,128.5C 55.1835,128.137 55.8501,127.804 56.5,127.5C 58.5,127.5 60.5,127.5 62.5,127.5C 63.8221,127.67 64.9887,127.337 66,126.5C 67.2837,127.572 67.6171,128.905 67,130.5C 68.2639,130.36 69.4305,130.36 70.5,130.5C 69.2532,132.042 69.2532,133.542 70.5,135C 68.8426,135.231 67.5093,136.065 66.5,137.5 Z"/></g>
<g><path style="opacity:1" fill="#c4ba9f" d="M 60.5,117.5 C 60.5,117.167 60.5,116.833 60.5,116.5C 61.8471,117.171 63.0138,117.171 64,116.5C 64.0126,119.003 64.846,121.503 66.5,124C 67.9961,124.507 69.1627,124.007 70,122.5C 71.2295,123.275 71.5628,124.275 71,125.5C 70.3333,124.167 69.6667,124.167 69,125.5C 68.3333,126.5 68.3333,127.5 69,128.5C 69.7096,127.027 70.8762,126.36 72.5,126.5C 72.4828,124.435 72.1495,122.435 71.5,120.5C 72.922,121.925 74.5887,122.925 76.5,123.5C 76.369,124.239 76.5357,124.906 77,125.5C 77.2321,124.263 77.7321,123.263 78.5,122.5C 78.4125,125.598 78.9125,125.932 80,123.5C 79.8397,128.142 78.6731,132.476 76.5,136.5C 75.0101,138.28 73.0101,138.946 70.5,138.5C 68.901,138.768 67.5676,138.434 66.5,137.5C 67.5093,136.065 68.8426,135.231 70.5,135C 69.2532,133.542 69.2532,132.042 70.5,130.5C 69.4305,130.36 68.2639,130.36 67,130.5C 67.6171,128.905 67.2837,127.572 66,126.5C 64.9887,127.337 63.8221,127.67 62.5,127.5C 62.4606,126.417 62.1272,125.417 61.5,124.5C 62.2739,123.289 63.1072,123.289 64,124.5C 64.4129,121.404 63.2462,119.071 60.5,117.5 Z"/></g>
<g><path style="opacity:1" fill="#9c9886" d="M 83.5,98.5 C 84.1667,98.5 84.5,98.8333 84.5,99.5C 84.4166,108.918 85.0833,118.252 86.5,127.5C 84.8333,130.833 83.1667,134.167 81.5,137.5C 80.7784,137.082 80.2784,136.416 80,135.5C 78.9887,136.337 77.8221,136.67 76.5,136.5C 78.6731,132.476 79.8397,128.142 80,123.5C 78.9125,125.932 78.4125,125.598 78.5,122.5C 80.045,121.77 80.8784,120.437 81,118.5C 81.1263,111.695 81.9596,105.028 83.5,98.5 Z"/></g>
<g><path style="opacity:1" fill="#34370f" d="M 111.5,128.5 C 110.833,130.5 110.167,132.5 109.5,134.5C 108.4,132.723 107.566,130.723 107,128.5C 106.517,129.448 106.351,130.448 106.5,131.5C 105.833,131.5 105.5,131.167 105.5,130.5C 104.995,127.159 104.828,123.826 105,120.5C 106.395,122.14 107.895,123.64 109.5,125C 108.833,125.333 108.167,125.667 107.5,126C 108.736,127.085 110.069,127.918 111.5,128.5 Z"/></g>
<g><path style="opacity:1" fill="#151906" d="M -0.5,130.5 C 1.5,131.167 3.5,131.833 5.5,132.5C 6.31488,133.837 7.48155,134.837 9,135.5C 9.49001,136.793 9.65668,138.127 9.5,139.5C 11.5,139.5 13.5,139.5 15.5,139.5C 14.3915,140.29 13.0581,140.79 11.5,141C 12.448,141.483 13.448,141.649 14.5,141.5C 9.65289,142.619 4.65289,142.619 -0.5,141.5C -0.5,137.833 -0.5,134.167 -0.5,130.5 Z"/></g>
<g><path style="opacity:1" fill="#867e66" d="M 86.5,127.5 C 86.8333,127.5 87.1667,127.5 87.5,127.5C 91.3466,129.414 95.6799,131.08 100.5,132.5C 100.729,130.567 101.562,128.9 103,127.5C 103.852,128.571 104.685,129.571 105.5,130.5C 105.5,131.167 105.833,131.5 106.5,131.5C 106.5,132.833 106.5,134.167 106.5,135.5C 99.9592,134.615 93.4592,134.282 87,134.5C 84.7804,137.006 83.6138,140.006 83.5,143.5C 82.2632,144.965 81.2632,146.632 80.5,148.5C 77.9022,149.68 76.2355,151.68 75.5,154.5C 74.2719,155.306 73.2719,156.306 72.5,157.5C 71.1751,156.047 70.3418,156.381 70,158.5C 69.6667,158.167 69.3333,157.833 69,157.5C 67.2663,158.249 65.433,158.749 63.5,159C 64.1984,159.971 64.1984,161.137 63.5,162.5C 63.9424,163.739 64.6091,164.739 65.5,165.5C 64.1667,165.5 62.8333,165.5 61.5,165.5C 61.5,164.5 61.5,163.5 61.5,162.5C 62.4345,161.432 62.7678,160.099 62.5,158.5C 65.6038,154.771 69.6038,152.104 74.5,150.5C 76.6159,148.6 77.9493,146.267 78.5,143.5C 79.4706,141.517 80.4706,139.517 81.5,137.5C 83.1667,134.167 84.8333,130.833 86.5,127.5 Z"/></g>
<g><path style="opacity:1" fill="#3a3d16" d="M 5.5,132.5 C 10.8231,132.649 16.1565,132.982 21.5,133.5C 24.6248,134.479 27.9581,134.813 31.5,134.5C 26.0597,136.232 20.7263,137.898 15.5,139.5C 13.5,139.5 11.5,139.5 9.5,139.5C 9.65668,138.127 9.49001,136.793 9,135.5C 7.48155,134.837 6.31488,133.837 5.5,132.5 Z"/></g>
<g><path style="opacity:1" fill="#364013" d="M 106.5,135.5 C 103.7,136.413 102.367,138.413 102.5,141.5C 100.901,141.232 99.5676,141.566 98.5,142.5C 93.8333,143.167 89.1667,143.833 84.5,144.5C 83.8333,144.5 83.5,144.167 83.5,143.5C 83.6138,140.006 84.7804,137.006 87,134.5C 93.4592,134.282 99.9592,134.615 106.5,135.5 Z"/></g>
<g><path style="opacity:1" fill="#212d0e" d="M 109.5,134.5 C 110.833,134.167 112.167,133.833 113.5,133.5C 112.562,135.756 112.562,138.09 113.5,140.5C 110.927,140.148 108.594,140.648 106.5,142C 107.5,142.5 108.5,143 109.5,143.5C 112.144,142.705 114.811,142.038 117.5,141.5C 117.38,142.586 116.713,143.253 115.5,143.5C 113.198,144.03 110.865,144.364 108.5,144.5C 105.139,143.816 101.805,143.15 98.5,142.5C 99.5676,141.566 100.901,141.232 102.5,141.5C 102.367,138.413 103.7,136.413 106.5,135.5C 106.5,134.167 106.5,132.833 106.5,131.5C 106.351,130.448 106.517,129.448 107,128.5C 107.566,130.723 108.4,132.723 109.5,134.5 Z"/></g>
<g><path style="opacity:1" fill="#bead8b" d="M 44.5,128.5 C 44.6172,134.781 47.9506,137.947 54.5,138C 56.9431,140.9 59.6097,141.067 62.5,138.5C 63.9587,138.567 65.2921,138.234 66.5,137.5C 67.5676,138.434 68.901,138.768 70.5,138.5C 69.105,140.861 67.105,142.528 64.5,143.5C 63.4341,142.308 62.6008,142.641 62,144.5C 60.6667,141.833 59.3333,141.833 58,144.5C 57.0853,143.672 56.4186,142.672 56,141.5C 53.9667,141.868 51.8001,141.868 49.5,141.5C 46.5906,144.041 47.0906,145.708 51,146.5C 51.4828,147.448 51.6495,148.448 51.5,149.5C 49.6716,148.206 47.6716,147.206 45.5,146.5C 43.7886,144.094 42.4553,141.427 41.5,138.5C 41.558,136.381 42.2247,135.048 43.5,134.5C 42.0131,132.158 42.3464,130.158 44.5,128.5 Z"/></g>
<g><path style="opacity:1" fill="#141707" d="M 31.5,134.5 C 32.5,134.5 33.5,134.5 34.5,134.5C 34.2627,135.791 34.596,136.791 35.5,137.5C 35.5,138.833 35.5,140.167 35.5,141.5C 33.7354,142.461 31.7354,142.795 29.5,142.5C 24.6946,141.513 19.6946,141.179 14.5,141.5C 13.448,141.649 12.448,141.483 11.5,141C 13.0581,140.79 14.3915,140.29 15.5,139.5C 20.7263,137.898 26.0597,136.232 31.5,134.5 Z"/></g>
<g><path style="opacity:1" fill="#998c6b" d="M 81.5,137.5 C 80.4706,139.517 79.4706,141.517 78.5,143.5C 76.8266,146.167 74.4933,148.167 71.5,149.5C 70.1575,148.098 69.3242,148.431 69,150.5C 68.6667,149.167 68.3333,147.833 68,146.5C 67.6667,146.833 67.3333,147.167 67,147.5C 65.8873,146.695 64.7206,146.028 63.5,145.5C 63.8333,144.833 64.1667,144.167 64.5,143.5C 67.105,142.528 69.105,140.861 70.5,138.5C 73.0101,138.946 75.0101,138.28 76.5,136.5C 77.8221,136.67 78.9887,136.337 80,135.5C 80.2784,136.416 80.7784,137.082 81.5,137.5 Z"/></g>
<g><path style="opacity:1" fill="#262c14" d="M -0.5,141.5 C 4.65289,142.619 9.65289,142.619 14.5,141.5C 19.6946,141.179 24.6946,141.513 29.5,142.5C 24.8215,142.334 20.1548,142.501 15.5,143C 18.6828,144.466 22.0162,145.633 25.5,146.5C 16.8589,147.498 8.19221,147.831 -0.5,147.5C -0.5,145.5 -0.5,143.5 -0.5,141.5 Z"/></g>
<g><path style="opacity:1" fill="#454625" d="M 117.5,141.5 C 119.308,142.918 119.975,144.918 119.5,147.5C 118.5,147.5 117.5,147.5 116.5,147.5C 114.958,146.699 113.292,146.366 111.5,146.5C 111.5,147.5 111.5,148.5 111.5,149.5C 106.054,149.636 100.72,148.969 95.5,147.5C 95.5,146.5 95.5,145.5 95.5,144.5C 92.7607,144.707 90.4274,145.707 88.5,147.5C 86.5828,147.246 85.2495,146.246 84.5,144.5C 89.1667,143.833 93.8333,143.167 98.5,142.5C 101.805,143.15 105.139,143.816 108.5,144.5C 110.865,144.364 113.198,144.03 115.5,143.5C 116.713,143.253 117.38,142.586 117.5,141.5 Z"/></g>
<g><path style="opacity:1" fill="#a89371" d="M 64.5,143.5 C 64.1667,144.167 63.8333,144.833 63.5,145.5C 62.0597,146.363 60.7264,146.363 59.5,145.5C 57.9602,147.437 55.9602,148.604 53.5,149C 54.8333,150 54.8333,151 53.5,152C 54.4158,152.278 55.0825,152.778 55.5,153.5C 55.8432,155.483 55.1765,156.817 53.5,157.5C 53.1667,157.5 52.8333,157.5 52.5,157.5C 51.8535,155.844 51.1869,154.177 50.5,152.5C 50.685,151.416 51.0183,150.416 51.5,149.5C 51.6495,148.448 51.4828,147.448 51,146.5C 47.0906,145.708 46.5906,144.041 49.5,141.5C 51.8001,141.868 53.9667,141.868 56,141.5C 56.4186,142.672 57.0853,143.672 58,144.5C 59.3333,141.833 60.6667,141.833 62,144.5C 62.6008,142.641 63.4341,142.308 64.5,143.5 Z"/></g>
<g><path style="opacity:1" fill="#46472f" d="M 35.5,141.5 C 36.5,143.5 37.5,145.5 38.5,147.5C 38.4326,148.959 38.7659,150.292 39.5,151.5C 32.7113,152.101 26.2113,151.434 20,149.5C 17.733,150.289 15.3997,150.956 13,151.5C 8.51113,150.724 4.01113,150.057 -0.5,149.5C -0.5,148.833 -0.5,148.167 -0.5,147.5C 8.19221,147.831 16.8589,147.498 25.5,146.5C 22.0162,145.633 18.6828,144.466 15.5,143C 20.1548,142.501 24.8215,142.334 29.5,142.5C 31.7354,142.795 33.7354,142.461 35.5,141.5 Z"/></g>
<g><path style="opacity:1" fill="#857251" d="M 78.5,143.5 C 77.9493,146.267 76.6159,148.6 74.5,150.5C 69.6038,152.104 65.6038,154.771 62.5,158.5C 59.8943,156.466 59.8943,154.299 62.5,152C 60.3158,148.773 58.3158,148.94 56.5,152.5C 56.5,153.167 56.1667,153.5 55.5,153.5C 55.0825,152.778 54.4158,152.278 53.5,152C 54.8333,151 54.8333,150 53.5,149C 55.9602,148.604 57.9602,147.437 59.5,145.5C 60.7264,146.363 62.0597,146.363 63.5,145.5C 64.7206,146.028 65.8873,146.695 67,147.5C 67.3333,147.167 67.6667,146.833 68,146.5C 68.3333,147.833 68.6667,149.167 69,150.5C 69.3242,148.431 70.1575,148.098 71.5,149.5C 74.4933,148.167 76.8266,146.167 78.5,143.5 Z"/></g>
<g><path style="opacity:1" fill="#434126" d="M 83.5,143.5 C 83.5,144.167 83.8333,144.5 84.5,144.5C 85.2495,146.246 86.5828,147.246 88.5,147.5C 90.4274,145.707 92.7607,144.707 95.5,144.5C 95.5,145.5 95.5,146.5 95.5,147.5C 100.72,148.969 106.054,149.636 111.5,149.5C 111.5,148.5 111.5,147.5 111.5,146.5C 113.292,146.366 114.958,146.699 116.5,147.5C 116.5,148.5 116.5,149.5 116.5,150.5C 113.615,150.194 110.948,150.527 108.5,151.5C 99.3179,149.758 90.1513,149.425 81,150.5C 80.5357,149.906 80.369,149.239 80.5,148.5C 81.2632,146.632 82.2632,144.965 83.5,143.5 Z"/></g>
<g><path style="opacity:1" fill="#56533d" d="M 80.5,148.5 C 80.369,149.239 80.5357,149.906 81,150.5C 90.1513,149.425 99.3179,149.758 108.5,151.5C 110.542,153.83 113.208,154.996 116.5,155C 112.179,155.499 107.846,155.666 103.5,155.5C 94.5022,155.119 85.5022,154.786 76.5,154.5C 76.1667,154.5 75.8333,154.5 75.5,154.5C 76.2355,151.68 77.9022,149.68 80.5,148.5 Z"/></g>
<g><path style="opacity:1" fill="#46432e" d="M 116.5,147.5 C 117.5,147.5 118.5,147.5 119.5,147.5C 119.5,151.5 119.5,155.5 119.5,159.5C 116.721,159.721 114.054,159.388 111.5,158.5C 108.687,157.918 106.02,156.918 103.5,155.5C 107.846,155.666 112.179,155.499 116.5,155C 113.208,154.996 110.542,153.83 108.5,151.5C 110.948,150.527 113.615,150.194 116.5,150.5C 116.5,149.5 116.5,148.5 116.5,147.5 Z"/></g>
<g><path style="opacity:1" fill="#403c2c" d="M -0.5,149.5 C 4.01113,150.057 8.51113,150.724 13,151.5C 15.3997,150.956 17.733,150.289 20,149.5C 26.2113,151.434 32.7113,152.101 39.5,151.5C 40.9574,153.849 42.2908,156.182 43.5,158.5C 31.2002,156.055 18.0335,154.389 4,153.5C 2.83333,153.667 1.66667,153.833 0.5,154C 2.87818,154.511 5.21151,155.178 7.5,156C 5.43249,156.687 3.43249,156.52 1.5,155.5C 0.702451,155.957 0.369118,156.624 0.5,157.5C 0.166667,157.5 -0.166667,157.5 -0.5,157.5C -0.5,154.833 -0.5,152.167 -0.5,149.5 Z"/></g>
<g><path style="opacity:1" fill="#3c3623" d="M 76.5,154.5 C 85.5022,154.786 94.5022,155.119 103.5,155.5C 106.02,156.918 108.687,157.918 111.5,158.5C 104.494,159.42 97.4939,158.754 90.5,156.5C 88.1854,156.799 88.1854,157.632 90.5,159C 86.577,159.793 82.7436,159.626 79,158.5C 78.5,159 78,159.5 77.5,160C 82.6813,160.6 87.6813,161.434 92.5,162.5C 90.8333,162.5 89.1667,162.5 87.5,162.5C 83.6521,162.76 79.9855,162.094 76.5,160.5C 75.3775,158.518 75.3775,156.518 76.5,154.5 Z"/></g>
<g><path style="opacity:1" fill="#353123" d="M 43.5,158.5 C 42.4324,159.434 41.099,159.768 39.5,159.5C 30.4719,159.54 21.4719,159.04 12.5,158C 16.1667,157.667 19.8333,157.333 23.5,157C 20.5,156.5 17.5,156 14.5,155.5C 11.2904,156.354 8.12378,157.354 5,158.5C 3.46718,158.227 1.96718,157.894 0.5,157.5C 0.369118,156.624 0.702451,155.957 1.5,155.5C 3.43249,156.52 5.43249,156.687 7.5,156C 5.21151,155.178 2.87818,154.511 0.5,154C 1.66667,153.833 2.83333,153.667 4,153.5C 18.0335,154.389 31.2002,156.055 43.5,158.5 Z"/></g>
<g><path style="opacity:1" fill="#99807f" d="M 38.5,147.5 C 39.7666,149.773 41.4333,151.773 43.5,153.5C 47.0042,153.898 50.0042,155.231 52.5,157.5C 52.8333,157.5 53.1667,157.5 53.5,157.5C 55.4025,159.628 57.0692,161.961 58.5,164.5C 57.7261,165.711 56.8928,165.711 56,164.5C 55.5357,165.094 55.369,165.761 55.5,166.5C 49.1812,165.243 43.1812,163.909 37.5,162.5C 38.1667,161.5 38.8333,160.5 39.5,159.5C 41.099,159.768 42.4324,159.434 43.5,158.5C 42.2908,156.182 40.9574,153.849 39.5,151.5C 38.7659,150.292 38.4326,148.959 38.5,147.5 Z"/></g>
<g><path style="opacity:1" fill="#43341e" d="M 62.5,158.5 C 62.7678,160.099 62.4345,161.432 61.5,162.5C 60.6364,162.298 59.6364,161.964 58.5,161.5C 60.7956,158.013 60.129,155.013 56.5,152.5C 58.3158,148.94 60.3158,148.773 62.5,152C 59.8943,154.299 59.8943,156.466 62.5,158.5 Z"/></g>
<g><path style="opacity:1" fill="#3f3b2f" d="M 39.5,159.5 C 38.8333,160.5 38.1667,161.5 37.5,162.5C 34.4816,162.335 31.4816,162.502 28.5,163C 29.8882,163.889 29.7215,164.389 28,164.5C 25.1718,163.605 22.6718,162.272 20.5,160.5C 13.5418,159.66 6.54184,159.66 -0.5,160.5C -0.5,159.5 -0.5,158.5 -0.5,157.5C -0.166667,157.5 0.166667,157.5 0.5,157.5C 1.96718,157.894 3.46718,158.227 5,158.5C 8.12378,157.354 11.2904,156.354 14.5,155.5C 17.5,156 20.5,156.5 23.5,157C 19.8333,157.333 16.1667,157.667 12.5,158C 21.4719,159.04 30.4719,159.54 39.5,159.5 Z"/></g>
<g><path style="opacity:1" fill="#332c1a" d="M 111.5,158.5 C 114.054,159.388 116.721,159.721 119.5,159.5C 119.5,161.833 119.5,164.167 119.5,166.5C 116.921,165.772 114.254,165.272 111.5,165C 113.795,164.016 113.461,163.183 110.5,162.5C 110.167,163.167 109.833,163.833 109.5,164.5C 103.854,163.732 98.1869,163.065 92.5,162.5C 87.6813,161.434 82.6813,160.6 77.5,160C 78,159.5 78.5,159 79,158.5C 82.7436,159.626 86.577,159.793 90.5,159C 88.1854,157.632 88.1854,156.799 90.5,156.5C 97.4939,158.754 104.494,159.42 111.5,158.5 Z"/></g>
<g><path style="opacity:1" fill="#43382a" d="M 20.5,160.5 C 22.6718,162.272 25.1718,163.605 28,164.5C 29.7215,164.389 29.8882,163.889 28.5,163C 31.4816,162.502 34.4816,162.335 37.5,162.5C 43.1812,163.909 49.1812,165.243 55.5,166.5C 52.3752,167.479 49.0419,167.813 45.5,167.5C 40.5233,166.673 35.5233,166.006 30.5,165.5C 27.4281,165.817 24.4281,165.484 21.5,164.5C 19.7046,162.297 17.3712,161.131 14.5,161C 16.4727,160.505 18.4727,160.338 20.5,160.5 Z"/></g>
<g><path style="opacity:1" fill="#584f39" d="M 20.5,160.5 C 18.4727,160.338 16.4727,160.505 14.5,161C 17.3712,161.131 19.7046,162.297 21.5,164.5C 24.4281,165.484 27.4281,165.817 30.5,165.5C 28.9103,167.821 26.5769,168.821 23.5,168.5C 22.0821,166.692 20.0821,166.025 17.5,166.5C 17.5,167.5 17.5,168.5 17.5,169.5C 14.8127,169.336 12.146,169.503 9.5,170C 10.056,170.383 10.3893,170.883 10.5,171.5C 8.83124,173.14 6.83124,174.474 4.5,175.5C 2.80137,174.185 1.13471,174.185 -0.5,175.5C -0.5,170.5 -0.5,165.5 -0.5,160.5C 6.54184,159.66 13.5418,159.66 20.5,160.5 Z"/></g>
<g><path style="opacity:1" fill="#20160e" d="M 56.5,152.5 C 60.129,155.013 60.7956,158.013 58.5,161.5C 59.6364,161.964 60.6364,162.298 61.5,162.5C 61.5,163.5 61.5,164.5 61.5,165.5C 62.8333,165.5 64.1667,165.5 65.5,165.5C 67.1788,165.285 68.1788,165.952 68.5,167.5C 63.9726,167.222 59.6392,166.888 55.5,166.5C 55.369,165.761 55.5357,165.094 56,164.5C 56.8928,165.711 57.7261,165.711 58.5,164.5C 57.0692,161.961 55.4025,159.628 53.5,157.5C 55.1765,156.817 55.8432,155.483 55.5,153.5C 56.1667,153.5 56.5,153.167 56.5,152.5 Z"/></g>
<g><path style="opacity:1" fill="#997a7d" d="M 72.5,157.5 C 71.4991,158.789 71.6658,160.122 73,161.5C 75.6748,163.446 78.5081,165.113 81.5,166.5C 79.8541,167.66 78.0208,168.327 76,168.5C 73.5379,167.841 71.0379,167.507 68.5,167.5C 68.1788,165.952 67.1788,165.285 65.5,165.5C 64.6091,164.739 63.9424,163.739 63.5,162.5C 64.1984,161.137 64.1984,159.971 63.5,159C 65.433,158.749 67.2663,158.249 69,157.5C 69.3333,157.833 69.6667,158.167 70,158.5C 70.3418,156.381 71.1751,156.047 72.5,157.5 Z"/></g>
<g><path style="opacity:1" fill="#403d30" d="M 87.5,162.5 C 89.1667,162.5 90.8333,162.5 92.5,162.5C 98.1869,163.065 103.854,163.732 109.5,164.5C 109.833,163.833 110.167,163.167 110.5,162.5C 113.461,163.183 113.795,164.016 111.5,165C 114.254,165.272 116.921,165.772 119.5,166.5C 119.5,168.167 119.5,169.833 119.5,171.5C 115.486,171.666 111.486,171.499 107.5,171C 104.339,168.456 100.673,167.289 96.5,167.5C 93.991,164.891 90.991,163.224 87.5,162.5 Z"/></g>
<g><path style="opacity:1" fill="#66603d" d="M 23.5,168.5 C 24.2739,169.147 25.2739,169.48 26.5,169.5C 28.9162,169.125 31.2496,168.459 33.5,167.5C 35.1305,168.421 36.7971,169.255 38.5,170C 37.944,170.383 37.6107,170.883 37.5,171.5C 35.4184,171.376 33.9184,170.376 33,168.5C 31.6897,169.897 30.1897,170.897 28.5,171.5C 26.5118,173.491 24.1785,174.825 21.5,175.5C 20.1667,175.5 18.8333,175.5 17.5,175.5C 17.719,174.325 17.3857,173.325 16.5,172.5C 14.6183,173.093 12.7849,173.76 11,174.5C 10.5172,173.552 10.3505,172.552 10.5,171.5C 10.3893,170.883 10.056,170.383 9.5,170C 12.146,169.503 14.8127,169.336 17.5,169.5C 17.5,168.5 17.5,167.5 17.5,166.5C 20.0821,166.025 22.0821,166.692 23.5,168.5 Z"/></g>
<g><path style="opacity:1" fill="#3c342b" d="M 75.5,154.5 C 75.8333,154.5 76.1667,154.5 76.5,154.5C 75.3775,156.518 75.3775,158.518 76.5,160.5C 79.9855,162.094 83.6521,162.76 87.5,162.5C 90.991,163.224 93.991,164.891 96.5,167.5C 95.6618,167.842 95.3284,168.508 95.5,169.5C 91.3139,169.544 87.1472,169.877 83,170.5C 77.8683,170.275 73.0349,169.275 68.5,167.5C 71.0379,167.507 73.5379,167.841 76,168.5C 78.0208,168.327 79.8541,167.66 81.5,166.5C 78.5081,165.113 75.6748,163.446 73,161.5C 71.6658,160.122 71.4991,158.789 72.5,157.5C 73.2719,156.306 74.2719,155.306 75.5,154.5 Z"/></g>
<g><path style="opacity:1" fill="#5c563c" d="M 55.5,166.5 C 59.6392,166.888 63.9726,167.222 68.5,167.5C 73.0349,169.275 77.8683,170.275 83,170.5C 87.1472,169.877 91.3139,169.544 95.5,169.5C 95.3893,170.117 95.056,170.617 94.5,171C 97.7227,172.126 100.889,172.293 104,171.5C 106.918,173.291 109.751,175.124 112.5,177C 114.035,177.496 115.535,177.33 117,176.5C 118.03,176.836 118.53,177.503 118.5,178.5C 115.833,178.5 113.167,178.5 110.5,178.5C 110.587,175.402 110.087,175.068 109,177.5C 108.676,175.431 107.842,175.098 106.5,176.5C 100.659,174.898 94.8255,173.231 89,171.5C 87.7425,171.85 87.4092,172.517 88,173.5C 89.9472,174.11 91.7806,174.943 93.5,176C 88.1337,175.978 82.8003,175.978 77.5,176C 78.3805,176.708 79.0472,177.542 79.5,178.5C 77.1667,178.5 74.8333,178.5 72.5,178.5C 71.3157,177.312 71.3157,176.145 72.5,175C 69.5043,170.49 65.8376,169.656 61.5,172.5C 59.166,170.56 55.8327,169.56 51.5,169.5C 49.5,168.833 47.5,168.167 45.5,167.5C 49.0419,167.813 52.3752,167.479 55.5,166.5 Z"/></g>
<g><path style="opacity:1" fill="#66623c" d="M 37.5,171.5 C 36.8592,172.482 36.1925,173.482 35.5,174.5C 38.4281,175.484 41.4281,175.817 44.5,175.5C 44.5,173.833 44.5,172.167 44.5,170.5C 46.861,170.326 49.1944,169.993 51.5,169.5C 55.8327,169.56 59.166,170.56 61.5,172.5C 65.8376,169.656 69.5043,170.49 72.5,175C 71.3157,176.145 71.3157,177.312 72.5,178.5C 71.8333,178.5 71.1667,178.5 70.5,178.5C 69.9101,177.234 69.4101,175.901 69,174.5C 64.9204,174.884 60.7537,175.051 56.5,175C 54.8172,176.286 53.1506,177.453 51.5,178.5C 44.5,178.5 37.5,178.5 30.5,178.5C 31.0289,176.417 32.0289,174.583 33.5,173C 31.9751,171.991 30.3084,171.491 28.5,171.5C 30.1897,170.897 31.6897,169.897 33,168.5C 33.9184,170.376 35.4184,171.376 37.5,171.5 Z"/></g>
<g><path style="opacity:1" fill="#393f0f" d="M 28.5,171.5 C 30.3084,171.491 31.9751,171.991 33.5,173C 32.0289,174.583 31.0289,176.417 30.5,178.5C 28.8333,178.5 27.1667,178.5 25.5,178.5C 26.3029,177.577 26.4696,176.577 26,175.5C 24.5098,176.728 23.0098,176.728 21.5,175.5C 24.1785,174.825 26.5118,173.491 28.5,171.5 Z"/></g>
<g><path style="opacity:1" fill="#6b6244" d="M 30.5,165.5 C 35.5233,166.006 40.5233,166.673 45.5,167.5C 47.5,168.167 49.5,168.833 51.5,169.5C 49.1944,169.993 46.861,170.326 44.5,170.5C 44.5,172.167 44.5,173.833 44.5,175.5C 41.4281,175.817 38.4281,175.484 35.5,174.5C 36.1925,173.482 36.8592,172.482 37.5,171.5C 37.6107,170.883 37.944,170.383 38.5,170C 36.7971,169.255 35.1305,168.421 33.5,167.5C 31.2496,168.459 28.9162,169.125 26.5,169.5C 25.2739,169.48 24.2739,169.147 23.5,168.5C 26.5769,168.821 28.9103,167.821 30.5,165.5 Z"/></g>
<g><path style="opacity:1" fill="#534d3d" d="M 96.5,167.5 C 100.673,167.289 104.339,168.456 107.5,171C 111.486,171.499 115.486,171.666 119.5,171.5C 119.5,173.833 119.5,176.167 119.5,178.5C 119.167,178.5 118.833,178.5 118.5,178.5C 118.53,177.503 118.03,176.836 117,176.5C 115.535,177.33 114.035,177.496 112.5,177C 109.751,175.124 106.918,173.291 104,171.5C 100.889,172.293 97.7227,172.126 94.5,171C 95.056,170.617 95.3893,170.117 95.5,169.5C 95.3284,168.508 95.6618,167.842 96.5,167.5 Z"/></g>
<g><path style="opacity:1" fill="#161507" d="M 10.5,171.5 C 10.3505,172.552 10.5172,173.552 11,174.5C 12.7849,173.76 14.6183,173.093 16.5,172.5C 17.3857,173.325 17.719,174.325 17.5,175.5C 18.8333,175.5 20.1667,175.5 21.5,175.5C 23.0098,176.728 24.5098,176.728 26,175.5C 26.4696,176.577 26.3029,177.577 25.5,178.5C 16.8333,178.5 8.16667,178.5 -0.5,178.5C -0.5,177.5 -0.5,176.5 -0.5,175.5C 1.13471,174.185 2.80137,174.185 4.5,175.5C 6.83124,174.474 8.83124,173.14 10.5,171.5 Z"/></g>
<g><path style="opacity:1" fill="#484e1c" d="M 70.5,178.5 C 64.1667,178.5 57.8333,178.5 51.5,178.5C 53.1506,177.453 54.8172,176.286 56.5,175C 60.7537,175.051 64.9204,174.884 69,174.5C 69.4101,175.901 69.9101,177.234 70.5,178.5 Z"/></g>
<g><path style="opacity:1" fill="#4c4a2c" d="M 110.5,178.5 C 100.167,178.5 89.8333,178.5 79.5,178.5C 79.0472,177.542 78.3805,176.708 77.5,176C 82.8003,175.978 88.1337,175.978 93.5,176C 91.7806,174.943 89.9472,174.11 88,173.5C 87.4092,172.517 87.7425,171.85 89,171.5C 94.8255,173.231 100.659,174.898 106.5,176.5C 107.842,175.098 108.676,175.431 109,177.5C 110.087,175.068 110.587,175.402 110.5,178.5 Z"/></g>
</svg>
