<?xml version="1.0" encoding="UTF-8"?>
<!DOCTYPE svg PUBLIC "-//W3C//DTD SVG 1.1//EN" "http://www.w3.org/Graphics/SVG/1.1/DTD/svg11.dtd">
<svg xmlns="http://www.w3.org/2000/svg" version="1.1" width="177px" height="176px" style="shape-rendering:geometricPrecision; text-rendering:geometricPrecision; image-rendering:optimizeQuality; fill-rule:evenodd; clip-rule:evenodd" xmlns:xlink="http://www.w3.org/1999/xlink">
<g><path style="opacity:1" fill="#f7f7f7" d="M -0.5,-0.5 C 9.16667,-0.5 18.8333,-0.5 28.5,-0.5C 28.5,4.16667 28.5,8.83333 28.5,13.5C 33.5,13.5 38.5,13.5 43.5,13.5C 43.5,18.5 43.5,23.5 43.5,28.5C 48.5,28.5 53.5,28.5 58.5,28.5C 58.5,33.5 58.5,38.5 58.5,43.5C 61.8333,43.5 65.1667,43.5 68.5,43.5C 71.1894,49.6923 74.5228,55.5257 78.5,61C 78.1377,62.2247 77.6377,63.3914 77,64.5C 75.3845,63.1991 73.8845,63.1991 72.5,64.5C 71.8333,64.5 71.5,64.8333 71.5,65.5C 70.8333,67.1667 70.1667,68.8333 69.5,70.5C 69.3533,67.9734 69.02,65.3067 68.5,62.5C 65.9367,62.1092 63.4367,61.7759 61,61.5C 59.3009,61.3866 58.1342,62.0532 57.5,63.5C 55.0246,64.6874 54.0246,66.6874 54.5,69.5C 55.5,69.5 56.5,69.5 57.5,69.5C 57.8333,69.5 58.1667,69.5 58.5,69.5C 58.5,70.8333 58.5,72.1667 58.5,73.5C 53.5,73.5 48.5,73.5 43.5,73.5C 43.5,78.5 43.5,83.5 43.5,88.5C 38.5,88.5 33.5,88.5 28.5,88.5C 28.5,93.5 28.5,98.5 28.5,103.5C 23.5,103.5 18.5,103.5 13.5,103.5C 13.5,108.5 13.5,113.5 13.5,118.5C 18.3633,118.181 23.03,118.514 27.5,119.5C 28.3221,128.593 33.3221,132.427 42.5,131C 44.9232,130.268 46.0899,128.768 46,126.5C 45.6174,127.056 45.1174,127.389 44.5,127.5C 41.8728,126.908 39.2062,126.575 36.5,126.5C 34.9192,124.858 34.2525,122.858 34.5,120.5C 37.2062,120.575 39.8728,120.908 42.5,121.5C 43.9063,121.027 44.573,120.027 44.5,118.5C 47.7158,118.016 51.0491,118.016 54.5,118.5C 53.8413,121.455 53.5079,124.455 53.5,127.5C 52.7148,129.374 52.0482,131.374 51.5,133.5C 48.8333,133.5 46.1667,133.5 43.5,133.5C 43.5,138.5 43.5,143.5 43.5,148.5C 38.5,148.5 33.5,148.5 28.5,148.5C 28.5,153.5 28.5,158.5 28.5,163.5C 23.5,163.5 18.5,163.5 13.5,163.5C 13.5,158.5 13.5,153.5 13.5,148.5C 8.83333,148.5 4.16667,148.5 -0.5,148.5C -0.5,98.8333 -0.5,49.1667 -0.5,-0.5 Z"/></g>
<g><path style="opacity:1" fill="#f7f7f7" d="M 73.5,-0.5 C 98.5,-0.5 123.5,-0.5 148.5,-0.5C 148.5,4.16667 148.5,8.83333 148.5,13.5C 143.5,13.5 138.5,13.5 133.5,13.5C 133.5,18.5 133.5,23.5 133.5,28.5C 128.5,28.5 123.5,28.5 118.5,28.5C 118.5,23.5 118.5,18.5 118.5,13.5C 113.5,13.5 108.5,13.5 103.5,13.5C 103.5,18.5 103.5,23.5 103.5,28.5C 98.5,28.5 93.5,28.5 88.5,28.5C 88.5,23.5 88.5,18.5 88.5,13.5C 83.5,13.5 78.5,13.5 73.5,13.5C 73.5,8.83333 73.5,4.16667 73.5,-0.5 Z"/></g>
<g><path style="opacity:1" fill="#f4f4f4" d="M 148.5,-0.5 C 157.833,-0.5 167.167,-0.5 176.5,-0.5C 176.5,24.1667 176.5,48.8333 176.5,73.5C 172.167,73.5 167.833,73.5 163.5,73.5C 163.5,63.5 163.5,53.5 163.5,43.5C 153.5,43.5 143.5,43.5 133.5,43.5C 133.5,38.5 133.5,33.5 133.5,28.5C 133.5,23.5 133.5,18.5 133.5,13.5C 138.5,13.5 143.5,13.5 148.5,13.5C 148.5,8.83333 148.5,4.16667 148.5,-0.5 Z"/></g>
<g><path style="opacity:1" fill="#f3f3f3" d="M 28.5,-0.5 C 43.5,-0.5 58.5,-0.5 73.5,-0.5C 73.5,4.16667 73.5,8.83333 73.5,13.5C 73.5,18.5 73.5,23.5 73.5,28.5C 68.5,28.5 63.5,28.5 58.5,28.5C 53.5,28.5 48.5,28.5 43.5,28.5C 43.5,23.5 43.5,18.5 43.5,13.5C 38.5,13.5 33.5,13.5 28.5,13.5C 28.5,8.83333 28.5,4.16667 28.5,-0.5 Z"/></g>
<g><path style="opacity:1" fill="#090705" d="M 72.5,30.5 C 71.537,31.3635 71.537,32.0302 72.5,32.5C 78.36,31.1493 82.1933,33.4826 84,39.5C 85.129,41.1412 86.629,42.1412 88.5,42.5C 89.2389,42.631 89.9056,42.4643 90.5,42C 92.8284,38.4842 95.4951,35.3176 98.5,32.5C 101.683,31.7562 104.683,31.7562 107.5,32.5C 108.596,36.4126 108.762,40.4126 108,44.5C 105.435,50.222 102.269,55.5554 98.5,60.5C 98.6716,61.4916 98.3382,62.1583 97.5,62.5C 97.5,61.5 97.5,60.5 97.5,59.5C 93.8333,59.5 90.1667,59.5 86.5,59.5C 84.4727,59.3379 82.4727,59.5045 80.5,60C 81.1667,60.3333 81.8333,60.6667 82.5,61C 81.376,61.2492 80.376,61.7492 79.5,62.5C 81.7427,63.4742 84.076,63.8076 86.5,63.5C 85.7659,64.7079 85.4326,66.0413 85.5,67.5C 85.1667,67.5 84.8333,67.5 84.5,67.5C 83.209,67.2627 82.209,67.596 81.5,68.5C 80.8485,67.9094 80.1818,67.2427 79.5,66.5C 78.7348,67.6119 77.7348,68.2786 76.5,68.5C 76.8333,65.5 75.5,64.1667 72.5,64.5C 73.8845,63.1991 75.3845,63.1991 77,64.5C 77.6377,63.3914 78.1377,62.2247 78.5,61C 74.5228,55.5257 71.1894,49.6923 68.5,43.5C 68.335,40.1501 68.5017,36.8168 69,33.5C 69.7589,31.9371 70.9256,30.9371 72.5,30.5 Z"/></g>
<g><path style="opacity:1" fill="#ededed" d="M 73.5,13.5 C 78.5,13.5 83.5,13.5 88.5,13.5C 88.5,18.5 88.5,23.5 88.5,28.5C 93.5,28.5 98.5,28.5 103.5,28.5C 103.5,23.5 103.5,18.5 103.5,13.5C 108.5,13.5 113.5,13.5 118.5,13.5C 118.5,18.5 118.5,23.5 118.5,28.5C 123.5,28.5 128.5,28.5 133.5,28.5C 133.5,33.5 133.5,38.5 133.5,43.5C 128.5,43.5 123.5,43.5 118.5,43.5C 118.5,47.5 118.5,51.5 118.5,55.5C 116.302,55.1201 114.635,55.7868 113.5,57.5C 110.833,58.8333 108.167,60.1667 105.5,61.5C 103.139,61.3259 100.806,60.9926 98.5,60.5C 102.269,55.5554 105.435,50.222 108,44.5C 108.762,40.4126 108.596,36.4126 107.5,32.5C 101.871,28.135 96.7046,28.8016 92,34.5C 91.5172,35.448 91.3505,36.448 91.5,37.5C 91.6716,38.4916 91.3382,39.1583 90.5,39.5C 89.0222,39.762 87.6888,39.4287 86.5,38.5C 84.29,31.07 79.6234,28.4033 72.5,30.5C 70.9256,30.9371 69.7589,31.9371 69,33.5C 68.5017,36.8168 68.335,40.1501 68.5,43.5C 65.1667,43.5 61.8333,43.5 58.5,43.5C 58.5,38.5 58.5,33.5 58.5,28.5C 63.5,28.5 68.5,28.5 73.5,28.5C 73.5,23.5 73.5,18.5 73.5,13.5 Z"/></g>
<g><path style="opacity:1" fill="#6b642f" d="M 107.5,32.5 C 104.683,31.7562 101.683,31.7562 98.5,32.5C 98.1034,31.475 97.4368,31.3083 96.5,32C 94.5981,33.7297 92.9314,35.563 91.5,37.5C 91.3505,36.448 91.5172,35.448 92,34.5C 96.7046,28.8016 101.871,28.135 107.5,32.5 Z"/></g>
<g><path style="opacity:1" fill="#784312" d="M 90.5,39.5 C 89.7375,40.2679 88.7375,40.7679 87.5,41C 88.056,41.3826 88.3893,41.8826 88.5,42.5C 86.629,42.1412 85.129,41.1412 84,39.5C 82.1933,33.4826 78.36,31.1493 72.5,32.5C 71.537,32.0302 71.537,31.3635 72.5,30.5C 79.6234,28.4033 84.29,31.07 86.5,38.5C 87.6888,39.4287 89.0222,39.762 90.5,39.5 Z"/></g>
<g><path style="opacity:1" fill="#87857f" d="M 103.5,35.5 C 103.349,38.7181 102.516,39.0515 101,36.5C 99.8545,37.6843 98.6879,37.6843 97.5,36.5C 99.1853,33.1445 101.185,32.8112 103.5,35.5 Z"/></g>
<g><path style="opacity:1" fill="#e5e4e1" d="M 103.5,35.5 C 105.046,38.6941 104.046,41.0275 100.5,42.5C 98.8927,42.363 97.5594,41.6964 96.5,40.5C 97.2458,39.2638 97.5792,37.9305 97.5,36.5C 98.6879,37.6843 99.8545,37.6843 101,36.5C 102.516,39.0515 103.349,38.7181 103.5,35.5 Z"/></g>
<g><path style="opacity:1" fill="#dbbc04" d="M 98.5,32.5 C 95.4951,35.3176 92.8284,38.4842 90.5,42C 89.9056,42.4643 89.2389,42.631 88.5,42.5C 88.3893,41.8826 88.056,41.3826 87.5,41C 88.7375,40.7679 89.7375,40.2679 90.5,39.5C 91.3382,39.1583 91.6716,38.4916 91.5,37.5C 92.9314,35.563 94.5981,33.7297 96.5,32C 97.4368,31.3083 98.1034,31.475 98.5,32.5 Z"/></g>
<g><path style="opacity:1" fill="#f4f4f4" d="M 133.5,43.5 C 143.5,43.5 153.5,43.5 163.5,43.5C 163.5,53.5 163.5,63.5 163.5,73.5C 167.833,73.5 172.167,73.5 176.5,73.5C 176.5,93.5 176.5,113.5 176.5,133.5C 172.167,133.5 167.833,133.5 163.5,133.5C 163.5,128.5 163.5,123.5 163.5,118.5C 158.167,118.5 152.833,118.5 147.5,118.5C 147.904,117.244 148.571,116.077 149.5,115C 149.43,114.235 149.097,113.735 148.5,113.5C 148.672,112.508 148.338,111.842 147.5,111.5C 150.409,107.379 153.575,103.379 157,99.5C 159.694,95.1211 161.527,90.4544 162.5,85.5C 164.99,74.8167 161.657,66.3167 152.5,60C 146.38,58.229 141.714,60.0624 138.5,65.5C 143.816,67.8097 146.816,71.8097 147.5,77.5C 146.671,81.4558 146.005,85.4558 145.5,89.5C 145.52,90.7261 145.853,91.7261 146.5,92.5C 147.639,95.918 148.972,99.2513 150.5,102.5C 149.833,103.833 148.833,104.833 147.5,105.5C 147.008,103.181 146.008,101.181 144.5,99.5C 145.323,97.5454 145.49,95.5454 145,93.5C 144.058,96.9927 142.725,100.326 141,103.5C 140.329,104.252 139.496,104.586 138.5,104.5C 139.417,101.995 139.417,99.6618 138.5,97.5C 138.167,96.5 137.5,95.8333 136.5,95.5C 135.522,92.0285 133.188,90.1952 129.5,90C 127.886,87.8733 125.886,86.3733 123.5,85.5C 123.027,84.0937 122.027,83.427 120.5,83.5C 119.738,81.7376 118.404,80.7376 116.5,80.5C 116.027,79.0937 115.027,78.427 113.5,78.5C 110.86,77.1799 108.193,75.8466 105.5,74.5C 105.5,73.8333 105.5,73.1667 105.5,72.5C 106.451,71.0813 106.784,69.4147 106.5,67.5C 110.12,69.5812 113.786,69.9145 117.5,68.5C 121.789,68.2558 122.456,66.5891 119.5,63.5C 116.365,64.7828 113.365,64.7828 110.5,63.5C 112.153,63.3404 113.486,62.6737 114.5,61.5C 116.167,61.5 117.833,61.5 119.5,61.5C 119.261,59.5328 119.594,57.6995 120.5,56C 119.906,55.5357 119.239,55.369 118.5,55.5C 118.5,51.5 118.5,47.5 118.5,43.5C 123.5,43.5 128.5,43.5 133.5,43.5 Z"/></g>
<g><path style="opacity:1" fill="#625d45" d="M 118.5,55.5 C 119.239,55.369 119.906,55.5357 120.5,56C 119.594,57.6995 119.261,59.5328 119.5,61.5C 117.833,61.5 116.167,61.5 114.5,61.5C 117.259,61.0667 118.592,59.4 118.5,56.5C 116.784,56.6287 115.117,56.962 113.5,57.5C 114.635,55.7868 116.302,55.1201 118.5,55.5 Z"/></g>
<g><path style="opacity:1" fill="#6e5b3d" d="M 86.5,59.5 C 86.5,60.8333 86.5,62.1667 86.5,63.5C 84.076,63.8076 81.7427,63.4742 79.5,62.5C 80.376,61.7492 81.376,61.2492 82.5,61C 81.8333,60.6667 81.1667,60.3333 80.5,60C 82.4727,59.5045 84.4727,59.3379 86.5,59.5 Z"/></g>
<g><path style="opacity:1" fill="#a89a4b" d="M 86.5,59.5 C 90.1667,59.5 93.8333,59.5 97.5,59.5C 97.5,60.5 97.5,61.5 97.5,62.5C 95.3926,63.4682 93.0593,63.8016 90.5,63.5C 89.1667,63.5 87.8333,63.5 86.5,63.5C 86.5,62.1667 86.5,60.8333 86.5,59.5 Z"/></g>
<g><path style="opacity:1" fill="#5b5344" d="M 162.5,85.5 C 162.665,82.1501 162.498,78.8168 162,75.5C 161.924,79.7964 161.091,83.7964 159.5,87.5C 159.5,86.5 159.5,85.5 159.5,84.5C 161.479,75.9129 159.479,68.4129 153.5,62C 150.735,60.5236 148.068,60.3569 145.5,61.5C 143.456,62.0312 141.789,63.1978 140.5,65C 143.846,67.4272 147.179,69.7605 150.5,72C 148.845,73.4443 148.178,75.2776 148.5,77.5C 152.5,77.8333 152.5,78.1667 148.5,78.5C 148.5,79.8333 148.5,81.1667 148.5,82.5C 147.454,85.7278 146.788,89.0611 146.5,92.5C 145.853,91.7261 145.52,90.7261 145.5,89.5C 146.005,85.4558 146.671,81.4558 147.5,77.5C 146.816,71.8097 143.816,67.8097 138.5,65.5C 141.714,60.0624 146.38,58.229 152.5,60C 161.657,66.3167 164.99,74.8167 162.5,85.5 Z"/></g>
<g><path style="opacity:1" fill="#faf9f6" d="M 145.5,61.5 C 150.418,69.0001 155.084,76.6667 159.5,84.5C 159.5,85.5 159.5,86.5 159.5,87.5C 158.359,90.2542 157.025,92.9209 155.5,95.5C 153.926,90.6805 151.593,86.3472 148.5,82.5C 148.5,81.1667 148.5,79.8333 148.5,78.5C 152.5,78.1667 152.5,77.8333 148.5,77.5C 148.178,75.2776 148.845,73.4443 150.5,72C 147.179,69.7605 143.846,67.4272 140.5,65C 141.789,63.1978 143.456,62.0312 145.5,61.5 Z"/></g>
<g><path style="opacity:1" fill="#d8cb81" d="M 114.5,61.5 C 113.486,62.6737 112.153,63.3404 110.5,63.5C 109.508,63.3284 108.842,63.6618 108.5,64.5C 106.436,64.313 104.436,63.813 102.5,63C 103.737,62.7679 104.737,62.2679 105.5,61.5C 108.167,60.1667 110.833,58.8333 113.5,57.5C 115.117,56.962 116.784,56.6287 118.5,56.5C 118.592,59.4 117.259,61.0667 114.5,61.5 Z"/></g>
<g><path style="opacity:1" fill="#ede797" d="M 62.5,63.5 C 60.8333,64.1667 59.1667,64.8333 57.5,65.5C 57.5,64.8333 57.5,64.1667 57.5,63.5C 59.3344,62.506 61.0011,62.506 62.5,63.5 Z"/></g>
<g><path style="opacity:1" fill="#6e6b43" d="M 69.5,70.5 C 69.5,70.8333 69.5,71.1667 69.5,71.5C 68.5,71.5 67.5,71.5 66.5,71.5C 65.4019,70.603 65.4019,69.7697 66.5,69C 64.1927,67.1724 64.526,65.5057 67.5,64C 66.436,62.4894 65.1026,62.3228 63.5,63.5C 63.1667,63.5 62.8333,63.5 62.5,63.5C 61.0011,62.506 59.3344,62.506 57.5,63.5C 58.1342,62.0532 59.3009,61.3866 61,61.5C 63.4367,61.7759 65.9367,62.1092 68.5,62.5C 69.02,65.3067 69.3533,67.9734 69.5,70.5 Z"/></g>
<g><path style="opacity:1" fill="#3c301d" d="M 98.5,60.5 C 100.806,60.9926 103.139,61.3259 105.5,61.5C 104.737,62.2679 103.737,62.7679 102.5,63C 104.436,63.813 106.436,64.313 108.5,64.5C 107.449,65.2223 106.782,66.2223 106.5,67.5C 106.784,69.4147 106.451,71.0813 105.5,72.5C 105.663,70.1432 105.497,67.8098 105,65.5C 102.499,63.9442 100.999,64.6108 100.5,67.5C 99.8999,66.0998 98.8999,65.0998 97.5,64.5C 95.712,64.2148 94.0453,64.5481 92.5,65.5C 93.6888,66.4287 95.0222,66.762 96.5,66.5C 97.4916,66.3284 98.1583,66.6618 98.5,67.5C 96.4471,67.4021 94.7804,68.0687 93.5,69.5C 92.1302,67.7496 91.1302,65.7496 90.5,63.5C 93.0593,63.8016 95.3926,63.4682 97.5,62.5C 98.3382,62.1583 98.6716,61.4916 98.5,60.5 Z"/></g>
<g><path style="opacity:1" fill="#eed000" d="M 62.5,63.5 C 62.8333,63.5 63.1667,63.5 63.5,63.5C 63.4606,64.5832 63.1272,65.5832 62.5,66.5C 60.2573,67.4742 57.924,67.8076 55.5,67.5C 55.8333,66.5 56.5,65.8333 57.5,65.5C 59.1667,64.8333 60.8333,64.1667 62.5,63.5 Z"/></g>
<g><path style="opacity:1" fill="#b6aaa6" d="M 97.5,64.5 C 97.1667,65.1667 96.8333,65.8333 96.5,66.5C 95.0222,66.762 93.6888,66.4287 92.5,65.5C 94.0453,64.5481 95.712,64.2148 97.5,64.5 Z"/></g>
<g><path style="opacity:1" fill="#dd2311" d="M 86.5,63.5 C 87.8333,63.5 89.1667,63.5 90.5,63.5C 91.1302,65.7496 92.1302,67.7496 93.5,69.5C 93.5,69.8333 93.5,70.1667 93.5,70.5C 93.5,71.8333 93.5,73.1667 93.5,74.5C 91.5,74.5 89.5,74.5 87.5,74.5C 85.8516,72.5441 85.1849,70.2108 85.5,67.5C 85.4326,66.0413 85.7659,64.7079 86.5,63.5 Z"/></g>
<g><path style="opacity:1" fill="#d0b769" d="M 105.5,72.5 C 104.448,72.6495 103.448,72.4828 102.5,72C 102.833,71.6667 103.167,71.3333 103.5,71C 102.773,69.6012 102.273,68.1012 102,66.5C 101.667,67.1667 101.333,67.8333 101,68.5C 100.601,68.2716 100.435,67.9382 100.5,67.5C 100.999,64.6108 102.499,63.9442 105,65.5C 105.497,67.8098 105.663,70.1432 105.5,72.5 Z"/></g>
<g><path style="opacity:1" fill="#6c6046" d="M 110.5,63.5 C 113.365,64.7828 116.365,64.7828 119.5,63.5C 122.456,66.5891 121.789,68.2558 117.5,68.5C 113.786,69.9145 110.12,69.5812 106.5,67.5C 106.782,66.2223 107.449,65.2223 108.5,64.5C 108.842,63.6618 109.508,63.3284 110.5,63.5 Z"/></g>
<g><path style="opacity:1" fill="#f2e791" d="M 117.5,68.5 C 115.143,68.6633 112.81,68.4966 110.5,68C 110.043,67.586 109.709,67.086 109.5,66.5C 112.833,65.1667 116.167,65.1667 119.5,66.5C 118.757,67.1818 118.091,67.8485 117.5,68.5 Z"/></g>
<g><path style="opacity:1" fill="#8b8474" d="M 57.5,63.5 C 57.5,64.1667 57.5,64.8333 57.5,65.5C 56.5,65.8333 55.8333,66.5 55.5,67.5C 56.1667,68.1667 56.8333,68.8333 57.5,69.5C 56.5,69.5 55.5,69.5 54.5,69.5C 54.0246,66.6874 55.0246,64.6874 57.5,63.5 Z"/></g>
<g><path style="opacity:1" fill="#e1c46d" d="M 72.5,64.5 C 75.5,64.1667 76.8333,65.5 76.5,68.5C 75.0086,65.7704 73.6752,65.937 72.5,69C 73.1667,69.3333 73.8333,69.6667 74.5,70C 73.1667,70.6667 73.1667,71.3333 74.5,72C 73.552,72.4828 72.552,72.6495 71.5,72.5C 71.5,70.1667 71.5,67.8333 71.5,65.5C 71.5,64.8333 71.8333,64.5 72.5,64.5 Z"/></g>
<g><path style="opacity:1" fill="#160d06" d="M 97.5,64.5 C 98.8999,65.0998 99.8999,66.0998 100.5,67.5C 100.435,67.9382 100.601,68.2716 101,68.5C 101.333,67.8333 101.667,67.1667 102,66.5C 102.273,68.1012 102.773,69.6012 103.5,71C 103.167,71.3333 102.833,71.6667 102.5,72C 103.448,72.4828 104.448,72.6495 105.5,72.5C 105.5,73.1667 105.5,73.8333 105.5,74.5C 104.761,74.369 104.094,74.5357 103.5,75C 105.058,77.0519 106.392,79.2185 107.5,81.5C 110.372,86.5795 112.705,91.9128 114.5,97.5C 112.441,94.3894 110.608,91.0561 109,87.5C 108.495,89.5183 107.995,91.5183 107.5,93.5C 106.662,93.8417 106.328,94.5084 106.5,95.5C 104.157,98.3296 101.157,100.163 97.5,101C 98.7932,101.49 100.127,101.657 101.5,101.5C 101.672,102.492 101.338,103.158 100.5,103.5C 97.8333,103.167 95.1667,102.833 92.5,102.5C 91.8333,102.5 91.1667,102.5 90.5,102.5C 89.1667,102.5 87.8333,102.5 86.5,102.5C 85.8333,102.5 85.1667,102.5 84.5,102.5C 81.6146,102.194 78.9479,102.527 76.5,103.5C 75.9569,103.44 75.6236,103.107 75.5,102.5C 76.376,101.749 77.376,101.249 78.5,101C 72.3839,98.5489 68.8839,94.0489 68,87.5C 66.3924,91.0561 64.5591,94.3894 62.5,97.5C 63.6922,92.783 65.6922,88.4496 68.5,84.5C 69.5018,80.9969 71.1685,77.8302 73.5,75C 72.552,74.5172 71.552,74.3505 70.5,74.5C 70.7373,73.209 70.404,72.209 69.5,71.5C 69.5,71.1667 69.5,70.8333 69.5,70.5C 70.1667,68.8333 70.8333,67.1667 71.5,65.5C 71.5,67.8333 71.5,70.1667 71.5,72.5C 72.552,72.6495 73.552,72.4828 74.5,72C 73.1667,71.3333 73.1667,70.6667 74.5,70C 73.8333,69.6667 73.1667,69.3333 72.5,69C 73.6752,65.937 75.0086,65.7704 76.5,68.5C 77.7348,68.2786 78.7348,67.6119 79.5,66.5C 80.1818,67.2427 80.8485,67.9094 81.5,68.5C 79.6814,69.5845 78.0147,70.9178 76.5,72.5C 79.118,73.2594 81.4514,72.5927 83.5,70.5C 83.5,71.8333 83.5,73.1667 83.5,74.5C 84.8333,74.5 86.1667,74.5 87.5,74.5C 89.5,74.5 91.5,74.5 93.5,74.5C 93.5,73.1667 93.5,71.8333 93.5,70.5C 95.1137,72.0746 97.1137,72.7413 99.5,72.5C 99.634,70.7085 99.3007,69.0418 98.5,67.5C 98.1583,66.6618 97.4916,66.3284 96.5,66.5C 96.8333,65.8333 97.1667,65.1667 97.5,64.5 Z"/></g>
<g><path style="opacity:1" fill="#f2e279" d="M 98.5,67.5 C 99.3007,69.0418 99.634,70.7085 99.5,72.5C 97.1137,72.7413 95.1137,72.0746 93.5,70.5C 93.5,70.1667 93.5,69.8333 93.5,69.5C 94.7804,68.0687 96.4471,67.4021 98.5,67.5 Z"/></g>
<g><path style="opacity:1" fill="#fcf096" d="M 145.5,61.5 C 148.068,60.3569 150.735,60.5236 153.5,62C 159.479,68.4129 161.479,75.9129 159.5,84.5C 155.084,76.6667 150.418,69.0001 145.5,61.5 Z"/></g>
<g><path style="opacity:1" fill="#b36938" d="M 84.5,67.5 C 83.8902,68.391 83.5569,69.391 83.5,70.5C 81.4514,72.5927 79.118,73.2594 76.5,72.5C 78.0147,70.9178 79.6814,69.5845 81.5,68.5C 82.209,67.596 83.209,67.2627 84.5,67.5 Z"/></g>
<g><path style="opacity:1" fill="#433614" d="M 66.5,71.5 C 66.5,72.1667 66.5,72.8333 66.5,73.5C 65.5326,72.1938 64.1993,71.5271 62.5,71.5C 62.1667,73.5 61.8333,75.5 61.5,77.5C 60.1888,75.4402 60.1888,73.2735 61.5,71C 60.4734,70.4867 59.4734,69.9867 58.5,69.5C 58.1667,69.5 57.8333,69.5 57.5,69.5C 56.8333,68.8333 56.1667,68.1667 55.5,67.5C 57.924,67.8076 60.2573,67.4742 62.5,66.5C 63.1272,65.5832 63.4606,64.5832 63.5,63.5C 65.1026,62.3228 66.436,62.4894 67.5,64C 64.526,65.5057 64.1927,67.1724 66.5,69C 65.4019,69.7697 65.4019,70.603 66.5,71.5 Z"/></g>
<g><path style="opacity:1" fill="#7c0301" d="M 84.5,67.5 C 84.8333,67.5 85.1667,67.5 85.5,67.5C 85.1849,70.2108 85.8516,72.5441 87.5,74.5C 86.1667,74.5 84.8333,74.5 83.5,74.5C 83.5,73.1667 83.5,71.8333 83.5,70.5C 83.5569,69.391 83.8902,68.391 84.5,67.5 Z"/></g>
<g><path style="opacity:1" fill="#b7bd39" d="M 66.5,71.5 C 67.5,71.5 68.5,71.5 69.5,71.5C 70.404,72.209 70.7373,73.209 70.5,74.5C 69.0413,74.5674 67.7079,74.2341 66.5,73.5C 66.5,72.8333 66.5,72.1667 66.5,71.5 Z"/></g>
<g><path style="opacity:1" fill="#5e5e26" d="M 66.5,73.5 C 67.7079,74.2341 69.0413,74.5674 70.5,74.5C 69.4863,75.6737 68.153,76.3404 66.5,76.5C 64.8828,77.038 63.2161,77.3713 61.5,77.5C 61.8333,75.5 62.1667,73.5 62.5,71.5C 64.1993,71.5271 65.5326,72.1938 66.5,73.5 Z"/></g>
<g><path style="opacity:1" fill="#29140d" d="M 66.5,76.5 C 64.4504,78.5475 62.117,80.2141 59.5,81.5C 60.6005,80.3951 61.2671,79.0618 61.5,77.5C 63.2161,77.3713 64.8828,77.038 66.5,76.5 Z"/></g>
<g><path style="opacity:1" fill="#3d2a26" d="M 113.5,78.5 C 115.027,78.427 116.027,79.0937 116.5,80.5C 114.973,80.573 113.973,79.9063 113.5,78.5 Z"/></g>
<g><path style="opacity:1" fill="#d20000" d="M 70.5,74.5 C 71.552,74.3505 72.552,74.5172 73.5,75C 71.1685,77.8302 69.5018,80.9969 68.5,84.5C 65.763,85.031 63.0964,85.8644 60.5,87C 57.916,89.4336 55.2493,91.6002 52.5,93.5C 51.8333,93.5 51.1667,93.5 50.5,93.5C 48.8624,92.2954 48.5291,90.9621 49.5,89.5C 49.8333,88.5 50.5,87.8333 51.5,87.5C 53.7488,86.9202 55.4154,85.5869 56.5,83.5C 58.0269,83.573 59.0269,82.9063 59.5,81.5C 62.117,80.2141 64.4504,78.5475 66.5,76.5C 68.153,76.3404 69.4863,75.6737 70.5,74.5 Z"/></g>
<g><path style="opacity:1" fill="#afaaa2" d="M 89.5,82.5 C 88.8333,82.5 88.1667,82.5 87.5,82.5C 85.4006,81.3882 83.0673,80.7215 80.5,80.5C 80.5,79.1667 80.5,77.8333 80.5,76.5C 85.8333,76.5 91.1667,76.5 96.5,76.5C 96.7213,80.7954 95.3879,81.4621 92.5,78.5C 91.8333,78.6667 91.1667,78.8333 90.5,79C 91.624,79.2492 92.624,79.7492 93.5,80.5C 92.0508,81.1719 90.7175,81.8386 89.5,82.5 Z"/></g>
<g><path style="opacity:1" fill="#b9693a" d="M 83.5,82.5 C 83.5544,84.632 84.5544,85.9653 86.5,86.5C 86.0831,87.1239 85.4164,87.4573 84.5,87.5C 80.1833,86.6861 77.5167,84.1861 76.5,80C 77.7246,75.2743 78.5579,75.441 79,80.5C 80.3297,81.5822 81.8297,82.2488 83.5,82.5 Z"/></g>
<g><path style="opacity:1" fill="#47302c" d="M 116.5,80.5 C 118.404,80.7376 119.738,81.7376 120.5,83.5C 118.596,83.2624 117.262,82.2624 116.5,80.5 Z"/></g>
<g><path style="opacity:1" fill="#41130e" d="M 59.5,81.5 C 59.0269,82.9063 58.0269,83.573 56.5,83.5C 56.9731,82.0937 57.9731,81.427 59.5,81.5 Z"/></g>
<g><path style="opacity:1" fill="#d9963d" d="M 83.5,82.5 C 84.8333,82.5 86.1667,82.5 87.5,82.5C 88.1667,82.5 88.8333,82.5 89.5,82.5C 91.1667,82.5 92.8333,82.5 94.5,82.5C 93.791,83.404 92.791,83.7373 91.5,83.5C 91.5,84.5 91.5,85.5 91.5,86.5C 92.5,86.5 93.5,86.5 94.5,86.5C 93.3991,87.5983 92.0657,87.765 90.5,87C 89.1667,86.3333 89.1667,85.6667 90.5,85C 89.1667,84.3333 87.8333,84.3333 86.5,85C 87.7383,85.69 87.7383,86.19 86.5,86.5C 84.5544,85.9653 83.5544,84.632 83.5,82.5 Z"/></g>
<g><path style="opacity:1" fill="#f7e072" d="M 94.5,86.5 C 93.5,86.5 92.5,86.5 91.5,86.5C 91.5,85.5 91.5,84.5 91.5,83.5C 92.791,83.7373 93.791,83.404 94.5,82.5C 97.1516,81.8485 98.8182,80.1818 99.5,77.5C 100.631,79.0745 100.798,80.7412 100,82.5C 98.2258,83.965 96.3925,85.2983 94.5,86.5 Z"/></g>
<g><path style="opacity:1" fill="#4c3834" d="M 120.5,83.5 C 122.027,83.427 123.027,84.0937 123.5,85.5C 121.973,85.573 120.973,84.9063 120.5,83.5 Z"/></g>
<g><path style="opacity:1" fill="#880000" d="M 68.5,84.5 C 65.6922,88.4496 63.6922,92.783 62.5,97.5C 61.4415,98.6002 60.6082,99.9336 60,101.5C 58.6288,99.9586 57.1288,98.6253 55.5,97.5C 54.5,96.1667 53.5,94.8333 52.5,93.5C 55.2493,91.6002 57.916,89.4336 60.5,87C 63.0964,85.8644 65.763,85.031 68.5,84.5 Z"/></g>
<g><path style="opacity:1" fill="#611d12" d="M 56.5,83.5 C 55.4154,85.5869 53.7488,86.9202 51.5,87.5C 52.5846,85.4131 54.2512,84.0798 56.5,83.5 Z"/></g>
<g><path style="opacity:1" fill="#d90000" d="M 105.5,74.5 C 108.193,75.8466 110.86,77.1799 113.5,78.5C 113.973,79.9063 114.973,80.573 116.5,80.5C 117.262,82.2624 118.596,83.2624 120.5,83.5C 120.973,84.9063 121.973,85.573 123.5,85.5C 124.96,87.4628 126.627,89.2962 128.5,91C 127.619,91.7083 126.953,92.5416 126.5,93.5C 121.933,92.4508 118.266,89.9508 115.5,86C 112.968,84.2347 110.301,82.7347 107.5,81.5C 106.392,79.2185 105.058,77.0519 103.5,75C 104.094,74.5357 104.761,74.369 105.5,74.5 Z"/></g>
<g><path style="opacity:1" fill="#fbf096" d="M 148.5,82.5 C 151.593,86.3472 153.926,90.6805 155.5,95.5C 154.189,98.1354 152.522,100.469 150.5,102.5C 148.972,99.2513 147.639,95.918 146.5,92.5C 146.788,89.0611 147.454,85.7278 148.5,82.5 Z"/></g>
<g><path style="opacity:1" fill="#422e2b" d="M 123.5,85.5 C 125.886,86.3733 127.886,87.8733 129.5,90C 133.188,90.1952 135.522,92.0285 136.5,95.5C 134.852,94.1902 133.186,92.8569 131.5,91.5C 130.14,92.1799 128.807,92.8466 127.5,93.5C 127.167,93.5 126.833,93.5 126.5,93.5C 126.953,92.5416 127.619,91.7083 128.5,91C 126.627,89.2962 124.96,87.4628 123.5,85.5 Z"/></g>
<g><path style="opacity:1" fill="#870100" d="M 76.5,103.5 C 78.1368,104.38 79.9701,105.046 82,105.5C 83.7491,105.252 84.5824,104.252 84.5,102.5C 85.1667,102.5 85.8333,102.5 86.5,102.5C 86.5,104.5 86.5,106.5 86.5,108.5C 85.5,108.5 84.5,108.5 83.5,108.5C 83.7373,109.791 83.404,110.791 82.5,111.5C 81.8515,109.414 80.3515,108.414 78,108.5C 74.9925,108.999 74.8259,109.999 77.5,111.5C 76.5291,112.962 76.8624,114.295 78.5,115.5C 78.5,115.833 78.5,116.167 78.5,116.5C 71.4816,116.787 64.9816,115.12 59,111.5C 59.8253,106.817 60.992,102.15 62.5,97.5C 64.5591,94.3894 66.3924,91.0561 68,87.5C 68.8839,94.0489 72.3839,98.5489 78.5,101C 77.376,101.249 76.376,101.749 75.5,102.5C 75.6236,103.107 75.9569,103.44 76.5,103.5 Z"/></g>
<g><path style="opacity:1" fill="#ee0000" d="M 114.5,97.5 C 116.032,102.097 117.365,106.764 118.5,111.5C 114.431,113.702 110.097,115.035 105.5,115.5C 104.355,111.689 104.188,107.689 105,103.5C 107.003,100.5 107.836,97.1669 107.5,93.5C 107.995,91.5183 108.495,89.5183 109,87.5C 110.608,91.0561 112.441,94.3894 114.5,97.5 Z"/></g>
<g><path style="opacity:1" fill="#e30000" d="M 136.5,95.5 C 135.789,97.0301 134.789,98.3634 133.5,99.5C 133.167,99.5 132.833,99.5 132.5,99.5C 130.022,98.8051 128.022,97.3051 126.5,95C 127.056,94.6174 127.389,94.1174 127.5,93.5C 128.807,92.8466 130.14,92.1799 131.5,91.5C 133.186,92.8569 134.852,94.1902 136.5,95.5 Z"/></g>
<g><path style="opacity:1" fill="#372421" d="M 49.5,89.5 C 48.5291,90.9621 48.8624,92.2954 50.5,93.5C 50.1667,93.5 49.8333,93.5 49.5,93.5C 48.1932,92.8466 46.8599,92.1799 45.5,91.5C 43.8144,92.8569 42.1477,94.1902 40.5,95.5C 41.948,91.3593 44.948,89.3593 49.5,89.5 Z"/></g>
<g><path style="opacity:1" fill="#d50500" d="M 49.5,93.5 C 47.082,94.9143 45.4153,96.9143 44.5,99.5C 43.5084,99.6716 42.8417,99.3382 42.5,98.5C 41.4489,97.7777 40.7822,96.7777 40.5,95.5C 42.1477,94.1902 43.8144,92.8569 45.5,91.5C 46.8599,92.1799 48.1932,92.8466 49.5,93.5 Z"/></g>
<g><path style="opacity:1" fill="#290500" d="M 50.5,93.5 C 51.1667,93.5 51.8333,93.5 52.5,93.5C 53.5,94.8333 54.5,96.1667 55.5,97.5C 53.2512,96.9202 51.5846,95.5869 50.5,93.5 Z"/></g>
<g><path style="opacity:1" fill="#860200" d="M 107.5,81.5 C 110.301,82.7347 112.968,84.2347 115.5,86C 118.266,89.9508 121.933,92.4508 126.5,93.5C 126.833,93.5 127.167,93.5 127.5,93.5C 127.389,94.1174 127.056,94.6174 126.5,95C 128.022,97.3051 130.022,98.8051 132.5,99.5C 132.5,99.8333 132.5,100.167 132.5,100.5C 128.948,102.092 125.948,104.425 123.5,107.5C 122.311,108.429 120.978,108.762 119.5,108.5C 118.841,106.862 118.174,105.195 117.5,103.5C 119.984,100.516 122.65,97.6824 125.5,95C 122.224,96.2365 119.391,98.4032 117,101.5C 116.392,99.9336 115.558,98.6002 114.5,97.5C 112.705,91.9128 110.372,86.5795 107.5,81.5 Z"/></g>
<g><path style="opacity:1" fill="#881401" d="M 49.5,93.5 C 49.8333,93.5 50.1667,93.5 50.5,93.5C 51.5846,95.5869 53.2512,96.9202 55.5,97.5C 56.3891,99.736 57.7224,101.736 59.5,103.5C 58.4267,106.644 57.0934,109.644 55.5,112.5C 54.8333,112.167 54.1667,111.833 53.5,111.5C 52.9202,109.251 51.5869,107.585 49.5,106.5C 47.7697,105.974 46.4363,104.974 45.5,103.5C 46.2389,103.631 46.9056,103.464 47.5,103C 46.2899,101.961 45.2899,100.794 44.5,99.5C 45.4153,96.9143 47.082,94.9143 49.5,93.5 Z"/></g>
<g><path style="opacity:1" fill="#926e43" d="M 162.5,85.5 C 161.527,90.4544 159.694,95.1211 157,99.5C 153.575,103.379 150.409,107.379 147.5,111.5C 146.391,111.557 145.391,111.89 144.5,112.5C 143.449,111.778 142.782,110.778 142.5,109.5C 144.749,108.92 146.415,107.587 147.5,105.5C 148.833,104.833 149.833,103.833 150.5,102.5C 152.522,100.469 154.189,98.1354 155.5,95.5C 157.025,92.9209 158.359,90.2542 159.5,87.5C 161.091,83.7964 161.924,79.7964 162,75.5C 162.498,78.8168 162.665,82.1501 162.5,85.5 Z"/></g>
<g><path style="opacity:1" fill="#664509" d="M 40.5,95.5 C 40.7822,96.7777 41.4489,97.7777 42.5,98.5C 41.209,98.2627 40.209,98.596 39.5,99.5C 38.6618,99.1583 38.3284,98.4916 38.5,97.5C 38.8333,96.5 39.5,95.8333 40.5,95.5 Z"/></g>
<g><path style="opacity:1" fill="#644b08" d="M 136.5,95.5 C 137.5,95.8333 138.167,96.5 138.5,97.5C 138.672,98.4916 138.338,99.1583 137.5,99.5C 136.368,98.6457 135.035,98.6457 133.5,99.5C 134.789,98.3634 135.789,97.0301 136.5,95.5 Z"/></g>
<g><path style="opacity:1" fill="#181712" d="M 38.5,97.5 C 38.3284,98.4916 38.6618,99.1583 39.5,99.5C 41.8816,100.351 43.8816,101.684 45.5,103.5C 44.5041,103.414 43.6708,103.748 43,104.5C 42.5026,107.146 42.3359,109.813 42.5,112.5C 42.0367,108.527 40.5367,104.86 38,101.5C 37.235,99.9343 37.4017,98.6009 38.5,97.5 Z"/></g>
<g><path style="opacity:1" fill="#7f0000" d="M 106.5,95.5 C 105.581,98.0892 103.914,100.089 101.5,101.5C 100.127,101.657 98.7932,101.49 97.5,101C 101.157,100.163 104.157,98.3296 106.5,95.5 Z"/></g>
<g><path style="opacity:1" fill="#130c06" d="M 138.5,97.5 C 139.417,99.6618 139.417,101.995 138.5,104.5C 137.833,104.5 137.167,104.5 136.5,104.5C 134.775,104.843 134.275,105.843 135,107.5C 137.04,109.37 138.873,111.37 140.5,113.5C 139.391,113.443 138.391,113.11 137.5,112.5C 137.047,111.542 136.381,110.708 135.5,110C 132.262,109.875 129.595,108.708 127.5,106.5C 129.36,105.061 131.027,103.395 132.5,101.5C 134.284,101.107 135.95,100.441 137.5,99.5C 138.338,99.1583 138.672,98.4916 138.5,97.5 Z"/></g>
<g><path style="opacity:1" fill="#c69500" d="M 39.5,99.5 C 40.209,98.596 41.209,98.2627 42.5,98.5C 42.8417,99.3382 43.5084,99.6716 44.5,99.5C 45.2899,100.794 46.2899,101.961 47.5,103C 46.9056,103.464 46.2389,103.631 45.5,103.5C 43.8816,101.684 41.8816,100.351 39.5,99.5 Z"/></g>
<g><path style="opacity:1" fill="#d40000" d="M 107.5,93.5 C 107.836,97.1669 107.003,100.5 105,103.5C 104.188,107.689 104.355,111.689 105.5,115.5C 102.939,116.767 100.272,116.767 97.5,115.5C 95.2362,114.781 92.9029,114.448 90.5,114.5C 90.5,110.5 90.5,106.5 90.5,102.5C 91.1667,102.5 91.8333,102.5 92.5,102.5C 92.4176,104.252 93.2509,105.252 95,105.5C 97.0299,105.046 98.8632,104.38 100.5,103.5C 101.338,103.158 101.672,102.492 101.5,101.5C 103.914,100.089 105.581,98.0892 106.5,95.5C 106.328,94.5084 106.662,93.8417 107.5,93.5 Z"/></g>
<g><path style="opacity:1" fill="#d2be00" d="M 137.5,99.5 C 135.95,100.441 134.284,101.107 132.5,101.5C 132.5,101.167 132.5,100.833 132.5,100.5C 132.5,100.167 132.5,99.8333 132.5,99.5C 132.833,99.5 133.167,99.5 133.5,99.5C 135.035,98.6457 136.368,98.6457 137.5,99.5 Z"/></g>
<g><path style="opacity:1" fill="#572916" d="M 84.5,102.5 C 84.5824,104.252 83.7491,105.252 82,105.5C 79.9701,105.046 78.1368,104.38 76.5,103.5C 78.9479,102.527 81.6146,102.194 84.5,102.5 Z"/></g>
<g><path style="opacity:1" fill="#fbef96" d="M 144.5,99.5 C 146.008,101.181 147.008,103.181 147.5,105.5C 146.415,107.587 144.749,108.92 142.5,109.5C 141.833,109.167 141.167,108.833 140.5,108.5C 141.561,105.378 142.895,102.378 144.5,99.5 Z"/></g>
<g><path style="opacity:1" fill="#eeeeee" d="M 58.5,69.5 C 59.4734,69.9867 60.4734,70.4867 61.5,71C 60.1888,73.2735 60.1888,75.4402 61.5,77.5C 61.2671,79.0618 60.6005,80.3951 59.5,81.5C 57.9731,81.427 56.9731,82.0937 56.5,83.5C 54.2512,84.0798 52.5846,85.4131 51.5,87.5C 50.5,87.8333 49.8333,88.5 49.5,89.5C 44.948,89.3593 41.948,91.3593 40.5,95.5C 39.5,95.8333 38.8333,96.5 38.5,97.5C 37.4017,98.6009 37.235,99.9343 38,101.5C 40.5367,104.86 42.0367,108.527 42.5,112.5C 42.5,113.833 42.5,115.167 42.5,116.5C 40.8828,115.962 39.2161,115.629 37.5,115.5C 36.7261,114.853 35.7261,114.52 34.5,114.5C 32.6455,114.34 31.3121,115.007 30.5,116.5C 29.2719,117.306 28.2719,118.306 27.5,119.5C 23.03,118.514 18.3633,118.181 13.5,118.5C 13.5,113.5 13.5,108.5 13.5,103.5C 18.5,103.5 23.5,103.5 28.5,103.5C 28.5,98.5 28.5,93.5 28.5,88.5C 33.5,88.5 38.5,88.5 43.5,88.5C 43.5,83.5 43.5,78.5 43.5,73.5C 48.5,73.5 53.5,73.5 58.5,73.5C 58.5,72.1667 58.5,70.8333 58.5,69.5 Z"/></g>
<g><path style="opacity:1" fill="#57523f" d="M 144.5,99.5 C 142.895,102.378 141.561,105.378 140.5,108.5C 139.833,108.5 139.5,108.167 139.5,107.5C 139.443,106.391 139.11,105.391 138.5,104.5C 139.496,104.586 140.329,104.252 141,103.5C 142.725,100.326 144.058,96.9927 145,93.5C 145.49,95.5454 145.323,97.5454 144.5,99.5 Z"/></g>
<g><path style="opacity:1" fill="#e3d787" d="M 45.5,103.5 C 46.4363,104.974 47.7697,105.974 49.5,106.5C 49.3862,108.718 48.7196,110.718 47.5,112.5C 45.8333,112.5 44.1667,112.5 42.5,112.5C 42.3359,109.813 42.5026,107.146 43,104.5C 43.6708,103.748 44.5041,103.414 45.5,103.5 Z"/></g>
<g><path style="opacity:1" fill="#5a1102" d="M 92.5,102.5 C 95.1667,102.833 97.8333,103.167 100.5,103.5C 98.8632,104.38 97.0299,105.046 95,105.5C 93.2509,105.252 92.4176,104.252 92.5,102.5 Z"/></g>
<g><path style="opacity:1" fill="#eece00" d="M 136.5,104.5 C 137.167,104.5 137.833,104.5 138.5,104.5C 139.11,105.391 139.443,106.391 139.5,107.5C 137.146,108.494 136.146,107.494 136.5,104.5 Z"/></g>
<g><path style="opacity:1" fill="#884d01" d="M 136.5,104.5 C 136.146,107.494 137.146,108.494 139.5,107.5C 139.5,108.167 139.833,108.5 140.5,108.5C 141.167,108.833 141.833,109.167 142.5,109.5C 142.782,110.778 143.449,111.778 144.5,112.5C 143.833,112.5 143.5,112.833 143.5,113.5C 142.5,113.5 141.5,113.5 140.5,113.5C 138.873,111.37 137.04,109.37 135,107.5C 134.275,105.843 134.775,104.843 136.5,104.5 Z"/></g>
<g><path style="opacity:1" fill="#7d350a" d="M 132.5,100.5 C 132.5,100.833 132.5,101.167 132.5,101.5C 131.027,103.395 129.36,105.061 127.5,106.5C 126.925,108.411 125.925,110.078 124.5,111.5C 121.729,112.773 120.062,111.773 119.5,108.5C 120.978,108.762 122.311,108.429 123.5,107.5C 125.948,104.425 128.948,102.092 132.5,100.5 Z"/></g>
<g><path style="opacity:1" fill="#644d2b" d="M 82.5,111.5 C 80.8333,111.5 79.1667,111.5 77.5,111.5C 74.8259,109.999 74.9925,108.999 78,108.5C 80.3515,108.414 81.8515,109.414 82.5,111.5 Z"/></g>
<g><path style="opacity:1" fill="#c5bc00" d="M 96.5,108.5 C 96.5,109.833 95.8333,110.5 94.5,110.5C 94.5,109.167 95.1667,108.5 96.5,108.5 Z"/></g>
<g><path style="opacity:1" fill="#846a4d" d="M 49.5,106.5 C 51.5869,107.585 52.9202,109.251 53.5,111.5C 53.264,113.973 51.9307,115.64 49.5,116.5C 48.6376,115.234 47.9709,113.901 47.5,112.5C 48.7196,110.718 49.3862,108.718 49.5,106.5 Z"/></g>
<g><path style="opacity:1" fill="#7f4b01" d="M 86.5,102.5 C 87.8333,102.5 89.1667,102.5 90.5,102.5C 90.5,106.5 90.5,110.5 90.5,114.5C 89.1667,114.5 87.8333,114.5 86.5,114.5C 86.5,112.5 86.5,110.5 86.5,108.5C 86.5,106.5 86.5,104.5 86.5,102.5 Z"/></g>
<g><path style="opacity:1" fill="#68381a" d="M 96.5,108.5 C 98.1667,108.5 99.8333,108.5 101.5,108.5C 101.5,109.5 101.5,110.5 101.5,111.5C 98.9407,111.802 96.6074,111.468 94.5,110.5C 95.8333,110.5 96.5,109.833 96.5,108.5 Z"/></g>
<g><path style="opacity:1" fill="#bc7542" d="M 127.5,106.5 C 129.595,108.708 132.262,109.875 135.5,110C 136.381,110.708 137.047,111.542 137.5,112.5C 137.67,113.822 137.337,114.989 136.5,116C 138.301,116.317 138.634,116.984 137.5,118C 140.525,118.154 142.191,119.654 142.5,122.5C 139.921,122.606 137.588,121.939 135.5,120.5C 135.649,119.448 135.483,118.448 135,117.5C 134.282,118.451 133.449,118.617 132.5,118C 132.031,116.038 132.697,114.205 134.5,112.5C 134.167,112.167 133.833,111.833 133.5,111.5C 131.216,113.169 130.382,115.169 131,117.5C 130.184,118.823 129.017,119.489 127.5,119.5C 127.461,116.465 126.461,113.798 124.5,111.5C 125.925,110.078 126.925,108.411 127.5,106.5 Z"/></g>
<g><path style="opacity:1" fill="#d40000" d="M 86.5,108.5 C 86.5,110.5 86.5,112.5 86.5,114.5C 84.0504,114.298 81.717,114.631 79.5,115.5C 79.1667,115.5 78.8333,115.5 78.5,115.5C 76.8624,114.295 76.5291,112.962 77.5,111.5C 79.1667,111.5 80.8333,111.5 82.5,111.5C 83.404,110.791 83.7373,109.791 83.5,108.5C 84.5,108.5 85.5,108.5 86.5,108.5 Z"/></g>
<g><path style="opacity:1" fill="#1e110d" d="M 119.5,108.5 C 120.062,111.773 121.729,112.773 124.5,111.5C 126.461,113.798 127.461,116.465 127.5,119.5C 126.081,115.674 124.415,115.674 122.5,119.5C 122.668,121.171 123.335,122.504 124.5,123.5C 124.5,123.833 124.5,124.167 124.5,124.5C 123.957,124.56 123.624,124.893 123.5,125.5C 124.193,126.518 124.859,127.518 125.5,128.5C 124.28,130.05 124.28,131.716 125.5,133.5C 125.768,135.099 125.434,136.432 124.5,137.5C 124.672,136.508 124.338,135.842 123.5,135.5C 123.65,130.7 122.984,126.033 121.5,121.5C 121.737,120.209 121.404,119.209 120.5,118.5C 120.634,116.708 120.301,115.042 119.5,113.5C 119.167,112.833 118.833,112.167 118.5,111.5C 117.365,106.764 116.032,102.097 114.5,97.5C 115.558,98.6002 116.392,99.9336 117,101.5C 119.391,98.4032 122.224,96.2365 125.5,95C 122.65,97.6824 119.984,100.516 117.5,103.5C 118.174,105.195 118.841,106.862 119.5,108.5 Z"/></g>
<g><path style="opacity:1" fill="#d5b60f" d="M 147.5,111.5 C 148.338,111.842 148.672,112.508 148.5,113.5C 146.95,114.72 145.284,114.72 143.5,113.5C 143.5,112.833 143.833,112.5 144.5,112.5C 145.391,111.89 146.391,111.557 147.5,111.5 Z"/></g>
<g><path style="opacity:1" fill="#56523a" d="M 37.5,115.5 C 35.0971,115.448 32.7638,115.781 30.5,116.5C 31.3121,115.007 32.6455,114.34 34.5,114.5C 35.7261,114.52 36.7261,114.853 37.5,115.5 Z"/></g>
<g><path style="opacity:1" fill="#463118" d="M 137.5,112.5 C 138.391,113.11 139.391,113.443 140.5,113.5C 141.5,113.5 142.5,113.5 143.5,113.5C 145.284,114.72 146.95,114.72 148.5,113.5C 149.097,113.735 149.43,114.235 149.5,115C 148.571,116.077 147.904,117.244 147.5,118.5C 146.883,118.389 146.383,118.056 146,117.5C 145.503,119.81 145.337,122.143 145.5,124.5C 144.395,125.6 143.062,126.267 141.5,126.5C 142.685,125.143 143.685,123.643 144.5,122C 144.333,121.5 144.167,121 144,120.5C 143.722,121.416 143.222,122.082 142.5,122.5C 142.191,119.654 140.525,118.154 137.5,118C 138.634,116.984 138.301,116.317 136.5,116C 137.337,114.989 137.67,113.822 137.5,112.5 Z"/></g>
<g><path style="opacity:1" fill="#504436" d="M 53.5,111.5 C 54.1667,111.833 54.8333,112.167 55.5,112.5C 55.9382,112.435 56.2716,112.601 56.5,113C 55.536,114.725 54.8693,116.559 54.5,118.5C 51.0491,118.016 47.7158,118.016 44.5,118.5C 46.1897,114.488 45.523,113.822 42.5,116.5C 42.5,115.167 42.5,113.833 42.5,112.5C 44.1667,112.5 45.8333,112.5 47.5,112.5C 47.9709,113.901 48.6376,115.234 49.5,116.5C 51.9307,115.64 53.264,113.973 53.5,111.5 Z"/></g>
<g><path style="opacity:1" fill="#763200" d="M 119.5,113.5 C 120.301,115.042 120.634,116.708 120.5,118.5C 114.33,123.001 107.33,125.334 99.5,125.5C 99.3379,123.473 99.5045,121.473 100,119.5C 102.353,123.156 104.853,123.322 107.5,120C 105.5,119.667 103.5,119.333 101.5,119C 105.965,118.301 110.298,117.134 114.5,115.5C 115.148,117.149 116.148,118.482 117.5,119.5C 118.754,117.741 118.421,116.241 116.5,115C 117.244,113.961 118.244,113.461 119.5,113.5 Z"/></g>
<g><path style="opacity:1" fill="#dc8c4a" d="M 141.5,115.5 C 142.922,115.75 143.922,116.583 144.5,118C 141.528,118.854 140.528,118.021 141.5,115.5 Z"/></g>
<g><path style="opacity:1" fill="#a69a6b" d="M 86.5,114.5 C 87.8333,114.5 89.1667,114.5 90.5,114.5C 92.9029,114.448 95.2362,114.781 97.5,115.5C 98.1621,119.466 98.4955,123.466 98.5,127.5C 98.5,128.833 97.8333,129.5 96.5,129.5C 91.1032,129.785 85.7698,129.451 80.5,128.5C 79.5078,124.217 79.1744,119.884 79.5,115.5C 81.717,114.631 84.0504,114.298 86.5,114.5 Z"/></g>
<g><path style="opacity:1" fill="#473a29" d="M 42.5,121.5 C 39.8728,120.908 37.2062,120.575 34.5,120.5C 34.2525,122.858 34.9192,124.858 36.5,126.5C 35.5041,126.586 34.6708,126.252 34,125.5C 32.0868,119.906 33.9202,117.739 39.5,119C 40.9423,119.377 41.9423,120.21 42.5,121.5 Z"/></g>
<g><path style="opacity:1" fill="#dadad9" d="M 127.5,119.5 C 127.611,120.117 127.944,120.617 128.5,121C 126.68,121.2 125.347,122.034 124.5,123.5C 123.335,122.504 122.668,121.171 122.5,119.5C 124.415,115.674 126.081,115.674 127.5,119.5 Z"/></g>
<g><path style="opacity:1" fill="#3a160c" d="M 135.5,120.5 C 134.85,120.196 134.183,119.863 133.5,119.5C 132.905,123.611 134.905,125.611 139.5,125.5C 139.842,126.338 140.508,126.672 141.5,126.5C 141.5,126.833 141.5,127.167 141.5,127.5C 138.941,127.198 136.607,127.532 134.5,128.5C 133.041,128.433 131.708,128.766 130.5,129.5C 130.414,128.504 130.748,127.671 131.5,127C 129.91,125.954 128.41,124.787 127,123.5C 126.536,124.094 126.369,124.761 126.5,125.5C 125.833,125.167 125.167,124.833 124.5,124.5C 124.5,124.167 124.5,123.833 124.5,123.5C 125.347,122.034 126.68,121.2 128.5,121C 127.944,120.617 127.611,120.117 127.5,119.5C 129.017,119.489 130.184,118.823 131,117.5C 130.382,115.169 131.216,113.169 133.5,111.5C 133.833,111.833 134.167,112.167 134.5,112.5C 132.697,114.205 132.031,116.038 132.5,118C 133.449,118.617 134.282,118.451 135,117.5C 135.483,118.448 135.649,119.448 135.5,120.5 Z"/></g>
<g><path style="opacity:1" fill="#850000" d="M 78.5,127.5 C 78.3691,128.376 78.7025,129.043 79.5,129.5C 81.3361,130.028 83.0028,130.694 84.5,131.5C 83.6624,135.375 82.329,139.042 80.5,142.5C 76.5411,143.66 72.5411,143.827 68.5,143C 64.9099,141.47 61.2432,140.136 57.5,139C 53.8864,136.056 52.5531,132.223 53.5,127.5C 54.1475,125.502 54.9808,123.502 56,121.5C 62.9313,125.644 70.4313,127.644 78.5,127.5 Z"/></g>
<g><path style="opacity:1" fill="#250d02" d="M 55.5,97.5 C 57.1288,98.6253 58.6288,99.9586 60,101.5C 60.6082,99.9336 61.4415,98.6002 62.5,97.5C 60.992,102.15 59.8253,106.817 59,111.5C 64.9816,115.12 71.4816,116.787 78.5,116.5C 78.5,120.167 78.5,123.833 78.5,127.5C 70.4313,127.644 62.9313,125.644 56,121.5C 54.9808,123.502 54.1475,125.502 53.5,127.5C 53.5079,124.455 53.8413,121.455 54.5,118.5C 54.8693,116.559 55.536,114.725 56.5,113C 56.2716,112.601 55.9382,112.435 55.5,112.5C 57.0934,109.644 58.4267,106.644 59.5,103.5C 57.7224,101.736 56.3891,99.736 55.5,97.5 Z"/></g>
<g><path style="opacity:1" fill="#3d1802" d="M 57.5,114.5 C 57.56,113.957 57.8933,113.624 58.5,113.5C 64.3192,116.993 70.6526,118.66 77.5,118.5C 77.5,120.833 77.5,123.167 77.5,125.5C 70.434,125.201 63.7673,123.368 57.5,120C 56.7134,117.823 56.7134,115.989 57.5,114.5 Z"/></g>
<g><path style="opacity:1" fill="#6c2b03" d="M 95.5,124.5 C 91.0074,126.978 86.3408,127.144 81.5,125C 82,124.833 82.5,124.667 83,124.5C 85.1199,125.459 87.2865,125.626 89.5,125C 90.985,123.244 90.6516,122.077 88.5,121.5C 86.1667,121.5 83.8333,121.5 81.5,121.5C 81.5,121.167 81.5,120.833 81.5,120.5C 81.5,119.5 81.5,118.5 81.5,117.5C 86.1667,117.5 90.8333,117.5 95.5,117.5C 95.5,119.833 95.5,122.167 95.5,124.5 Z"/></g>
<g><path style="opacity:1" fill="#ef0000" d="M 121.5,121.5 C 122.984,126.033 123.65,130.7 123.5,135.5C 120.252,138.817 116.252,140.817 111.5,141.5C 110.791,140.596 109.791,140.263 108.5,140.5C 107.207,136.616 106.541,132.616 106.5,128.5C 108.179,128.715 109.179,128.048 109.5,126.5C 113.662,125.224 117.662,123.557 121.5,121.5 Z"/></g>
<g><path style="opacity:1" fill="#744329" d="M 135.5,120.5 C 137.588,121.939 139.921,122.606 142.5,122.5C 141.833,123.833 140.833,124.833 139.5,125.5C 134.905,125.611 132.905,123.611 133.5,119.5C 134.183,119.863 134.85,120.196 135.5,120.5 Z"/></g>
<g><path style="opacity:1" fill="#d77200" d="M 147.5,118.5 C 147.5,118.833 147.5,119.167 147.5,119.5C 147.795,121.735 147.461,123.735 146.5,125.5C 145.833,125.5 145.5,125.167 145.5,124.5C 145.337,122.143 145.503,119.81 146,117.5C 146.383,118.056 146.883,118.389 147.5,118.5 Z"/></g>
<g><path style="opacity:1" fill="#392f25" d="M 147.5,119.5 C 148.152,120.449 148.486,121.615 148.5,123C 148.693,125.008 148.026,126.508 146.5,127.5C 146.5,126.833 146.5,126.167 146.5,125.5C 147.461,123.735 147.795,121.735 147.5,119.5 Z"/></g>
<g><path style="opacity:1" fill="#481c02" d="M 118.5,111.5 C 118.833,112.167 119.167,112.833 119.5,113.5C 118.244,113.461 117.244,113.961 116.5,115C 118.421,116.241 118.754,117.741 117.5,119.5C 116.148,118.482 115.148,117.149 114.5,115.5C 110.298,117.134 105.965,118.301 101.5,119C 103.5,119.333 105.5,119.667 107.5,120C 104.853,123.322 102.353,123.156 100,119.5C 99.5045,121.473 99.3379,123.473 99.5,125.5C 107.33,125.334 114.33,123.001 120.5,118.5C 121.404,119.209 121.737,120.209 121.5,121.5C 117.662,123.557 113.662,125.224 109.5,126.5C 105.881,127.244 102.215,127.577 98.5,127.5C 98.4955,123.466 98.1621,119.466 97.5,115.5C 100.272,116.767 102.939,116.767 105.5,115.5C 110.097,115.035 114.431,113.702 118.5,111.5 Z"/></g>
<g><path style="opacity:1" fill="#b6b3ab" d="M 141.5,126.5 C 140.508,126.672 139.842,126.338 139.5,125.5C 140.833,124.833 141.833,123.833 142.5,122.5C 143.222,122.082 143.722,121.416 144,120.5C 144.167,121 144.333,121.5 144.5,122C 143.685,123.643 142.685,125.143 141.5,126.5 Z"/></g>
<g><path style="opacity:1" fill="#e37d00" d="M 124.5,124.5 C 125.167,124.833 125.833,125.167 126.5,125.5C 127.23,126.712 128.23,127.712 129.5,128.5C 128.3,129.292 126.967,129.292 125.5,128.5C 124.859,127.518 124.193,126.518 123.5,125.5C 123.624,124.893 123.957,124.56 124.5,124.5 Z"/></g>
<g><path style="opacity:1" fill="#dbd29d" d="M 44.5,118.5 C 44.573,120.027 43.9063,121.027 42.5,121.5C 41.9423,120.21 40.9423,119.377 39.5,119C 33.9202,117.739 32.0868,119.906 34,125.5C 34.6708,126.252 35.5041,126.586 36.5,126.5C 39.2062,126.575 41.8728,126.908 44.5,127.5C 43.5081,129.026 42.0081,129.693 40,129.5C 30.9493,129.386 27.7827,125.053 30.5,116.5C 32.7638,115.781 35.0971,115.448 37.5,115.5C 39.2161,115.629 40.8828,115.962 42.5,116.5C 45.523,113.822 46.1897,114.488 44.5,118.5 Z"/></g>
<g><path style="opacity:1" fill="#43230d" d="M 81.5,120.5 C 81.5,120.833 81.5,121.167 81.5,121.5C 82.1522,122.725 83.3189,123.392 85,123.5C 86.6811,123.392 87.8478,122.725 88.5,121.5C 90.6516,122.077 90.985,123.244 89.5,125C 87.2865,125.626 85.1199,125.459 83,124.5C 82.5,124.667 82,124.833 81.5,125C 86.3408,127.144 91.0074,126.978 95.5,124.5C 95.6399,126.124 94.9733,127.29 93.5,128C 89.1294,128.629 84.796,128.463 80.5,127.5C 80.1984,124.941 80.5318,122.607 81.5,120.5 Z"/></g>
<g><path style="opacity:1" fill="#a48f6f" d="M 81.5,121.5 C 83.8333,121.5 86.1667,121.5 88.5,121.5C 87.8478,122.725 86.6811,123.392 85,123.5C 83.3189,123.392 82.1522,122.725 81.5,121.5 Z"/></g>
<g><path style="opacity:1" fill="#735009" d="M 130.5,129.5 C 128.545,130.93 126.879,130.597 125.5,128.5C 126.967,129.292 128.3,129.292 129.5,128.5C 128.23,127.712 127.23,126.712 126.5,125.5C 126.369,124.761 126.536,124.094 127,123.5C 128.41,124.787 129.91,125.954 131.5,127C 130.748,127.671 130.414,128.504 130.5,129.5 Z"/></g>
<g><path style="opacity:1" fill="#cf0400" d="M 109.5,126.5 C 109.179,128.048 108.179,128.715 106.5,128.5C 106.541,132.616 107.207,136.616 108.5,140.5C 109.791,140.263 110.791,140.596 111.5,141.5C 106.729,143.318 101.729,143.985 96.5,143.5C 94.1801,139.874 92.8468,135.874 92.5,131.5C 93.8333,130.833 95.1667,130.167 96.5,129.5C 97.8333,129.5 98.5,128.833 98.5,127.5C 102.215,127.577 105.881,127.244 109.5,126.5 Z"/></g>
<g><path style="opacity:1" fill="#d67308" d="M 141.5,127.5 C 141.833,128.167 142.167,128.833 142.5,129.5C 139.615,129.806 136.948,129.473 134.5,128.5C 136.607,127.532 138.941,127.198 141.5,127.5 Z"/></g>
<g><path style="opacity:1" fill="#e3c300" d="M 145.5,124.5 C 145.5,125.167 145.833,125.5 146.5,125.5C 146.5,126.167 146.5,126.833 146.5,127.5C 145.167,128.167 143.833,128.833 142.5,129.5C 142.167,128.833 141.833,128.167 141.5,127.5C 141.5,127.167 141.5,126.833 141.5,126.5C 143.062,126.267 144.395,125.6 145.5,124.5 Z"/></g>
<g><path style="opacity:1" fill="#453f34" d="M 30.5,116.5 C 27.7827,125.053 30.9493,129.386 40,129.5C 42.0081,129.693 43.5081,129.026 44.5,127.5C 45.1174,127.389 45.6174,127.056 46,126.5C 46.0899,128.768 44.9232,130.268 42.5,131C 33.3221,132.427 28.3221,128.593 27.5,119.5C 28.2719,118.306 29.2719,117.306 30.5,116.5 Z"/></g>
<g><path style="opacity:1" fill="#978e5c" d="M 101.5,131.5 C 105.5,132.167 105.5,132.833 101.5,133.5C 100.761,133.631 100.094,133.464 99.5,133C 100.416,132.722 101.082,132.222 101.5,131.5 Z"/></g>
<g><path style="opacity:1" fill="#4f310c" d="M 101.5,131.5 C 101.082,132.222 100.416,132.722 99.5,133C 100.094,133.464 100.761,133.631 101.5,133.5C 98.1851,136.617 96.1851,135.951 95.5,131.5C 97.5,131.5 99.5,131.5 101.5,131.5 Z"/></g>
<g><path style="opacity:1" fill="#484318" d="M 90.5,134.5 C 91.3382,134.842 91.6716,135.508 91.5,136.5C 90.5655,137.568 90.2322,138.901 90.5,140.5C 88.8008,140.66 87.1341,140.494 85.5,140C 86.2711,137.423 87.2711,134.923 88.5,132.5C 89.2508,133.376 89.7508,134.376 90,135.5C 90.3988,135.272 90.5654,134.938 90.5,134.5 Z"/></g>
<g><path style="opacity:1" fill="#5a574f" d="M 124.5,137.5 C 123.738,139.262 122.404,140.262 120.5,140.5C 121.262,138.738 122.596,137.738 124.5,137.5 Z"/></g>
<g><path style="opacity:1" fill="#bfa801" d="M 92.5,131.5 C 92.8468,135.874 94.1801,139.874 96.5,143.5C 96.1583,144.338 95.4916,144.672 94.5,144.5C 94.6716,143.508 94.3382,142.842 93.5,142.5C 92.8333,140.5 92.1667,138.5 91.5,136.5C 91.6716,135.508 91.3382,134.842 90.5,134.5C 90.2852,132.821 90.9519,131.821 92.5,131.5 Z"/></g>
<g><path style="opacity:1" fill="#60401d" d="M 98.5,137.5 C 100.924,137.192 103.257,137.526 105.5,138.5C 103.49,140.171 101.157,140.838 98.5,140.5C 98.5,139.5 98.5,138.5 98.5,137.5 Z"/></g>
<g><path style="opacity:1" fill="#8d7507" d="M 123.5,135.5 C 124.338,135.842 124.672,136.508 124.5,137.5C 122.596,137.738 121.262,138.738 120.5,140.5C 116.841,142.704 112.841,144.038 108.5,144.5C 105.763,144.401 103.096,144.735 100.5,145.5C 98.2646,145.795 96.2646,145.461 94.5,144.5C 95.4916,144.672 96.1583,144.338 96.5,143.5C 101.729,143.985 106.729,143.318 111.5,141.5C 116.252,140.817 120.252,138.817 123.5,135.5 Z"/></g>
<g><path style="opacity:1" fill="#362b22" d="M 78.5,115.5 C 78.8333,115.5 79.1667,115.5 79.5,115.5C 79.1744,119.884 79.5078,124.217 80.5,128.5C 85.7698,129.451 91.1032,129.785 96.5,129.5C 95.1667,130.167 93.8333,130.833 92.5,131.5C 90.9519,131.821 90.2852,132.821 90.5,134.5C 90.5654,134.938 90.3988,135.272 90,135.5C 89.7508,134.376 89.2508,133.376 88.5,132.5C 87.2711,134.923 86.2711,137.423 85.5,140C 87.1341,140.494 88.8008,140.66 90.5,140.5C 90.2322,138.901 90.5655,137.568 91.5,136.5C 92.1667,138.5 92.8333,140.5 93.5,142.5C 90.1667,141.167 86.8333,141.167 83.5,142.5C 84.7561,138.644 86.0894,134.81 87.5,131C 86.4232,130.53 85.4232,130.697 84.5,131.5C 83.0028,130.694 81.3361,130.028 79.5,129.5C 78.7025,129.043 78.3691,128.376 78.5,127.5C 78.5,123.833 78.5,120.167 78.5,116.5C 78.5,116.167 78.5,115.833 78.5,115.5 Z"/></g>
<g><path style="opacity:1" fill="#6b370b" d="M 53.5,127.5 C 52.5531,132.223 53.8864,136.056 57.5,139C 61.2432,140.136 64.9099,141.47 68.5,143C 72.5411,143.827 76.5411,143.66 80.5,142.5C 82.329,139.042 83.6624,135.375 84.5,131.5C 85.4232,130.697 86.4232,130.53 87.5,131C 86.0894,134.81 84.7561,138.644 83.5,142.5C 83.5858,143.496 83.2524,144.329 82.5,145C 79.854,145.497 77.1873,145.664 74.5,145.5C 72.7354,144.539 70.7354,144.205 68.5,144.5C 63.1309,143.822 58.1309,141.988 53.5,139C 51.8446,137.556 51.178,135.722 51.5,133.5C 52.0482,131.374 52.7148,129.374 53.5,127.5 Z"/></g>
<g><path style="opacity:1" fill="#3c1d12" d="M 71.5,137.5 C 73.8568,137.337 76.1902,137.503 78.5,138C 79.8213,139.545 79.4879,140.711 77.5,141.5C 75.8333,140.833 74.1667,140.167 72.5,139.5C 71.7025,139.043 71.3691,138.376 71.5,137.5 Z"/></g>
<g><path style="opacity:1" fill="#3d1e12" d="M 72.5,130.5 C 75.4299,131.299 78.4299,131.632 81.5,131.5C 81.853,133.635 81.0197,134.968 79,135.5C 77.1284,134.932 75.2951,134.265 73.5,133.5C 72.6143,132.675 72.281,131.675 72.5,130.5 Z"/></g>
<g><path style="opacity:1" fill="#391e0e" d="M 108.5,144.5 C 110.138,146.955 109.805,148.955 107.5,150.5C 108.778,147.515 107.778,146.849 104.5,148.5C 104.855,149.522 105.522,150.189 106.5,150.5C 106.5,153.5 106.5,156.5 106.5,159.5C 104.544,161.175 103.211,160.842 102.5,158.5C 102.724,153.941 102.058,149.608 100.5,145.5C 103.096,144.735 105.763,144.401 108.5,144.5 Z"/></g>
<g><path style="opacity:1" fill="#f3f3f3" d="M 51.5,133.5 C 51.178,135.722 51.8446,137.556 53.5,139C 58.1309,141.988 63.1309,143.822 68.5,144.5C 68.9431,147.867 69.9431,151.367 71.5,155C 70.7935,157.54 69.1268,158.707 66.5,158.5C 66.5,159.5 66.5,160.5 66.5,161.5C 67.5676,162.434 68.901,162.768 70.5,162.5C 71.209,163.404 72.209,163.737 73.5,163.5C 73.5,167.5 73.5,171.5 73.5,175.5C 48.8333,175.5 24.1667,175.5 -0.5,175.5C -0.5,166.5 -0.5,157.5 -0.5,148.5C 4.16667,148.5 8.83333,148.5 13.5,148.5C 13.5,153.5 13.5,158.5 13.5,163.5C 18.5,163.5 23.5,163.5 28.5,163.5C 28.5,158.5 28.5,153.5 28.5,148.5C 33.5,148.5 38.5,148.5 43.5,148.5C 43.5,143.5 43.5,138.5 43.5,133.5C 46.1667,133.5 48.8333,133.5 51.5,133.5 Z"/></g>
<g><path style="opacity:1" fill="#1b1815" d="M 68.5,144.5 C 70.7354,144.205 72.7354,144.539 74.5,145.5C 76.064,149.674 76.7306,154.007 76.5,158.5C 76.2249,160.758 75.2249,161.092 73.5,159.5C 71.4902,161.171 69.1569,161.838 66.5,161.5C 66.5,160.5 66.5,159.5 66.5,158.5C 69.1268,158.707 70.7935,157.54 71.5,155C 69.9431,151.367 68.9431,147.867 68.5,144.5 Z"/></g>
<g><path style="opacity:1" fill="#f2f1f1" d="M 93.5,142.5 C 94.3382,142.842 94.6716,143.508 94.5,144.5C 96.2646,145.461 98.2646,145.795 100.5,145.5C 102.058,149.608 102.724,153.941 102.5,158.5C 93.8333,158.5 85.1667,158.5 76.5,158.5C 76.7306,154.007 76.064,149.674 74.5,145.5C 77.1873,145.664 79.854,145.497 82.5,145C 83.2524,144.329 83.5858,143.496 83.5,142.5C 86.8333,141.167 90.1667,141.167 93.5,142.5 Z"/></g>
<g><path style="opacity:1" fill="#a43a00" d="M 107.5,150.5 C 107.167,150.5 106.833,150.5 106.5,150.5C 105.522,150.189 104.855,149.522 104.5,148.5C 107.778,146.849 108.778,147.515 107.5,150.5 Z"/></g>
<g><path style="opacity:1" fill="#efefef" d="M 147.5,119.5 C 147.5,119.167 147.5,118.833 147.5,118.5C 152.833,118.5 158.167,118.5 163.5,118.5C 163.5,123.5 163.5,128.5 163.5,133.5C 167.833,133.5 172.167,133.5 176.5,133.5C 176.5,138.5 176.5,143.5 176.5,148.5C 172.167,148.5 167.833,148.5 163.5,148.5C 163.5,153.5 163.5,158.5 163.5,163.5C 158.5,163.5 153.5,163.5 148.5,163.5C 148.5,158.5 148.5,153.5 148.5,148.5C 143.5,148.5 138.5,148.5 133.5,148.5C 133.5,143.5 133.5,138.5 133.5,133.5C 130.833,133.5 128.167,133.5 125.5,133.5C 124.28,131.716 124.28,130.05 125.5,128.5C 126.879,130.597 128.545,130.93 130.5,129.5C 131.708,128.766 133.041,128.433 134.5,128.5C 136.948,129.473 139.615,129.806 142.5,129.5C 143.833,128.833 145.167,128.167 146.5,127.5C 148.026,126.508 148.693,125.008 148.5,123C 148.486,121.615 148.152,120.449 147.5,119.5 Z"/></g>
<g><path style="opacity:1" fill="#cb93af" d="M 76.5,158.5 C 85.1667,158.5 93.8333,158.5 102.5,158.5C 103.211,160.842 104.544,161.175 106.5,159.5C 108.429,159.231 110.095,159.731 111.5,161C 110.833,161.333 110.167,161.667 109.5,162C 96.5043,162.5 83.5043,162.667 70.5,162.5C 68.901,162.768 67.5676,162.434 66.5,161.5C 69.1569,161.838 71.4902,161.171 73.5,159.5C 75.2249,161.092 76.2249,160.758 76.5,158.5 Z"/></g>
<g><path style="opacity:1" fill="#f5f4f4" d="M 125.5,133.5 C 128.167,133.5 130.833,133.5 133.5,133.5C 133.5,138.5 133.5,143.5 133.5,148.5C 138.5,148.5 143.5,148.5 148.5,148.5C 148.5,153.5 148.5,158.5 148.5,163.5C 153.5,163.5 158.5,163.5 163.5,163.5C 163.5,158.5 163.5,153.5 163.5,148.5C 167.833,148.5 172.167,148.5 176.5,148.5C 176.5,157.5 176.5,166.5 176.5,175.5C 142.167,175.5 107.833,175.5 73.5,175.5C 73.5,171.5 73.5,167.5 73.5,163.5C 72.209,163.737 71.209,163.404 70.5,162.5C 83.5043,162.667 96.5043,162.5 109.5,162C 110.167,161.667 110.833,161.333 111.5,161C 110.095,159.731 108.429,159.231 106.5,159.5C 106.5,156.5 106.5,153.5 106.5,150.5C 106.833,150.5 107.167,150.5 107.5,150.5C 109.805,148.955 110.138,146.955 108.5,144.5C 112.841,144.038 116.841,142.704 120.5,140.5C 122.404,140.262 123.738,139.262 124.5,137.5C 125.434,136.432 125.768,135.099 125.5,133.5 Z"/></g>
</svg>
