<?xml version="1.0" encoding="UTF-8"?>
<!DOCTYPE svg PUBLIC "-//W3C//DTD SVG 1.1//EN" "http://www.w3.org/Graphics/SVG/1.1/DTD/svg11.dtd">
<svg xmlns="http://www.w3.org/2000/svg" version="1.1" width="169px" height="150px" style="shape-rendering:geometricPrecision; text-rendering:geometricPrecision; image-rendering:optimizeQuality; fill-rule:evenodd; clip-rule:evenodd" xmlns:xlink="http://www.w3.org/1999/xlink">
<g><path style="opacity:1" fill="#f0f7fc" d="M -0.5,-0.5 C 11.8333,-0.5 24.1667,-0.5 36.5,-0.5C 36.3893,0.117425 36.056,0.617425 35.5,1C 41.718,1.42958 42.0513,2.92958 36.5,5.5C 34.2573,6.47423 31.924,6.80756 29.5,6.5C 29.4519,9.31282 28.7853,11.9795 27.5,14.5C 27.9569,15.2975 28.6236,15.6309 29.5,15.5C 26.0584,16.7479 22.3917,17.5812 18.5,18C 16.9336,18.6082 15.6002,19.4415 14.5,20.5C 10.0321,23.777 5.03208,26.1103 -0.5,27.5C -0.5,18.1667 -0.5,8.83333 -0.5,-0.5 Z"/></g>
<g><path style="opacity:1" fill="#f4f8fd" d="M 36.5,-0.5 C 47.1667,-0.5 57.8333,-0.5 68.5,-0.5C 68.6309,0.376442 68.2975,1.04311 67.5,1.5C 64.5869,0.251405 63.9203,1.08474 65.5,4C 63.6023,6.86067 62.6023,10.0273 62.5,13.5C 51.4204,13.2178 40.4204,13.8845 29.5,15.5C 28.6236,15.6309 27.9569,15.2975 27.5,14.5C 28.7853,11.9795 29.4519,9.31282 29.5,6.5C 31.924,6.80756 34.2573,6.47423 36.5,5.5C 42.0513,2.92958 41.718,1.42958 35.5,1C 36.056,0.617425 36.3893,0.117425 36.5,-0.5 Z"/></g>
<g><path style="opacity:1" fill="#7ebce5" d="M 128.5,-0.5 C 131.833,-0.5 135.167,-0.5 138.5,-0.5C 134.963,3.03033 131.297,5.697 127.5,7.5C 128.351,10.6124 129.517,10.9458 131,8.5C 131.333,9.16667 131.667,9.83333 132,10.5C 133.745,8.25073 135.912,6.58406 138.5,5.5C 139.531,4.29966 140.365,2.96632 141,1.5C 141.257,4.01684 140.59,6.35017 139,8.5C 134.834,11.508 132.001,15.508 130.5,20.5C 129.653,18.939 129.986,17.439 131.5,16C 130.906,15.5357 130.239,15.369 129.5,15.5C 129.5,14.5 129.5,13.5 129.5,12.5C 127.176,12.9949 125.009,12.9949 123,12.5C 121.403,13.8847 119.57,14.5514 117.5,14.5C 117.229,10.3638 118.396,6.69717 121,3.5C 121.383,4.05596 121.883,4.38929 122.5,4.5C 121.194,6.81621 119.861,9.14955 118.5,11.5C 119.002,12.521 119.668,12.6877 120.5,12C 123.648,8.80535 125.648,4.97202 126.5,0.5C 127.492,0.67158 128.158,0.338246 128.5,-0.5 Z"/></g>
<g><path style="opacity:1" fill="#ebf9fc" d="M 68.5,-0.5 C 71.1667,-0.5 73.8333,-0.5 76.5,-0.5C 76.8333,1.5 77.1667,3.5 77.5,5.5C 83.3239,5.65341 83.6572,4.98674 78.5,3.5C 78.8333,3.16667 79.1667,2.83333 79.5,2.5C 80.7362,3.24585 82.0695,3.57918 83.5,3.5C 83.4326,2.04125 83.7659,0.707917 84.5,-0.5C 89.8333,-0.5 95.1667,-0.5 100.5,-0.5C 101.347,0.96626 102.68,1.79959 104.5,2C 101.833,2.33333 99.1667,2.66667 96.5,3C 97.8333,3.33333 99.1667,3.66667 100.5,4C 96.6305,5.28682 92.9638,6.95349 89.5,9C 89.9574,9.41395 90.2907,9.91395 90.5,10.5C 89.3875,12.4192 88.0542,14.0858 86.5,15.5C 85.2921,16.2341 83.9587,16.5674 82.5,16.5C 76.909,16.5133 71.5757,15.5133 66.5,13.5C 58.0705,13.9765 49.7372,14.9765 41.5,16.5C 32.421,17.26 23.421,18.5933 14.5,20.5C 15.6002,19.4415 16.9336,18.6082 18.5,18C 22.3917,17.5812 26.0584,16.7479 29.5,15.5C 40.4204,13.8845 51.4204,13.2178 62.5,13.5C 62.6023,10.0273 63.6023,6.86067 65.5,4C 63.9203,1.08474 64.5869,0.251405 67.5,1.5C 68.2975,1.04311 68.6309,0.376442 68.5,-0.5 Z"/></g>
<g><path style="opacity:1" fill="#a9ccd7" d="M 76.5,-0.5 C 79.1667,-0.5 81.8333,-0.5 84.5,-0.5C 83.7659,0.707917 83.4326,2.04125 83.5,3.5C 82.0695,3.57918 80.7362,3.24585 79.5,2.5C 79.1667,2.83333 78.8333,3.16667 78.5,3.5C 83.6572,4.98674 83.3239,5.65341 77.5,5.5C 77.1667,3.5 76.8333,1.5 76.5,-0.5 Z"/></g>
<g><path style="opacity:1" fill="#92c9ec" d="M 148.5,-0.5 C 151.167,-0.5 153.833,-0.5 156.5,-0.5C 155.679,2.30627 154.012,4.47294 151.5,6C 153.016,7.89699 153.683,10.0637 153.5,12.5C 152.325,12.281 151.325,12.6143 150.5,13.5C 151.428,14.7678 151.595,16.1011 151,17.5C 148.418,19.2278 146.918,21.5611 146.5,24.5C 142.266,25.4913 139.266,27.9913 137.5,32C 137.728,32.3988 138.062,32.5654 138.5,32.5C 139.354,34.035 139.354,35.3684 138.5,36.5C 137.541,32.5535 135.208,29.8869 131.5,28.5C 131.5,28.1667 131.5,27.8333 131.5,27.5C 133.017,27.4894 134.184,26.8228 135,25.5C 135.333,26.1667 135.667,26.8333 136,27.5C 137.201,24.2899 139.201,21.6233 142,19.5C 144.091,20.4996 145.757,19.8329 147,17.5C 147.667,15.8333 147.667,14.1667 147,12.5C 144.731,14.9301 142.231,16.2634 139.5,16.5C 142.466,14.431 145.299,12.0977 148,9.5C 149.241,8.12334 149.408,6.79001 148.5,5.5C 142.311,10.1262 140.811,9.1262 144,2.5C 145.409,1.21886 146.909,0.218865 148.5,-0.5 Z"/></g>
<g><path style="opacity:1" fill="#d4fafd" d="M 126.5,0.5 C 125.648,4.97202 123.648,8.80535 120.5,12C 119.668,12.6877 119.002,12.521 118.5,11.5C 119.861,9.14955 121.194,6.81621 122.5,4.5C 123.5,2.83333 124.833,1.5 126.5,0.5 Z"/></g>
<g><path style="opacity:1" fill="#417389" d="M 75.5,8.5 C 76.552,8.35055 77.552,8.51722 78.5,9C 75.0998,14.9743 74.0998,14.8077 75.5,8.5 Z"/></g>
<g><path style="opacity:1" fill="#e8f9fc" d="M 138.5,-0.5 C 141.833,-0.5 145.167,-0.5 148.5,-0.5C 146.909,0.218865 145.409,1.21886 144,2.5C 140.811,9.1262 142.311,10.1262 148.5,5.5C 149.408,6.79001 149.241,8.12334 148,9.5C 145.299,12.0977 142.466,14.431 139.5,16.5C 142.231,16.2634 144.731,14.9301 147,12.5C 147.667,14.1667 147.667,15.8333 147,17.5C 145.757,19.8329 144.091,20.4996 142,19.5C 139.201,21.6233 137.201,24.2899 136,27.5C 135.667,26.8333 135.333,26.1667 135,25.5C 134.184,26.8228 133.017,27.4894 131.5,27.5C 130.167,27.1667 128.833,26.8333 127.5,26.5C 128.75,24.032 128.583,21.6987 127,19.5C 125.89,21.3969 125.724,23.2302 126.5,25C 125.035,25.6013 124.035,25.1013 123.5,23.5C 124.089,20.7238 125.422,18.3904 127.5,16.5C 128.944,17.981 129.611,17.6477 129.5,15.5C 130.239,15.369 130.906,15.5357 131.5,16C 129.986,17.439 129.653,18.939 130.5,20.5C 132.001,15.508 134.834,11.508 139,8.5C 140.59,6.35017 141.257,4.01684 141,1.5C 140.365,2.96632 139.531,4.29966 138.5,5.5C 135.912,6.58406 133.745,8.25073 132,10.5C 131.667,9.83333 131.333,9.16667 131,8.5C 129.517,10.9458 128.351,10.6124 127.5,7.5C 131.297,5.697 134.963,3.03033 138.5,-0.5 Z"/></g>
<g><path style="opacity:1" fill="#70bbe8" d="M 100.5,-0.5 C 102.833,-0.5 105.167,-0.5 107.5,-0.5C 107.245,0.936101 106.912,2.4361 106.5,4C 105.354,4.64494 104.354,5.47827 103.5,6.5C 102.188,5.53964 100.854,5.70631 99.5,7C 99.715,9.0258 100.715,11.0258 102.5,13C 100.906,15.3068 101.572,16.6402 104.5,17C 102.944,17.7202 101.944,18.8868 101.5,20.5C 95.9751,19.7699 90.9751,18.1032 86.5,15.5C 88.0542,14.0858 89.3875,12.4192 90.5,10.5C 90.2907,9.91395 89.9574,9.41395 89.5,9C 92.9638,6.95349 96.6305,5.28682 100.5,4C 99.1667,3.66667 97.8333,3.33333 96.5,3C 99.1667,2.66667 101.833,2.33333 104.5,2C 102.68,1.79959 101.347,0.96626 100.5,-0.5 Z"/></g>
<g><path style="opacity:1" fill="#4aaae7" d="M 107.5,-0.5 C 114.5,-0.5 121.5,-0.5 128.5,-0.5C 128.158,0.338246 127.492,0.67158 126.5,0.5C 124.833,1.5 123.5,2.83333 122.5,4.5C 121.883,4.38929 121.383,4.05596 121,3.5C 118.396,6.69717 117.229,10.3638 117.5,14.5C 119.57,14.5514 121.403,13.8847 123,12.5C 125.009,12.9949 127.176,12.9949 129.5,12.5C 129.5,13.5 129.5,14.5 129.5,15.5C 129.611,17.6477 128.944,17.981 127.5,16.5C 125.422,18.3904 124.089,20.7238 123.5,23.5C 124.035,25.1013 125.035,25.6013 126.5,25C 125.724,23.2302 125.89,21.3969 127,19.5C 128.583,21.6987 128.75,24.032 127.5,26.5C 122.833,25.8333 118.167,25.1667 113.5,24.5C 113.158,23.6618 112.492,23.3284 111.5,23.5C 108.257,22.5095 104.924,21.5095 101.5,20.5C 101.944,18.8868 102.944,17.7202 104.5,17C 101.572,16.6402 100.906,15.3068 102.5,13C 100.715,11.0258 99.715,9.0258 99.5,7C 100.854,5.70631 102.188,5.53964 103.5,6.5C 104.354,5.47827 105.354,4.64494 106.5,4C 106.912,2.4361 107.245,0.936101 107.5,-0.5 Z"/></g>
<g><path style="opacity:1" fill="#7ec0e4" d="M 82.5,16.5 C 87.2145,18.5045 91.8812,20.5045 96.5,22.5C 87.2921,20.3493 77.9588,19.516 68.5,20C 65.3659,21.1651 62.1992,22.3317 59,23.5C 57.6124,22.4464 56.1124,22.2797 54.5,23C 51.2016,24.8935 47.8682,26.7268 44.5,28.5C 37.3316,29.334 30.4982,31.334 24,34.5C 24.6804,31.1506 26.8471,28.9839 30.5,28C 28.5,28 26.5,28 24.5,28C 25.7588,27.0766 27.0921,26.2432 28.5,25.5C 28.3764,24.8933 28.0431,24.56 27.5,24.5C 32.4266,22.3676 37.0932,19.701 41.5,16.5C 49.7372,14.9765 58.0705,13.9765 66.5,13.5C 71.5757,15.5133 76.909,16.5133 82.5,16.5 Z"/></g>
<g><path style="opacity:1" fill="#4fa8d6" d="M 96.5,22.5 C 98.7354,22.2053 100.735,22.5386 102.5,23.5C 97.5586,23.7318 92.7252,23.7318 88,23.5C 83.006,25.9297 77.6727,26.9297 72,26.5C 67.8118,26.3937 63.6452,26.0604 59.5,25.5C 55.8403,27.1612 52.0069,28.4945 48,29.5C 46.8615,29.0109 45.6948,28.6775 44.5,28.5C 47.8682,26.7268 51.2016,24.8935 54.5,23C 56.1124,22.2797 57.6124,22.4464 59,23.5C 62.1992,22.3317 65.3659,21.1651 68.5,20C 77.9588,19.516 87.2921,20.3493 96.5,22.5 Z"/></g>
<g><path style="opacity:1" fill="#aee1fd" d="M 86.5,15.5 C 90.9751,18.1032 95.9751,19.7699 101.5,20.5C 104.924,21.5095 108.257,22.5095 111.5,23.5C 108.5,23.5 105.5,23.5 102.5,23.5C 100.735,22.5386 98.7354,22.2053 96.5,22.5C 91.8812,20.5045 87.2145,18.5045 82.5,16.5C 83.9587,16.5674 85.2921,16.2341 86.5,15.5 Z"/></g>
<g><path style="opacity:1" fill="#89c7e2" d="M 41.5,16.5 C 37.0932,19.701 32.4266,22.3676 27.5,24.5C 23.0044,27.0747 18.3377,29.5747 13.5,32C 11.1902,32.4966 8.85684,32.6633 6.5,32.5C 5.63075,36.3739 3.29742,39.0406 -0.5,40.5C -0.5,36.1667 -0.5,31.8333 -0.5,27.5C 5.03208,26.1103 10.0321,23.777 14.5,20.5C 23.421,18.5933 32.421,17.26 41.5,16.5 Z"/></g>
<g><path style="opacity:1" fill="#1e87b4" d="M 102.5,23.5 C 105.5,23.5 108.5,23.5 111.5,23.5C 112.492,23.3284 113.158,23.6618 113.5,24.5C 108.926,24.9143 104.426,25.581 100,26.5C 97.3333,23.8333 94.6667,23.8333 92,26.5C 90.9505,25.4829 89.7839,25.3162 88.5,26C 88.8333,26.3333 89.1667,26.6667 89.5,27C 79.4765,27.3345 69.4765,28.0012 59.5,29C 57.6031,30.1097 55.7698,30.2764 54,29.5C 51.3673,30.7525 48.8673,32.0858 46.5,33.5C 42.8683,35.3048 39.3683,37.3048 36,39.5C 35.6667,38.8333 35.3333,38.1667 35,37.5C 33.8333,38.6667 32.6667,39.8333 31.5,41C 30.2161,41.6838 29.0495,41.5171 28,40.5C 27.6258,41.4162 27.1258,42.2496 26.5,43C 24.5,43.3333 22.5,43.6667 20.5,44C 21.938,44.2189 23.2713,44.7189 24.5,45.5C 24.3333,45.8333 24.1667,46.1667 24,46.5C 22.9505,45.4829 21.7839,45.3162 20.5,46C 16.9658,48.4124 13.2991,50.5791 9.5,52.5C 8.70245,52.0431 8.36912,51.3764 8.5,50.5C 7.89197,47.7071 8.55864,45.0405 10.5,42.5C 11.5,42.5 12.5,42.5 13.5,42.5C 13.2627,41.209 13.596,40.209 14.5,39.5C 15.3984,40.1577 16.3984,40.8243 17.5,41.5C 16.5223,44.9963 17.3556,45.3296 20,42.5C 20.2022,40.7444 20.7022,39.0777 21.5,37.5C 22.086,37.7093 22.586,38.0426 23,38.5C 24.1667,37.3333 25.3333,36.1667 26.5,35C 30.3605,33.2411 34.3605,31.7411 38.5,30.5C 40.7471,31.0653 42.7471,30.3987 44.5,28.5C 45.6948,28.6775 46.8615,29.0109 48,29.5C 52.0069,28.4945 55.8403,27.1612 59.5,25.5C 63.6452,26.0604 67.8118,26.3937 72,26.5C 77.6727,26.9297 83.006,25.9297 88,23.5C 92.7252,23.7318 97.5586,23.7318 102.5,23.5 Z"/></g>
<g><path style="opacity:1" fill="#63bdf0" d="M 156.5,-0.5 C 156.833,-0.5 157.167,-0.5 157.5,-0.5C 157.061,2.81759 157.061,5.98426 157.5,9C 157.231,10.6075 156.397,11.7741 155,12.5C 154.744,15.557 154.244,18.557 153.5,21.5C 152.009,22.2436 150.509,22.9103 149,23.5C 148.604,26.6964 147.438,29.5297 145.5,32C 144.551,32.6172 143.718,32.4506 143,31.5C 141.691,33.8912 140.691,33.8912 140,31.5C 139.617,32.056 139.117,32.3893 138.5,32.5C 138.062,32.5654 137.728,32.3988 137.5,32C 139.266,27.9913 142.266,25.4913 146.5,24.5C 146.918,21.5611 148.418,19.2278 151,17.5C 151.595,16.1011 151.428,14.7678 150.5,13.5C 151.325,12.6143 152.325,12.281 153.5,12.5C 153.683,10.0637 153.016,7.89699 151.5,6C 154.012,4.47294 155.679,2.30627 156.5,-0.5 Z"/></g>
<g><path style="opacity:1" fill="#44aceb" d="M 157.5,-0.5 C 161.167,-0.5 164.833,-0.5 168.5,-0.5C 168.5,9.83333 168.5,20.1667 168.5,30.5C 167.027,31.0715 165.36,31.0715 163.5,30.5C 162.732,26.861 162.066,27.1943 161.5,31.5C 162.552,31.3505 163.552,31.5172 164.5,32C 158.32,31.5132 154.82,34.3465 154,40.5C 153.5,40 153,39.5 152.5,39C 153.602,36.5991 153.769,34.0991 153,31.5C 149.263,35.1259 145.096,37.1259 140.5,37.5C 140.649,40.6074 140.149,43.6074 139,46.5C 138.536,45.9056 138.369,45.2389 138.5,44.5C 138.5,42.1667 138.5,39.8333 138.5,37.5C 138.5,37.1667 138.5,36.8333 138.5,36.5C 139.354,35.3684 139.354,34.035 138.5,32.5C 139.117,32.3893 139.617,32.056 140,31.5C 140.691,33.8912 141.691,33.8912 143,31.5C 143.718,32.4506 144.551,32.6172 145.5,32C 147.438,29.5297 148.604,26.6964 149,23.5C 150.509,22.9103 152.009,22.2436 153.5,21.5C 154.244,18.557 154.744,15.557 155,12.5C 156.397,11.7741 157.231,10.6075 157.5,9C 157.061,5.98426 157.061,2.81759 157.5,-0.5 Z"/></g>
<g><path style="opacity:1" fill="#056c9d" d="M 113.5,24.5 C 118.167,25.1667 122.833,25.8333 127.5,26.5C 128.833,26.8333 130.167,27.1667 131.5,27.5C 131.5,27.8333 131.5,28.1667 131.5,28.5C 128.518,28.0371 125.518,27.7038 122.5,27.5C 120.525,27.8222 118.858,27.8222 117.5,27.5C 112.684,26.3503 107.684,26.1837 102.5,27C 95.9402,28.6138 89.2735,29.7805 82.5,30.5C 83.981,31.944 83.6477,32.6106 81.5,32.5C 81.5,32.1667 81.5,31.8333 81.5,31.5C 71.7931,30.186 62.1264,30.5194 52.5,32.5C 51.8333,32.5 51.5,32.8333 51.5,33.5C 49.8333,33.5 48.1667,33.5 46.5,33.5C 48.8673,32.0858 51.3673,30.7525 54,29.5C 55.7698,30.2764 57.6031,30.1097 59.5,29C 69.4765,28.0012 79.4765,27.3345 89.5,27C 89.1667,26.6667 88.8333,26.3333 88.5,26C 89.7839,25.3162 90.9505,25.4829 92,26.5C 94.6667,23.8333 97.3333,23.8333 100,26.5C 104.426,25.581 108.926,24.9143 113.5,24.5 Z"/></g>
<g><path style="opacity:1" fill="#3e94bc" d="M 27.5,24.5 C 28.0431,24.56 28.3764,24.8933 28.5,25.5C 27.0921,26.2432 25.7588,27.0766 24.5,28C 26.5,28 28.5,28 30.5,28C 26.8471,28.9839 24.6804,31.1506 24,34.5C 30.4982,31.334 37.3316,29.334 44.5,28.5C 42.7471,30.3987 40.7471,31.0653 38.5,30.5C 34.3605,31.7411 30.3605,33.2411 26.5,35C 25.3333,36.1667 24.1667,37.3333 23,38.5C 22.586,38.0426 22.086,37.7093 21.5,37.5C 20.7022,39.0777 20.2022,40.7444 20,42.5C 17.3556,45.3296 16.5223,44.9963 17.5,41.5C 16.3984,40.8243 15.3984,40.1577 14.5,39.5C 14.9382,39.5654 15.2716,39.3988 15.5,39C 13.6147,34.5354 11.4481,34.3688 9,38.5C 8.66667,38.1667 8.33333,37.8333 8,37.5C 7.51722,38.448 7.35055,39.448 7.5,40.5C 5.71199,40.2148 4.04533,40.5481 2.5,41.5C 1.86409,43.78 0.864091,45.78 -0.5,47.5C -0.5,45.1667 -0.5,42.8333 -0.5,40.5C 3.29742,39.0406 5.63075,36.3739 6.5,32.5C 8.85684,32.6633 11.1902,32.4966 13.5,32C 18.3377,29.5747 23.0044,27.0747 27.5,24.5 Z"/></g>
<g><path style="opacity:1" fill="#003760" d="M 117.5,27.5 C 118.858,27.8222 120.525,27.8222 122.5,27.5C 122.389,28.1174 122.056,28.6174 121.5,29C 114.126,29.9753 106.792,31.142 99.5,32.5C 99.7135,34.1439 99.3802,35.6439 98.5,37C 100.058,37.21 101.391,37.71 102.5,38.5C 102.631,39.2389 102.464,39.9056 102,40.5C 101.346,39.3044 100.846,39.3044 100.5,40.5C 101.811,41.2575 102.311,42.2575 102,43.5C 100.044,43.2155 97.8771,43.2155 95.5,43.5C 94.5244,42.1851 93.5244,40.8518 92.5,39.5C 92.8457,38.3044 93.3457,38.3044 94,39.5C 94.6667,37.5 94.6667,35.5 94,33.5C 92.6012,33.5012 91.1012,33.8346 89.5,34.5C 88.5,34 87.5,33.5 86.5,33C 92.1109,31.7563 97.7776,30.7563 103.5,30C 105.329,29.7265 106.829,28.8932 108,27.5C 111.047,27.9288 114.214,27.9288 117.5,27.5 Z"/></g>
<g><path style="opacity:1" fill="#00517f" d="M 81.5,31.5 C 79.7988,31.9662 78.2988,31.9662 77,31.5C 74.5096,31.9893 72.6763,33.3227 71.5,35.5C 71.8333,35.8333 72.1667,36.1667 72.5,36.5C 73.2164,35.689 74.0497,35.0223 75,34.5C 76.3333,35.8333 77.6667,35.8333 79,34.5C 80.0588,34.6301 80.8921,35.1301 81.5,36C 80.2624,35.9227 79.2624,36.0894 78.5,36.5C 80.9772,38.205 82.3106,40.205 82.5,42.5C 78.7216,45.4739 74.5549,47.8072 70,49.5C 68.9412,49.3699 68.1079,48.8699 67.5,48C 71.0077,44.5452 71.1744,41.0452 68,37.5C 67.79,39.0581 67.29,40.3915 66.5,41.5C 66.4431,40.391 66.1098,39.391 65.5,38.5C 65.0609,36.6653 63.7275,35.1653 61.5,34C 58.5682,33.0467 55.5682,32.5467 52.5,32.5C 62.1264,30.5194 71.7931,30.186 81.5,31.5 Z"/></g>
<g><path style="opacity:1" fill="#014d79" d="M 117.5,27.5 C 114.214,27.9288 111.047,27.9288 108,27.5C 106.829,28.8932 105.329,29.7265 103.5,30C 97.7776,30.7563 92.1109,31.7563 86.5,33C 87.5,33.5 88.5,34 89.5,34.5C 91.1012,33.8346 92.6012,33.5012 94,33.5C 94.6667,35.5 94.6667,37.5 94,39.5C 93.3457,38.3044 92.8457,38.3044 92.5,39.5C 93.5244,40.8518 94.5244,42.1851 95.5,43.5C 94.5222,43.811 93.8555,44.4777 93.5,45.5C 95.1851,47.5707 96.8518,49.5707 98.5,51.5C 97.1667,51.5 95.8333,51.5 94.5,51.5C 92.5337,50.7455 92.2004,49.5788 93.5,48C 89.3323,47.353 87.6656,45.1864 88.5,41.5C 89.376,40.7492 90.376,40.2492 91.5,40C 89.7254,38.5611 87.7254,37.5611 85.5,37C 86.9561,36.5774 87.4561,35.7441 87,34.5C 85.2453,35.67 84.2453,37.3367 84,39.5C 83.0093,37.1924 82.176,34.8591 81.5,32.5C 83.6477,32.6106 83.981,31.944 82.5,30.5C 89.2735,29.7805 95.9402,28.6138 102.5,27C 107.684,26.1837 112.684,26.3503 117.5,27.5 Z"/></g>
<g><path style="opacity:1" fill="#002549" d="M 122.5,27.5 C 125.518,27.7038 128.518,28.0371 131.5,28.5C 130.398,30.0919 131.065,30.9252 133.5,31C 137.635,35.114 137.135,37.614 132,38.5C 129.667,39.8333 127.333,41.1667 125,42.5C 123.915,41.7069 122.748,41.0402 121.5,40.5C 116.55,43.6546 112.217,42.9879 108.5,38.5C 107.304,38.8457 107.304,39.3457 108.5,40C 107.128,40.4017 105.795,40.9017 104.5,41.5C 103.824,40.3984 103.158,39.3984 102.5,38.5C 101.391,37.71 100.058,37.21 98.5,37C 99.3802,35.6439 99.7135,34.1439 99.5,32.5C 106.792,31.142 114.126,29.9753 121.5,29C 122.056,28.6174 122.389,28.1174 122.5,27.5 Z"/></g>
<g><path style="opacity:1" fill="#00275a" d="M 131.5,28.5 C 135.208,29.8869 137.541,32.5535 138.5,36.5C 138.5,36.8333 138.5,37.1667 138.5,37.5C 137.698,38.9516 137.198,40.6183 137,42.5C 135.316,40.5406 133.316,40.5406 131,42.5C 130.586,42.0426 130.086,41.7093 129.5,41.5C 127.297,43.2954 126.131,45.6288 126,48.5C 125.653,46.8198 124.653,45.8198 123,45.5C 117.938,46.1395 113.105,47.4728 108.5,49.5C 106.5,49.5 104.5,49.5 102.5,49.5C 103.791,44.5852 102.791,44.4185 99.5,49C 100.8,50.5788 100.466,51.7455 98.5,52.5C 98.5,52.1667 98.5,51.8333 98.5,51.5C 96.8518,49.5707 95.1851,47.5707 93.5,45.5C 93.8555,44.4777 94.5222,43.811 95.5,43.5C 97.8771,43.2155 100.044,43.2155 102,43.5C 102.311,42.2575 101.811,41.2575 100.5,40.5C 100.846,39.3044 101.346,39.3044 102,40.5C 102.464,39.9056 102.631,39.2389 102.5,38.5C 103.158,39.3984 103.824,40.3984 104.5,41.5C 105.795,40.9017 107.128,40.4017 108.5,40C 107.304,39.3457 107.304,38.8457 108.5,38.5C 112.217,42.9879 116.55,43.6546 121.5,40.5C 122.748,41.0402 123.915,41.7069 125,42.5C 127.333,41.1667 129.667,39.8333 132,38.5C 137.135,37.614 137.635,35.114 133.5,31C 131.065,30.9252 130.398,30.0919 131.5,28.5 Z"/></g>
<g><path style="opacity:1" fill="#00426d" d="M 52.5,32.5 C 55.5682,32.5467 58.5682,33.0467 61.5,34C 63.7275,35.1653 65.0609,36.6653 65.5,38.5C 60.3416,40.1372 59.3416,43.1372 62.5,47.5C 62.0814,48.6721 61.4147,49.6721 60.5,50.5C 60.5282,48.4146 60.1949,46.0813 59.5,43.5C 58.1667,43.5 56.8333,43.5 55.5,43.5C 55.6715,45.4918 55.0049,47.1585 53.5,48.5C 55.1667,48.5 56.8333,48.5 58.5,48.5C 57.6872,49.8139 56.6872,50.9805 55.5,52C 56.1667,52.6667 56.8333,53.3333 57.5,54C 60.6812,54.5971 63.6812,54.0971 66.5,52.5C 63.5854,54.5871 61.0854,57.2538 59,60.5C 58.6667,59.8333 58.3333,59.1667 58,58.5C 56.764,60.5384 54.9306,61.7051 52.5,62C 53.056,62.3826 53.3893,62.8826 53.5,63.5C 50.2621,64.6332 46.9288,65.4666 43.5,66C 42.944,66.3826 42.6107,66.8826 42.5,67.5C 42.1667,67.5 41.8333,67.5 41.5,67.5C 40.7101,66.2058 39.7101,65.0391 38.5,64C 39.6667,63.5 40.5,62.6667 41,61.5C 45.2733,64.7779 47.7733,63.7779 48.5,58.5C 50.1238,58.3601 51.2904,59.0267 52,60.5C 53.6157,58.7805 55.1157,57.1138 56.5,55.5C 53.1773,54.705 50.6773,52.3716 49,48.5C 48.51,49.7932 48.3433,51.1266 48.5,52.5C 47.1266,52.3433 45.7932,52.51 44.5,53C 45.8333,53.6667 45.8333,54.3333 44.5,55C 42.1009,55.711 39.7676,55.5443 37.5,54.5C 36.8333,55.5 36.1667,56.5 35.5,57.5C 32.3761,55.9057 29.8761,56.5724 28,59.5C 27.6924,58.6919 27.1924,58.0253 26.5,57.5C 25.5713,58.6888 25.238,60.0222 25.5,61.5C 23.0108,61.2978 20.6775,61.7978 18.5,63C 17.8753,64.6395 17.8753,66.4729 18.5,68.5C 17.4019,69.397 17.4019,70.2303 18.5,71C 13.8849,72.3142 12.8849,71.3142 15.5,68C 14.9221,66.583 13.9221,65.7496 12.5,65.5C 11.2617,65.19 11.2617,64.69 12.5,64C 14.1341,63.5065 15.8008,63.3398 17.5,63.5C 17.4415,60.3771 16.1082,58.0437 13.5,56.5C 9.61853,57.382 5.95186,58.7153 2.5,60.5C 1.91395,60.2907 1.41395,59.9574 1,59.5C 0.76791,60.7375 0.26791,61.7375 -0.5,62.5C -0.5,59.5 -0.5,56.5 -0.5,53.5C 2.62086,52.3419 5.4542,50.6752 8,48.5C 8.46434,49.0944 8.63101,49.7611 8.5,50.5C 7.02703,51.7401 5.36036,52.7401 3.5,53.5C 2.16667,54.1667 2.16667,54.8333 3.5,55.5C 6.53156,56.6892 9.86489,56.6892 13.5,55.5C 15.9264,56.0215 17.7597,57.3549 19,59.5C 22.3906,58.9422 24.2239,56.9422 24.5,53.5C 26.1932,52.7717 27.6932,51.7717 29,50.5C 29.3333,51.1667 29.6667,51.8333 30,52.5C 31.4194,51.5399 32.9194,50.7065 34.5,50C 33.2161,49.3162 32.0495,49.4829 31,50.5C 30.8333,50 30.6667,49.5 30.5,49C 31.5794,45.8918 33.2461,45.2252 35.5,47C 34.8333,47.3333 34.1667,47.6667 33.5,48C 37.397,48.3 40.897,49.4667 44,51.5C 44.6667,49.8333 44.6667,48.1667 44,46.5C 43.6667,46.8333 43.3333,47.1667 43,47.5C 37.2665,45.487 37.7665,44.487 44.5,44.5C 43.7517,42.4159 43.7517,40.4159 44.5,38.5C 47.0765,37.0569 49.4099,35.3902 51.5,33.5C 51.5,32.8333 51.8333,32.5 52.5,32.5 Z"/></g>
<g><path style="opacity:1" fill="#003c69" d="M 81.5,31.5 C 81.5,31.8333 81.5,32.1667 81.5,32.5C 82.176,34.8591 83.0093,37.1924 84,39.5C 84.2453,37.3367 85.2453,35.67 87,34.5C 87.4561,35.7441 86.9561,36.5774 85.5,37C 87.7254,37.5611 89.7254,38.5611 91.5,40C 90.376,40.2492 89.376,40.7492 88.5,41.5C 87.6656,45.1864 89.3323,47.353 93.5,48C 92.2004,49.5788 92.5337,50.7455 94.5,51.5C 94.1667,52.5 93.5,53.1667 92.5,53.5C 88.2133,54.6954 83.88,54.6954 79.5,53.5C 78.9473,49.5443 78.1139,49.5443 77,53.5C 76.3333,52.1667 75.6667,52.1667 75,53.5C 74.6667,54.5 74.3333,55.5 74,56.5C 73.3292,55.7476 72.4959,55.4142 71.5,55.5C 73.1859,52.4633 72.1859,51.13 68.5,51.5C 67.36,50.1986 66.0267,49.0319 64.5,48C 66.0163,46.103 66.683,43.9363 66.5,41.5C 67.29,40.3915 67.79,39.0581 68,37.5C 71.1744,41.0452 71.0077,44.5452 67.5,48C 68.1079,48.8699 68.9412,49.3699 70,49.5C 74.5549,47.8072 78.7216,45.4739 82.5,42.5C 82.3106,40.205 80.9772,38.205 78.5,36.5C 79.2624,36.0894 80.2624,35.9227 81.5,36C 80.8921,35.1301 80.0588,34.6301 79,34.5C 77.6667,35.8333 76.3333,35.8333 75,34.5C 74.0497,35.0223 73.2164,35.689 72.5,36.5C 72.1667,36.1667 71.8333,35.8333 71.5,35.5C 72.6763,33.3227 74.5096,31.9893 77,31.5C 78.2988,31.9662 79.7988,31.9662 81.5,31.5 Z"/></g>
<g><path style="opacity:1" fill="#00205d" d="M 138.5,37.5 C 138.5,39.8333 138.5,42.1667 138.5,44.5C 137.512,47.0812 136.512,49.7479 135.5,52.5C 134.089,51.0924 132.423,50.0924 130.5,49.5C 128.547,50.1556 126.547,50.4889 124.5,50.5C 123.504,49.3349 122.171,48.6682 120.5,48.5C 116.486,50.5081 112.486,50.8415 108.5,49.5C 113.105,47.4728 117.938,46.1395 123,45.5C 124.653,45.8198 125.653,46.8198 126,48.5C 126.131,45.6288 127.297,43.2954 129.5,41.5C 130.086,41.7093 130.586,42.0426 131,42.5C 133.316,40.5406 135.316,40.5406 137,42.5C 137.198,40.6183 137.698,38.9516 138.5,37.5 Z"/></g>
<g><path style="opacity:1" fill="#29a5ed" d="M 168.5,30.5 C 168.5,32.5 168.5,34.5 168.5,36.5C 167.25,36.4226 166.417,35.756 166,34.5C 165.369,37.641 163.702,38.641 161,37.5C 155.752,40.9069 150.919,44.9069 146.5,49.5C 145.494,50.3957 145.494,51.0623 146.5,51.5C 155.096,44.7204 155.596,45.387 148,53.5C 147.667,53.1667 147.333,52.8333 147,52.5C 145.367,55.681 144.034,59.0143 143,62.5C 140.291,63.9334 138.125,65.9334 136.5,68.5C 135.833,66.8333 135.167,65.1667 134.5,63.5C 131.758,65.1898 129.424,67.3564 127.5,70C 129.701,70.8249 131.534,70.3249 133,68.5C 132.981,70.1075 132.815,71.7741 132.5,73.5C 130.94,73.5191 129.44,73.8524 128,74.5C 124.135,72.1451 122.302,73.4784 122.5,78.5C 121.778,78.9175 121.278,79.5842 121,80.5C 120.536,79.9056 120.369,79.2389 120.5,78.5C 120.5,77.5 120.5,76.5 120.5,75.5C 124.801,71.0277 128.968,66.3611 133,61.5C 133.849,58.4786 134.683,55.4786 135.5,52.5C 136.512,49.7479 137.512,47.0812 138.5,44.5C 138.369,45.2389 138.536,45.9056 139,46.5C 140.149,43.6074 140.649,40.6074 140.5,37.5C 145.096,37.1259 149.263,35.1259 153,31.5C 153.769,34.0991 153.602,36.5991 152.5,39C 153,39.5 153.5,40 154,40.5C 154.82,34.3465 158.32,31.5132 164.5,32C 163.552,31.5172 162.552,31.3505 161.5,31.5C 162.066,27.1943 162.732,26.861 163.5,30.5C 165.36,31.0715 167.027,31.0715 168.5,30.5 Z"/></g>
<g><path style="opacity:1" fill="#0299e7" d="M 168.5,36.5 C 168.5,47.8333 168.5,59.1667 168.5,70.5C 165.324,70.7549 163.324,72.4216 162.5,75.5C 161.16,69.4557 160.827,63.4557 161.5,57.5C 160.325,57.281 159.325,57.6143 158.5,58.5C 157.917,60.0016 157.084,61.3349 156,62.5C 155.843,60.0049 155.676,57.6716 155.5,55.5C 151.962,55.964 148.962,57.464 146.5,60C 147.451,60.7175 147.617,61.5509 147,62.5C 145.938,64.2078 144.771,64.8745 143.5,64.5C 144.489,65.4682 145.156,66.6349 145.5,68C 145.155,69.5735 144.489,70.7402 143.5,71.5C 143.887,73.2743 144.553,74.941 145.5,76.5C 144.271,77.2811 142.938,77.7811 141.5,78C 142.536,79.7755 142.536,81.6089 141.5,83.5C 140.779,91.0596 140.113,98.393 139.5,105.5C 141.499,107.689 141.333,110.022 139,112.5C 138.68,116.214 138.18,119.881 137.5,123.5C 137.5,124.5 137.5,125.5 137.5,126.5C 136.788,125.261 135.788,124.761 134.5,125C 133.89,126.947 133.057,128.781 132,130.5C 132.65,127.876 132.483,125.209 131.5,122.5C 126.579,122.865 126.245,121.865 130.5,119.5C 128.827,117.477 128.16,115.144 128.5,112.5C 129.5,112.5 130.5,112.5 131.5,112.5C 131.252,106.715 131.918,100.881 133.5,95C 133.442,89.9817 133.276,84.815 133,79.5C 131.612,80.5536 130.112,80.7203 128.5,80C 128.833,79.6667 129.167,79.3333 129.5,79C 127.109,78.8133 125.942,77.98 126,76.5C 124.697,76.9783 123.531,77.645 122.5,78.5C 122.302,73.4784 124.135,72.1451 128,74.5C 129.44,73.8524 130.94,73.5191 132.5,73.5C 132.815,71.7741 132.981,70.1075 133,68.5C 131.534,70.3249 129.701,70.8249 127.5,70C 129.424,67.3564 131.758,65.1898 134.5,63.5C 135.167,65.1667 135.833,66.8333 136.5,68.5C 138.125,65.9334 140.291,63.9334 143,62.5C 144.034,59.0143 145.367,55.681 147,52.5C 147.333,52.8333 147.667,53.1667 148,53.5C 155.596,45.387 155.096,44.7204 146.5,51.5C 145.494,51.0623 145.494,50.3957 146.5,49.5C 150.919,44.9069 155.752,40.9069 161,37.5C 163.702,38.641 165.369,37.641 166,34.5C 166.417,35.756 167.25,36.4226 168.5,36.5 Z"/></g>
<g><path style="opacity:1" fill="#015f8d" d="M 14.5,39.5 C 13.596,40.209 13.2627,41.209 13.5,42.5C 12.5,42.5 11.5,42.5 10.5,42.5C 8.55864,45.0405 7.89197,47.7071 8.5,50.5C 8.63101,49.7611 8.46434,49.0944 8,48.5C 5.4542,50.6752 2.62086,52.3419 -0.5,53.5C -0.5,51.5 -0.5,49.5 -0.5,47.5C 0.864091,45.78 1.86409,43.78 2.5,41.5C 4.04533,40.5481 5.71199,40.2148 7.5,40.5C 7.35055,39.448 7.51722,38.448 8,37.5C 8.33333,37.8333 8.66667,38.1667 9,38.5C 11.4481,34.3688 13.6147,34.5354 15.5,39C 15.2716,39.3988 14.9382,39.5654 14.5,39.5 Z"/></g>
<g><path style="opacity:1" fill="#005c88" d="M 46.5,33.5 C 48.1667,33.5 49.8333,33.5 51.5,33.5C 49.4099,35.3902 47.0765,37.0569 44.5,38.5C 43.7517,40.4159 43.7517,42.4159 44.5,44.5C 37.7665,44.487 37.2665,45.487 43,47.5C 43.3333,47.1667 43.6667,46.8333 44,46.5C 44.6667,48.1667 44.6667,49.8333 44,51.5C 40.897,49.4667 37.397,48.3 33.5,48C 34.1667,47.6667 34.8333,47.3333 35.5,47C 33.2461,45.2252 31.5794,45.8918 30.5,49C 30.6667,49.5 30.8333,50 31,50.5C 32.0495,49.4829 33.2161,49.3162 34.5,50C 32.9194,50.7065 31.4194,51.5399 30,52.5C 29.6667,51.8333 29.3333,51.1667 29,50.5C 27.6932,51.7717 26.1932,52.7717 24.5,53.5C 24.2239,56.9422 22.3906,58.9422 19,59.5C 17.7597,57.3549 15.9264,56.0215 13.5,55.5C 9.86489,56.6892 6.53156,56.6892 3.5,55.5C 2.16667,54.8333 2.16667,54.1667 3.5,53.5C 5.36036,52.7401 7.02703,51.7401 8.5,50.5C 8.36912,51.3764 8.70245,52.0431 9.5,52.5C 13.2991,50.5791 16.9658,48.4124 20.5,46C 21.7839,45.3162 22.9505,45.4829 24,46.5C 24.1667,46.1667 24.3333,45.8333 24.5,45.5C 23.2713,44.7189 21.938,44.2189 20.5,44C 22.5,43.6667 24.5,43.3333 26.5,43C 27.1258,42.2496 27.6258,41.4162 28,40.5C 29.0495,41.5171 30.2161,41.6838 31.5,41C 32.6667,39.8333 33.8333,38.6667 35,37.5C 35.3333,38.1667 35.6667,38.8333 36,39.5C 39.3683,37.3048 42.8683,35.3048 46.5,33.5 Z"/></g>
<g><path style="opacity:1" fill="#001336" d="M 86.5,46.5 C 91.1887,48.3195 91.1887,50.6529 86.5,53.5C 85.6143,52.675 85.281,51.675 85.5,50.5C 84.325,50.719 83.325,50.3857 82.5,49.5C 84.1836,48.8503 85.5169,47.8503 86.5,46.5 Z"/></g>
<g><path style="opacity:1" fill="#00284e" d="M 65.5,38.5 C 66.1098,39.391 66.4431,40.391 66.5,41.5C 66.683,43.9363 66.0163,46.103 64.5,48C 66.0267,49.0319 67.36,50.1986 68.5,51.5C 68.1583,52.3382 67.4916,52.6716 66.5,52.5C 63.6812,54.0971 60.6812,54.5971 57.5,54C 56.8333,53.3333 56.1667,52.6667 55.5,52C 56.6872,50.9805 57.6872,49.8139 58.5,48.5C 56.8333,48.5 55.1667,48.5 53.5,48.5C 55.0049,47.1585 55.6715,45.4918 55.5,43.5C 56.8333,43.5 58.1667,43.5 59.5,43.5C 60.1949,46.0813 60.5282,48.4146 60.5,50.5C 61.4147,49.6721 62.0814,48.6721 62.5,47.5C 59.3416,43.1372 60.3416,40.1372 65.5,38.5 Z"/></g>
<g><path style="opacity:1" fill="#0595db" d="M 94.5,51.5 C 95.8333,51.5 97.1667,51.5 98.5,51.5C 98.5,51.8333 98.5,52.1667 98.5,52.5C 96.8861,54.4559 95.2194,56.4559 93.5,58.5C 92.2022,59.1157 91.2022,59.1157 90.5,58.5C 91.9418,57.1805 92.6085,55.5138 92.5,53.5C 93.5,53.1667 94.1667,52.5 94.5,51.5 Z"/></g>
<g><path style="opacity:1" fill="#0093e5" d="M 168.5,70.5 C 168.5,80.8333 168.5,91.1667 168.5,101.5C 167.209,101.263 166.209,101.596 165.5,102.5C 164.127,102.657 162.793,102.49 161.5,102C 163.848,101.654 165.681,100.487 167,98.5C 167.432,97.3999 166.932,96.7332 165.5,96.5C 163.095,99.2122 160.095,101.212 156.5,102.5C 155.614,101.675 155.281,100.675 155.5,99.5C 159.395,99.1427 160.395,97.1427 158.5,93.5C 157.833,93.8333 157.167,94.1667 156.5,94.5C 156.167,93.8333 155.833,93.1667 155.5,92.5C 154.086,93.624 152.586,94.624 151,95.5C 151.831,92.8232 152.998,90.1566 154.5,87.5C 150.834,86.5887 147.168,86.422 143.5,87C 144.337,85.9887 144.67,84.8221 144.5,83.5C 143.5,83.5 142.5,83.5 141.5,83.5C 142.536,81.6089 142.536,79.7755 141.5,78C 142.938,77.7811 144.271,77.2811 145.5,76.5C 144.553,74.941 143.887,73.2743 143.5,71.5C 144.489,70.7402 145.155,69.5735 145.5,68C 145.156,66.6349 144.489,65.4682 143.5,64.5C 144.771,64.8745 145.938,64.2078 147,62.5C 147.617,61.5509 147.451,60.7175 146.5,60C 148.962,57.464 151.962,55.964 155.5,55.5C 155.676,57.6716 155.843,60.0049 156,62.5C 157.084,61.3349 157.917,60.0016 158.5,58.5C 159.325,57.6143 160.325,57.281 161.5,57.5C 160.827,63.4557 161.16,69.4557 162.5,75.5C 163.324,72.4216 165.324,70.7549 168.5,70.5 Z"/></g>
<g><path style="opacity:1" fill="#013a7c" d="M 92.5,53.5 C 92.6085,55.5138 91.9418,57.1805 90.5,58.5C 89.8333,58.8333 89.1667,59.1667 88.5,59.5C 87.6236,59.6309 86.9569,59.2975 86.5,58.5C 87.6405,57.5745 87.6405,56.7412 86.5,56C 84.8659,55.5065 83.1992,55.3398 81.5,55.5C 79.323,55.5861 77.323,56.2528 75.5,57.5C 74.6761,59.4206 73.3428,60.754 71.5,61.5C 70.4271,59.6531 70.4271,57.6531 71.5,55.5C 72.4959,55.4142 73.3292,55.7476 74,56.5C 74.3333,55.5 74.6667,54.5 75,53.5C 75.6667,52.1667 76.3333,52.1667 77,53.5C 78.1139,49.5443 78.9473,49.5443 79.5,53.5C 83.88,54.6954 88.2133,54.6954 92.5,53.5 Z"/></g>
<g><path style="opacity:1" fill="#0162b2" d="M 102.5,49.5 C 104.568,50.3748 106.568,51.5415 108.5,53C 107.128,53.4017 105.795,53.9017 104.5,54.5C 103.876,56.9575 102.376,58.6242 100,59.5C 99.0255,57.1224 98.3589,57.4557 98,60.5C 96.6703,59.4178 95.1703,58.7512 93.5,58.5C 95.2194,56.4559 96.8861,54.4559 98.5,52.5C 100.466,51.7455 100.8,50.5788 99.5,49C 102.791,44.4185 103.791,44.5852 102.5,49.5 Z"/></g>
<g><path style="opacity:1" fill="#003865" d="M 41.5,67.5 C 41.1667,67.5 40.8333,67.5 40.5,67.5C 36.0541,67.7523 32.3874,69.4189 29.5,72.5C 26.1891,79.3422 20.8558,82.0089 13.5,80.5C 13.3505,79.448 13.5172,78.448 14,77.5C 15.3985,78.0509 16.7318,78.3842 18,78.5C 18.7253,76.842 19.892,76.342 21.5,77C 19.6037,78.0646 19.437,78.8979 21,79.5C 25.8163,76.6834 28.6497,72.5167 29.5,67C 29.4148,65.8926 29.0814,64.8926 28.5,64C 26.7412,63.2025 25.0745,63.3691 23.5,64.5C 24.8333,67.1667 24.1667,67.8333 21.5,66.5C 20.4822,67.1925 19.4822,67.8592 18.5,68.5C 17.8753,66.4729 17.8753,64.6395 18.5,63C 20.6775,61.7978 23.0108,61.2978 25.5,61.5C 25.238,60.0222 25.5713,58.6888 26.5,57.5C 27.1924,58.0253 27.6924,58.6919 28,59.5C 29.8761,56.5724 32.3761,55.9057 35.5,57.5C 36.1667,56.5 36.8333,55.5 37.5,54.5C 39.7676,55.5443 42.1009,55.711 44.5,55C 45.8333,54.3333 45.8333,53.6667 44.5,53C 45.7932,52.51 47.1266,52.3433 48.5,52.5C 48.3433,51.1266 48.51,49.7932 49,48.5C 50.6773,52.3716 53.1773,54.705 56.5,55.5C 55.1157,57.1138 53.6157,58.7805 52,60.5C 51.2904,59.0267 50.1238,58.3601 48.5,58.5C 47.7733,63.7779 45.2733,64.7779 41,61.5C 40.5,62.6667 39.6667,63.5 38.5,64C 39.7101,65.0391 40.7101,66.2058 41.5,67.5 Z"/></g>
<g><path style="opacity:1" fill="#025990" d="M 68.5,51.5 C 72.1859,51.13 73.1859,52.4633 71.5,55.5C 70.4271,57.6531 70.4271,59.6531 71.5,61.5C 71.5,61.8333 71.5,62.1667 71.5,62.5C 68.882,61.2151 66.382,61.5485 64,63.5C 60.5824,62.9575 57.0824,62.9575 53.5,63.5C 53.3893,62.8826 53.056,62.3826 52.5,62C 54.9306,61.7051 56.764,60.5384 58,58.5C 58.3333,59.1667 58.6667,59.8333 59,60.5C 61.0854,57.2538 63.5854,54.5871 66.5,52.5C 67.4916,52.6716 68.1583,52.3382 68.5,51.5 Z"/></g>
<g><path style="opacity:1" fill="#04628f" d="M 12.5,65.5 C 11.4324,66.4345 10.099,66.7678 8.5,66.5C 7.75513,64.3285 7.58846,61.9952 8,59.5C 5.74265,62.4381 4.57598,65.7715 4.5,69.5C 2.4458,69.3653 0.779138,70.032 -0.5,71.5C -0.5,68.5 -0.5,65.5 -0.5,62.5C 0.26791,61.7375 0.76791,60.7375 1,59.5C 1.41395,59.9574 1.91395,60.2907 2.5,60.5C 5.95186,58.7153 9.61853,57.382 13.5,56.5C 16.1082,58.0437 17.4415,60.3771 17.5,63.5C 15.8008,63.3398 14.1341,63.5065 12.5,64C 11.2617,64.69 11.2617,65.19 12.5,65.5 Z"/></g>
<g><path style="opacity:1" fill="#016bb6" d="M 81.5,55.5 C 80.6851,56.8366 79.5185,57.8366 78,58.5C 77.5439,59.7441 78.0439,60.5774 79.5,61C 77.0464,63.4874 74.0464,64.8208 70.5,65C 68.6305,66.5013 66.7972,68.0013 65,69.5C 63.6243,66.8753 62.4577,66.8753 61.5,69.5C 56.8429,72.8311 52.0096,72.8311 47,69.5C 45.1701,72.6643 42.6701,73.331 39.5,71.5C 41.4931,70.5284 41.8264,69.1951 40.5,67.5C 40.8333,67.5 41.1667,67.5 41.5,67.5C 41.8333,67.5 42.1667,67.5 42.5,67.5C 44.4782,71.1974 46.3116,70.8641 48,66.5C 51.0565,69.0059 54.2231,69.0059 57.5,66.5C 58.086,66.7093 58.586,67.0426 59,67.5C 63.5152,66.4283 67.6819,64.7617 71.5,62.5C 71.5,62.1667 71.5,61.8333 71.5,61.5C 73.3428,60.754 74.6761,59.4206 75.5,57.5C 77.323,56.2528 79.323,55.5861 81.5,55.5 Z"/></g>
<g><path style="opacity:1" fill="#015db1" d="M 81.5,55.5 C 83.1992,55.3398 84.8659,55.5065 86.5,56C 87.6405,56.7412 87.6405,57.5745 86.5,58.5C 86.9569,59.2975 87.6236,59.6309 88.5,59.5C 89.7142,60.6256 90.7142,61.9589 91.5,63.5C 89.8062,65.5543 88.6395,67.8877 88,70.5C 84.5974,69.8186 81.2641,68.8186 78,67.5C 76.2382,67.9444 76.4049,68.4444 78.5,69C 76.4798,70.2166 74.4798,70.3833 72.5,69.5C 72.2129,70.2003 71.8795,70.8669 71.5,71.5C 70.5041,71.4142 69.6708,71.7476 69,72.5C 66.6364,71.1194 64.1364,70.1194 61.5,69.5C 62.4577,66.8753 63.6243,66.8753 65,69.5C 66.7972,68.0013 68.6305,66.5013 70.5,65C 74.0464,64.8208 77.0464,63.4874 79.5,61C 78.0439,60.5774 77.5439,59.7441 78,58.5C 79.5185,57.8366 80.6851,56.8366 81.5,55.5 Z"/></g>
<g><path style="opacity:1" fill="#003b8b" d="M 135.5,52.5 C 134.683,55.4786 133.849,58.4786 133,61.5C 128.968,66.3611 124.801,71.0277 120.5,75.5C 119.048,74.6981 117.382,74.1981 115.5,74C 116.696,73.3457 116.696,72.8457 115.5,72.5C 113.668,73.2485 112.001,74.2485 110.5,75.5C 110.709,76.086 111.043,76.586 111.5,77C 106.053,77.1585 100.72,77.9918 95.5,79.5C 92.6143,79.1957 89.9476,78.529 87.5,77.5C 89.3904,77.7035 90.8904,77.0368 92,75.5C 93.0809,73.378 93.7476,71.378 94,69.5C 95.6667,69.8333 97.3333,70.1667 99,70.5C 100.518,68.652 102.351,67.152 104.5,66C 105.406,64.3005 105.739,62.4672 105.5,60.5C 106.5,60.5 107.5,60.5 108.5,60.5C 109.687,57.6334 111.687,55.3 114.5,53.5C 116.618,54.9459 118.951,55.6126 121.5,55.5C 121.273,53.0672 122.273,51.4006 124.5,50.5C 126.547,50.4889 128.547,50.1556 130.5,49.5C 132.423,50.0924 134.089,51.0924 135.5,52.5 Z"/></g>
<g><path style="opacity:1" fill="#0c9adb" d="M 71.5,62.5 C 67.6819,64.7617 63.5152,66.4283 59,67.5C 58.586,67.0426 58.086,66.7093 57.5,66.5C 54.2231,69.0059 51.0565,69.0059 48,66.5C 46.3116,70.8641 44.4782,71.1974 42.5,67.5C 42.6107,66.8826 42.944,66.3826 43.5,66C 46.9288,65.4666 50.2621,64.6332 53.5,63.5C 57.0824,62.9575 60.5824,62.9575 64,63.5C 66.382,61.5485 68.882,61.2151 71.5,62.5 Z"/></g>
<g><path style="opacity:1" fill="#002e58" d="M 13.5,80.5 C 12.5084,80.6716 11.8417,80.3382 11.5,79.5C 11.5,77.1667 11.5,74.8333 11.5,72.5C 10.1266,72.6567 8.79323,72.49 7.5,72C 9.373,70.9153 11.0397,69.582 12.5,68C 10.9419,67.79 9.60853,67.29 8.5,66.5C 10.099,66.7678 11.4324,66.4345 12.5,65.5C 13.9221,65.7496 14.9221,66.583 15.5,68C 12.8849,71.3142 13.8849,72.3142 18.5,71C 17.4019,70.2303 17.4019,69.397 18.5,68.5C 19.4822,67.8592 20.4822,67.1925 21.5,66.5C 24.1667,67.8333 24.8333,67.1667 23.5,64.5C 25.0745,63.3691 26.7412,63.2025 28.5,64C 29.0814,64.8926 29.4148,65.8926 29.5,67C 28.6497,72.5167 25.8163,76.6834 21,79.5C 19.437,78.8979 19.6037,78.0646 21.5,77C 19.892,76.342 18.7253,76.842 18,78.5C 16.7318,78.3842 15.3985,78.0509 14,77.5C 13.5172,78.448 13.3505,79.448 13.5,80.5 Z"/></g>
<g><path style="opacity:1" fill="#0093d6" d="M 40.5,67.5 C 41.8264,69.1951 41.4931,70.5284 39.5,71.5C 38.4863,72.6737 37.153,73.3404 35.5,73.5C 33.4352,73.4828 31.4352,73.1495 29.5,72.5C 32.3874,69.4189 36.0541,67.7523 40.5,67.5 Z"/></g>
<g><path style="opacity:1" fill="#00489a" d="M 124.5,50.5 C 122.273,51.4006 121.273,53.0672 121.5,55.5C 118.951,55.6126 116.618,54.9459 114.5,53.5C 111.687,55.3 109.687,57.6334 108.5,60.5C 107.5,60.5 106.5,60.5 105.5,60.5C 105.739,62.4672 105.406,64.3005 104.5,66C 102.351,67.152 100.518,68.652 99,70.5C 97.3333,70.1667 95.6667,69.8333 94,69.5C 93.7476,71.378 93.0809,73.378 92,75.5C 90.8904,77.0368 89.3904,77.7035 87.5,77.5C 82.4889,77.6659 77.4889,77.4993 72.5,77C 72.9574,76.586 73.2907,76.086 73.5,75.5C 72.7573,74.8182 72.0906,74.1515 71.5,73.5C 72.5063,73.0623 72.5063,72.3957 71.5,71.5C 71.8795,70.8669 72.2129,70.2003 72.5,69.5C 74.4798,70.3833 76.4798,70.2166 78.5,69C 76.4049,68.4444 76.2382,67.9444 78,67.5C 81.2641,68.8186 84.5974,69.8186 88,70.5C 88.6395,67.8877 89.8062,65.5543 91.5,63.5C 90.7142,61.9589 89.7142,60.6256 88.5,59.5C 89.1667,59.1667 89.8333,58.8333 90.5,58.5C 91.2022,59.1157 92.2022,59.1157 93.5,58.5C 95.1703,58.7512 96.6703,59.4178 98,60.5C 98.3589,57.4557 99.0255,57.1224 100,59.5C 102.376,58.6242 103.876,56.9575 104.5,54.5C 105.795,53.9017 107.128,53.4017 108.5,53C 106.568,51.5415 104.568,50.3748 102.5,49.5C 104.5,49.5 106.5,49.5 108.5,49.5C 112.486,50.8415 116.486,50.5081 120.5,48.5C 122.171,48.6682 123.504,49.3349 124.5,50.5 Z"/></g>
<g><path style="opacity:1" fill="#004c95" d="M 61.5,69.5 C 64.1364,70.1194 66.6364,71.1194 69,72.5C 69.6708,71.7476 70.5041,71.4142 71.5,71.5C 72.5063,72.3957 72.5063,73.0623 71.5,73.5C 66.9605,74.8195 62.2938,75.6529 57.5,76C 58.056,76.3826 58.3893,76.8826 58.5,77.5C 56.9382,77.2671 55.6049,76.6005 54.5,75.5C 49.6842,74.3503 44.6842,74.1837 39.5,75C 38.0656,77.221 36.0656,78.721 33.5,79.5C 34.4286,81.3217 33.7619,82.6551 31.5,83.5C 31.7093,84.086 32.0426,84.586 32.5,85C 31.2412,85.9234 29.9079,86.7568 28.5,87.5C 29.6888,88.4287 31.0222,88.762 32.5,88.5C 32.5299,89.4972 32.0299,90.1639 31,90.5C 29.1284,91.0682 27.2951,91.7349 25.5,92.5C 24.209,87.8796 25.8756,84.7129 30.5,83C 28.9632,81.8904 28.2965,80.3904 28.5,78.5C 32.281,78.7037 34.6143,77.037 35.5,73.5C 37.153,73.3404 38.4863,72.6737 39.5,71.5C 42.6701,73.331 45.1701,72.6643 47,69.5C 52.0096,72.8311 56.8429,72.8311 61.5,69.5 Z"/></g>
<g><path style="opacity:1" fill="#00497c" d="M 8.5,66.5 C 9.60853,67.29 10.9419,67.79 12.5,68C 11.0397,69.582 9.373,70.9153 7.5,72C 8.79323,72.49 10.1266,72.6567 11.5,72.5C 11.5,74.8333 11.5,77.1667 11.5,79.5C 10.2264,80.1894 10.2264,81.0228 11.5,82C 9.58116,83.9338 8.08116,83.7671 7,81.5C 5.15975,82.8331 4.65975,82.6665 5.5,81C 4.05629,80.2195 2.72296,80.3861 1.5,81.5C 2.53529,83.1284 2.53529,84.795 1.5,86.5C 1.15829,87.3382 0.491622,87.6716 -0.5,87.5C -0.5,82.1667 -0.5,76.8333 -0.5,71.5C 0.779138,70.032 2.4458,69.3653 4.5,69.5C 4.57598,65.7715 5.74265,62.4381 8,59.5C 7.58846,61.9952 7.75513,64.3285 8.5,66.5 Z"/></g>
<g><path style="opacity:1" fill="#020c2a" d="M 54.5,75.5 C 55.6049,76.6005 56.9382,77.2671 58.5,77.5C 66.788,78.2293 75.1213,78.896 83.5,79.5C 83.5394,80.5832 83.8728,81.5832 84.5,82.5C 83.5,82.8333 82.5,83.1667 81.5,83.5C 73.8449,82.4621 66.1782,81.9621 58.5,82C 59.4581,83.1475 59.1247,84.1475 57.5,85C 55.5273,85.4955 53.5273,85.6621 51.5,85.5C 50.9045,82.8875 50.0712,82.8875 49,85.5C 47.0574,83.2849 45.3907,83.2849 44,85.5C 37.9848,82.1653 38.1515,78.9987 44.5,76C 47.8168,75.5017 51.1501,75.335 54.5,75.5 Z"/></g>
<g><path style="opacity:1" fill="#001236" d="M 83.5,79.5 C 89.3101,80.7109 94.9767,80.7109 100.5,79.5C 103.85,79.335 107.183,79.5017 110.5,80C 109.663,81.0113 109.33,82.1779 109.5,83.5C 108.167,83.5 106.833,83.5 105.5,83.5C 103.283,82.773 100.95,82.9397 98.5,84C 97.2532,85.4579 97.2532,86.9579 98.5,88.5C 97.7112,90.4879 96.5445,90.8213 95,89.5C 94.51,88.2068 94.3433,86.8734 94.5,85.5C 89.1053,85.7335 83.772,85.4002 78.5,84.5C 76.3311,86.3403 74.9977,88.6737 74.5,91.5C 72.8007,91.5271 71.4674,92.1938 70.5,93.5C 68.6768,90.6821 66.6768,88.0154 64.5,85.5C 62.6603,86.6702 60.9937,87.6702 59.5,88.5C 57.6431,87.2348 55.9764,87.5682 54.5,89.5C 53.147,88.4739 52.147,87.1405 51.5,85.5C 53.5273,85.6621 55.5273,85.4955 57.5,85C 59.1247,84.1475 59.4581,83.1475 58.5,82C 66.1782,81.9621 73.8449,82.4621 81.5,83.5C 82.5,83.1667 83.5,82.8333 84.5,82.5C 83.8728,81.5832 83.5394,80.5832 83.5,79.5 Z"/></g>
<g><path style="opacity:1" fill="#001642" d="M 105.5,83.5 C 105.229,85.8211 105.896,87.8211 107.5,89.5C 104.611,89.8762 102.611,91.3762 101.5,94C 103.481,94.6054 103.815,95.6054 102.5,97C 101.056,97.7805 99.723,97.6139 98.5,96.5C 97.2338,95.2764 96.0672,93.9431 95,92.5C 94.7506,95.1768 93.7506,97.5101 92,99.5C 88.27,98.5399 84.4367,98.2065 80.5,98.5C 79.8333,98.5 79.1667,98.5 78.5,98.5C 78.3893,97.8826 78.056,97.3826 77.5,97C 75.1667,96.6667 72.8333,96.3333 70.5,96C 75.2351,93.6676 77.9018,89.8343 78.5,84.5C 83.772,85.4002 89.1053,85.7335 94.5,85.5C 94.3433,86.8734 94.51,88.2068 95,89.5C 96.5445,90.8213 97.7112,90.4879 98.5,88.5C 97.2532,86.9579 97.2532,85.4579 98.5,84C 100.95,82.9397 103.283,82.773 105.5,83.5 Z"/></g>
<g><path style="opacity:1" fill="#0081c3" d="M 29.5,72.5 C 31.4352,73.1495 33.4352,73.4828 35.5,73.5C 34.6143,77.037 32.281,78.7037 28.5,78.5C 25.927,81.6028 22.5937,83.7695 18.5,85C 17.6634,86.0113 17.33,87.1779 17.5,88.5C 13.841,89.3146 11.1744,91.4813 9.5,95C 10.8333,96 12.1667,97 13.5,98C 11.9409,99.7557 10.2742,99.7557 8.5,98C 8.83333,97.6667 9.16667,97.3333 9.5,97C 7.63871,94.7952 6.13871,92.2952 5,89.5C 3.9609,88.2899 2.79423,87.2899 1.5,86.5C 2.53529,84.795 2.53529,83.1284 1.5,81.5C 2.72296,80.3861 4.05629,80.2195 5.5,81C 4.65975,82.6665 5.15975,82.8331 7,81.5C 8.08116,83.7671 9.58116,83.9338 11.5,82C 10.2264,81.0228 10.2264,80.1894 11.5,79.5C 11.8417,80.3382 12.5084,80.6716 13.5,80.5C 20.8558,82.0089 26.1891,79.3422 29.5,72.5 Z"/></g>
<g><path style="opacity:1" fill="#013370" d="M 54.5,75.5 C 51.1501,75.335 47.8168,75.5017 44.5,76C 38.1515,78.9987 37.9848,82.1653 44,85.5C 45.3907,83.2849 47.0574,83.2849 49,85.5C 50.0712,82.8875 50.9045,82.8875 51.5,85.5C 52.147,87.1405 53.147,88.4739 54.5,89.5C 52.7839,89.3713 51.1172,89.038 49.5,88.5C 48.3181,86.9005 46.9847,86.5672 45.5,87.5C 42.0382,85.6088 38.3716,85.1088 34.5,86C 33.244,86.4169 32.5774,87.2502 32.5,88.5C 31.0222,88.762 29.6888,88.4287 28.5,87.5C 29.9079,86.7568 31.2412,85.9234 32.5,85C 32.0426,84.586 31.7093,84.086 31.5,83.5C 33.7619,82.6551 34.4286,81.3217 33.5,79.5C 36.0656,78.721 38.0656,77.221 39.5,75C 44.6842,74.1837 49.6842,74.3503 54.5,75.5 Z"/></g>
<g><path style="opacity:1" fill="#002659" d="M 70.5,93.5 C 69.8333,94.1667 69.1667,94.8333 68.5,95.5C 65.7255,94.9395 63.8922,93.2729 63,90.5C 61.1593,93.0806 59.3259,93.0806 57.5,90.5C 57.8555,89.4777 58.5222,88.811 59.5,88.5C 60.9937,87.6702 62.6603,86.6702 64.5,85.5C 66.6768,88.0154 68.6768,90.6821 70.5,93.5 Z"/></g>
<g><path style="opacity:1" fill="#0065af" d="M 28.5,78.5 C 28.2965,80.3904 28.9632,81.8904 30.5,83C 25.8756,84.7129 24.209,87.8796 25.5,92.5C 27.2951,91.7349 29.1284,91.0682 31,90.5C 32.0299,90.1639 32.5299,89.4972 32.5,88.5C 32.5774,87.2502 33.244,86.4169 34.5,86C 38.3716,85.1088 42.0382,85.6088 45.5,87.5C 46.9847,86.5672 48.3181,86.9005 49.5,88.5C 49.5,89.1667 49.1667,89.5 48.5,89.5C 43.5624,88.6076 38.5624,88.2743 33.5,88.5C 33.5,89.5 33.5,90.5 33.5,91.5C 37.0993,91.2619 37.4327,92.2619 34.5,94.5C 32.2159,93.157 31.3826,93.8236 32,96.5C 34.2568,98.0456 36.4235,99.7123 38.5,101.5C 40.0478,99.0776 41.7145,99.0776 43.5,101.5C 45.5071,100.829 47.3405,99.8291 49,98.5C 50.3731,99.5152 51.5398,99.5152 52.5,98.5C 57.0233,98.1196 60.69,98.1196 63.5,98.5C 63.1414,100.485 62.308,101.151 61,100.5C 60.0053,101.066 59.172,101.733 58.5,102.5C 57.4168,102.461 56.4168,102.127 55.5,101.5C 53.5427,104.017 50.8761,105.184 47.5,105C 46.8903,106.947 46.0569,108.781 45,110.5C 44.6667,109.833 44.3333,109.167 44,108.5C 42.9148,109.293 41.7481,109.96 40.5,110.5C 39.0325,109.305 37.5325,109.305 36,110.5C 35.5,110.333 35,110.167 34.5,110C 35.3081,109.692 35.9747,109.192 36.5,108.5C 34.7448,105.784 32.9114,103.117 31,100.5C 29.8869,99.2889 28.7202,99.2889 27.5,100.5C 26.4104,99.6086 26.4104,98.6086 27.5,97.5C 26.6721,96.5853 25.6721,95.9186 24.5,95.5C 24.8346,96.664 24.8346,97.9974 24.5,99.5C 25.09,100.799 26.09,101.632 27.5,102C 26.1667,102.333 24.8333,102.667 23.5,103C 17.815,102.581 12.1483,102.748 6.5,103.5C 4.42288,102.063 2.08955,101.396 -0.5,101.5C -0.5,96.8333 -0.5,92.1667 -0.5,87.5C 0.491622,87.6716 1.15829,87.3382 1.5,86.5C 2.79423,87.2899 3.9609,88.2899 5,89.5C 6.13871,92.2952 7.63871,94.7952 9.5,97C 9.16667,97.3333 8.83333,97.6667 8.5,98C 10.2742,99.7557 11.9409,99.7557 13.5,98C 12.1667,97 10.8333,96 9.5,95C 11.1744,91.4813 13.841,89.3146 17.5,88.5C 17.33,87.1779 17.6634,86.0113 18.5,85C 22.5937,83.7695 25.927,81.6028 28.5,78.5 Z"/></g>
<g><path style="opacity:1" fill="#0064a4" d="M 59.5,88.5 C 58.5222,88.811 57.8555,89.4777 57.5,90.5C 59.3259,93.0806 61.1593,93.0806 63,90.5C 63.8922,93.2729 65.7255,94.9395 68.5,95.5C 68.1667,96.1667 67.8333,96.8333 67.5,97.5C 67.6567,98.8734 67.49,100.207 67,101.5C 66.5776,99.5743 65.4109,98.5743 63.5,98.5C 60.69,98.1196 57.0233,98.1196 52.5,98.5C 53.4577,97.0384 54.6244,95.7051 56,94.5C 56.5798,91.4525 56.2465,91.1192 55,93.5C 54.6758,91.4311 53.8425,91.0977 52.5,92.5C 51.0986,91.4793 49.7653,90.4793 48.5,89.5C 49.1667,89.5 49.5,89.1667 49.5,88.5C 51.1172,89.038 52.7839,89.3713 54.5,89.5C 55.9764,87.5682 57.6431,87.2348 59.5,88.5 Z"/></g>
<g><path style="opacity:1" fill="#0075bc" d="M 48.5,89.5 C 49.7653,90.4793 51.0986,91.4793 52.5,92.5C 53.8425,91.0977 54.6758,91.4311 55,93.5C 56.2465,91.1192 56.5798,91.4525 56,94.5C 54.6244,95.7051 53.4577,97.0384 52.5,98.5C 51.5398,99.5152 50.3731,99.5152 49,98.5C 47.3405,99.8291 45.5071,100.829 43.5,101.5C 41.7145,99.0776 40.0478,99.0776 38.5,101.5C 36.4235,99.7123 34.2568,98.0456 32,96.5C 31.3826,93.8236 32.2159,93.157 34.5,94.5C 37.4327,92.2619 37.0993,91.2619 33.5,91.5C 33.5,90.5 33.5,89.5 33.5,88.5C 38.5624,88.2743 43.5624,88.6076 48.5,89.5 Z"/></g>
<g><path style="opacity:1" fill="#003f76" d="M 78.5,84.5 C 77.9018,89.8343 75.2351,93.6676 70.5,96C 72.8333,96.3333 75.1667,96.6667 77.5,97C 78.056,97.3826 78.3893,97.8826 78.5,98.5C 76.8333,98.5 75.1667,98.5 73.5,98.5C 71.3792,98.6747 69.3792,98.3414 67.5,97.5C 67.8333,96.8333 68.1667,96.1667 68.5,95.5C 69.1667,94.8333 69.8333,94.1667 70.5,93.5C 71.4674,92.1938 72.8007,91.5271 74.5,91.5C 74.9977,88.6737 76.3311,86.3403 78.5,84.5 Z"/></g>
<g><path style="opacity:1" fill="#00235d" d="M 100.5,79.5 C 105.64,78.5119 110.974,78.1786 116.5,78.5C 116.574,82.1611 115.574,82.8277 113.5,80.5C 112.702,82.0777 112.202,83.7444 112,85.5C 111.667,84.8333 111.333,84.1667 111,83.5C 109.383,86.6961 109.55,89.8628 111.5,93C 109.53,96.5373 107.03,99.704 104,102.5C 102.261,101.106 100.261,100.439 98,100.5C 92.7321,102.826 87.0655,104.159 81,104.5C 80.1667,104.167 79.3333,103.833 78.5,103.5C 79.4565,101.925 80.1231,100.258 80.5,98.5C 84.4367,98.2065 88.27,98.5399 92,99.5C 93.7506,97.5101 94.7506,95.1768 95,92.5C 96.0672,93.9431 97.2338,95.2764 98.5,96.5C 99.723,97.6139 101.056,97.7805 102.5,97C 103.815,95.6054 103.481,94.6054 101.5,94C 102.611,91.3762 104.611,89.8762 107.5,89.5C 105.896,87.8211 105.229,85.8211 105.5,83.5C 106.833,83.5 108.167,83.5 109.5,83.5C 109.33,82.1779 109.663,81.0113 110.5,80C 107.183,79.5017 103.85,79.335 100.5,79.5 Z"/></g>
<g><path style="opacity:1" fill="#0199eb" d="M 120.5,78.5 C 120.369,79.2389 120.536,79.9056 121,80.5C 121.278,79.5842 121.778,78.9175 122.5,78.5C 121.513,84.1951 121.513,90.1951 122.5,96.5C 123.167,95.8333 123.833,95.1667 124.5,94.5C 124.833,94.8333 125.167,95.1667 125.5,95.5C 124.051,97.8178 122.218,99.8178 120,101.5C 119.807,106.75 119.307,111.917 118.5,117C 119.38,118.356 119.714,119.856 119.5,121.5C 120.5,121.5 121.5,121.5 122.5,121.5C 122.78,124.388 121.447,125.888 118.5,126C 119.448,126.483 120.448,126.649 121.5,126.5C 121.5,127.5 121.5,128.5 121.5,129.5C 120.167,129.5 118.833,129.5 117.5,129.5C 117.302,131.575 117.135,133.575 117,135.5C 118.422,135.594 119.922,135.928 121.5,136.5C 120.167,137.833 118.833,139.167 117.5,140.5C 118.025,141.192 118.692,141.692 119.5,142C 117.944,143.599 116.277,145.099 114.5,146.5C 115.274,147.711 116.107,147.711 117,146.5C 117.483,147.448 117.649,148.448 117.5,149.5C 114.167,149.5 110.833,149.5 107.5,149.5C 108.168,146.333 109.834,143.833 112.5,142C 111.577,139.959 111.244,137.792 111.5,135.5C 107.19,137.224 106.524,136.224 109.5,132.5C 108.691,130.929 108.357,129.262 108.5,127.5C 109.5,127.5 110.5,127.5 111.5,127.5C 112.424,120.623 112.758,113.789 112.5,107C 112.453,104.705 111.787,102.871 110.5,101.5C 113.258,93.4356 116.591,85.769 120.5,78.5 Z"/></g>
<g><path style="opacity:1" fill="#0054a6" d="M 58.5,102.5 C 58.0825,103.222 57.4158,103.722 56.5,104C 58.108,104.658 59.2747,104.158 60,102.5C 60.7796,104.387 60.6129,106.054 59.5,107.5C 54.5365,109.469 49.7032,111.802 45,114.5C 44.6667,114.167 44.3333,113.833 44,113.5C 43.2888,115.367 43.7888,116.867 45.5,118C 44.9747,118.692 44.3081,119.192 43.5,119.5C 40.3384,117.81 37.1717,117.144 34,117.5C 33.0497,116.978 32.2164,116.311 31.5,115.5C 30.7348,116.612 29.7348,117.279 28.5,117.5C 23.0928,115.436 17.5928,115.103 12,116.5C 10.4374,113.956 8.93737,113.956 7.5,116.5C 5.47635,113.794 2.80968,112.461 -0.5,112.5C -0.5,108.833 -0.5,105.167 -0.5,101.5C 2.08955,101.396 4.42288,102.063 6.5,103.5C 12.1483,102.748 17.815,102.581 23.5,103C 24.8333,102.667 26.1667,102.333 27.5,102C 26.09,101.632 25.09,100.799 24.5,99.5C 24.8346,97.9974 24.8346,96.664 24.5,95.5C 25.6721,95.9186 26.6721,96.5853 27.5,97.5C 26.4104,98.6086 26.4104,99.6086 27.5,100.5C 28.7202,99.2889 29.8869,99.2889 31,100.5C 32.9114,103.117 34.7448,105.784 36.5,108.5C 35.9747,109.192 35.3081,109.692 34.5,110C 35,110.167 35.5,110.333 36,110.5C 37.5325,109.305 39.0325,109.305 40.5,110.5C 41.7481,109.96 42.9148,109.293 44,108.5C 44.3333,109.167 44.6667,109.833 45,110.5C 46.0569,108.781 46.8903,106.947 47.5,105C 50.8761,105.184 53.5427,104.017 55.5,101.5C 56.4168,102.127 57.4168,102.461 58.5,102.5 Z"/></g>
<g><path style="opacity:1" fill="#00307b" d="M 120.5,75.5 C 120.5,76.5 120.5,77.5 120.5,78.5C 116.591,85.769 113.258,93.4356 110.5,101.5C 110.167,101.5 109.833,101.5 109.5,101.5C 109.631,100.761 109.464,100.094 109,99.5C 107.045,101.958 104.878,104.291 102.5,106.5C 98.4189,107.714 94.5856,108.714 91,109.5C 84.1774,108.886 77.3441,108.219 70.5,107.5C 71.9214,104.465 73.9214,101.965 76.5,100C 75.2625,99.7679 74.2625,99.2679 73.5,98.5C 75.1667,98.5 76.8333,98.5 78.5,98.5C 79.1667,98.5 79.8333,98.5 80.5,98.5C 80.1231,100.258 79.4565,101.925 78.5,103.5C 79.3333,103.833 80.1667,104.167 81,104.5C 87.0655,104.159 92.7321,102.826 98,100.5C 100.261,100.439 102.261,101.106 104,102.5C 107.03,99.704 109.53,96.5373 111.5,93C 109.55,89.8628 109.383,86.6961 111,83.5C 111.333,84.1667 111.667,84.8333 112,85.5C 112.202,83.7444 112.702,82.0777 113.5,80.5C 115.574,82.8277 116.574,82.1611 116.5,78.5C 110.974,78.1786 105.64,78.5119 100.5,79.5C 94.9767,80.7109 89.3101,80.7109 83.5,79.5C 75.1213,78.896 66.788,78.2293 58.5,77.5C 58.3893,76.8826 58.056,76.3826 57.5,76C 62.2938,75.6529 66.9605,74.8195 71.5,73.5C 72.0906,74.1515 72.7573,74.8182 73.5,75.5C 73.2907,76.086 72.9574,76.586 72.5,77C 77.4889,77.4993 82.4889,77.6659 87.5,77.5C 89.9476,78.529 92.6143,79.1957 95.5,79.5C 100.72,77.9918 106.053,77.1585 111.5,77C 111.043,76.586 110.709,76.086 110.5,75.5C 112.001,74.2485 113.668,73.2485 115.5,72.5C 116.696,72.8457 116.696,73.3457 115.5,74C 117.382,74.1981 119.048,74.6981 120.5,75.5 Z"/></g>
<g><path style="opacity:1" fill="#0091e8" d="M 141.5,83.5 C 142.5,83.5 143.5,83.5 144.5,83.5C 144.67,84.8221 144.337,85.9887 143.5,87C 147.168,86.422 150.834,86.5887 154.5,87.5C 152.998,90.1566 151.831,92.8232 151,95.5C 152.586,94.624 154.086,93.624 155.5,92.5C 155.833,93.1667 156.167,93.8333 156.5,94.5C 157.167,94.1667 157.833,93.8333 158.5,93.5C 160.395,97.1427 159.395,99.1427 155.5,99.5C 155.281,100.675 155.614,101.675 156.5,102.5C 160.095,101.212 163.095,99.2122 165.5,96.5C 166.932,96.7332 167.432,97.3999 167,98.5C 165.681,100.487 163.848,101.654 161.5,102C 162.793,102.49 164.127,102.657 165.5,102.5C 163.483,104.217 163.15,106.217 164.5,108.5C 162.844,109.992 161.344,111.658 160,113.5C 158.716,112.428 158.383,111.095 159,109.5C 157.846,110.743 156.512,111.743 155,112.5C 154.667,109.833 154.333,107.167 154,104.5C 153.667,107.5 153.333,110.5 153,113.5C 152.667,113.833 152.333,114.167 152,114.5C 152.988,112.08 152.655,109.747 151,107.5C 150.781,108.938 150.281,110.271 149.5,111.5C 148.094,110.332 146.928,110.665 146,112.5C 145.46,115.361 144.46,118.028 143,120.5C 142.257,118.355 141.424,118.189 140.5,120C 141.524,122.178 141.357,124.345 140,126.5C 139.764,124.881 138.931,123.881 137.5,123.5C 138.18,119.881 138.68,116.214 139,112.5C 141.333,110.022 141.499,107.689 139.5,105.5C 140.113,98.393 140.779,91.0596 141.5,83.5 Z"/></g>
<g><path style="opacity:1" fill="#003c91" d="M 67.5,97.5 C 69.3792,98.3414 71.3792,98.6747 73.5,98.5C 74.2625,99.2679 75.2625,99.7679 76.5,100C 73.9214,101.965 71.9214,104.465 70.5,107.5C 77.3441,108.219 84.1774,108.886 91,109.5C 94.5856,108.714 98.4189,107.714 102.5,106.5C 104.878,104.291 107.045,101.958 109,99.5C 109.464,100.094 109.631,100.761 109.5,101.5C 104.596,107.412 98.5959,111.745 91.5,114.5C 90.1667,114.833 88.8333,115.167 87.5,115.5C 87.0618,115.565 86.7284,115.399 86.5,115C 88.6447,114.257 88.8114,113.424 87,112.5C 85.1052,113.689 83.1052,114.689 81,115.5C 80,114.833 79,114.167 78,113.5C 76.3523,115.028 74.3523,115.695 72,115.5C 66.5078,114.917 61.0078,114.417 55.5,114C 54.9781,113.439 54.6448,112.772 54.5,112C 56.2065,110.491 57.8732,108.991 59.5,107.5C 60.6129,106.054 60.7796,104.387 60,102.5C 59.2747,104.158 58.108,104.658 56.5,104C 57.4158,103.722 58.0825,103.222 58.5,102.5C 59.172,101.733 60.0053,101.066 61,100.5C 62.308,101.151 63.1414,100.485 63.5,98.5C 65.4109,98.5743 66.5776,99.5743 67,101.5C 67.49,100.207 67.6567,98.8734 67.5,97.5 Z"/></g>
<g><path style="opacity:1" fill="#008ee8" d="M 109.5,101.5 C 109.833,101.5 110.167,101.5 110.5,101.5C 111.787,102.871 112.453,104.705 112.5,107C 112.758,113.789 112.424,120.623 111.5,127.5C 110.5,127.5 109.5,127.5 108.5,127.5C 108.357,129.262 108.691,130.929 109.5,132.5C 106.524,136.224 107.19,137.224 111.5,135.5C 111.244,137.792 111.577,139.959 112.5,142C 109.834,143.833 108.168,146.333 107.5,149.5C 105.167,149.5 102.833,149.5 100.5,149.5C 101.209,148.596 102.209,148.263 103.5,148.5C 103.5,147.167 103.5,145.833 103.5,144.5C 107.323,144.182 109.157,142.182 109,138.5C 108.667,139.167 108.333,139.833 108,140.5C 105.306,139.054 104.473,137.054 105.5,134.5C 103.424,133.9 101.424,133.567 99.5,133.5C 100.953,131.356 100.62,129.523 98.5,128C 101.167,127.333 101.167,126.667 98.5,126C 100.394,123.476 102.727,122.81 105.5,124C 109.77,117.006 107.936,115.173 100,118.5C 99.6667,117.167 99.3333,115.833 99,114.5C 97.6012,115.227 96.1012,115.727 94.5,116C 95.6956,116.654 95.6956,117.154 94.5,117.5C 93.1451,116.812 92.1451,115.812 91.5,114.5C 98.5959,111.745 104.596,107.412 109.5,101.5 Z"/></g>
<g><path style="opacity:1" fill="#0092e8" d="M 137.5,126.5 C 137.938,126.435 138.272,126.601 138.5,127C 137.773,129.124 137.106,131.291 136.5,133.5C 136.833,133.833 137.167,134.167 137.5,134.5C 138.251,133.624 138.751,132.624 139,131.5C 139.167,132.167 139.333,132.833 139.5,133.5C 137.324,136.518 135.658,139.851 134.5,143.5C 135.819,145.532 135.819,147.532 134.5,149.5C 128.833,149.5 123.167,149.5 117.5,149.5C 117.649,148.448 117.483,147.448 117,146.5C 116.107,147.711 115.274,147.711 114.5,146.5C 116.277,145.099 117.944,143.599 119.5,142C 118.692,141.692 118.025,141.192 117.5,140.5C 118.833,139.167 120.167,137.833 121.5,136.5C 119.922,135.928 118.422,135.594 117,135.5C 117.135,133.575 117.302,131.575 117.5,129.5C 118.833,129.5 120.167,129.5 121.5,129.5C 121.5,128.5 121.5,127.5 121.5,126.5C 120.448,126.649 119.448,126.483 118.5,126C 121.447,125.888 122.78,124.388 122.5,121.5C 121.5,121.5 120.5,121.5 119.5,121.5C 119.714,119.856 119.38,118.356 118.5,117C 119.307,111.917 119.807,106.75 120,101.5C 122.218,99.8178 124.051,97.8178 125.5,95.5C 125.167,95.1667 124.833,94.8333 124.5,94.5C 123.833,95.1667 123.167,95.8333 122.5,96.5C 121.513,90.1951 121.513,84.1951 122.5,78.5C 123.531,77.645 124.697,76.9783 126,76.5C 125.942,77.98 127.109,78.8133 129.5,79C 129.167,79.3333 128.833,79.6667 128.5,80C 130.112,80.7203 131.612,80.5536 133,79.5C 133.276,84.815 133.442,89.9817 133.5,95C 131.918,100.881 131.252,106.715 131.5,112.5C 130.5,112.5 129.5,112.5 128.5,112.5C 128.16,115.144 128.827,117.477 130.5,119.5C 126.245,121.865 126.579,122.865 131.5,122.5C 132.483,125.209 132.65,127.876 132,130.5C 133.057,128.781 133.89,126.947 134.5,125C 135.788,124.761 136.788,125.261 137.5,126.5 Z"/></g>
<g><path style="opacity:1" fill="#0189e5" d="M 91.5,114.5 C 92.1451,115.812 93.1451,116.812 94.5,117.5C 95.6956,117.154 95.6956,116.654 94.5,116C 96.1012,115.727 97.6012,115.227 99,114.5C 99.3333,115.833 99.6667,117.167 100,118.5C 107.936,115.173 109.77,117.006 105.5,124C 102.727,122.81 100.394,123.476 98.5,126C 101.167,126.667 101.167,127.333 98.5,128C 100.62,129.523 100.953,131.356 99.5,133.5C 101.424,133.567 103.424,133.9 105.5,134.5C 104.473,137.054 105.306,139.054 108,140.5C 108.333,139.833 108.667,139.167 109,138.5C 109.157,142.182 107.323,144.182 103.5,144.5C 103.5,145.833 103.5,147.167 103.5,148.5C 102.209,148.263 101.209,148.596 100.5,149.5C 95.8333,149.5 91.1667,149.5 86.5,149.5C 88.7792,138.601 87.4459,128.267 82.5,118.5C 84.0725,117.313 85.7392,116.313 87.5,115.5C 88.8333,115.167 90.1667,114.833 91.5,114.5 Z"/></g>
<g><path style="opacity:1" fill="#003f94" d="M -0.5,112.5 C 2.80968,112.461 5.47635,113.794 7.5,116.5C 8.93737,113.956 10.4374,113.956 12,116.5C 17.5928,115.103 23.0928,115.436 28.5,117.5C 28.5,118.833 28.5,120.167 28.5,121.5C 36.9183,122.12 37.2517,123.287 29.5,125C 31.2852,126.163 33.2852,126.83 35.5,127C 33.4588,128.741 31.2921,128.908 29,127.5C 28.1667,128.333 27.3333,129.167 26.5,130C 20.0994,130.319 13.766,131.152 7.5,132.5C 4.8031,132.297 2.13644,131.964 -0.5,131.5C -0.5,125.167 -0.5,118.833 -0.5,112.5 Z"/></g>
<g><path style="opacity:1" fill="#0089e5" d="M 168.5,101.5 C 168.5,117.5 168.5,133.5 168.5,149.5C 157.167,149.5 145.833,149.5 134.5,149.5C 135.819,147.532 135.819,145.532 134.5,143.5C 135.658,139.851 137.324,136.518 139.5,133.5C 139.333,132.833 139.167,132.167 139,131.5C 138.751,132.624 138.251,133.624 137.5,134.5C 137.167,134.167 136.833,133.833 136.5,133.5C 137.106,131.291 137.773,129.124 138.5,127C 138.272,126.601 137.938,126.435 137.5,126.5C 137.5,125.5 137.5,124.5 137.5,123.5C 138.931,123.881 139.764,124.881 140,126.5C 141.357,124.345 141.524,122.178 140.5,120C 141.424,118.189 142.257,118.355 143,120.5C 144.46,118.028 145.46,115.361 146,112.5C 146.928,110.665 148.094,110.332 149.5,111.5C 150.281,110.271 150.781,108.938 151,107.5C 152.655,109.747 152.988,112.08 152,114.5C 152.333,114.167 152.667,113.833 153,113.5C 153.333,110.5 153.667,107.5 154,104.5C 154.333,107.167 154.667,109.833 155,112.5C 156.512,111.743 157.846,110.743 159,109.5C 158.383,111.095 158.716,112.428 160,113.5C 161.344,111.658 162.844,109.992 164.5,108.5C 163.15,106.217 163.483,104.217 165.5,102.5C 166.209,101.596 167.209,101.263 168.5,101.5 Z"/></g>
<g><path style="opacity:1" fill="#0048a4" d="M 59.5,107.5 C 57.8732,108.991 56.2065,110.491 54.5,112C 54.6448,112.772 54.9781,113.439 55.5,114C 61.0078,114.417 66.5078,114.917 72,115.5C 74.3523,115.695 76.3523,115.028 78,113.5C 79,114.167 80,114.833 81,115.5C 83.1052,114.689 85.1052,113.689 87,112.5C 88.8114,113.424 88.6447,114.257 86.5,115C 86.7284,115.399 87.0618,115.565 87.5,115.5C 85.7392,116.313 84.0725,117.313 82.5,118.5C 72.2687,123.744 61.602,127.911 50.5,131C 38.7164,132.764 27.0497,134.264 15.5,135.5C 14.5,134.167 13.5,134.167 12.5,135.5C 8.16667,135.5 3.83333,135.5 -0.5,135.5C -0.5,134.167 -0.5,132.833 -0.5,131.5C 2.13644,131.964 4.8031,132.297 7.5,132.5C 13.766,131.152 20.0994,130.319 26.5,130C 27.3333,129.167 28.1667,128.333 29,127.5C 31.2921,128.908 33.4588,128.741 35.5,127C 33.2852,126.83 31.2852,126.163 29.5,125C 37.2517,123.287 36.9183,122.12 28.5,121.5C 28.5,120.167 28.5,118.833 28.5,117.5C 29.7348,117.279 30.7348,116.612 31.5,115.5C 32.2164,116.311 33.0497,116.978 34,117.5C 37.1717,117.144 40.3384,117.81 43.5,119.5C 44.3081,119.192 44.9747,118.692 45.5,118C 43.7888,116.867 43.2888,115.367 44,113.5C 44.3333,113.833 44.6667,114.167 45,114.5C 49.7032,111.802 54.5365,109.469 59.5,107.5 Z"/></g>
<g><path style="opacity:1" fill="#002f80" d="M 82.5,118.5 C 87.4459,128.267 88.7792,138.601 86.5,149.5C 75.8333,149.5 65.1667,149.5 54.5,149.5C 52.5332,147.507 50.5332,145.507 48.5,143.5C 48.1944,139.288 46.6944,138.622 44,141.5C 42.5806,140.54 41.0806,139.707 39.5,139C 32.5335,138.002 25.5335,137.336 18.5,137C 17.4734,136.487 16.4734,135.987 15.5,135.5C 27.0497,134.264 38.7164,132.764 50.5,131C 61.602,127.911 72.2687,123.744 82.5,118.5 Z"/></g>
<g><path style="opacity:1" fill="#008ad8" d="M 15.5,135.5 C 16.4734,135.987 17.4734,136.487 18.5,137C 25.5335,137.336 32.5335,138.002 39.5,139C 41.0806,139.707 42.5806,140.54 44,141.5C 46.6944,138.622 48.1944,139.288 48.5,143.5C 50.5332,145.507 52.5332,147.507 54.5,149.5C 51.8333,149.5 49.1667,149.5 46.5,149.5C 47.3317,144.662 45.3317,141.829 40.5,141C 35.2048,139.098 29.8715,138.598 24.5,139.5C 20.804,139.217 17.1374,138.717 13.5,138C 12.7476,137.329 12.4142,136.496 12.5,135.5C 13.5,134.167 14.5,134.167 15.5,135.5 Z"/></g>
<g><path style="opacity:1" fill="#0083e0" d="M -0.5,135.5 C 3.83333,135.5 8.16667,135.5 12.5,135.5C 12.4142,136.496 12.7476,137.329 13.5,138C 17.1374,138.717 20.804,139.217 24.5,139.5C 29.8715,138.598 35.2048,139.098 40.5,141C 45.3317,141.829 47.3317,144.662 46.5,149.5C 30.8333,149.5 15.1667,149.5 -0.5,149.5C -0.5,144.833 -0.5,140.167 -0.5,135.5 Z"/></g>
</svg>
