<?xml version="1.0" encoding="UTF-8"?>
<!DOCTYPE svg PUBLIC "-//W3C//DTD SVG 1.1//EN" "http://www.w3.org/Graphics/SVG/1.1/DTD/svg11.dtd">
<svg xmlns="http://www.w3.org/2000/svg" version="1.1" width="176px" height="179px" style="shape-rendering:geometricPrecision; text-rendering:geometricPrecision; image-rendering:optimizeQuality; fill-rule:evenodd; clip-rule:evenodd" xmlns:xlink="http://www.w3.org/1999/xlink">
<g><path style="opacity:1" fill="#f1f0ed" d="M 74.5,-0.5 C 108.167,-0.5 141.833,-0.5 175.5,-0.5C 175.5,2.83333 175.5,6.16667 175.5,9.5C 174.833,9.5 174.167,9.5 173.5,9.5C 162.876,8.61066 152.21,7.27733 141.5,5.5C 138.833,5.5 136.167,5.5 133.5,5.5C 123.152,5.0373 112.819,4.37064 102.5,3.5C 101.5,3.5 100.5,3.5 99.5,3.5C 92.3311,2.54564 84.9978,1.7123 77.5,1C 76.2625,0.76791 75.2625,0.26791 74.5,-0.5 Z"/></g>
<g><path style="opacity:1" fill="#c48502" d="M 102.5,3.5 C 112.819,4.37064 123.152,5.0373 133.5,5.5C 133.5,6.16667 133.167,6.5 132.5,6.5C 128.064,6.21011 123.73,6.71011 119.5,8C 122.5,8.33333 125.5,8.66667 128.5,9C 117.802,9.13095 107.136,8.46428 96.5,7C 103.833,7 111.167,7 118.5,7C 113.038,5.94096 107.705,4.77429 102.5,3.5 Z"/></g>
<g><path style="opacity:1" fill="#ce8b01" d="M 42.5,-0.5 C 49.1667,-0.5 55.8333,-0.5 62.5,-0.5C 58.8393,2.16467 55.8393,5.498 53.5,9.5C 58.5232,12.988 62.0232,11.988 64,6.5C 66.5062,4.13254 69.0062,1.79921 71.5,-0.5C 72.5,-0.5 73.5,-0.5 74.5,-0.5C 75.2625,0.26791 76.2625,0.76791 77.5,1C 84.9978,1.7123 92.3311,2.54564 99.5,3.5C 95.8183,3.3347 92.1516,3.50137 88.5,4C 91.0432,4.13966 93.3766,4.80633 95.5,6C 93.5,6.16667 91.5,6.33333 89.5,6.5C 82.1782,5.58384 74.8449,5.41717 67.5,6C 67.0426,6.41395 66.7093,6.91395 66.5,7.5C 72.3572,8.61125 78.1906,9.61125 84,10.5C 85.1068,9.2881 85.6068,9.62143 85.5,11.5C 83.636,11.3208 81.636,11.8208 79.5,13C 80.1667,14 80.8333,15 81.5,16C 81.2716,16.3988 80.9382,16.5654 80.5,16.5C 78.6214,16.6068 78.2881,16.1068 79.5,15C 64.6547,13.6017 49.8214,12.1017 35,10.5C 34.1667,10.1667 33.3333,9.83333 32.5,9.5C 33.1272,8.58317 33.4606,7.58317 33.5,6.5C 36.2139,3.78457 39.2139,1.45124 42.5,-0.5 Z"/></g>
<g><path style="opacity:1" fill="#f0be1f" d="M 62.5,-0.5 C 65.5,-0.5 68.5,-0.5 71.5,-0.5C 69.0062,1.79921 66.5062,4.13254 64,6.5C 62.0232,11.988 58.5232,12.988 53.5,9.5C 55.8393,5.498 58.8393,2.16467 62.5,-0.5 Z"/></g>
<g><path style="opacity:1" fill="#d8970a" d="M 141.5,5.5 C 152.21,7.27733 162.876,8.61066 173.5,9.5C 171.964,12.0922 169.631,13.0922 166.5,12.5C 157.748,11.8505 149.248,10.5172 141,8.5C 138.457,11.7486 136.291,15.2486 134.5,19C 131.493,19.3013 128.493,19.1346 125.5,18.5C 125.263,17.209 125.596,16.209 126.5,15.5C 127.334,16.7479 128.667,17.4146 130.5,17.5C 131.833,17.1667 133.167,16.8333 134.5,16.5C 136.082,12.3302 138.416,8.66357 141.5,5.5 Z"/></g>
<g><path style="opacity:1" fill="#e09900" d="M 99.5,3.5 C 100.5,3.5 101.5,3.5 102.5,3.5C 107.705,4.77429 113.038,5.94096 118.5,7C 111.167,7 103.833,7 96.5,7C 107.136,8.46428 117.802,9.13095 128.5,9C 125.5,8.66667 122.5,8.33333 119.5,8C 123.73,6.71011 128.064,6.21011 132.5,6.5C 130.084,8.90777 128.084,11.5744 126.5,14.5C 118.811,13.6977 111.144,12.6977 103.5,11.5C 100.526,8.04161 97.1924,7.70828 93.5,10.5C 91.022,7.87905 88.6886,7.87905 86.5,10.5C 86.5,11.1667 86.1667,11.5 85.5,11.5C 85.6068,9.62143 85.1068,9.2881 84,10.5C 78.1906,9.61125 72.3572,8.61125 66.5,7.5C 66.7093,6.91395 67.0426,6.41395 67.5,6C 74.8449,5.41717 82.1782,5.58384 89.5,6.5C 91.5,6.33333 93.5,6.16667 95.5,6C 93.3766,4.80633 91.0432,4.13966 88.5,4C 92.1516,3.50137 95.8183,3.3347 99.5,3.5 Z"/></g>
<g><path style="opacity:1" fill="#fedc0e" d="M 103.5,11.5 C 102.542,11.9528 101.708,12.6195 101,13.5C 98.7711,10.8438 96.9378,11.1771 95.5,14.5C 92.8908,13.7695 90.2241,13.2695 87.5,13C 88.8825,11.5391 88.5492,10.7058 86.5,10.5C 88.6886,7.87905 91.022,7.87905 93.5,10.5C 97.1924,7.70828 100.526,8.04161 103.5,11.5 Z"/></g>
<g><path style="opacity:1" fill="#e09800" d="M 166.5,13.5 C 167.675,13.281 168.675,13.6143 169.5,14.5C 168.965,16.261 167.965,17.5943 166.5,18.5C 157.097,17.6579 147.763,16.3246 138.5,14.5C 138.833,13.8333 139.167,13.1667 139.5,12.5C 148.515,11.6997 157.515,12.0331 166.5,13.5 Z"/></g>
<g><path style="opacity:1" fill="#f9f9f9" d="M -0.5,-0.5 C 9.16667,-0.5 18.8333,-0.5 28.5,-0.5C 28.5,4.5 28.5,9.5 28.5,14.5C 23.5,14.5 18.5,14.5 13.5,14.5C 13.5,19.5 13.5,24.5 13.5,29.5C 18.5,29.5 23.5,29.5 28.5,29.5C 28.5,34.5 28.5,39.5 28.5,44.5C 23.5,44.5 18.5,44.5 13.5,44.5C 13.5,49.5 13.5,54.5 13.5,59.5C 18.5,59.5 23.5,59.5 28.5,59.5C 28.5,64.5 28.5,69.5 28.5,74.5C 23.5,74.5 18.5,74.5 13.5,74.5C 13.5,78.5 13.5,82.5 13.5,86.5C 11.751,88.256 9.75096,89.5894 7.5,90.5C 5.5168,91.4706 3.5168,92.4706 1.5,93.5C 0.833333,93.8333 0.166667,94.1667 -0.5,94.5C -0.5,62.8333 -0.5,31.1667 -0.5,-0.5 Z"/></g>
<g><path style="opacity:1" fill="#512e00" d="M 45.5,15.5 C 52.3524,26.5376 58.6857,37.8709 64.5,49.5C 66.4078,53.5537 65.4078,56.5537 61.5,58.5C 52.9409,44.3934 44.6076,30.0601 36.5,15.5C 39.4977,14.3565 42.4977,14.3565 45.5,15.5 Z"/></g>
<g><path style="opacity:1" fill="#f6c425" d="M 133.5,5.5 C 136.167,5.5 138.833,5.5 141.5,5.5C 138.416,8.66357 136.082,12.3302 134.5,16.5C 133.167,16.8333 131.833,17.1667 130.5,17.5C 128.667,17.4146 127.334,16.7479 126.5,15.5C 126.5,15.1667 126.5,14.8333 126.5,14.5C 128.084,11.5744 130.084,8.90777 132.5,6.5C 133.167,6.5 133.5,6.16667 133.5,5.5 Z"/></g>
<g><path style="opacity:1" fill="#a45e00" d="M 173.5,9.5 C 174.167,9.5 174.833,9.5 175.5,9.5C 175.5,13.8333 175.5,18.1667 175.5,22.5C 170.847,26.453 167.68,31.453 166,37.5C 165.265,33.1866 164.765,28.8533 164.5,24.5C 165.73,22.7028 166.396,20.7028 166.5,18.5C 167.965,17.5943 168.965,16.261 169.5,14.5C 168.675,13.6143 167.675,13.281 166.5,13.5C 166.5,13.1667 166.5,12.8333 166.5,12.5C 169.631,13.0922 171.964,12.0922 173.5,9.5 Z"/></g>
<g><path style="opacity:1" fill="#351d00" d="M 45.5,15.5 C 48.0593,15.1984 50.3926,15.5318 52.5,16.5C 57.0985,25.3786 62.4319,33.7119 68.5,41.5C 68.5793,44.2706 68.0793,46.9373 67,49.5C 66.2303,50.5981 65.397,50.5981 64.5,49.5C 58.6857,37.8709 52.3524,26.5376 45.5,15.5 Z"/></g>
<g><path style="opacity:1" fill="#502d00" d="M 52.5,16.5 C 62.2177,16.212 71.5511,17.5453 80.5,20.5C 79.8333,22.5 79.1667,24.5 78.5,26.5C 75.4552,26.4921 72.4552,26.1587 69.5,25.5C 69.6283,30.7558 69.295,36.0891 68.5,41.5C 62.4319,33.7119 57.0985,25.3786 52.5,16.5 Z"/></g>
<g><path style="opacity:1" fill="#ca8700" d="M 166.5,12.5 C 166.5,12.8333 166.5,13.1667 166.5,13.5C 157.515,12.0331 148.515,11.6997 139.5,12.5C 139.167,13.1667 138.833,13.8333 138.5,14.5C 147.763,16.3246 157.097,17.6579 166.5,18.5C 166.396,20.7028 165.73,22.7028 164.5,24.5C 144.489,22.3321 124.489,19.9987 104.5,17.5C 102.545,17.7245 100.879,18.3911 99.5,19.5C 99.3653,17.4458 100.032,15.7791 101.5,14.5C 102.906,14.0269 103.573,13.0269 103.5,11.5C 111.144,12.6977 118.811,13.6977 126.5,14.5C 126.5,14.8333 126.5,15.1667 126.5,15.5C 125.596,16.209 125.263,17.209 125.5,18.5C 128.493,19.1346 131.493,19.3013 134.5,19C 136.291,15.2486 138.457,11.7486 141,8.5C 149.248,10.5172 157.748,11.8505 166.5,12.5 Z"/></g>
<g><path style="opacity:1" fill="#f9d51b" d="M 82.5,16.5 C 87.787,17.3424 93.1203,17.6757 98.5,17.5C 98.67,18.8221 98.3366,19.9887 97.5,21C 94.1464,21.4552 90.8131,21.9552 87.5,22.5C 85.8072,20.8251 83.8072,19.4918 81.5,18.5C 81.8627,17.8165 82.1961,17.1499 82.5,16.5 Z"/></g>
<g><path style="opacity:1" fill="#4f2d00" d="M 99.5,21.5 C 119.852,23.6353 140.186,25.9686 160.5,28.5C 160.5,31.1667 160.5,33.8333 160.5,36.5C 139.469,34.4479 118.469,32.1146 97.5,29.5C 97.6816,27.4086 97.3482,25.4086 96.5,23.5C 97.3569,22.5748 98.3569,21.9081 99.5,21.5 Z"/></g>
<g><path style="opacity:1" fill="#eec025" d="M 86.5,10.5 C 88.5492,10.7058 88.8825,11.5391 87.5,13C 90.2241,13.2695 92.8908,13.7695 95.5,14.5C 96.9378,11.1771 98.7711,10.8438 101,13.5C 101.708,12.6195 102.542,11.9528 103.5,11.5C 103.573,13.0269 102.906,14.0269 101.5,14.5C 100.417,14.4606 99.4168,14.1272 98.5,13.5C 97.2888,14.2739 97.2888,15.1072 98.5,16C 98,16.1667 97.5,16.3333 97,16.5C 92.0236,15.2217 87.1902,15.2217 82.5,16.5C 82.1961,17.1499 81.8627,17.8165 81.5,18.5C 83.8072,19.4918 85.8072,20.8251 87.5,22.5C 86.5,22.5 85.5,22.5 84.5,22.5C 84.4921,25.5448 84.1587,28.5448 83.5,31.5C 81.9699,32.2112 80.6366,33.2112 79.5,34.5C 78.5269,32.0521 78.1936,29.3854 78.5,26.5C 79.1667,24.5 79.8333,22.5 80.5,20.5C 80.5,19.1667 80.5,17.8333 80.5,16.5C 80.9382,16.5654 81.2716,16.3988 81.5,16C 80.8333,15 80.1667,14 79.5,13C 81.636,11.8208 83.636,11.3208 85.5,11.5C 86.1667,11.5 86.5,11.1667 86.5,10.5 Z"/></g>
<g><path style="opacity:1" fill="#c16f00" d="M 164.5,24.5 C 164.765,28.8533 165.265,33.1866 166,37.5C 167.68,31.453 170.847,26.453 175.5,22.5C 175.5,40.1667 175.5,57.8333 175.5,75.5C 174.262,77.2143 173.595,79.2143 173.5,81.5C 171.585,81.7845 169.919,81.4511 168.5,80.5C 167.841,69.8722 166.175,59.5389 163.5,49.5C 163.5,48.1667 163.5,46.8333 163.5,45.5C 163.236,39.578 162.236,33.9114 160.5,28.5C 140.186,25.9686 119.852,23.6353 99.5,21.5C 99.5,20.8333 99.5,20.1667 99.5,19.5C 100.879,18.3911 102.545,17.7245 104.5,17.5C 124.489,19.9987 144.489,22.3321 164.5,24.5 Z"/></g>
<g><path style="opacity:1" fill="#f2f2f1" d="M 28.5,-0.5 C 33.1667,-0.5 37.8333,-0.5 42.5,-0.5C 39.2139,1.45124 36.2139,3.78457 33.5,6.5C 30.9953,8.18593 30.162,10.5193 31,13.5C 37.3474,22.8623 43.1807,32.529 48.5,42.5C 47.4479,44.256 45.7812,44.9227 43.5,44.5C 43.5,49.5 43.5,54.5 43.5,59.5C 38.5,59.5 33.5,59.5 28.5,59.5C 23.5,59.5 18.5,59.5 13.5,59.5C 13.5,54.5 13.5,49.5 13.5,44.5C 18.5,44.5 23.5,44.5 28.5,44.5C 28.5,39.5 28.5,34.5 28.5,29.5C 23.5,29.5 18.5,29.5 13.5,29.5C 13.5,24.5 13.5,19.5 13.5,14.5C 18.5,14.5 23.5,14.5 28.5,14.5C 28.5,9.5 28.5,4.5 28.5,-0.5 Z"/></g>
<g><path style="opacity:1" fill="#b56e09" d="M 33.5,6.5 C 33.4606,7.58317 33.1272,8.58317 32.5,9.5C 33.3333,9.83333 34.1667,10.1667 35,10.5C 49.8214,12.1017 64.6547,13.6017 79.5,15C 78.2881,16.1068 78.6214,16.6068 80.5,16.5C 80.5,17.8333 80.5,19.1667 80.5,20.5C 71.5511,17.5453 62.2177,16.212 52.5,16.5C 50.3926,15.5318 48.0593,15.1984 45.5,15.5C 42.4977,14.3565 39.4977,14.3565 36.5,15.5C 44.6076,30.0601 52.9409,44.3934 61.5,58.5C 61.5,59.5 61.5,60.5 61.5,61.5C 60.3478,62.625 59.3478,62.625 58.5,61.5C 59.4646,60.2789 59.298,58.9456 58,57.5C 54.8087,52.4356 51.6421,47.4356 48.5,42.5C 43.1807,32.529 37.3474,22.8623 31,13.5C 30.162,10.5193 30.9953,8.18593 33.5,6.5 Z"/></g>
<g><path style="opacity:1" fill="#623900" d="M 160.5,28.5 C 162.236,33.9114 163.236,39.578 163.5,45.5C 140.139,43.0524 116.805,40.3858 93.5,37.5C 95.3582,35.1169 96.6916,32.4502 97.5,29.5C 118.469,32.1146 139.469,34.4479 160.5,36.5C 160.5,33.8333 160.5,31.1667 160.5,28.5 Z"/></g>
<g><path style="opacity:1" fill="#f5e9af" d="M 83.5,31.5 C 83.9754,34.3126 82.9754,36.3126 80.5,37.5C 79.596,36.791 79.2627,35.791 79.5,34.5C 80.6366,33.2112 81.9699,32.2112 83.5,31.5 Z"/></g>
<g><path style="opacity:1" fill="#deab1c" d="M 101.5,14.5 C 100.032,15.7791 99.3653,17.4458 99.5,19.5C 99.5,20.1667 99.5,20.8333 99.5,21.5C 98.3569,21.9081 97.3569,22.5748 96.5,23.5C 97.3482,25.4086 97.6816,27.4086 97.5,29.5C 96.6916,32.4502 95.3582,35.1169 93.5,37.5C 91.3428,39.4121 89.0094,41.0787 86.5,42.5C 82.6897,43.024 80.6897,41.3574 80.5,37.5C 82.9754,36.3126 83.9754,34.3126 83.5,31.5C 84.1587,28.5448 84.4921,25.5448 84.5,22.5C 85.5,22.5 86.5,22.5 87.5,22.5C 90.8131,21.9552 94.1464,21.4552 97.5,21C 98.3366,19.9887 98.67,18.8221 98.5,17.5C 93.1203,17.6757 87.787,17.3424 82.5,16.5C 87.1902,15.2217 92.0236,15.2217 97,16.5C 97.5,16.3333 98,16.1667 98.5,16C 97.2888,15.1072 97.2888,14.2739 98.5,13.5C 99.4168,14.1272 100.417,14.4606 101.5,14.5 Z"/></g>
<g><path style="opacity:1" fill="#fddb13" d="M 87.5,34.5 C 90.2155,32.0982 92.7155,29.4315 95,26.5C 95.3739,33.9943 91.8739,38.9943 84.5,41.5C 84.1667,41.1667 83.8333,40.8333 83.5,40.5C 84.4671,38.2099 85.8004,36.2099 87.5,34.5 Z"/></g>
<g><path style="opacity:1" fill="#553100" d="M 87.5,34.5 C 86.5,34.5 85.5,34.5 84.5,34.5C 85.0508,31.1933 85.3841,27.8599 85.5,24.5C 86.5,24.5 87.5,24.5 88.5,24.5C 88.3841,27.8599 88.0508,31.1933 87.5,34.5 Z"/></g>
<g><path style="opacity:1" fill="#4e2c00" d="M 93.5,37.5 C 116.805,40.3858 140.139,43.0524 163.5,45.5C 163.5,46.8333 163.5,48.1667 163.5,49.5C 163.5,50.8333 163.5,52.1667 163.5,53.5C 138.405,51.1294 113.405,47.9627 88.5,44C 87.5842,43.7216 86.9175,43.2216 86.5,42.5C 89.0094,41.0787 91.3428,39.4121 93.5,37.5 Z"/></g>
<g><path style="opacity:1" fill="#603801" d="M 78.5,26.5 C 78.1936,29.3854 78.5269,32.0521 79.5,34.5C 79.2627,35.791 79.596,36.791 80.5,37.5C 80.6897,41.3574 82.6897,43.024 86.5,42.5C 86.9175,43.2216 87.5842,43.7216 88.5,44C 113.405,47.9627 138.405,51.1294 163.5,53.5C 163.5,52.1667 163.5,50.8333 163.5,49.5C 166.175,59.5389 167.841,69.8722 168.5,80.5C 164.158,80.2605 159.824,79.9272 155.5,79.5C 155.5,77.1667 155.5,74.8333 155.5,72.5C 148.126,71.3821 140.793,70.0488 133.5,68.5C 132.548,70.0453 132.215,71.712 132.5,73.5C 131.127,73.6567 129.793,73.49 128.5,73C 127.267,71.3333 125.933,69.8333 124.5,68.5C 123.493,68.4524 123.16,69.4524 123.5,71.5C 119.629,71.815 115.962,71.4816 112.5,70.5C 110.422,63.0771 105.755,57.7438 98.5,54.5C 96.0006,56.3955 96.0006,58.3955 98.5,60.5C 101.49,63.863 100.824,66.1963 96.5,67.5C 94.8333,67.5 93.1667,67.5 91.5,67.5C 91.5,65.1667 91.5,62.8333 91.5,60.5C 85.5,59.8333 79.5,59.1667 73.5,58.5C 73.5,59.8333 73.5,61.1667 73.5,62.5C 73.1667,62.5 72.8333,62.5 72.5,62.5C 69.4824,62.2962 66.4824,61.9629 63.5,61.5C 62.8333,61.5 62.1667,61.5 61.5,61.5C 61.5,60.5 61.5,59.5 61.5,58.5C 65.4078,56.5537 66.4078,53.5537 64.5,49.5C 65.397,50.5981 66.2303,50.5981 67,49.5C 68.0793,46.9373 68.5793,44.2706 68.5,41.5C 69.295,36.0891 69.6283,30.7558 69.5,25.5C 72.4552,26.1587 75.4552,26.4921 78.5,26.5 Z"/></g>
<g><path style="opacity:1" fill="#f5c704" d="M 112.5,70.5 C 110.784,70.3713 109.117,70.038 107.5,69.5C 106.306,68.7281 105.306,67.7281 104.5,66.5C 105.412,65.2618 105.579,63.9285 105,62.5C 102.913,61.6028 100.746,60.9361 98.5,60.5C 96.0006,58.3955 96.0006,56.3955 98.5,54.5C 105.755,57.7438 110.422,63.0771 112.5,70.5 Z"/></g>
<g><path style="opacity:1" fill="#ececea" d="M 48.5,42.5 C 51.6421,47.4356 54.8087,52.4356 58,57.5C 59.298,58.9456 59.4646,60.2789 58.5,61.5C 57.2905,61.9321 56.2905,62.5987 55.5,63.5C 53.4017,64.9143 52.4017,64.2476 52.5,61.5C 45.6321,61.8498 39.7988,64.5165 35,69.5C 34.5099,71.5454 34.6765,73.5454 35.5,75.5C 33.8008,75.3398 32.1341,75.5065 30.5,76C 29.2509,77.98 27.9176,79.8133 26.5,81.5C 26.44,80.9569 26.1067,80.6236 25.5,80.5C 21.7568,83.0383 17.7568,85.0383 13.5,86.5C 13.5,82.5 13.5,78.5 13.5,74.5C 18.5,74.5 23.5,74.5 28.5,74.5C 28.5,69.5 28.5,64.5 28.5,59.5C 33.5,59.5 38.5,59.5 43.5,59.5C 43.5,54.5 43.5,49.5 43.5,44.5C 45.7812,44.9227 47.4479,44.256 48.5,42.5 Z"/></g>
<g><path style="opacity:1" fill="#b68400" d="M 91.5,67.5 C 91.1583,68.3382 90.4916,68.6716 89.5,68.5C 88.7703,66.955 87.437,66.1216 85.5,66C 86.5,65.6667 87.5,65.3333 88.5,65C 83.5648,63.733 78.5648,62.8997 73.5,62.5C 73.5,61.1667 73.5,59.8333 73.5,58.5C 79.5,59.1667 85.5,59.8333 91.5,60.5C 91.5,62.8333 91.5,65.1667 91.5,67.5 Z"/></g>
<g><path style="opacity:1" fill="#e29e06" d="M 55.5,63.5 C 56.5,64.1667 57.5,64.8333 58.5,65.5C 57.2825,66.1614 55.9492,66.8281 54.5,67.5C 55.9492,68.1719 57.2825,68.8386 58.5,69.5C 57.8333,70.5 57.1667,71.5 56.5,72.5C 56.719,71.325 56.3857,70.325 55.5,69.5C 51.8728,71.601 49.7061,74.601 49,78.5C 50.3297,77.4178 51.8297,76.7512 53.5,76.5C 53.5,76.8333 53.5,77.1667 53.5,77.5C 53.1583,78.3382 52.4916,78.6716 51.5,78.5C 49.2965,79.9462 46.9631,80.7796 44.5,81C 47.1624,79.0579 47.4958,77.2246 45.5,75.5C 42.8239,75.9394 40.4905,76.9394 38.5,78.5C 37.391,78.5569 36.391,78.8902 35.5,79.5C 35.5,78.1667 35.5,76.8333 35.5,75.5C 34.6765,73.5454 34.5099,71.5454 35,69.5C 39.7988,64.5165 45.6321,61.8498 52.5,61.5C 52.4017,64.2476 53.4017,64.9143 55.5,63.5 Z"/></g>
<g><path style="opacity:1" fill="#c1933e" d="M 63.5,61.5 C 66.4824,61.9629 69.4824,62.2962 72.5,62.5C 71.8166,64.1765 70.4832,64.8432 68.5,64.5C 66.8007,64.4729 65.4674,63.8062 64.5,62.5C 63.8333,62.5 63.5,62.1667 63.5,61.5 Z"/></g>
<g><path style="opacity:1" fill="#f1a67d" d="M 58.5,61.5 C 59.3478,62.625 60.3478,62.625 61.5,61.5C 62.1667,61.5 62.8333,61.5 63.5,61.5C 63.5,62.1667 63.8333,62.5 64.5,62.5C 64.5,63.5 64.5,64.5 64.5,65.5C 62.5,65.5 60.5,65.5 58.5,65.5C 57.5,64.8333 56.5,64.1667 55.5,63.5C 56.2905,62.5987 57.2905,61.9321 58.5,61.5 Z"/></g>
<g><path style="opacity:1" fill="#fac910" d="M 58.5,65.5 C 60.5,65.5 62.5,65.5 64.5,65.5C 66.0222,66.1909 67.0222,67.3576 67.5,69C 66.3379,72.1469 65.3379,75.3136 64.5,78.5C 69.3567,80.0762 74.3567,81.4096 79.5,82.5C 73.6099,84.7302 67.6099,85.0635 61.5,83.5C 61.5,82.8333 61.1667,82.5 60.5,82.5C 60.5,82.1667 60.5,81.8333 60.5,81.5C 58.0096,78.2437 58.0096,74.9103 60.5,71.5C 60.1445,70.4777 59.4778,69.811 58.5,69.5C 57.2825,68.8386 55.9492,68.1719 54.5,67.5C 55.9492,66.8281 57.2825,66.1614 58.5,65.5 Z"/></g>
<g><path style="opacity:1" fill="#eb9d00" d="M 72.5,62.5 C 72.8333,62.5 73.1667,62.5 73.5,62.5C 78.5648,62.8997 83.5648,63.733 88.5,65C 87.5,65.3333 86.5,65.6667 85.5,66C 87.437,66.1216 88.7703,66.955 89.5,68.5C 88.8902,69.391 88.5569,70.391 88.5,71.5C 87.596,72.209 87.2627,73.209 87.5,74.5C 87.1667,74.5 86.8333,74.5 86.5,74.5C 81.7291,72.6821 76.7291,72.0154 71.5,72.5C 72.7387,71.788 73.2387,70.788 73,69.5C 71.9887,70.3366 70.8221,70.67 69.5,70.5C 69.67,69.1779 69.3366,68.0113 68.5,67C 69.5,66.6667 70.5,66.3333 71.5,66C 70.2625,65.7679 69.2625,65.2679 68.5,64.5C 70.4832,64.8432 71.8166,64.1765 72.5,62.5 Z"/></g>
<g><path style="opacity:1" fill="#734805" d="M 104.5,66.5 C 105.306,67.7281 106.306,68.7281 107.5,69.5C 105.5,69.1667 103.5,68.8333 101.5,68.5C 101.973,67.0937 102.973,66.427 104.5,66.5 Z"/></g>
<g><path style="opacity:1" fill="#e4aa02" d="M 98.5,60.5 C 100.746,60.9361 102.913,61.6028 105,62.5C 105.579,63.9285 105.412,65.2618 104.5,66.5C 102.973,66.427 101.973,67.0937 101.5,68.5C 100.833,68.5 100.5,68.8333 100.5,69.5C 98.8333,70.5 97.5,71.8333 96.5,73.5C 94.4031,74.8786 94.0698,76.5453 95.5,78.5C 95.5,78.8333 95.5,79.1667 95.5,79.5C 94.5416,79.9528 93.7083,80.6195 93,81.5C 92.1482,80.4293 91.3149,79.4293 90.5,78.5C 88.4677,79.0478 87.4677,80.3812 87.5,82.5C 86.2905,82.0679 85.2905,81.4013 84.5,80.5C 86.5449,79.0772 87.5449,77.0772 87.5,74.5C 88.4916,74.6716 89.1583,74.3382 89.5,73.5C 89.8333,73.5 90.1667,73.5 90.5,73.5C 92.9328,73.7271 94.5994,72.7271 95.5,70.5C 96.404,69.791 96.7373,68.791 96.5,67.5C 100.824,66.1963 101.49,63.863 98.5,60.5 Z"/></g>
<g><path style="opacity:1" fill="#62a1cd" d="M 91.5,67.5 C 93.1667,67.5 94.8333,67.5 96.5,67.5C 96.7373,68.791 96.404,69.791 95.5,70.5C 93.0672,70.2729 91.4006,71.2729 90.5,73.5C 90.1667,73.5 89.8333,73.5 89.5,73.5C 88.6618,73.1583 88.3284,72.4916 88.5,71.5C 88.5569,70.391 88.8902,69.391 89.5,68.5C 90.4916,68.6716 91.1583,68.3382 91.5,67.5 Z"/></g>
<g><path style="opacity:1" fill="#d5bb87" d="M 100.5,69.5 C 100.5,68.8333 100.833,68.5 101.5,68.5C 103.5,68.8333 105.5,69.1667 107.5,69.5C 105.274,70.7563 102.941,70.7563 100.5,69.5 Z"/></g>
<g><path style="opacity:1" fill="#b48201" d="M 155.5,79.5 C 155.5,79.8333 155.5,80.1667 155.5,80.5C 153.824,79.8166 153.157,78.4832 153.5,76.5C 146.549,75.1749 139.549,74.1749 132.5,73.5C 132.215,71.712 132.548,70.0453 133.5,68.5C 140.793,70.0488 148.126,71.3821 155.5,72.5C 155.5,74.8333 155.5,77.1667 155.5,79.5 Z"/></g>
<g><path style="opacity:1" fill="#accac2" d="M 95.5,70.5 C 94.5994,72.7271 92.9328,73.7271 90.5,73.5C 91.4006,71.2729 93.0672,70.2729 95.5,70.5 Z"/></g>
<g><path style="opacity:1" fill="#dd8506" d="M 124.5,68.5 C 124.343,69.8734 124.51,71.2068 125,72.5C 127.137,73.4786 128.971,74.8119 130.5,76.5C 129.086,77.624 127.586,78.624 126,79.5C 125.36,81.265 125.527,82.9317 126.5,84.5C 127.206,85.8543 127.206,87.521 126.5,89.5C 126.44,90.0431 126.107,90.3764 125.5,90.5C 124.482,89.8075 123.482,89.1408 122.5,88.5C 121.391,87.71 120.058,87.21 118.5,87C 119.167,86.6667 119.833,86.3333 120.5,86C 118.957,84.1217 117.124,82.6217 115,81.5C 114.338,79.1873 113.838,76.854 113.5,74.5C 111.61,74.7035 110.11,74.0368 109,72.5C 108.617,73.056 108.117,73.3893 107.5,73.5C 104.713,72.5233 101.713,72.19 98.5,72.5C 98.2291,74.3797 98.8958,75.713 100.5,76.5C 100.991,78.4107 100.991,80.4107 100.5,82.5C 98.7839,82.6287 97.1172,82.962 95.5,83.5C 95.7214,82.2652 96.3881,81.2652 97.5,80.5C 97.0431,79.7025 96.3764,79.3691 95.5,79.5C 95.5,79.1667 95.5,78.8333 95.5,78.5C 96.4511,77.0813 96.7845,75.4147 96.5,73.5C 97.5,71.8333 98.8333,70.5 100.5,69.5C 102.941,70.7563 105.274,70.7563 107.5,69.5C 109.117,70.038 110.784,70.3713 112.5,70.5C 115.962,71.4816 119.629,71.815 123.5,71.5C 123.16,69.4524 123.493,68.4524 124.5,68.5 Z"/></g>
<g><path style="opacity:1" fill="#fec900" d="M 107.5,73.5 C 105.815,75.8176 103.481,76.8176 100.5,76.5C 98.8958,75.713 98.2291,74.3797 98.5,72.5C 101.713,72.19 104.713,72.5233 107.5,73.5 Z"/></g>
<g><path style="opacity:1" fill="#e9d691" d="M 45.5,68.5 C 46.3037,70.1887 47.3037,71.8554 48.5,73.5C 45.5536,75.0916 43.5536,74.2583 42.5,71C 43.5707,70.1482 44.5707,69.3149 45.5,68.5 Z"/></g>
<g><path style="opacity:1" fill="#fecf11" d="M 71.5,72.5 C 76.7291,72.0154 81.7291,72.6821 86.5,74.5C 85.9423,75.7899 84.9423,76.6232 83.5,77C 78.4028,79.1508 73.4028,78.9842 68.5,76.5C 67.0791,73.5717 68.0791,72.2384 71.5,72.5 Z"/></g>
<g><path style="opacity:1" fill="#818350" d="M 88.5,71.5 C 88.3284,72.4916 88.6618,73.1583 89.5,73.5C 89.1583,74.3382 88.4916,74.6716 87.5,74.5C 87.2627,73.209 87.596,72.209 88.5,71.5 Z"/></g>
<g><path style="opacity:1" fill="#fed000" d="M 56.5,72.5 C 56.9118,74.9726 55.9118,76.3059 53.5,76.5C 51.8297,76.7512 50.3297,77.4178 49,78.5C 49.7061,74.601 51.8728,71.601 55.5,69.5C 56.3857,70.325 56.719,71.325 56.5,72.5 Z"/></g>
<g><path style="opacity:1" fill="#e59a59" d="M 122.5,74.5 C 120.421,74.9707 118.421,75.6373 116.5,76.5C 115.624,76.6309 114.957,76.2975 114.5,75.5C 117.111,73.1277 120.111,72.2944 123.5,73C 122.944,73.3826 122.611,73.8826 122.5,74.5 Z"/></g>
<g><path style="opacity:1" fill="#839a9e" d="M 96.5,73.5 C 96.7845,75.4147 96.4511,77.0813 95.5,78.5C 94.0698,76.5453 94.4031,74.8786 96.5,73.5 Z"/></g>
<g><path style="opacity:1" fill="#ecb31a" d="M 122.5,74.5 C 123.807,76.2232 123.807,78.0565 122.5,80C 120.19,80.4966 117.857,80.6633 115.5,80.5C 115.433,79.0413 115.766,77.7079 116.5,76.5C 118.421,75.6373 120.421,74.9707 122.5,74.5 Z"/></g>
<g><path style="opacity:1" fill="#39a84f" d="M 35.5,75.5 C 35.5,76.8333 35.5,78.1667 35.5,79.5C 33.4525,81.0745 31.1192,82.0745 28.5,82.5C 27.5084,82.6716 26.8417,82.3382 26.5,81.5C 27.9176,79.8133 29.2509,77.98 30.5,76C 32.1341,75.5065 33.8008,75.3398 35.5,75.5 Z"/></g>
<g><path style="opacity:1" fill="#eb7f03" d="M 58.5,69.5 C 59.4778,69.811 60.1445,70.4777 60.5,71.5C 58.0096,74.9103 58.0096,78.2437 60.5,81.5C 59.1667,81.5 57.8333,81.5 56.5,81.5C 57.2341,80.2921 57.5674,78.9587 57.5,77.5C 56.1667,77.5 54.8333,77.5 53.5,77.5C 53.5,77.1667 53.5,76.8333 53.5,76.5C 55.9118,76.3059 56.9118,74.9726 56.5,72.5C 57.1667,71.5 57.8333,70.5 58.5,69.5 Z"/></g>
<g><path style="opacity:1" fill="#fdd300" d="M 51.5,78.5 C 51.9842,81.5666 50.8175,83.5666 48,84.5C 44.7789,83.4724 41.6123,82.3058 38.5,81C 37.4019,80.2303 37.4019,79.397 38.5,78.5C 40.4905,76.9394 42.8239,75.9394 45.5,75.5C 47.4958,77.2246 47.1624,79.0579 44.5,81C 46.9631,80.7796 49.2965,79.9462 51.5,78.5 Z"/></g>
<g><path style="opacity:1" fill="#dd9400" d="M 132.5,73.5 C 139.549,74.1749 146.549,75.1749 153.5,76.5C 153.157,78.4832 153.824,79.8166 155.5,80.5C 157.764,81.2186 160.097,81.552 162.5,81.5C 162.5,82.1667 162.5,82.8333 162.5,83.5C 155.452,82.2021 148.452,81.2021 141.5,80.5C 141.5,79.1667 141.5,77.8333 141.5,76.5C 138.873,75.9084 136.206,75.5751 133.5,75.5C 133.946,78.0101 133.28,80.0101 131.5,81.5C 131.196,80.8501 130.863,80.1835 130.5,79.5C 132.104,77.8211 132.771,75.8211 132.5,73.5 Z"/></g>
<g><path style="opacity:1" fill="#e4d99c" d="M 90.5,78.5 C 90.5,79.8333 90.5,81.1667 90.5,82.5C 89.5,82.5 88.5,82.5 87.5,82.5C 87.4677,80.3812 88.4677,79.0478 90.5,78.5 Z"/></g>
<g><path style="opacity:1" fill="#efe278" d="M 105.5,79.5 C 104.699,81.0418 104.366,82.7085 104.5,84.5C 103.833,84.1667 103.167,83.8333 102.5,83.5C 102.5,82.1667 102.5,80.8333 102.5,79.5C 103.5,79.5 104.5,79.5 105.5,79.5 Z"/></g>
<g><path style="opacity:1" fill="#d26e00" d="M 124.5,68.5 C 125.933,69.8333 127.267,71.3333 128.5,73C 129.793,73.49 131.127,73.6567 132.5,73.5C 132.771,75.8211 132.104,77.8211 130.5,79.5C 130.863,80.1835 131.196,80.8501 131.5,81.5C 131.167,82.8333 130.833,84.1667 130.5,85.5C 129.038,86.4709 127.705,86.1376 126.5,84.5C 125.527,82.9317 125.36,81.265 126,79.5C 127.586,78.624 129.086,77.624 130.5,76.5C 128.971,74.8119 127.137,73.4786 125,72.5C 124.51,71.2068 124.343,69.8734 124.5,68.5 Z"/></g>
<g><path style="opacity:1" fill="#d9c89c" d="M 155.5,80.5 C 155.5,80.1667 155.5,79.8333 155.5,79.5C 159.824,79.9272 164.158,80.2605 168.5,80.5C 169.919,81.4511 171.585,81.7845 173.5,81.5C 172.833,82.1667 172.167,82.8333 171.5,83.5C 168.539,82.6766 165.539,82.01 162.5,81.5C 160.097,81.552 157.764,81.2186 155.5,80.5 Z"/></g>
<g><path style="opacity:1" fill="#f2cf08" d="M 105.5,79.5 C 109.474,79.1502 112.14,80.8169 113.5,84.5C 111.604,85.4656 109.604,85.7989 107.5,85.5C 106.609,84.8902 105.609,84.5569 104.5,84.5C 104.366,82.7085 104.699,81.0418 105.5,79.5 Z"/></g>
<g><path style="opacity:1" fill="#f9d119" d="M 141.5,80.5 C 148.452,81.2021 155.452,82.2021 162.5,83.5C 162.5,84.1667 162.5,84.8333 162.5,85.5C 157.775,87.4007 152.775,87.9007 147.5,87C 145.667,86.5 144.5,85.3333 144,83.5C 143.517,84.448 143.351,85.448 143.5,86.5C 140.669,85.9213 138.336,84.588 136.5,82.5C 137.552,80.744 139.219,80.0773 141.5,80.5 Z"/></g>
<g><path style="opacity:1" fill="#fccbc8" d="M 56.5,81.5 C 57.8333,81.5 59.1667,81.5 60.5,81.5C 60.5,81.8333 60.5,82.1667 60.5,82.5C 60.5,83.8333 60.5,85.1667 60.5,86.5C 58.8333,86.5 57.1667,86.5 55.5,86.5C 55.5,85.1667 55.5,83.8333 55.5,82.5C 55.5,81.8333 55.8333,81.5 56.5,81.5 Z"/></g>
<g><path style="opacity:1" fill="#b8c4bd" d="M 100.5,82.5 C 100.842,83.3382 101.508,83.6716 102.5,83.5C 103.167,83.8333 103.833,84.1667 104.5,84.5C 105.609,84.5569 106.609,84.8902 107.5,85.5C 108.625,86.6522 108.625,87.6522 107.5,88.5C 105.228,87.6814 102.894,87.0147 100.5,86.5C 97.7131,85.5233 94.7131,85.19 91.5,85.5C 92.287,83.8958 93.6203,83.2291 95.5,83.5C 97.1172,82.962 98.7839,82.6287 100.5,82.5 Z"/></g>
<g><path style="opacity:1" fill="#f2be02" d="M 53.5,77.5 C 54.8333,77.5 56.1667,77.5 57.5,77.5C 57.5674,78.9587 57.2341,80.2921 56.5,81.5C 55.8333,81.5 55.5,81.8333 55.5,82.5C 54.8333,82.5 54.5,82.8333 54.5,83.5C 52.412,84.9395 50.0786,85.6061 47.5,85.5C 46.1807,90.4291 44.0141,91.0958 41,87.5C 40.6905,88.7659 40.1905,89.9326 39.5,91C 34.518,93.9126 29.1847,94.9126 23.5,94C 28.0589,91.7172 29.3923,88.2172 27.5,83.5C 28.1667,83.5 28.5,83.1667 28.5,82.5C 31.1192,82.0745 33.4525,81.0745 35.5,79.5C 36.391,78.8902 37.391,78.5569 38.5,78.5C 37.4019,79.397 37.4019,80.2303 38.5,81C 41.6123,82.3058 44.7789,83.4724 48,84.5C 50.8175,83.5666 51.9842,81.5666 51.5,78.5C 52.4916,78.6716 53.1583,78.3382 53.5,77.5 Z"/></g>
<g><path style="opacity:1" fill="#d2ab61" d="M 91.5,85.5 C 94.7131,85.19 97.7131,85.5233 100.5,86.5C 97.9556,86.1043 95.7889,86.771 94,88.5C 93.3021,87.3094 92.4687,86.3094 91.5,85.5 Z"/></g>
<g><path style="opacity:1" fill="#f99182" d="M 55.5,82.5 C 55.5,83.8333 55.5,85.1667 55.5,86.5C 57.1667,86.5 58.8333,86.5 60.5,86.5C 60.5,85.1667 60.5,83.8333 60.5,82.5C 61.1667,82.5 61.5,82.8333 61.5,83.5C 61.5,84.5 61.5,85.5 61.5,86.5C 59.5497,88.7528 57.2163,89.0861 54.5,87.5C 54.5,86.1667 54.5,84.8333 54.5,83.5C 54.5,82.8333 54.8333,82.5 55.5,82.5 Z"/></g>
<g><path style="opacity:1" fill="#f8ce0d" d="M 90.5,78.5 C 91.3149,79.4293 92.1482,80.4293 93,81.5C 93.7083,80.6195 94.5416,79.9528 95.5,79.5C 96.3764,79.3691 97.0431,79.7025 97.5,80.5C 96.3881,81.2652 95.7214,82.2652 95.5,83.5C 93.6203,83.2291 92.287,83.8958 91.5,85.5C 92.4687,86.3094 93.3021,87.3094 94,88.5C 95.7889,86.771 97.9556,86.1043 100.5,86.5C 102.894,87.0147 105.228,87.6814 107.5,88.5C 107.608,90.5138 106.942,92.1805 105.5,93.5C 100.136,93.663 95.4697,91.9963 91.5,88.5C 88.3681,89.4161 85.3681,88.9161 82.5,87C 81.5769,84.9592 81.2436,82.7925 81.5,80.5C 82.5,80.5 83.5,80.5 84.5,80.5C 85.2905,81.4013 86.2905,82.0679 87.5,82.5C 88.5,82.5 89.5,82.5 90.5,82.5C 90.5,81.1667 90.5,79.8333 90.5,78.5 Z"/></g>
<g><path style="opacity:1" fill="#dfbd7a" d="M 126.5,84.5 C 127.705,86.1376 129.038,86.4709 130.5,85.5C 130.833,88.5 129.5,89.8333 126.5,89.5C 127.206,87.521 127.206,85.8543 126.5,84.5 Z"/></g>
<g><path style="opacity:1" fill="#e58700" d="M 136.5,82.5 C 138.336,84.588 140.669,85.9213 143.5,86.5C 144.6,87.6049 145.267,88.9382 145.5,90.5C 143.192,90.0862 140.858,89.7529 138.5,89.5C 136.68,89.6493 135.18,90.3159 134,91.5C 133.5,90.3333 132.667,89.5 131.5,89C 132.793,88.51 134.127,88.3433 135.5,88.5C 135.205,86.2646 135.539,84.2646 136.5,82.5 Z"/></g>
<g><path style="opacity:1" fill="#d9a001" d="M 162.5,83.5 C 163.743,85.1639 165.41,86.3305 167.5,87C 166.376,87.8388 165.709,89.0055 165.5,90.5C 163.352,105.071 160.685,119.404 157.5,133.5C 158.021,129.519 158.354,125.519 158.5,121.5C 159.461,119.735 159.795,117.735 159.5,115.5C 161.207,106.771 162.874,97.9374 164.5,89C 164.272,88.6012 163.938,88.4346 163.5,88.5C 163.737,87.209 163.404,86.209 162.5,85.5C 162.5,84.8333 162.5,84.1667 162.5,83.5 Z"/></g>
<g><path style="opacity:1" fill="#e39800" d="M 122.5,88.5 C 122.389,89.1174 122.056,89.6174 121.5,90C 124.936,90.6958 127.603,92.5291 129.5,95.5C 125.126,97.3813 124.792,99.3813 128.5,101.5C 127.833,102.5 127.167,103.5 126.5,104.5C 122.589,106.268 120.922,104.935 121.5,100.5C 122.686,99.0387 122.686,97.7054 121.5,96.5C 122.263,95.7321 123.263,95.2321 124.5,95C 120.89,94.2616 117.557,93.0949 114.5,91.5C 115.833,91.5 117.167,91.5 118.5,91.5C 117.908,86.7376 115.408,85.4043 111,87.5C 110.517,88.448 110.351,89.448 110.5,90.5C 111.791,90.2627 112.791,90.596 113.5,91.5C 111.517,91.1568 110.183,91.8235 109.5,93.5C 109.5,94.1667 109.5,94.8333 109.5,95.5C 108.167,94.8333 106.833,94.1667 105.5,93.5C 106.942,92.1805 107.608,90.5138 107.5,88.5C 108.625,87.6522 108.625,86.6522 107.5,85.5C 109.604,85.7989 111.604,85.4656 113.5,84.5C 112.14,80.8169 109.474,79.1502 105.5,79.5C 104.5,79.5 103.5,79.5 102.5,79.5C 102.5,80.8333 102.5,82.1667 102.5,83.5C 101.508,83.6716 100.842,83.3382 100.5,82.5C 100.991,80.4107 100.991,78.4107 100.5,76.5C 103.481,76.8176 105.815,75.8176 107.5,73.5C 108.117,73.3893 108.617,73.056 109,72.5C 110.11,74.0368 111.61,74.7035 113.5,74.5C 113.838,76.854 114.338,79.1873 115,81.5C 117.124,82.6217 118.957,84.1217 120.5,86C 119.833,86.3333 119.167,86.6667 118.5,87C 120.058,87.21 121.391,87.71 122.5,88.5 Z"/></g>
<g><path style="opacity:1" fill="#c67e12" d="M 26.5,81.5 C 26.8417,82.3382 27.5084,82.6716 28.5,82.5C 28.5,83.1667 28.1667,83.5 27.5,83.5C 25.6943,84.0241 24.0276,84.6908 22.5,85.5C 18.4073,86.7131 14.7407,88.7131 11.5,91.5C 10.2638,90.7542 8.93047,90.4208 7.5,90.5C 9.75096,89.5894 11.751,88.256 13.5,86.5C 17.7568,85.0383 21.7568,83.0383 25.5,80.5C 26.1067,80.6236 26.44,80.9569 26.5,81.5 Z"/></g>
<g><path style="opacity:1" fill="#f8cf18" d="M 22.5,85.5 C 23.8333,85.5 25.1667,85.5 26.5,85.5C 26.2562,88.2626 24.9229,90.4293 22.5,92C 19.576,93.881 16.4094,95.0476 13,95.5C 11.3419,95.3248 10.0086,94.6582 9,93.5C 8.51722,94.448 8.35055,95.448 8.5,96.5C 5.72821,96.2413 3.39488,95.2413 1.5,93.5C 3.5168,92.4706 5.5168,91.4706 7.5,90.5C 8.93047,90.4208 10.2638,90.7542 11.5,91.5C 14.7407,88.7131 18.4073,86.7131 22.5,85.5 Z"/></g>
<g><path style="opacity:1" fill="#ecbe1c" d="M 114.5,91.5 C 114.167,91.5 113.833,91.5 113.5,91.5C 112.791,90.596 111.791,90.2627 110.5,90.5C 110.351,89.448 110.517,88.448 111,87.5C 115.408,85.4043 117.908,86.7376 118.5,91.5C 117.167,91.5 115.833,91.5 114.5,91.5 Z"/></g>
<g><path style="opacity:1" fill="#b66a00" d="M 163.5,88.5 C 163.938,88.4346 164.272,88.6012 164.5,89C 162.874,97.9374 161.207,106.771 159.5,115.5C 159.666,110.489 159.499,105.489 159,100.5C 158.738,104.464 158.072,108.464 157,112.5C 154.701,113.58 152.534,113.246 150.5,111.5C 150.5,110.833 150.5,110.167 150.5,109.5C 152.243,111.436 154.243,111.77 156.5,110.5C 155.66,109.265 154.66,108.265 153.5,107.5C 154.125,103.674 154.791,99.8408 155.5,96C 154.824,94.3167 153.824,94.1501 152.5,95.5C 151.458,94.2089 150.292,94.2089 149,95.5C 148.316,94.2161 148.483,93.0495 149.5,92C 154.288,91.1497 158.955,89.983 163.5,88.5 Z"/></g>
<g><path style="opacity:1" fill="#f1c231" d="M 162.5,81.5 C 165.539,82.01 168.539,82.6766 171.5,83.5C 172.097,83.7352 172.43,84.2352 172.5,85C 169.112,103.118 164.779,120.952 159.5,138.5C 158.482,139.193 157.482,139.859 156.5,140.5C 156.674,138.139 157.007,135.806 157.5,133.5C 160.685,119.404 163.352,105.071 165.5,90.5C 165.709,89.0055 166.376,87.8388 167.5,87C 165.41,86.3305 163.743,85.1639 162.5,83.5C 162.5,82.8333 162.5,82.1667 162.5,81.5 Z"/></g>
<g><path style="opacity:1" fill="#e07b00" d="M 113.5,91.5 C 113.833,91.5 114.167,91.5 114.5,91.5C 117.557,93.0949 120.89,94.2616 124.5,95C 123.263,95.2321 122.263,95.7321 121.5,96.5C 117.24,96.2975 113.24,95.2975 109.5,93.5C 110.183,91.8235 111.517,91.1568 113.5,91.5 Z"/></g>
<g><path style="opacity:1" fill="#f3be0e" d="M 141.5,80.5 C 139.219,80.0773 137.552,80.744 136.5,82.5C 135.539,84.2646 135.205,86.2646 135.5,88.5C 134.127,88.3433 132.793,88.51 131.5,89C 132.667,89.5 133.5,90.3333 134,91.5C 135.18,90.3159 136.68,89.6493 138.5,89.5C 140.858,89.7529 143.192,90.0862 145.5,90.5C 147.332,91.1405 147.665,92.1405 146.5,93.5C 142.969,95.5351 139.302,96.0351 135.5,95C 137.255,95.7199 138.089,96.8866 138,98.5C 135.37,98.8592 133.203,99.8592 131.5,101.5C 130.5,101.5 129.5,101.5 128.5,101.5C 124.792,99.3813 125.126,97.3813 129.5,95.5C 127.603,92.5291 124.936,90.6958 121.5,90C 122.056,89.6174 122.389,89.1174 122.5,88.5C 123.482,89.1408 124.482,89.8075 125.5,90.5C 126.107,90.3764 126.44,90.0431 126.5,89.5C 129.5,89.8333 130.833,88.5 130.5,85.5C 130.833,84.1667 131.167,82.8333 131.5,81.5C 133.28,80.0101 133.946,78.0101 133.5,75.5C 136.206,75.5751 138.873,75.9084 141.5,76.5C 141.5,77.8333 141.5,79.1667 141.5,80.5 Z"/></g>
<g><path style="opacity:1" fill="#f6ee98" d="M 1.5,93.5 C 3.39488,95.2413 5.72821,96.2413 8.5,96.5C 8.5,96.8333 8.5,97.1667 8.5,97.5C 5.30843,97.5955 2.30843,96.9288 -0.5,95.5C -0.5,95.1667 -0.5,94.8333 -0.5,94.5C 0.166667,94.1667 0.833333,93.8333 1.5,93.5 Z"/></g>
<g><path style="opacity:1" fill="#e98103" d="M 64.5,62.5 C 65.4674,63.8062 66.8007,64.4729 68.5,64.5C 69.2625,65.2679 70.2625,65.7679 71.5,66C 70.5,66.3333 69.5,66.6667 68.5,67C 69.3366,68.0113 69.67,69.1779 69.5,70.5C 70.8221,70.67 71.9887,70.3366 73,69.5C 73.2387,70.788 72.7387,71.788 71.5,72.5C 68.0791,72.2384 67.0791,73.5717 68.5,76.5C 73.4028,78.9842 78.4028,79.1508 83.5,77C 84.9423,76.6232 85.9423,75.7899 86.5,74.5C 86.8333,74.5 87.1667,74.5 87.5,74.5C 87.5449,77.0772 86.5449,79.0772 84.5,80.5C 83.5,80.5 82.5,80.5 81.5,80.5C 81.2436,82.7925 81.5769,84.9592 82.5,87C 85.3681,88.9161 88.3681,89.4161 91.5,88.5C 95.4697,91.9963 100.136,93.663 105.5,93.5C 106.833,94.1667 108.167,94.8333 109.5,95.5C 110.953,96.8249 110.619,97.6582 108.5,98C 110.329,98.2735 111.829,99.1068 113,100.5C 114.049,99.4829 115.216,99.3162 116.5,100C 115.756,101.039 114.756,101.539 113.5,101.5C 110.594,101.738 108.76,101.072 108,99.5C 105.527,99.6247 104.027,100.291 103.5,101.5C 103.44,102.043 103.107,102.376 102.5,102.5C 101.738,101.372 101.071,100.205 100.5,99C 106.795,97.205 106.295,96.0383 99,95.5C 94.6273,97.6342 90.1273,97.9675 85.5,96.5C 84.479,97.0016 84.3123,97.6683 85,98.5C 86.7189,99.8688 88.5522,100.869 90.5,101.5C 89.1667,102.167 87.8333,102.833 86.5,103.5C 85.791,102.596 84.791,102.263 83.5,102.5C 83.3713,100.784 83.038,99.1172 82.5,97.5C 83.0431,97.44 83.3764,97.1067 83.5,96.5C 77.3319,96.3273 71.6653,94.6606 66.5,91.5C 65.5,92 64.5,92.5 63.5,93C 64.7375,93.2321 65.7375,93.7321 66.5,94.5C 65.5028,94.4701 64.8361,94.9701 64.5,96C 65.7201,98.17 65.7201,100.337 64.5,102.5C 64.1583,103.338 63.4916,103.672 62.5,103.5C 50.6453,103.576 50.6453,104.243 62.5,105.5C 62.5,106.167 62.5,106.833 62.5,107.5C 61.4226,108.018 60.2559,108.352 59,108.5C 54.0469,107.254 49.2136,105.92 44.5,104.5C 42.4727,104.338 40.4727,104.505 38.5,105C 37.6198,106.356 37.2865,107.856 37.5,109.5C 36.9324,106.472 35.599,103.805 33.5,101.5C 33.5,100.833 33.8333,100.5 34.5,100.5C 38.8076,101.368 43.141,101.534 47.5,101C 44.7854,100.125 43.4521,98.2919 43.5,95.5C 44.3029,94.5768 44.4696,93.5768 44,92.5C 40.4676,93.8452 37.3009,95.5119 34.5,97.5C 32.0122,97.6833 30.0122,98.6833 28.5,100.5C 24.4576,101.45 20.4576,101.45 16.5,100.5C 15.791,99.596 14.791,99.2627 13.5,99.5C 11.7085,99.634 10.0418,99.3007 8.5,98.5C 8.5,98.1667 8.5,97.8333 8.5,97.5C 8.5,97.1667 8.5,96.8333 8.5,96.5C 8.35055,95.448 8.51722,94.448 9,93.5C 10.0086,94.6582 11.3419,95.3248 13,95.5C 16.4094,95.0476 19.576,93.881 22.5,92C 24.9229,90.4293 26.2562,88.2626 26.5,85.5C 25.1667,85.5 23.8333,85.5 22.5,85.5C 24.0276,84.6908 25.6943,84.0241 27.5,83.5C 29.3923,88.2172 28.0589,91.7172 23.5,94C 29.1847,94.9126 34.518,93.9126 39.5,91C 40.1905,89.9326 40.6905,88.7659 41,87.5C 44.0141,91.0958 46.1807,90.4291 47.5,85.5C 50.0786,85.6061 52.412,84.9395 54.5,83.5C 54.5,84.8333 54.5,86.1667 54.5,87.5C 52.4068,88.0447 50.4068,88.878 48.5,90C 53.5458,92.0154 58.5458,91.8487 63.5,89.5C 65.1515,86.2218 64.4848,85.2218 61.5,86.5C 61.5,85.5 61.5,84.5 61.5,83.5C 67.6099,85.0635 73.6099,84.7302 79.5,82.5C 74.3567,81.4096 69.3567,80.0762 64.5,78.5C 65.3379,75.3136 66.3379,72.1469 67.5,69C 67.0222,67.3576 66.0222,66.1909 64.5,65.5C 64.5,64.5 64.5,63.5 64.5,62.5 Z"/></g>
<g><path style="opacity:1" fill="#f8c100" d="M 86.5,91.5 C 96.8847,93.5319 96.8847,94.5319 86.5,94.5C 86.5,93.5 86.5,92.5 86.5,91.5 Z"/></g>
<g><path style="opacity:1" fill="#f6b701" d="M 54.5,87.5 C 57.2163,89.0861 59.5497,88.7528 61.5,86.5C 64.4848,85.2218 65.1515,86.2218 63.5,89.5C 58.5458,91.8487 53.5458,92.0154 48.5,90C 50.4068,88.878 52.4068,88.0447 54.5,87.5 Z"/></g>
<g><path style="opacity:1" fill="#f8cf12" d="M 66.5,85.5 C 72.5206,84.9649 78.1873,86.1316 83.5,89C 86.3282,91.8508 85.6615,93.3508 81.5,93.5C 76.4432,93.1895 71.7765,91.6895 67.5,89C 66.6634,87.9887 66.33,86.8221 66.5,85.5 Z"/></g>
<g><path style="opacity:1" fill="#fdd10b" d="M 45.5,93.5 C 51.6451,93.0604 57.3118,94.3937 62.5,97.5C 63.8899,99.4946 63.3899,100.828 61,101.5C 55.4607,101.289 50.4607,99.6224 46,96.5C 45.5172,95.552 45.3505,94.552 45.5,93.5 Z"/></g>
<g><path style="opacity:1" fill="#f9cc13" d="M 82.5,97.5 C 77.951,98.7633 73.2843,99.43 68.5,99.5C 66.744,98.4479 66.0773,96.7812 66.5,94.5C 65.7375,93.7321 64.7375,93.2321 63.5,93C 64.5,92.5 65.5,92 66.5,91.5C 71.6653,94.6606 77.3319,96.3273 83.5,96.5C 83.3764,97.1067 83.0431,97.44 82.5,97.5 Z"/></g>
<g><path style="opacity:1" fill="#dc7100" d="M 162.5,85.5 C 163.404,86.209 163.737,87.209 163.5,88.5C 158.955,89.983 154.288,91.1497 149.5,92C 148.483,93.0495 148.316,94.2161 149,95.5C 150.292,94.2089 151.458,94.2089 152.5,95.5C 151.518,96.1408 150.518,96.8075 149.5,97.5C 148.005,96.2947 146.672,96.2947 145.5,97.5C 143.735,98.4614 141.735,98.7947 139.5,98.5C 139.5,99.5 139.5,100.5 139.5,101.5C 137.167,101.5 134.833,101.5 132.5,101.5C 132.167,101.5 131.833,101.5 131.5,101.5C 133.203,99.8592 135.37,98.8592 138,98.5C 138.089,96.8866 137.255,95.7199 135.5,95C 139.302,96.0351 142.969,95.5351 146.5,93.5C 147.665,92.1405 147.332,91.1405 145.5,90.5C 145.267,88.9382 144.6,87.6049 143.5,86.5C 143.351,85.448 143.517,84.448 144,83.5C 144.5,85.3333 145.667,86.5 147.5,87C 152.775,87.9007 157.775,87.4007 162.5,85.5 Z"/></g>
<g><path style="opacity:1" fill="#f5c370" d="M 43.5,95.5 C 40.5257,95.6445 38.359,96.9778 37,99.5C 36.2917,98.6195 35.4584,97.9528 34.5,97.5C 37.3009,95.5119 40.4676,93.8452 44,92.5C 44.4696,93.5768 44.3029,94.5768 43.5,95.5 Z"/></g>
<g><path style="opacity:1" fill="#fbcf10" d="M 43.5,95.5 C 43.4521,98.2919 44.7854,100.125 47.5,101C 43.141,101.534 38.8076,101.368 34.5,100.5C 34.5,99.5 34.5,98.5 34.5,97.5C 35.4584,97.9528 36.2917,98.6195 37,99.5C 38.359,96.9778 40.5257,95.6445 43.5,95.5 Z"/></g>
<g><path style="opacity:1" fill="#ebd08f" d="M 66.5,94.5 C 66.0773,96.7812 66.744,98.4479 68.5,99.5C 68.5,100.167 68.5,100.833 68.5,101.5C 67.0413,101.433 65.7079,101.766 64.5,102.5C 65.7201,100.337 65.7201,98.17 64.5,96C 64.8361,94.9701 65.5028,94.4701 66.5,94.5 Z"/></g>
<g><path style="opacity:1" fill="#ebaf07" d="M 109.5,93.5 C 113.24,95.2975 117.24,96.2975 121.5,96.5C 122.686,97.7054 122.686,99.0387 121.5,100.5C 116.422,100.337 115.755,101.504 119.5,104C 117.478,106.363 115.145,106.863 112.5,105.5C 112.833,104.167 113.167,102.833 113.5,101.5C 114.756,101.539 115.756,101.039 116.5,100C 115.216,99.3162 114.049,99.4829 113,100.5C 111.829,99.1068 110.329,98.2735 108.5,98C 110.619,97.6582 110.953,96.8249 109.5,95.5C 109.5,94.8333 109.5,94.1667 109.5,93.5 Z"/></g>
<g><path style="opacity:1" fill="#ffd8a6" d="M 13.5,99.5 C 14.791,99.2627 15.791,99.596 16.5,100.5C 16.1788,102.048 15.1788,102.715 13.5,102.5C 13.5,101.5 13.5,100.5 13.5,99.5 Z"/></g>
<g><path style="opacity:1" fill="#fcd735" d="M 113.5,101.5 C 113.167,102.833 112.833,104.167 112.5,105.5C 111.292,106.234 109.959,106.567 108.5,106.5C 106.018,104.961 106.018,103.461 108.5,102C 106.866,101.506 105.199,101.34 103.5,101.5C 104.027,100.291 105.527,99.6247 108,99.5C 108.76,101.072 110.594,101.738 113.5,101.5 Z"/></g>
<g><path style="opacity:1" fill="#d67f05" d="M 145.5,97.5 C 146.239,97.369 146.906,97.5357 147.5,98C 144.978,100.09 142.312,101.924 139.5,103.5C 135.861,105.655 132.194,107.822 128.5,110C 125.174,110.172 121.841,110.005 118.5,109.5C 117.833,109.167 117.167,108.833 116.5,108.5C 114.738,108.357 113.071,108.691 111.5,109.5C 110.526,111.743 110.192,114.076 110.5,116.5C 109.909,113.301 108.909,110.134 107.5,107C 107.728,106.601 108.062,106.435 108.5,106.5C 109.959,106.567 111.292,106.234 112.5,105.5C 115.145,106.863 117.478,106.363 119.5,104C 115.755,101.504 116.422,100.337 121.5,100.5C 120.922,104.935 122.589,106.268 126.5,104.5C 126.369,105.376 126.702,106.043 127.5,106.5C 129.946,105.476 131.612,103.809 132.5,101.5C 134.833,101.5 137.167,101.5 139.5,101.5C 139.5,100.5 139.5,99.5 139.5,98.5C 141.735,98.7947 143.735,98.4614 145.5,97.5 Z"/></g>
<g><path style="opacity:1" fill="#5d9b3a" d="M 128.5,101.5 C 129.5,101.5 130.5,101.5 131.5,101.5C 131.833,101.5 132.167,101.5 132.5,101.5C 131.612,103.809 129.946,105.476 127.5,106.5C 126.702,106.043 126.369,105.376 126.5,104.5C 127.167,103.5 127.833,102.5 128.5,101.5 Z"/></g>
<g><path style="opacity:1" fill="#fcbf08" d="M 62.5,103.5 C 62.5,104.167 62.5,104.833 62.5,105.5C 50.6453,104.243 50.6453,103.576 62.5,103.5 Z"/></g>
<g><path style="opacity:1" fill="#97bed2" d="M 68.5,101.5 C 69.5,101.5 70.5,101.5 71.5,101.5C 71.4828,103.565 71.1495,105.565 70.5,107.5C 68.9606,105.018 67.4606,105.018 66,107.5C 64.5057,103.696 63.6724,104.029 63.5,108.5C 62.8333,108.5 62.5,108.167 62.5,107.5C 62.5,106.833 62.5,106.167 62.5,105.5C 62.5,104.833 62.5,104.167 62.5,103.5C 63.4916,103.672 64.1583,103.338 64.5,102.5C 65.7079,101.766 67.0413,101.433 68.5,101.5 Z"/></g>
<g><path style="opacity:1" fill="#9d5a00" d="M 153.5,107.5 C 151.821,107.285 150.821,107.952 150.5,109.5C 150.5,110.167 150.5,110.833 150.5,111.5C 147.777,119.552 143.11,126.218 136.5,131.5C 135.833,131.167 135.167,130.833 134.5,130.5C 134.758,124.25 131.924,121.917 126,123.5C 125.421,124.928 125.588,126.262 126.5,127.5C 124.667,137.985 123.333,148.651 122.5,159.5C 123.357,160.425 124.357,161.092 125.5,161.5C 123.909,163.633 121.909,165.299 119.5,166.5C 121.99,150.339 123.99,134.006 125.5,117.5C 125.449,115.9 125.116,114.4 124.5,113C 125.275,111.77 126.275,111.437 127.5,112C 126.549,115.057 126.216,118.223 126.5,121.5C 127.833,121.5 129.167,121.5 130.5,121.5C 130.351,120.448 130.517,119.448 131,118.5C 131.333,119.833 131.667,121.167 132,122.5C 132.333,122.167 132.667,121.833 133,121.5C 135.352,125.363 137.352,125.029 139,120.5C 139.981,114.76 140.147,109.094 139.5,103.5C 142.312,101.924 144.978,100.09 147.5,98C 146.906,97.5357 146.239,97.369 145.5,97.5C 146.672,96.2947 148.005,96.2947 149.5,97.5C 150.518,96.8075 151.518,96.1408 152.5,95.5C 153.824,94.1501 154.824,94.3167 155.5,96C 154.791,99.8408 154.125,103.674 153.5,107.5 Z"/></g>
<g><path style="opacity:1" fill="#4190d5" d="M 70.5,107.5 C 71.1667,108.5 71.8333,109.5 72.5,110.5C 71.4324,111.434 70.099,111.768 68.5,111.5C 66.0672,111.727 64.4006,110.727 63.5,108.5C 63.6724,104.029 64.5057,103.696 66,107.5C 67.4606,105.018 68.9606,105.018 70.5,107.5 Z"/></g>
<g><path style="opacity:1" fill="#ed9d06" d="M 82.5,97.5 C 83.038,99.1172 83.3713,100.784 83.5,102.5C 84.791,102.263 85.791,102.596 86.5,103.5C 84.9254,105.114 84.2587,107.114 84.5,109.5C 83.8333,108.167 83.1667,106.833 82.5,105.5C 83.0873,100.477 81.0873,98.8106 76.5,100.5C 75.5197,101.981 74.353,103.315 73,104.5C 72.3333,105.833 72.3333,107.167 73,108.5C 75.1203,109.605 77.2869,109.605 79.5,108.5C 79.1667,109.167 78.8333,109.833 78.5,110.5C 77.8333,110.5 77.1667,110.5 76.5,110.5C 75.1667,110.5 73.8333,110.5 72.5,110.5C 71.8333,109.5 71.1667,108.5 70.5,107.5C 71.1495,105.565 71.4828,103.565 71.5,101.5C 70.5,101.5 69.5,101.5 68.5,101.5C 68.5,100.833 68.5,100.167 68.5,99.5C 73.2843,99.43 77.951,98.7633 82.5,97.5 Z"/></g>
<g><path style="opacity:1" fill="#feda1f" d="M 82.5,105.5 C 81.1667,106.167 80.1667,107.167 79.5,108.5C 77.2869,109.605 75.1203,109.605 73,108.5C 72.3333,107.167 72.3333,105.833 73,104.5C 74.353,103.315 75.5197,101.981 76.5,100.5C 81.0873,98.8106 83.0873,100.477 82.5,105.5 Z"/></g>
<g><path style="opacity:1" fill="#fcca8e" d="M 34.5,97.5 C 34.5,98.5 34.5,99.5 34.5,100.5C 33.8333,100.5 33.5,100.833 33.5,101.5C 30.4103,106.009 27.0769,110.342 23.5,114.5C 21.1667,114.5 18.8333,114.5 16.5,114.5C 15.4443,111.388 14.111,108.388 12.5,105.5C 13.3202,103.889 14.6536,103.222 16.5,103.5C 15.3725,107.122 16.7059,109.788 20.5,111.5C 23.5207,109.786 25.8541,107.453 27.5,104.5C 28.4287,103.311 28.762,101.978 28.5,100.5C 30.0122,98.6833 32.0122,97.6833 34.5,97.5 Z"/></g>
<g><path style="opacity:1" fill="#fad822" d="M 90.5,101.5 C 91.5063,101.938 91.5063,102.604 90.5,103.5C 88.3311,105.34 86.9977,107.674 86.5,110.5C 85.5084,110.672 84.8417,110.338 84.5,109.5C 84.2587,107.114 84.9254,105.114 86.5,103.5C 87.8333,102.833 89.1667,102.167 90.5,101.5 Z"/></g>
<g><path style="opacity:1" fill="#c06e00" d="M 33.5,101.5 C 35.599,103.805 36.9324,106.472 37.5,109.5C 38.1143,113.135 38.4476,116.802 38.5,120.5C 39.287,122.104 40.6203,122.771 42.5,122.5C 43.3757,135.591 44.709,148.591 46.5,161.5C 40.4537,160.373 34.4537,159.04 28.5,157.5C 27.0048,157.011 25.6715,156.345 24.5,155.5C 25.8333,155.5 27.1667,155.5 28.5,155.5C 27.991,152.141 26.991,148.975 25.5,146C 25.8333,144.333 26.1667,142.667 26.5,141C 24.1981,132.092 23.1981,123.259 23.5,114.5C 27.0769,110.342 30.4103,106.009 33.5,101.5 Z"/></g>
<g><path style="opacity:1" fill="#eba500" d="M 153.5,107.5 C 154.66,108.265 155.66,109.265 156.5,110.5C 154.243,111.77 152.243,111.436 150.5,109.5C 150.821,107.952 151.821,107.285 153.5,107.5 Z"/></g>
<g><path style="opacity:1" fill="#fddc11" d="M 44.5,104.5 C 43.3915,105.29 42.0581,105.79 40.5,106C 43.1013,106.92 45.7679,107.587 48.5,108C 47.5838,108.374 46.7504,108.874 46,109.5C 45.502,112.482 45.3354,115.482 45.5,118.5C 43.1667,119.167 40.8333,119.833 38.5,120.5C 38.4476,116.802 38.1143,113.135 37.5,109.5C 37.2865,107.856 37.6198,106.356 38.5,105C 40.4727,104.505 42.4727,104.338 44.5,104.5 Z"/></g>
<g><path style="opacity:1" fill="#fb8a7c" d="M 116.5,108.5 C 117.167,108.833 117.833,109.167 118.5,109.5C 118.843,111.483 118.176,112.817 116.5,113.5C 116.5,111.833 116.5,110.167 116.5,108.5 Z"/></g>
<g><path style="opacity:1" fill="#e3800b" d="M 82.5,105.5 C 83.1667,106.833 83.8333,108.167 84.5,109.5C 84.8417,110.338 85.5084,110.672 86.5,110.5C 86.5,110.833 86.5,111.167 86.5,111.5C 85.2209,112.968 83.5542,113.635 81.5,113.5C 80.8333,112.167 79.8333,111.167 78.5,110.5C 78.8333,109.833 79.1667,109.167 79.5,108.5C 80.1667,107.167 81.1667,106.167 82.5,105.5 Z"/></g>
<g><path style="opacity:1" fill="#ffbeb8" d="M 116.5,108.5 C 116.5,110.167 116.5,111.833 116.5,113.5C 116.443,114.609 116.11,115.609 115.5,116.5C 113.833,116.5 112.167,116.5 110.5,116.5C 110.192,114.076 110.526,111.743 111.5,109.5C 113.071,108.691 114.738,108.357 116.5,108.5 Z"/></g>
<g><path style="opacity:1" fill="#b66900" d="M 139.5,103.5 C 140.147,109.094 139.981,114.76 139,120.5C 137.352,125.029 135.352,125.363 133,121.5C 132.667,121.833 132.333,122.167 132,122.5C 131.667,121.167 131.333,119.833 131,118.5C 130.517,119.448 130.351,120.448 130.5,121.5C 129.167,121.5 127.833,121.5 126.5,121.5C 126.216,118.223 126.549,115.057 127.5,112C 126.275,111.437 125.275,111.77 124.5,113C 125.116,114.4 125.449,115.9 125.5,117.5C 123.99,134.006 121.99,150.339 119.5,166.5C 116.167,168.833 112.833,171.167 109.5,173.5C 111.109,156.121 113.109,138.787 115.5,121.5C 116.234,120.122 116.901,118.622 117.5,117C 116.906,116.536 116.239,116.369 115.5,116.5C 116.11,115.609 116.443,114.609 116.5,113.5C 118.176,112.817 118.843,111.483 118.5,109.5C 121.841,110.005 125.174,110.172 128.5,110C 132.194,107.822 135.861,105.655 139.5,103.5 Z"/></g>
<g><path style="opacity:1" fill="#f7ab05" d="M 103.5,101.5 C 105.199,101.34 106.866,101.506 108.5,102C 106.018,103.461 106.018,104.961 108.5,106.5C 108.062,106.435 107.728,106.601 107.5,107C 108.909,110.134 109.909,113.301 110.5,116.5C 112.167,116.5 113.833,116.5 115.5,116.5C 116.239,116.369 116.906,116.536 117.5,117C 116.901,118.622 116.234,120.122 115.5,121.5C 115.5,120.167 115.5,118.833 115.5,117.5C 112.174,117.354 109.007,118.021 106,119.5C 104.175,119.057 102.342,118.723 100.5,118.5C 99.0003,116.821 97.167,115.488 95,114.5C 94.5172,113.552 94.3505,112.552 94.5,111.5C 92.5695,111.229 91.2362,110.229 90.5,108.5C 90.5,106.833 90.5,105.167 90.5,103.5C 91.5063,102.604 91.5063,101.938 90.5,101.5C 88.5522,100.869 86.7189,99.8688 85,98.5C 84.3123,97.6683 84.479,97.0016 85.5,96.5C 90.1273,97.9675 94.6273,97.6342 99,95.5C 106.295,96.0383 106.795,97.205 100.5,99C 101.071,100.205 101.738,101.372 102.5,102.5C 103.107,102.376 103.44,102.043 103.5,101.5 Z"/></g>
<g><path style="opacity:1" fill="#fce763" d="M 100.5,115.5 C 98.2459,114.585 96.2459,113.252 94.5,111.5C 94.1667,110.167 93.8333,108.833 93.5,107.5C 93.7828,106.711 94.2828,106.044 95,105.5C 95.0205,110.024 97.1872,113.024 101.5,114.5C 101.376,115.107 101.043,115.44 100.5,115.5 Z"/></g>
<g><path style="opacity:1" fill="#feda0c" d="M 100.5,115.5 C 101.043,115.44 101.376,115.107 101.5,114.5C 97.1872,113.024 95.0205,110.024 95,105.5C 94.2828,106.044 93.7828,106.711 93.5,107.5C 92.6621,104.622 93.9954,102.955 97.5,102.5C 104.314,103.796 107.481,107.796 107,114.5C 104.984,116.608 102.817,116.942 100.5,115.5 Z"/></g>
<g><path style="opacity:1" fill="#b66900" d="M 158.5,121.5 C 158.354,125.519 158.021,129.519 157.5,133.5C 157.007,135.806 156.674,138.139 156.5,140.5C 155.167,141.167 153.833,141.833 152.5,142.5C 150.414,141.852 149.414,140.352 149.5,138C 149.957,132.701 150.957,127.534 152.5,122.5C 153.324,125.785 153.824,129.118 154,132.5C 155.052,126.883 155.718,121.216 156,115.5C 156.037,117.974 156.87,119.974 158.5,121.5 Z"/></g>
<g><path style="opacity:1" fill="#f1c128" d="M 44.5,104.5 C 49.2136,105.92 54.0469,107.254 59,108.5C 60.2559,108.352 61.4226,108.018 62.5,107.5C 62.5,108.167 62.8333,108.5 63.5,108.5C 64.4006,110.727 66.0672,111.727 68.5,111.5C 66.6301,116.532 65.9634,121.865 66.5,127.5C 64.5,127.5 62.5,127.5 60.5,127.5C 54.5846,125.844 48.5846,124.177 42.5,122.5C 40.6203,122.771 39.287,122.104 38.5,120.5C 40.8333,119.833 43.1667,119.167 45.5,118.5C 45.3354,115.482 45.502,112.482 46,109.5C 46.7504,108.874 47.5838,108.374 48.5,108C 45.7679,107.587 43.1013,106.92 40.5,106C 42.0581,105.79 43.3915,105.29 44.5,104.5 Z"/></g>
<g><path style="opacity:1" fill="#abc4c8" d="M 90.5,103.5 C 90.5,105.167 90.5,106.833 90.5,108.5C 90.3413,114.124 88.508,119.124 85,123.5C 84.8306,129.859 84.3306,136.193 83.5,142.5C 82.7836,143.311 81.9503,143.978 81,144.5C 79.5603,143.852 78.0603,143.519 76.5,143.5C 74.5876,139.806 74.0876,135.806 75,131.5C 76.1903,128.079 78.0236,125.079 80.5,122.5C 79.3602,118.414 78.0268,114.414 76.5,110.5C 77.1667,110.5 77.8333,110.5 78.5,110.5C 79.8333,111.167 80.8333,112.167 81.5,113.5C 81.8567,115.589 82.5233,117.589 83.5,119.5C 85.9864,117.422 86.9864,114.755 86.5,111.5C 86.5,111.167 86.5,110.833 86.5,110.5C 86.9977,107.674 88.3311,105.34 90.5,103.5 Z"/></g>
<g><path style="opacity:1" fill="#ad711f" d="M 86.5,111.5 C 86.9864,114.755 85.9864,117.422 83.5,119.5C 82.5233,117.589 81.8567,115.589 81.5,113.5C 83.5542,113.635 85.2209,112.968 86.5,111.5 Z"/></g>
<g><path style="opacity:1" fill="#c47103" d="M 90.5,108.5 C 91.2362,110.229 92.5695,111.229 94.5,111.5C 94.3505,112.552 94.5172,113.552 95,114.5C 97.167,115.488 99.0003,116.821 100.5,118.5C 99.5041,118.414 98.6708,118.748 98,119.5C 97.5001,138.497 97.3334,157.497 97.5,176.5C 88.6932,174.007 80.0265,171.34 71.5,168.5C 73.861,168.674 76.1944,169.007 78.5,169.5C 79.0024,160.676 78.3357,152.009 76.5,143.5C 78.0603,143.519 79.5603,143.852 81,144.5C 81.9503,143.978 82.7836,143.311 83.5,142.5C 84.3306,136.193 84.8306,129.859 85,123.5C 88.508,119.124 90.3413,114.124 90.5,108.5 Z"/></g>
<g><path style="opacity:1" fill="#b57f00" d="M 150.5,111.5 C 150.721,112.735 151.388,113.735 152.5,114.5C 152.376,115.107 152.043,115.44 151.5,115.5C 149.328,122.195 145.328,127.695 139.5,132C 138.251,132.74 137.251,132.573 136.5,131.5C 143.11,126.218 147.777,119.552 150.5,111.5 Z"/></g>
<g><path style="opacity:1" fill="#c57001" d="M 42.5,122.5 C 48.5846,124.177 54.5846,125.844 60.5,127.5C 60.6156,140.257 61.6156,152.923 63.5,165.5C 65.0255,165.994 66.3588,166.661 67.5,167.5C 60.1835,166.258 53.1835,164.258 46.5,161.5C 44.709,148.591 43.3757,135.591 42.5,122.5 Z"/></g>
<g><path style="opacity:1" fill="#a35e01" d="M 159.5,115.5 C 159.795,117.735 159.461,119.735 158.5,121.5C 156.87,119.974 156.037,117.974 156,115.5C 155.718,121.216 155.052,126.883 154,132.5C 153.824,129.118 153.324,125.785 152.5,122.5C 150.957,127.534 149.957,132.701 149.5,138C 149.414,140.352 150.414,141.852 152.5,142.5C 149.833,144.833 147.167,147.167 144.5,149.5C 141.339,150.913 138.339,152.58 135.5,154.5C 135.767,148.162 136.1,141.829 136.5,135.5C 134.067,135.727 132.401,134.727 131.5,132.5C 133.167,133.167 134.833,133.833 136.5,134.5C 145.54,131.446 150.54,125.112 151.5,115.5C 152.043,115.44 152.376,115.107 152.5,114.5C 151.388,113.735 150.721,112.735 150.5,111.5C 152.534,113.246 154.701,113.58 157,112.5C 158.072,108.464 158.738,104.464 159,100.5C 159.499,105.489 159.666,110.489 159.5,115.5 Z"/></g>
<g><path style="opacity:1" fill="#b37f00" d="M 134.5,130.5 C 134.733,132.062 135.4,133.395 136.5,134.5C 134.833,133.833 133.167,133.167 131.5,132.5C 131.918,131.778 132.584,131.278 133.5,131C 130.596,130.867 128.262,129.7 126.5,127.5C 125.588,126.262 125.421,124.928 126,123.5C 131.924,121.917 134.758,124.25 134.5,130.5 Z"/></g>
<g><path style="opacity:1" fill="#e8a400" d="M 151.5,115.5 C 150.54,125.112 145.54,131.446 136.5,134.5C 135.4,133.395 134.733,132.062 134.5,130.5C 135.167,130.833 135.833,131.167 136.5,131.5C 137.251,132.573 138.251,132.74 139.5,132C 145.328,127.695 149.328,122.195 151.5,115.5 Z"/></g>
<g><path style="opacity:1" fill="#f4c829" d="M -0.5,95.5 C 2.30843,96.9288 5.30843,97.5955 8.5,97.5C 8.5,97.8333 8.5,98.1667 8.5,98.5C 7.53178,100.607 7.19845,102.941 7.5,105.5C 8.64433,116.226 10.311,126.893 12.5,137.5C 11.687,140.228 11.0204,142.561 10.5,144.5C 6.70846,132.879 3.04179,121.212 -0.5,109.5C -0.5,104.833 -0.5,100.167 -0.5,95.5 Z"/></g>
<g><path style="opacity:1" fill="#b26600" d="M 126.5,127.5 C 128.262,129.7 130.596,130.867 133.5,131C 132.584,131.278 131.918,131.778 131.5,132.5C 132.401,134.727 134.067,135.727 136.5,135.5C 136.1,141.829 135.767,148.162 135.5,154.5C 132.725,157.605 129.392,159.938 125.5,161.5C 124.357,161.092 123.357,160.425 122.5,159.5C 123.333,148.651 124.667,137.985 126.5,127.5 Z"/></g>
<g><path style="opacity:1" fill="#e1a90b" d="M 7.5,105.5 C 11.1289,121.258 14.1289,137.258 16.5,153.5C 15.0222,153.762 13.6888,153.429 12.5,152.5C 11.2147,149.979 10.5481,147.313 10.5,144.5C 11.0204,142.561 11.687,140.228 12.5,137.5C 10.311,126.893 8.64433,116.226 7.5,105.5 Z"/></g>
<g><path style="opacity:1" fill="#cd7401" d="M 72.5,110.5 C 73.8333,110.5 75.1667,110.5 76.5,110.5C 78.0268,114.414 79.3602,118.414 80.5,122.5C 78.0236,125.079 76.1903,128.079 75,131.5C 74.0876,135.806 74.5876,139.806 76.5,143.5C 78.3357,152.009 79.0024,160.676 78.5,169.5C 76.1944,169.007 73.861,168.674 71.5,168.5C 69.901,168.768 68.5676,168.434 67.5,167.5C 66.3588,166.661 65.0255,165.994 63.5,165.5C 61.6156,152.923 60.6156,140.257 60.5,127.5C 62.5,127.5 64.5,127.5 66.5,127.5C 65.9634,121.865 66.6301,116.532 68.5,111.5C 70.099,111.768 71.4324,111.434 72.5,110.5 Z"/></g>
<g><path style="opacity:1" fill="#eebe21" d="M 115.5,121.5 C 113.109,138.787 111.109,156.121 109.5,173.5C 108.027,175.395 106.36,177.061 104.5,178.5C 103.167,178.5 101.833,178.5 100.5,178.5C 99.8333,177.833 99.1667,177.167 98.5,176.5C 98.1667,176.5 97.8333,176.5 97.5,176.5C 97.3334,157.497 97.5001,138.497 98,119.5C 98.6708,118.748 99.5041,118.414 100.5,118.5C 102.342,118.723 104.175,119.057 106,119.5C 109.007,118.021 112.174,117.354 115.5,117.5C 115.5,118.833 115.5,120.167 115.5,121.5 Z"/></g>
<g><path style="opacity:1" fill="#ce7502" d="M 8.5,98.5 C 10.0418,99.3007 11.7085,99.634 13.5,99.5C 13.5,100.5 13.5,101.5 13.5,102.5C 15.1788,102.715 16.1788,102.048 16.5,100.5C 20.4576,101.45 24.4576,101.45 28.5,100.5C 28.762,101.978 28.4287,103.311 27.5,104.5C 25.8541,107.453 23.5207,109.786 20.5,111.5C 16.7059,109.788 15.3725,107.122 16.5,103.5C 14.6536,103.222 13.3202,103.889 12.5,105.5C 14.111,108.388 15.4443,111.388 16.5,114.5C 18.8333,114.5 21.1667,114.5 23.5,114.5C 23.1981,123.259 24.1981,132.092 26.5,141C 26.1667,142.667 25.8333,144.333 25.5,146C 26.991,148.975 27.991,152.141 28.5,155.5C 27.1667,155.5 25.8333,155.5 24.5,155.5C 21.6592,155.44 18.9925,154.774 16.5,153.5C 14.1289,137.258 11.1289,121.258 7.5,105.5C 7.19845,102.941 7.53178,100.607 8.5,98.5 Z"/></g>
<g><path style="opacity:1" fill="#f7f7f5" d="M -0.5,109.5 C 3.04179,121.212 6.70846,132.879 10.5,144.5C 10.5481,147.313 11.2147,149.979 12.5,152.5C 13.6888,153.429 15.0222,153.762 16.5,153.5C 18.9925,154.774 21.6592,155.44 24.5,155.5C 25.6715,156.345 27.0048,157.011 28.5,157.5C 28.5,159.833 28.5,162.167 28.5,164.5C 33.5,164.5 38.5,164.5 43.5,164.5C 43.5,169.167 43.5,173.833 43.5,178.5C 28.8333,178.5 14.1667,178.5 -0.5,178.5C -0.5,155.5 -0.5,132.5 -0.5,109.5 Z"/></g>
<g><path style="opacity:1" fill="#f4f4f3" d="M 175.5,75.5 C 175.5,109.833 175.5,144.167 175.5,178.5C 171.5,178.5 167.5,178.5 163.5,178.5C 163.5,173.833 163.5,169.167 163.5,164.5C 158.5,164.5 153.5,164.5 148.5,164.5C 148.5,159.5 148.5,154.5 148.5,149.5C 147.167,149.5 145.833,149.5 144.5,149.5C 147.167,147.167 149.833,144.833 152.5,142.5C 153.833,141.833 155.167,141.167 156.5,140.5C 157.482,139.859 158.482,139.193 159.5,138.5C 164.779,120.952 169.112,103.118 172.5,85C 172.43,84.2352 172.097,83.7352 171.5,83.5C 172.167,82.8333 172.833,82.1667 173.5,81.5C 173.595,79.2143 174.262,77.2143 175.5,75.5 Z"/></g>
<g><path style="opacity:1" fill="#bd7403" d="M 79.5,130.5 C 80.1174,130.611 80.6174,130.944 81,131.5C 81.9031,135.033 81.5697,138.367 80,141.5C 78.1805,137.941 78.0139,134.274 79.5,130.5 Z"/></g>
<g><path style="opacity:1" fill="#fddc0e" d="M 98.5,176.5 C 98.5,174.833 98.5,173.167 98.5,171.5C 102.738,171.114 103.404,169.448 100.5,166.5C 99.914,166.709 99.414,167.043 99,167.5C 98.3333,151.833 98.3333,136.167 99,120.5C 101.687,121.713 104.52,122.38 107.5,122.5C 106.243,140.847 104.743,159.181 103,177.5C 101.644,176.62 100.144,176.286 98.5,176.5 Z"/></g>
<g><path style="opacity:1" fill="#f8f7f7" d="M 144.5,149.5 C 145.833,149.5 147.167,149.5 148.5,149.5C 148.5,154.5 148.5,159.5 148.5,164.5C 153.5,164.5 158.5,164.5 163.5,164.5C 163.5,169.167 163.5,173.833 163.5,178.5C 143.833,178.5 124.167,178.5 104.5,178.5C 106.36,177.061 108.027,175.395 109.5,173.5C 112.833,171.167 116.167,168.833 119.5,166.5C 121.909,165.299 123.909,163.633 125.5,161.5C 129.392,159.938 132.725,157.605 135.5,154.5C 138.339,152.58 141.339,150.913 144.5,149.5 Z"/></g>
<g><path style="opacity:1" fill="#f2f1f0" d="M 28.5,157.5 C 34.4537,159.04 40.4537,160.373 46.5,161.5C 53.1835,164.258 60.1835,166.258 67.5,167.5C 68.5676,168.434 69.901,168.768 71.5,168.5C 80.0265,171.34 88.6932,174.007 97.5,176.5C 97.8333,176.5 98.1667,176.5 98.5,176.5C 99.1667,177.167 99.8333,177.833 100.5,178.5C 81.5,178.5 62.5,178.5 43.5,178.5C 43.5,173.833 43.5,169.167 43.5,164.5C 38.5,164.5 33.5,164.5 28.5,164.5C 28.5,162.167 28.5,159.833 28.5,157.5 Z"/></g>
</svg>
